0
SECTION
2
HEADER
9
$INSUNITS
70
4
9
$ACADVER
1
AC1014
9
$HANDSEED
5
FFFF
0
ENDSEC
0
SECTION
2
TABLES
0
TABLE
2
VPORT
5
8
100
AcDbSymbolTable
0
ENDTAB
0
TABLE
2
LTYPE
5
5
100
AcDbSymbolTable
0
LTYPE
5
14
100
AcDbSymbolTableRecord
100
AcDbLinetypeTableRecord
2
BYBLOCK
70
0
0
LTYPE
5
15
100
AcDbSymbolTableRecord
100
AcDbLinetypeTableRecord
2
BYLAYER
70
0
0
ENDTAB
0
TABLE
2
LAYER
5
2
100
AcDbSymbolTable
70
2
0
LAYER
5
50
100
AcDbSymbolTableRecord
100
AcDbLayerTableRecord
2
0
70
0
6
CONTINUOUS
0
ENDTAB
0
TABLE
2
STYLE
5
3
100
AcDbSymbolTable
70
1
0
STYLE
5
11
100
AcDbSymbolTableRecord
100
AcDbTextStyleTableRecord
2
STANDARD
70
0
0
ENDTAB
0
TABLE
2
VIEW
5
6
100
AcDbSymbolTable
70
0
0
ENDTAB
0
TABLE
2
UCS
5
7
100
AcDbSymbolTable
70
0
0
ENDTAB
0
TABLE
2
APPID
5
9
100
AcDbSymbolTable
70
2
0
APPID
5
12
100
AcDbSymbolTableRecord
100
AcDbRegAppTableRecord
2
ACAD
70
0
0
ENDTAB
0
TABLE
2
DIMSTYLE
5
A
100
AcDbSymbolTable
70
1
0
ENDTAB
0
TABLE
2
BLOCK_RECORD
5
1
100
AcDbSymbolTable
70
1
0
BLOCK_RECORD
5
1F
100
AcDbSymbolTableRecord
100
AcDbBlockTableRecord
2
*MODEL_SPACE
0
BLOCK_RECORD
5
1B
100
AcDbSymbolTableRecord
100
AcDbBlockTableRecord
2
*PAPER_SPACE
0
ENDTAB
0
ENDSEC
0
SECTION
2
BLOCKS
0
BLOCK
5
20
100
AcDbEntity
100
AcDbBlockBegin
2
*MODEL_SPACE
0
ENDBLK
5
21
100
AcDbEntity
100
AcDbBlockEnd
0
BLOCK
5
1C
100
AcDbEntity
100
AcDbBlockBegin
2
*PAPER_SPACE
0
ENDBLK
5
1D
100
AcDbEntity
100
AcDbBlockEnd
0
ENDSEC
0
SECTION
2
ENTITIES
0
LWPOLYLINE
5
100
100
AcDbEntity
8
0
100
AcDbPolyline
90
16
70
1
43
0.0
10
-2781.3702277289131
20
640.24812398204563
10
-708.09522772891137
20
640.2481239820454
10
-815.42172204346332
20
222.82504889137863
10
-896.29684799184645
20
-420.10824002966734
10
-914.88975852177373
20
-618.23775241494059
10
-1173.4630542554125
20
-576.00209528208677
10
-1146.5788873362681
20
-376.80811553103206
10
-1371.9989576807534
20
109.48582015590128
10
-1985.7103487175573
20
241.50450559118806
10
-1998.3286134341929
20
182.84634848119097
10
-2022.7695122300245
20
188.10395877978885
10
-2141.4352989677341
20
73.459154894395255
10
-2183.1243219870166
20
116.61034676319275
10
-2391.4725682214421
20
-84.678032019542798
10
-2822.820226747524
20
24.702942030179535
10
-2833.8809005020557
20
52.589524755494423
0
LINE
5
101
100
AcDbEntity
8
0
100
AcDbLine
10
-9.5464110374450684
20
1000
30
0
11
-276.84592008590698
21
1000
31
0
0
LWPOLYLINE
5
102
100
AcDbEntity
8
0
100
AcDbPolyline
90
16
70
1
43
0.0
10
-2781.3702277289131
20
1359.7518760179546
10
-708.0952277289116
20
1359.7518760179546
10
-815.42172204346343
20
1777.1749511086214
10
-896.29684799184656
20
2420.1082400296673
10
-914.88975852177373
20
2618.2377524149406
10
-1173.4630542554128
20
2576.0020952820869
10
-1146.5788873362683
20
2376.8081155310319
10
-1371.9989576807534
20
1890.5141798440986
10
-1985.7103487175575
20
1758.495494408812
10
-1998.3286134341934
20
1817.1536515188091
10
-2022.7695122300242
20
1811.8960412202111
10
-2141.4352989677345
20
1926.5408451056051
10
-2183.1243219870162
20
1883.3896532368071
10
-2391.4725682214416
20
2084.6780320195426
10
-2822.820226747524
20
1975.2970579698206
10
-2833.8809005020557
20
1947.4104752445055
0
ENDSEC
0
SECTION
2
OBJECTS
0
DICTIONARY
5
C
100
AcDbDictionary
3
ACAD_GROUP
350
D
3
ACAD_MLINESTYLE
350
17
0
DICTIONARY
5
D
100
AcDbDictionary
0
DICTIONARY
5
1A
330
C
100
AcDbDictionary
0
DICTIONARY
5
17
100
AcDbDictionary
0
ENDSEC
0
EOF
