0
SECTION
2
HEADER
9
$INSUNITS
70
4
9
$ACADVER
1
AC1014
9
$HANDSEED
5
FFFF
0
ENDSEC
0
SECTION
2
TABLES
0
TABLE
2
VPORT
5
8
100
AcDbSymbolTable
0
ENDTAB
0
TABLE
2
LTYPE
5
5
100
AcDbSymbolTable
0
LTYPE
5
14
100
AcDbSymbolTableRecord
100
AcDbLinetypeTableRecord
2
BYBLOCK
70
0
0
LTYPE
5
15
100
AcDbSymbolTableRecord
100
AcDbLinetypeTableRecord
2
BYLAYER
70
0
0
ENDTAB
0
TABLE
2
LAYER
5
2
100
AcDbSymbolTable
70
2
0
LAYER
5
50
100
AcDbSymbolTableRecord
100
AcDbLayerTableRecord
2
0
70
0
6
CONTINUOUS
0
ENDTAB
0
TABLE
2
STYLE
5
3
100
AcDbSymbolTable
70
1
0
STYLE
5
11
100
AcDbSymbolTableRecord
100
AcDbTextStyleTableRecord
2
STANDARD
70
0
0
ENDTAB
0
TABLE
2
VIEW
5
6
100
AcDbSymbolTable
70
0
0
ENDTAB
0
TABLE
2
UCS
5
7
100
AcDbSymbolTable
70
0
0
ENDTAB
0
TABLE
2
APPID
5
9
100
AcDbSymbolTable
70
2
0
APPID
5
12
100
AcDbSymbolTableRecord
100
AcDbRegAppTableRecord
2
ACAD
70
0
0
ENDTAB
0
TABLE
2
DIMSTYLE
5
A
100
AcDbSymbolTable
70
1
0
ENDTAB
0
TABLE
2
BLOCK_RECORD
5
1
100
AcDbSymbolTable
70
1
0
BLOCK_RECORD
5
1F
100
AcDbSymbolTableRecord
100
AcDbBlockTableRecord
2
*MODEL_SPACE
0
BLOCK_RECORD
5
1B
100
AcDbSymbolTableRecord
100
AcDbBlockTableRecord
2
*PAPER_SPACE
0
ENDTAB
0
ENDSEC
0
SECTION
2
BLOCKS
0
BLOCK
5
20
100
AcDbEntity
100
AcDbBlockBegin
2
*MODEL_SPACE
0
ENDBLK
5
21
100
AcDbEntity
100
AcDbBlockEnd
0
BLOCK
5
1C
100
AcDbEntity
100
AcDbBlockBegin
2
*PAPER_SPACE
0
ENDBLK
5
1D
100
AcDbEntity
100
AcDbBlockEnd
0
ENDSEC
0
SECTION
2
ENTITIES
0
LWPOLYLINE
5
100
100
AcDbEntity
8
0
100
AcDbPolyline
90
16
70
1
43
0.0
10
-2835.5180222332142
20
311.50785289745227
10
-793.55190769098272
20
670.45577765294411
10
-826.9888217685027
20
240.75475045266913
10
-815.81941616275913
20
-407.53892081983861
10
-806.41336018497771
20
-606.31650031748381
10
-1068.3552669065548
20
-600.79948091709878
10
-1069.7016149204858
20
-399.80399005467882
10
-1355.5385676290116
20
32.766370607086557
10
-1982.7925096068145
20
51.951375593928411
10
-1984.6267942256757
20
-8.0205795179132675
10
-2009.6151088556103
20
-7.2562942600544211
10
-2107.5842229701275
20
-140.02320534717987
10
-2155.863099729082
20
-104.39807294190106
10
-2326.0011717665229
20
-334.96774264745454
10
-2769.7721987360642
20
-301.91814927027241
10
-2785.4938719383813
20
-276.36763084657832
0
LINE
5
101
100
AcDbEntity
8
0
100
AcDbLine
10
-9.5464110374450684
20
1000
30
0
11
-276.84592008590698
21
1000
31
0
0
LWPOLYLINE
5
102
100
AcDbEntity
8
0
100
AcDbPolyline
90
16
70
1
43
0.0
10
-2835.5180222332142
20
1688.4921471025477
10
-793.55190769098272
20
1329.5442223470559
10
-826.9888217685027
20
1759.245249547331
10
-815.81941616275913
20
2407.5389208198385
10
-806.41336018497771
20
2606.316500317484
10
-1068.3552669065548
20
2600.7994809170987
10
-1069.7016149204858
20
2399.8039900546787
10
-1355.5385676290116
20
1967.2336293929134
10
-1982.7925096068145
20
1948.0486244060717
10
-1984.6267942256757
20
2008.0205795179131
10
-2009.6151088556103
20
2007.2562942600543
10
-2107.5842229701275
20
2140.0232053471796
10
-2155.863099729082
20
2104.3980729419009
10
-2326.0011717665229
20
2334.9677426474545
10
-2769.7721987360642
20
2301.9181492702724
10
-2785.4938719383813
20
2276.3676308465783
0
ENDSEC
0
SECTION
2
OBJECTS
0
DICTIONARY
5
C
100
AcDbDictionary
3
ACAD_GROUP
350
D
3
ACAD_MLINESTYLE
350
17
0
DICTIONARY
5
D
100
AcDbDictionary
0
DICTIONARY
5
1A
330
C
100
AcDbDictionary
0
DICTIONARY
5
17
100
AcDbDictionary
0
ENDSEC
0
EOF
