0
SECTION
2
HEADER
9
$INSUNITS
70
4
9
$ACADVER
1
AC1014
9
$HANDSEED
5
FFFF
0
ENDSEC
0
SECTION
2
TABLES
0
TABLE
2
VPORT
5
8
100
AcDbSymbolTable
0
ENDTAB
0
TABLE
2
LTYPE
5
5
100
AcDbSymbolTable
0
LTYPE
5
14
100
AcDbSymbolTableRecord
100
AcDbLinetypeTableRecord
2
BYBLOCK
70
0
0
LTYPE
5
15
100
AcDbSymbolTableRecord
100
AcDbLinetypeTableRecord
2
BYLAYER
70
0
0
ENDTAB
0
TABLE
2
LAYER
5
2
100
AcDbSymbolTable
70
2
0
LAYER
5
50
100
AcDbSymbolTableRecord
100
AcDbLayerTableRecord
2
0
70
0
6
CONTINUOUS
0
ENDTAB
0
TABLE
2
STYLE
5
3
100
AcDbSymbolTable
70
1
0
STYLE
5
11
100
AcDbSymbolTableRecord
100
AcDbTextStyleTableRecord
2
STANDARD
70
0
0
ENDTAB
0
TABLE
2
VIEW
5
6
100
AcDbSymbolTable
70
0
0
ENDTAB
0
TABLE
2
UCS
5
7
100
AcDbSymbolTable
70
0
0
ENDTAB
0
TABLE
2
APPID
5
9
100
AcDbSymbolTable
70
2
0
APPID
5
12
100
AcDbSymbolTableRecord
100
AcDbRegAppTableRecord
2
ACAD
70
0
0
ENDTAB
0
TABLE
2
DIMSTYLE
5
A
100
AcDbSymbolTable
70
1
0
ENDTAB
0
TABLE
2
BLOCK_RECORD
5
1
100
AcDbSymbolTable
70
1
0
BLOCK_RECORD
5
1F
100
AcDbSymbolTableRecord
100
AcDbBlockTableRecord
2
*MODEL_SPACE
0
BLOCK_RECORD
5
1B
100
AcDbSymbolTableRecord
100
AcDbBlockTableRecord
2
*PAPER_SPACE
0
ENDTAB
0
ENDSEC
0
SECTION
2
BLOCKS
0
BLOCK
5
20
100
AcDbEntity
100
AcDbBlockBegin
2
*MODEL_SPACE
0
ENDBLK
5
21
100
AcDbEntity
100
AcDbBlockEnd
0
BLOCK
5
1C
100
AcDbEntity
100
AcDbBlockBegin
2
*PAPER_SPACE
0
ENDBLK
5
1D
100
AcDbEntity
100
AcDbBlockEnd
0
ENDSEC
0
SECTION
2
ENTITIES
0
LWPOLYLINE
5
100
100
AcDbEntity
8
0
100
AcDbPolyline
90
53
70
1
43
0.0
10
-2822.820226747524
20
24.702942030179535
10
-2822.6035944787504
20
8.6028377135757381
42
0.33945425886341163
10
-2818.0789371930978
20
2.8676389201586012
10
-2388.8288532433471
20
-105.98143297183562
42
0.25974326845775986
10
-2383.1851516337692
20
-104.48062900382575
10
-2169.2279821221205
20
102.22661503740979
10
-2145.604200938807
20
77.774273738815566
42
0.4142135391283277
10
-2137.1201797924587
20
77.628056523008894
10
-2025.0712892006268
20
185.88017737962906
42
-0.25003641175515512
10
-2019.6405607694944
20
187.43087357289372
10
-2004.1944291451923
20
184.10817495285443
42
0.41421356237311296
10
-1997.0667869625297
20
188.71216419219041
10
-1989.9164369564364
20
221.95178655452304
10
-1388.8754545805768
20
92.658699372382102
42
-0.23542209616884743
10
-1384.6936922199238
20
89.316242657776215
10
-1169.5524836517236
20
-374.80332257521809
42
0.31529878887896678
10
-1163.5995300235372
20
-378.25830344075371
10
-1146.5788873362681
20
-376.80811553103194
10
-1163.268222791809
20
-380.45110942529448
42
0.31529878887897861
10
-1167.9347445684325
20
-385.51056830830271
10
-1191.9507860850608
20
-563.4536268360813
42
0.33945425886338115
10
-1188.3188256977107
20
-569.79191465672602
10
-1173.4630542554125
20
-576.00209528208677
10
-1172.6832922900649
20
-583.78247063835386
42
0.33945425886332786
10
-1167.6804290918965
20
-589.10566409463877
10
-924.54129884249824
20
-628.82028702837079
42
0.33945425886338998
10
-918.10465252901167
20
-625.36563610712062
10
-914.88975852177362
20
-618.23775241494059
10
-907.18079619378557
20
-616.9284895564324
42
0.33945425886333569
10
-902.21167477720746
20
-611.57378498008768
10
-884.36703644404565
20
-421.41800028193217
10
-804.49146221314459
20
213.56914864079627
42
0.3394542588633655
10
-808.18044865907041
20
219.87441689475628
10
-815.42172204346343
20
222.82504889137869
10
-807.60277130581073
20
222.90428757622192
42
0.3394542588633625
10
-801.85257920239394
20
227.40987516569578
10
-697.96734388853849
20
631.44892123884676
42
0.41421356237307905
10
-702.28423364412265
20
638.7540196528405
10
-708.09522772891137
20
640.2481239820454
10
-712.26261854766926
20
655.80103825264064
42
0.33945425886335207
10
-718.05817350540337
20
660.24812398202471
10
-2771.4072819524226
20
660.24812398202482
42
0.3394542588633167
10
-2777.2028369101572
20
655.80103825264018
10
-2781.3702277289131
20
640.24812398204563
10
-2830.1757724104409
20
644.60917985642425
42
0.41421356237304796
10
-2836.6859683968787
20
639.16699755350817
10
-2887.745044717105
20
67.753536564813146
42
0.38887873185299532
10
-2882.8216895606397
20
61.312623545258099
10
-2833.8809005020557
20
52.589524755494423
10
-2846.9122807738408
20
46.053994341643843
42
0.38887873185299593
10
-2849.7997852425624
20
38.478566666239679
10
-2844.0834523074363
20
24.066335113391016
42
0.38887873185299654
10
-2836.7885140180797
20
20.529576445252992
0
LINE
5
101
100
AcDbEntity
8
0
100
AcDbLine
10
-9.546411037444777
20
999.99999999999989
30
0
11
-276.84592008590676
21
999.99999999999989
31
0
0
LWPOLYLINE
5
102
100
AcDbEntity
8
0
100
AcDbPolyline
90
53
70
1
43
0.0
10
-718.05817350540337
20
1339.7518760179751
10
-2771.4072819524226
20
1339.7518760179746
42
-0.3394542588633167
10
-2777.2028369101572
20
1344.1989617473596
10
-2781.3702277289131
20
1359.7518760179541
10
-2830.1757724104409
20
1355.3908201435752
42
-0.41421356237304097
10
-2836.6859683968787
20
1360.8330024464913
10
-2887.745044717105
20
1932.2464634351866
42
-0.38887873185299149
10
-2882.8216895606397
20
1938.6873764547413
10
-2833.8809005020557
20
1947.4104752445055
10
-2846.9122807738408
20
1953.9460056583562
42
-0.38887873185298943
10
-2849.7997852425624
20
1961.5214333337599
10
-2844.0834523074363
20
1975.9336648866088
42
-0.38887873185300353
10
-2836.7885140180797
20
1979.4704235547467
10
-2822.820226747524
20
1975.2970579698199
10
-2822.6035944787504
20
1991.3971622864237
42
-0.33945425886342517
10
-2818.0789371930978
20
1997.1323610798413
10
-2388.8288532433471
20
2105.9814329718356
42
-0.25974326845776124
10
-2383.1851516337692
20
2104.4806290038255
10
-2169.2279821221205
20
1897.7733849625902
10
-2145.604200938807
20
1922.2257262611843
42
-0.41421353912832826
10
-2137.1201797924587
20
1922.3719434769907
10
-2025.0712892006268
20
1814.1198226203705
42
0.25003641175514468
10
-2019.6405607694944
20
1812.5691264271061
10
-2004.1944291451923
20
1815.8918250471449
42
-0.41421356237310569
10
-1997.0667869625297
20
1811.2878358078092
10
-1989.9164369564364
20
1778.0482134454769
10
-1388.8754545805768
20
1907.3413006276176
42
0.23542209616884022
10
-1384.6936922199238
20
1910.6837573422235
10
-1169.5524836517238
20
2374.8033225752179
42
-0.31529878887894414
10
-1163.5995300235372
20
2378.2583034407535
10
-1146.5788873362681
20
2376.8081155310319
10
-1163.268222791809
20
2380.4511094252944
42
-0.3152987888789866
10
-1167.9347445684325
20
2385.5105683083025
10
-1191.9507860850613
20
2563.4536268360812
42
-0.33945425886336145
10
-1188.3188256977107
20
2569.7919146567256
10
-1173.4630542554125
20
2576.0020952820869
10
-1172.6832922900646
20
2583.7824706383535
42
-0.33945425886333008
10
-1167.6804290918965
20
2589.1056640946385
10
-924.54129884249824
20
2628.8202870283703
42
-0.3394542588633821
10
-918.10465252901167
20
2625.3656361071207
10
-914.88975852177362
20
2618.2377524149406
10
-907.18079619378557
20
2616.9284895564324
42
-0.3394542588633182
10
-902.21167477720746
20
2611.5737849800876
10
-884.36703644404565
20
2421.4180002819321
10
-804.49146221314447
20
1786.4308513592032
42
-0.33945425886335207
10
-808.18044865907041
20
1780.1255831052435
10
-815.42172204346343
20
1777.1749511086209
10
-807.60277130581073
20
1777.0957124237775
42
-0.33945425886335123
10
-801.85257920239394
20
1772.5901248343041
10
-697.96734388853861
20
1368.5510787611531
42
-0.4142135623730866
10
-702.28423364412265
20
1361.2459803471593
10
-708.09522772891137
20
1359.7518760179541
10
-712.26261854766926
20
1344.1989617473591
42
-0.33945425886335845
0
ENDSEC
0
SECTION
2
OBJECTS
0
DICTIONARY
5
C
100
AcDbDictionary
3
ACAD_GROUP
350
D
3
ACAD_MLINESTYLE
350
17
0
DICTIONARY
5
D
100
AcDbDictionary
0
DICTIONARY
5
1A
330
C
100
AcDbDictionary
0
DICTIONARY
5
17
100
AcDbDictionary
0
ENDSEC
0
EOF
