0
SECTION
2
HEADER
9
$INSUNITS
70
4
9
$ACADVER
1
AC1014
9
$HANDSEED
5
FFFF
0
ENDSEC
0
SECTION
2
TABLES
0
TABLE
2
VPORT
5
8
100
AcDbSymbolTable
0
ENDTAB
0
TABLE
2
LTYPE
5
5
100
AcDbSymbolTable
0
LTYPE
5
14
100
AcDbSymbolTableRecord
100
AcDbLinetypeTableRecord
2
BYBLOCK
70
0
0
LTYPE
5
15
100
AcDbSymbolTableRecord
100
AcDbLinetypeTableRecord
2
BYLAYER
70
0
0
LTYPE
5
16
100
AcDbSymbolTableRecord
100
AcDbLinetypeTableRecord
2
DASHED
70
0
3
Dashed __ __ __ __ __ __ __ __ __ __ __ __ __ _
72
65
73
2
40
0.75
49
0.5
74
0
49
-0.25
74
0
0
ENDTAB
0
TABLE
2
LAYER
5
2
100
AcDbSymbolTable
70
3
0
LAYER
5
50
100
AcDbSymbolTableRecord
100
AcDbLayerTableRecord
2
1
70
0
62
7
6
DASHED
0
LAYER
5
51
100
AcDbSymbolTableRecord
100
AcDbLayerTableRecord
2
0
70
0
62
7
6
CONTINUOUS
0
ENDTAB
0
TABLE
2
STYLE
5
3
100
AcDbSymbolTable
70
1
0
STYLE
5
11
100
AcDbSymbolTableRecord
100
AcDbTextStyleTableRecord
2
STANDARD
70
0
0
ENDTAB
0
TABLE
2
VIEW
5
6
100
AcDbSymbolTable
70
0
0
ENDTAB
0
TABLE
2
UCS
5
7
100
AcDbSymbolTable
70
0
0
ENDTAB
0
TABLE
2
APPID
5
9
100
AcDbSymbolTable
70
2
0
APPID
5
12
100
AcDbSymbolTableRecord
100
AcDbRegAppTableRecord
2
ACAD
70
0
0
ENDTAB
0
TABLE
2
DIMSTYLE
5
A
100
AcDbSymbolTable
70
1
0
ENDTAB
0
TABLE
2
BLOCK_RECORD
5
1
100
AcDbSymbolTable
70
1
0
BLOCK_RECORD
5
1F
100
AcDbSymbolTableRecord
100
AcDbBlockTableRecord
2
*MODEL_SPACE
0
BLOCK_RECORD
5
1B
100
AcDbSymbolTableRecord
100
AcDbBlockTableRecord
2
*PAPER_SPACE
0
ENDTAB
0
ENDSEC
0
SECTION
2
BLOCKS
0
BLOCK
5
20
100
AcDbEntity
100
AcDbBlockBegin
2
*MODEL_SPACE
0
ENDBLK
5
21
100
AcDbEntity
100
AcDbBlockEnd
0
BLOCK
5
1C
100
AcDbEntity
100
AcDbBlockBegin
2
*PAPER_SPACE
0
ENDBLK
5
1D
100
AcDbEntity
100
AcDbBlockEnd
0
ENDSEC
0
SECTION
2
ENTITIES
0
LINE
5
100
100
AcDbEntity
8
0
100
AcDbLine
10
206.62909904349559
20
-601.41489340512624
30
0
11
1292.6190211366802
21
-606.09347353571582
31
0
0
LWPOLYLINE
5
101
100
AcDbEntity
8
0
100
AcDbPolyline
90
29
70
1
43
0.0
10
207.61792607804679
20
-414.91751481471351
10
206.62909904349559
20
-601.41489340512624
10
208.81574287177759
20
-609.71848593376899
42
0.33945425886336117
10
213.62936183287661
20
-613.44516277006994
10
1285.5153643112635
20
-618.06298145459925
42
0.33945425886336561
10
1290.3609139766795
20
-614.37791752233625
10
1292.6190211366802
20
-606.09347353571582
10
1301.0151606043246
20
-604.29461218659799
42
0.33945425886337899
10
1304.961253152364
20
-599.65916168560204
10
1313.1218543799596
20
-438.97029724966643
42
0.33945425886336872
10
1309.6656769297329
20
-433.95892167230079
10
1301.4949761824764
20
-431.31871156470055
10
1308.4206395871549
20
141.63943279351093
10
1314.9607125090347
20
146.22871300767687
42
0.36397023426619851
10
1316.6180842345893
20
152.43924519743211
10
1282.0421184109291
20
226.39213117737324
42
0.33945425886337427
10
1276.6394963040514
20
229.19761190536764
10
1268.1847815122912
20
227.69799265236614
10
1265.9692170730939
20
284.65491737813971
10
1155.0689265952403
20
290.82914152404919
10
178.15538332738794
20
345.21748587666968
10
177.7662703375492
20
338.22830916684632
10
171.77554744341481
20
338.56183458670847
10
163.36629863200415
20
336.82528785793119
42
0.33945425886348984
10
159.3859384340517
20
332.21922875719747
10
157.41574551342481
20
298.3805861649127
42
0.33945425886325081
10
160.83466393063719
20
293.34371763364265
10
168.98556039245793
20
290.6429868099151
10
203.51774990286293
20
201.06883938065764
0
LINE
5
102
100
AcDbEntity
8
0
100
AcDbLine
10
1292.6190211366802
20
-606.09347353571582
30
0
11
1301.4949761824764
21
-431.31871156470055
31
0
0
LINE
5
103
100
AcDbEntity
8
0
100
AcDbLine
10
168.98556039245793
20
290.6429868099151
30
0
11
171.77554744341481
21
338.56183458670847
31
0
0
LINE
5
104
100
AcDbEntity
8
0
100
AcDbLine
10
1308.4206395871549
20
141.63943279351093
30
0
11
1268.1847815122912
21
227.69799265236614
31
0
0
LINE
5
105
100
AcDbEntity
8
0
100
AcDbLine
10
1240.0094178651782
20
286.10019419754178
30
0
11
1236.0480593477932
21
245.29201317097505
31
0
0
LINE
5
106
100
AcDbEntity
8
0
100
AcDbLine
10
1236.0480593477932
20
245.29201317097505
30
0
11
1151.4457328293142
21
253.50458570707329
31
0
0
LINE
5
107
100
AcDbEntity
8
0
100
AcDbLine
10
1151.4457328293142
20
253.50458570707329
30
0
11
1155.0689265952403
21
290.82914152404919
31
0
0
LINE
5
108
100
AcDbEntity
8
0
100
AcDbLine
10
1240.0094178652059
20
286.10019419753547
30
0
11
1265.9692170730939
21
284.65491737813971
31
0
0
LINE
5
109
100
AcDbEntity
8
0
100
AcDbLine
10
-9.5464110374450684
20
1000
30
0
11
-276.84592008590698
21
1000
31
0
0
LINE
5
110
100
AcDbEntity
8
0
100
AcDbLine
10
160.32547813398071
20
279.74647198223261
30
0
11
189.78429530417026
21
203.33230683097895
31
0
0
LINE
5
111
100
AcDbEntity
8
0
100
AcDbLine
10
195.57125270749231
20
-407.94551934593494
30
0
11
191.56495492812945
21
193.93709678817046
31
0
0
LINE
5
112
100
AcDbEntity
8
0
100
AcDbLine
10
195.58070475741579
20
-421.90581668221876
30
0
11
194.6666577037185
21
-594.29934301843161
31
0
0
LINE
5
113
100
AcDbEntity
8
0
100
AcDbLine
10
1313.5793351449454
20
-424.41224151266346
30
0
11
1320.3345275087988
21
134.44288259886952
31
0
0
LINE
5
114
100
AcDbEntity
8
0
100
AcDbLine
10
1279.9016039744758
20
235.21112325843075
30
0
11
1278.2342576533897
21
278.07465600961655
31
0
0
LINE
5
115
100
AcDbEntity
8
0
100
AcDbLine
10
168.98556039245793
20
290.6429868099151
30
0
11
162.04605721934851
21
285.58587737626624
31
0
0
LINE
5
116
100
AcDbEntity
8
0
100
AcDbLine
10
203.51774990286293
20
201.06883938065764
30
0
11
194.97940914840345
21
200.15900572818447
31
0
0
LINE
5
117
100
AcDbEntity
8
0
100
AcDbLine
10
207.61792607804679
20
-414.91751481471351
30
0
11
199.30922202783745
21
-412.75037450556567
31
0
0
LINE
5
118
100
AcDbEntity
8
0
100
AcDbLine
10
207.61792607804679
20
-414.91751481471351
30
0
11
199.3121642405232
21
-417.0959042224336
31
0
0
LINE
5
119
100
AcDbEntity
8
0
100
AcDbLine
10
206.62909904349559
20
-601.41489340512624
30
0
11
198.3469035905585
21
-599.14855305278525
31
0
0
LINE
5
120
100
AcDbEntity
8
0
100
AcDbLine
10
1301.4949761824764
20
-431.31871156470055
30
0
11
1309.8153269276813
21
-429.19672579889976
31
0
0
LINE
5
121
100
AcDbEntity
8
0
100
AcDbLine
10
1308.4206395871549
20
141.63943279351093
30
0
11
1316.6872675837997
21
139.31695100056095
31
0
0
LINE
5
122
100
AcDbEntity
8
1
100
AcDbLine
10
1308.4206395871549
20
141.63943279351093
30
0
11
203.51774990286293
21
201.06883938065764
31
0
0
LINE
5
123
100
AcDbEntity
8
1
100
AcDbLine
10
168.98556039245793
20
290.6429868099151
30
0
11
1268.1847815122912
21
227.69799265236614
31
0
0
LINE
5
124
100
AcDbEntity
8
0
100
AcDbLine
10
1268.1847815122912
20
227.69799265236614
30
0
11
1276.3862252951174
21
230.24109705270178
31
0
0
LINE
5
125
100
AcDbEntity
8
0
100
AcDbLine
10
1265.9692170730939
20
284.65491737813971
30
0
11
1274.343427936913
21
282.75658850189023
31
0
0
LINE
5
126
100
AcDbEntity
8
0
100
AcDbLine
10
203.51774990286293
20
201.06883938065764
30
0
11
195.23863096828077
21
198.79128591683985
31
0
0
ARC
5
127
100
AcDbEntity
8
0
100
AcDbCircle
10
1273.2380361862179
20
277.88030825179226
30
0
40
5.0000000000000302
210
0
220
-0
230
1
100
AcDbArc
50
2.2276224274728258
51
77.227622427415639
0
ARC
5
128
100
AcDbEntity
8
0
100
AcDbCircle
10
1274.905382507304
20
235.01677550060646
30
0
40
5.0000000000000169
210
0
220
0
230
1
100
AcDbArc
50
-72.772377572582755
51
2.2276224274728258
0
ARC
5
129
100
AcDbEntity
8
0
100
AcDbCircle
10
1315.3348927412753
20
134.50331596191211
30
0
40
4.9999999999998996
210
-0
220
0
230
1
100
AcDbArc
50
-0.69253219125626364
51
74.307467808741862
0
ARC
5
130
100
AcDbEntity
8
0
100
AcDbCircle
10
1308.5797003774219
20
-424.35180814962087
30
0
40
5.0000000000000213
210
0
220
0
230
1
100
AcDbArc
50
284.30746780874284
51
359.30746780874375
0
ARC
5
131
100
AcDbEntity
8
0
100
AcDbCircle
10
199.66658742464088
20
-594.3258531265966
30
0
40
4.9999999999997735
210
0
220
0
230
1
100
AcDbArc
50
179.69621511422551
51
254.696215114235
0
ARC
5
132
100
AcDbEntity
8
0
100
AcDbCircle
10
200.58063447833862
20
-421.93232679038385
30
0
40
5.0000000000002451
210
0
220
0
230
1
100
AcDbArc
50
104.69621511423496
51
179.69621511422551
0
ARC
5
133
100
AcDbEntity
8
0
100
AcDbCircle
10
200.57114194609375
20
-407.91223869516244
30
0
40
4.999999999999833
210
0
220
0
230
1
100
AcDbArc
50
180.38137098182503
51
255.38137098182602
0
ARC
5
134
100
AcDbEntity
8
0
100
AcDbCircle
10
196.56484416673118
20
193.97037743894305
30
0
40
5.0000000000001412
210
0
220
0
230
1
100
AcDbArc
50
105.38137098182882
51
180.38137098182602
0
ARC
5
135
100
AcDbEntity
8
0
100
AcDbCircle
10
194.44961548275933
20
205.13085836798015
30
0
40
5.0000000000000036
210
0
220
0
230
1
100
AcDbArc
50
201.08240607998269
51
276.08240607840042
0
ARC
5
136
100
AcDbEntity
8
0
100
AcDbCircle
10
164.99079831256972
20
281.54502351923389
30
0
40
4.999999999999897
210
0
220
0
230
1
100
AcDbArc
50
126.08240607998212
51
201.0824060799838
0
ARC
5
137
100
AcDbEntity
8
0
100
AcDbCircle
10
199.66658742464088
20
2594.3258531265965
30
0
40
5.0000000000002762
210
0
220
0
230
1
100
AcDbArc
50
105.30378488576467
51
180.30378488577452
0
LINE
5
138
100
AcDbEntity
8
0
100
AcDbLine
10
160.32547813398071
20
1720.2535280177674
30
0
11
189.78429530417026
21
1796.667693169021
31
0
0
LWPOLYLINE
5
139
100
AcDbEntity
8
0
100
AcDbPolyline
90
30
70
1
43
0.0
10
213.62936183287661
20
2613.4451627700696
42
0.33945425886338021
10
208.81574287177759
20
2609.7184859337685
10
206.62909904349559
20
2601.4148934051263
10
1292.6190211366802
20
2606.0934735357159
10
1301.0151606043246
20
2604.294612186598
42
-0.33945425886340275
10
1304.961253152364
20
2599.6591616856017
10
1313.12185437996
20
2438.9702972496666
42
-0.33945425886336444
10
1309.6656769297329
20
2433.9589216723007
10
1301.4949761824764
20
2431.3187115647006
10
1308.4206395871549
20
1858.3605672064891
10
1314.9607125090347
20
1853.7712869923232
42
-0.36397023426620206
10
1316.6180842345893
20
1847.5607548025678
10
1282.0421184109296
20
1773.6078688226266
42
-0.33945425886338509
10
1276.6394963040511
20
1770.8023880946325
10
1268.1847815122912
20
1772.3020073476341
10
1276.3862252951174
20
1769.7589029472983
42
-0.33945425886364616
10
1279.9016039744761
20
1764.7888767415691
10
1278.2342576533899
20
1721.9253439903835
42
-0.33945425886310299
10
1274.343427936913
20
1717.2434114981097
10
1265.9692170730939
20
1715.3450826218602
10
1268.1847815122912
20
1772.3020073476341
10
1308.4206395871549
20
1858.3605672064891
10
1316.6872675837997
20
1860.6830489994391
42
0.33945425886337044
10
1320.3345275087988
20
1865.5571174011307
10
1313.5793351449454
20
2424.4122415126635
42
0.33945425886337693
10
1309.8153269276813
20
2429.1967257988999
10
1301.4949761824764
20
2431.3187115647006
10
1292.6190211366802
20
2606.0934735357159
10
1290.3609139766795
20
2614.3779175223362
42
0.33945425886334651
10
1285.5153643112635
20
2618.0629814545991
0
LINE
5
140
100
AcDbEntity
8
0
100
AcDbLine
10
1155.0689265952403
20
1709.1708584759508
30
0
11
1265.9692170730939
21
1715.3450826218602
31
0
0
LINE
5
141
100
AcDbEntity
8
0
100
AcDbLine
10
206.62909904349559
20
2601.4148934051263
30
0
11
198.3469035905585
21
2599.1485530527852
31
0
0
ARC
5
142
100
AcDbEntity
8
0
100
AcDbCircle
10
200.58063447833862
20
2421.9323267903837
30
0
40
5.0000000000002354
210
0
220
0
230
1
100
AcDbArc
50
180.30378488577333
51
255.30378488576486
0
LINE
5
143
100
AcDbEntity
8
0
100
AcDbLine
10
177.7662703375492
20
1661.7716908331536
30
0
11
178.15538332738794
21
1654.7825141233304
31
0
0
LINE
5
144
100
AcDbEntity
8
1
100
AcDbLine
10
1308.4206395871549
20
1858.3605672064891
30
0
11
203.51774990286293
21
1798.9311606193423
31
0
0
LWPOLYLINE
5
145
100
AcDbEntity
8
0
100
AcDbPolyline
90
6
70
1
43
0.0
10
171.77554744341481
20
1661.4381654132917
10
163.36629863200415
20
1663.1747121420688
42
-0.33945425886350089
10
159.38593843405172
20
1667.7807712428025
10
157.41574551342458
20
1701.6194138350875
42
-0.33945425886323533
10
160.83466393063719
20
1706.6562823663573
10
168.98556039245793
20
1709.3570131900851
0
LINE
5
146
100
AcDbEntity
8
0
100
AcDbLine
10
203.51774990286293
20
1798.9311606193423
30
0
11
194.97940914840345
21
1799.8409942718154
31
0
0
LINE
5
147
100
AcDbEntity
8
0
100
AcDbLine
10
1236.0480593477932
20
1754.7079868290252
30
0
11
1151.4457328293142
21
1746.4954142929266
31
0
0
LINE
5
148
100
AcDbEntity
8
1
100
AcDbLine
10
168.98556039245793
20
1709.3570131900851
30
0
11
1268.1847815122912
21
1772.3020073476341
31
0
0
LINE
5
149
100
AcDbEntity
8
0
100
AcDbLine
10
207.61792607804679
20
2414.9175148147133
30
0
11
199.3121642405232
21
2417.0959042224335
31
0
0
LINE
5
150
100
AcDbEntity
8
0
100
AcDbLine
10
171.77554744341481
20
1661.4381654132917
30
0
11
177.7662703375492
21
1661.7716908331536
31
0
0
LWPOLYLINE
5
151
100
AcDbEntity
8
0
100
AcDbPolyline
90
6
70
1
43
0.0
10
191.56495492812945
20
1806.0629032118295
42
0.33945425886336128
10
195.23863096828077
20
1801.2087140831602
10
203.51774990286293
20
1798.9311606193423
10
207.61792607804679
20
2414.9175148147133
10
199.30922202783745
20
2412.7503745055656
42
0.33945425886337321
10
195.57125270749231
20
2407.9455193459348
0
ARC
5
152
100
AcDbEntity
8
0
100
AcDbCircle
10
164.99079831256972
20
1718.4549764807662
30
0
40
4.9999999999998908
210
0
220
0
230
1
100
AcDbArc
50
158.91759392001677
51
233.91759392001751
0
LINE
5
153
100
AcDbEntity
8
0
100
AcDbLine
10
168.98556039245793
20
1709.3570131900851
30
0
11
203.51774990286293
21
1798.9311606193423
31
0
0
LINE
5
154
100
AcDbEntity
8
0
100
AcDbLine
10
1151.4457328293142
20
1746.4954142929266
30
0
11
1155.0689265952403
21
1709.1708584759508
31
0
0
LINE
5
155
100
AcDbEntity
8
0
100
AcDbLine
10
1240.0094178652059
20
1713.8998058024645
30
0
11
1265.9692170730939
21
1715.3450826218602
31
0
0
LINE
5
156
100
AcDbEntity
8
0
100
AcDbLine
10
178.15538332738794
20
1654.7825141233304
30
0
11
1155.0689265952403
21
1709.1708584759508
31
0
0
LINE
5
157
100
AcDbEntity
8
0
100
AcDbLine
10
195.58070475741579
20
2421.9058166822188
30
0
11
194.6666577037185
21
2594.2993430184315
31
0
0
LINE
5
158
100
AcDbEntity
8
0
100
AcDbLine
10
1240.0094178651782
20
1713.8998058024583
30
0
11
1236.0480593477932
21
1754.7079868290252
31
0
0
LINE
5
159
100
AcDbEntity
8
0
100
AcDbLine
10
207.61792607804679
20
2414.9175148147133
30
0
11
206.62909904349559
21
2601.4148934051263
31
0
0
LINE
5
160
100
AcDbEntity
8
0
100
AcDbLine
10
168.98556039245793
20
1709.3570131900851
30
0
11
162.04605721934851
21
1714.4141226237339
31
0
0
ARC
5
161
100
AcDbEntity
8
0
100
AcDbCircle
10
194.44961548275933
20
1794.8691416320198
30
0
40
4.9999999999999103
210
0
220
-0
230
1
100
AcDbArc
50
83.917593921599348
51
158.91759392001703
0
ENDSEC
0
SECTION
2
OBJECTS
0
DICTIONARY
5
C
100
AcDbDictionary
3
ACAD_GROUP
350
D
3
ACAD_MLINESTYLE
350
17
0
DICTIONARY
5
D
100
AcDbDictionary
0
DICTIONARY
5
1A
330
C
100
AcDbDictionary
0
DICTIONARY
5
17
100
AcDbDictionary
0
ENDSEC
0
EOF
