0
SECTION
2
HEADER
9
$INSUNITS
70
4
9
$ACADVER
1
AC1014
9
$HANDSEED
5
FFFF
0
ENDSEC
0
SECTION
2
TABLES
0
TABLE
2
VPORT
5
8
100
AcDbSymbolTable
0
ENDTAB
0
TABLE
2
LTYPE
5
5
100
AcDbSymbolTable
0
LTYPE
5
14
100
AcDbSymbolTableRecord
100
AcDbLinetypeTableRecord
2
BYBLOCK
70
0
0
LTYPE
5
15
100
AcDbSymbolTableRecord
100
AcDbLinetypeTableRecord
2
BYLAYER
70
0
0
ENDTAB
0
TABLE
2
LAYER
5
2
100
AcDbSymbolTable
70
2
0
LAYER
5
50
100
AcDbSymbolTableRecord
100
AcDbLayerTableRecord
2
0
70
0
6
CONTINUOUS
0
ENDTAB
0
TABLE
2
STYLE
5
3
100
AcDbSymbolTable
70
1
0
STYLE
5
11
100
AcDbSymbolTableRecord
100
AcDbTextStyleTableRecord
2
STANDARD
70
0
0
ENDTAB
0
TABLE
2
VIEW
5
6
100
AcDbSymbolTable
70
0
0
ENDTAB
0
TABLE
2
UCS
5
7
100
AcDbSymbolTable
70
0
0
ENDTAB
0
TABLE
2
APPID
5
9
100
AcDbSymbolTable
70
2
0
APPID
5
12
100
AcDbSymbolTableRecord
100
AcDbRegAppTableRecord
2
ACAD
70
0
0
ENDTAB
0
TABLE
2
DIMSTYLE
5
A
100
AcDbSymbolTable
70
1
0
ENDTAB
0
TABLE
2
BLOCK_RECORD
5
1
100
AcDbSymbolTable
70
1
0
BLOCK_RECORD
5
1F
100
AcDbSymbolTableRecord
100
AcDbBlockTableRecord
2
*MODEL_SPACE
0
BLOCK_RECORD
5
1B
100
AcDbSymbolTableRecord
100
AcDbBlockTableRecord
2
*PAPER_SPACE
0
ENDTAB
0
ENDSEC
0
SECTION
2
BLOCKS
0
BLOCK
5
20
100
AcDbEntity
100
AcDbBlockBegin
2
*MODEL_SPACE
0
ENDBLK
5
21
100
AcDbEntity
100
AcDbBlockEnd
0
BLOCK
5
1C
100
AcDbEntity
100
AcDbBlockBegin
2
*PAPER_SPACE
0
ENDBLK
5
1D
100
AcDbEntity
100
AcDbBlockEnd
0
ENDSEC
0
SECTION
2
ENTITIES
0
LWPOLYLINE
5
100
100
AcDbEntity
8
0
100
AcDbPolyline
90
126
70
1
43
0.0
10
1323.8671048115805
20
142.75619125163453
10
1313.9213396012892
20
136.88975385629229
42
0.26794919243162357
10
1311.9537068010052
20
133.40716557122232
10
1317.1485839329082
20
-424.046327005465
42
0.3394542588627536
10
1320.149183094813
20
-427.88223566264594
10
1329.2066271092517
20
-430.21892993743802
10
1320.0760752135525
20
-432.25128184844488
42
0.3394542588649806
10
1316.9488182121515
20
-435.98465220297442
10
1310.0446266915471
20
-597.26754614730612
42
0.33945425886177616
10
1312.8413918651759
20
-601.25451180054722
10
1321.764857711066
20
-604.05971936345077
10
1323.4196141354641
20
-613.26619607421856
42
0.33945425885470948
10
1327.0210815595294
20
-616.54449181273139
10
1334.9237489556972
20
-617.20956288914431
42
0.33945425887214581
10
1339.0224678355717
20
-614.57929786419868
10
1342.1926450906628
20
-605.77887694025253
10
1351.278126476893
20
-603.55368926265919
42
0.33945425888673403
10
1354.3256482449065
20
-599.75495241565363
10
1354.3269112283187
20
-599.69651857124154
42
0.19891236735465762
10
1353.2167309873234
20
-596.84343553137728
10
1342.624822206684
20
-585.78354691195977
10
1356.2432891248352
20
-592.78690515887706
42
0.19891236738648538
10
1359.2943976004076
20
-593.03853995957058
10
1422.466857320529
20
-572.7739570348898
42
0.41421356237314599
10
1425.0538842882384
20
-567.743321740184
10
1422.610275962516
20
-560.12565948173881
10
1423.854583600159
20
-515.16383140164885
10
1403.8545836001595
20
-514.61033627479674
42
-0.99999999999999989
10
1404.2695460677369
20
-499.61607716837528
10
1424.2695460677369
20
-500.1695722952274
10
1425.2428176773383
20
-465.00136351603857
10
1376.2428178353287
20
-463.64530045962306
42
-1.0000000105367122
10
1376.6577801449162
20
-448.65104134882927
10
1425.6577801449162
20
-450.00710440961711
10
1426.206617348189
20
-430.17541389275323
10
1434.3528143257608
20
-416.40444897367058
10
1401.6467726428918
20
-397.05723115202039
42
-0.99999999999999989
10
1408.7746949982356
20
-385.00763684780514
10
1441.4807366811056
20
-404.35485466945551
10
1499.5223901462703
20
-306.23672962097282
10
1473.7018309221251
20
-290.96261028766116
42
-0.99999999999999989
10
1483.884577144016
20
-273.74890413876534
10
1509.7051363681612
20
-289.02302347207586
10
1540.7625123451601
20
-236.52121971807753
10
1519.2453796590612
20
-223.79278694067574
42
-0.99999999999999989
10
1526.3733020144061
20
-211.74319263646089
10
1547.8904347005048
20
-224.4716254138624
10
1638.7714447314295
20
-70.839298035277167
10
1621.5577382321192
20
-60.656551606008186
42
-0.41421356237309437
10
1618.921128259535
20
-50.382881966951928
10
1627.5866782405469
20
-31.282385353045061
42
-0.47915670680411193
10
1642.1777996819378
20
-25.798796861809237
10
1659.3915058307855
20
-35.981543083783563
10
1670.2337733053505
20
-17.652930917254235
10
1704.5364155642753
20
-17.804591082334991
10
1704.6248403356863
20
2.1954089176371423
42
-0.41421395918359111
10
1713.1623489319259
20
10.657745626293721
10
1737.1623374163419
20
10.551635956367578
42
-0.41421356237302281
10
1745.6246741807329
20
2.0141388708060326
10
1745.5362494093131
20
-17.985861129166647
10
1816.5364155577186
20
-18.29976980238504
10
1816.6248403291343
20
1.7002301976139587
42
-0.99999999999999989
10
1833.624674182455
20
1.6250698764880858
10
1833.5362494110395
20
-18.374930123514357
10
2021.0363324843863
20
-19.20391272301794
10
2021.1468623675746
20
5.795842939831636
42
-0.41421356240838003
10
2031.19097658695
20
15.751533251449795
10
2051.1911720573667
20
15.663107614029755
42
-0.04010044778879527
10
2052.7868901218885
20
15.527820371379313
10
2092.1623365521004
20
8.9819007923467353
42
-0.41421356237311868
10
2100.6246733161847
20
0.44440370715490707
10
2100.536249409005
20
-19.555400822186026
10
2215.5364155589068
20
-20.063843992571417
42
-0.18229669277086988
10
2217.6779660567895
20
-14.460397971598972
10
2230.9509687521158
20
0.50046411531780732
42
-1.0000000074505806
10
2243.667701691315
20
-10.781588153029094
10
2230.3946989119381
20
-25.742450334682299
42
-0.060580859696030956
10
2228.8573838439652
20
-27.101957261142452
10
2271.1124810517967
20
-88.459570968629833
42
0.41421356237330914
10
2312.8357203468531
20
-96.151859492038639
10
2316.9536809985307
20
-93.315946927627223
42
-0.41421356237274709
10
2337.815300646052
20
-97.162091189318375
10
2343.48712577471
20
-105.39801249244658
42
-0.12902579585734117
10
2346.0727861923024
20
-112.56036038719871
10
2348.0943559281495
20
-135.0083726777583
42
-0.41421356237423845
10
2346.2994886059628
20
-144.74379518021235
10
2323.3125615878735
20
-160.57418324406626
42
0.094132466563886574
10
2327.8307323383697
20
-170.81878399913407
10
2338.8907913393691
20
-186.8788305409297
10
2363.5985552486309
20
-169.86335515497271
42
-0.99999999999999989
10
2377.7781180693173
20
-190.45315841147331
10
2353.0703541601538
20
-207.46863379739955
10
2403.5495978053141
20
-280.76833339517816
10
2432.375322366066
20
-260.91694544502002
42
-0.49218230205444791
10
2445.1972915133447
20
-265.0477547767149
10
2451.4225964386555
20
-282.40418236382504
42
-0.41421356237310114
10
2449.2431146903837
20
-294.22576683071514
10
2424.5353507811783
20
-311.24124221658002
10
2431.0579496790779
20
-320.71255171506937
10
2433.4584480585063
20
-329.75329504917079
42
0.33945425888952724
10
2437.3154179768871
20
-332.72677341773482
10
2497.7458660534107
20
-332.86381897327919
42
0.33945425884360353
10
2501.6162828743345
20
-329.90786495015323
10
2504.0577619595097
20
-320.87810237632056
10
2513.1115230079431
20
-318.5271783485731
42
0.33945425887583519
10
2516.1060908196569
20
-314.68655936471816
10
2519.1076013696779
20
72.732417246164616
42
0.33945425885090619
10
2516.1728994859295
20
76.618972971850525
10
2507.1566504383777
20
79.109893556261468
10
2508.4472196227075
20
88.374442299430186
42
0.33945425886362179
10
2506.0439229601261
20
92.610236877590566
10
2087.5228934157908
20
269.66198413989923
42
0.3394542588631218
10
2082.809411090589
20
268.4368821332485
10
2077.0594710260389
20
261.05883216693519
10
2055.3906159423641
20
189.25729514047032
10
2025.1248407419698
20
201.39958189492418
10
1285.3629802073217
20
289.58909203255268
10
1276.3263876433266
20
287.17293625823027
42
0.33945425886348457
10
1273.3595927937522
20
283.31082299250806
10
1273.33416372173
20
235.88023689163961
42
0.33945425886331715
10
1276.2968156591619
20
232.01494465762363
10
1285.3308122703993
20
229.58910065568881
10
1278.0543580691701
20
223.71112083953491
42
0.33945425888787323
10
1276.9118023431624
20
218.97695174956726
10
1309.1515475964202
20
146.33190227757672
42
0.26794919240750625
10
1312.384804986475
20
143.97689768156965
0
LINE
5
101
100
AcDbEntity
8
0
100
AcDbLine
10
-9.5464110374450701
20
1000
30
0
11
-276.84592008590704
21
1000
31
-7.2652719062855738e-15
0
LWPOLYLINE
5
102
100
AcDbEntity
8
0
100
AcDbPolyline
90
126
70
1
43
0.0
10
2516.1060908196569
20
2314.6865593647181
10
2519.1076013696779
20
1927.2675827538353
42
-0.33945425885089792
10
2516.1728994859295
20
1923.3810270281494
10
2507.1566504383777
20
1920.8901064437384
10
2508.4472196227075
20
1911.62555770057
42
-0.33945425886363406
10
2506.0439229601261
20
1907.3897631224095
10
2087.5228934157908
20
1730.3380158601008
42
-0.33945425886310138
10
2082.809411090589
20
1731.5631178667513
10
2077.0594710260389
20
1738.9411678330648
10
2055.3906159423641
20
1810.7427048595298
10
2025.1248407419698
20
1798.600418105076
10
1285.3629802073217
20
1710.4109079674472
10
1276.3263876433268
20
1712.82706374177
42
-0.33945425886349206
10
1273.3595927937522
20
1716.6891770074922
10
1273.33416372173
20
1764.1197631083605
42
-0.33945425886331176
10
1276.2968156591619
20
1767.9850553423762
10
1285.3308122703993
20
1770.410899344311
10
1278.0543580691701
20
1776.2888791604651
42
-0.33945425888790393
10
1276.9118023431624
20
1781.023048250433
10
1309.1515475964202
20
1853.6680977224232
42
-0.26794919240749709
10
1312.384804986475
20
1856.0231023184303
10
1323.8671048115805
20
1857.2438087483652
10
1313.9213396012892
20
1863.1102461437079
42
-0.26794919243163573
10
1311.9537068010052
20
1866.5928344287777
10
1317.1485839329082
20
2424.0463270054652
42
-0.33945425886275599
10
1320.149183094813
20
2427.8822356626461
10
1329.2066271092517
20
2430.2189299374377
10
1320.0760752135525
20
2432.2512818484447
42
-0.33945425886497566
10
1316.9488182121515
20
2435.9846522029743
10
1310.0446266915478
20
2597.2675461473063
42
-0.3394542588617836
10
1312.8413918651759
20
2601.2545118005473
10
1321.764857711066
20
2604.0597193634503
10
1323.4196141354641
20
2613.2661960742189
42
-0.33945425885467662
10
1327.0210815595294
20
2616.5444918127314
10
1334.9237489556972
20
2617.2095628891448
42
-0.33945425887212677
10
1339.0224678355717
20
2614.5792978641985
10
1342.1926450906628
20
2605.7788769402528
10
1351.278126476893
20
2603.5536892626587
42
-0.33945425888675024
10
1354.3256482449065
20
2599.7549524156534
10
1354.3269112283183
20
2599.6965185712415
42
-0.19891236735465817
10
1353.2167309873234
20
2596.8434355313775
10
1342.624822206684
20
2585.7835469119595
10
1356.243289124835
20
2592.7869051588773
42
-0.1989123673864735
10
1359.2943976004076
20
2593.0385399595707
10
1422.466857320529
20
2572.7739570348899
42
-0.41421356237315449
10
1425.0538842882384
20
2567.743321740184
10
1422.610275962516
20
2560.1256594817391
10
1423.854583600159
20
2515.1638314016491
10
1403.854583600159
20
2514.6103362747963
42
0.99999999999999989
10
1404.2695460677369
20
2499.6160771683753
10
1424.2695460677369
20
2500.1695722952272
10
1425.2428176773383
20
2465.0013635160385
10
1376.2428176773383
20
2463.6453004552509
42
0.99999999999999989
10
1376.6577801449162
20
2448.6510413488295
10
1425.6577801449162
20
2450.0071044096171
10
1426.206617348189
20
2430.1754138927531
10
1434.3528143257608
20
2416.4044489736707
10
1401.6467726428912
20
2397.0572311520204
42
0.99999999999999989
10
1408.7746949982356
20
2385.0076368478049
10
1441.4807366811056
20
2404.3548546694556
10
1499.5223901462703
20
2306.2367296209727
10
1473.7018309221244
20
2290.9626102876618
42
0.99999999999999989
10
1483.884577144016
20
2273.7489041387653
10
1509.7051363681612
20
2289.0230234720757
10
1540.7625123451601
20
2236.5212197180776
10
1519.2453796590617
20
2223.7927869406763
42
0.99999999999999989
10
1526.3733020144061
20
2211.7431926364607
10
1547.8904347005048
20
2224.4716254138625
10
1638.7714447314295
20
2070.8392980352774
10
1621.5577382321192
20
2060.6565516060082
42
0.41421356237309503
10
1618.921128259535
20
2050.382881966952
10
1627.5866782405469
20
2031.2823853530449
42
0.47915670680411049
10
1642.1777996819378
20
2025.7987968618093
10
1659.3915058307855
20
2035.9815430837834
10
1670.2337733053505
20
2017.6529309172543
10
1704.5364155642753
20
2017.8045910823353
10
1704.6248403356872
20
1997.804591082363
42
0.41421395918359
10
1713.1623489319259
20
1989.3422543737063
10
1737.1623374163419
20
1989.4483640436333
42
0.41421356237302637
10
1745.6246741807329
20
1997.9858611291938
10
1745.5362494093131
20
2017.9858611291666
10
1816.5364155577186
20
2018.2997698023848
10
1816.6248403291343
20
1998.2997698023682
42
0.99999999999999989
10
1833.624674182455
20
1998.3749301235118
10
1833.5362494110395
20
2018.3749301235143
10
2021.0363324843863
20
2019.203912723018
10
2021.1468623675748
20
1994.2041570601687
42
0.41421356240839141
10
2031.19097658695
20
1984.2484667485501
10
2051.1911720573667
20
1984.3368923859703
42
0.040100447788794111
10
2052.7868901218885
20
1984.4721796286206
10
2092.1623365521
20
1991.0180992076766
42
0.41421356237311108
10
2100.6246733161847
20
1999.5555962928449
10
2100.536249409005
20
2019.5554008221859
10
2215.5364155589068
20
2020.0638439925715
42
0.18229669277087041
10
2217.6779660567895
20
2014.4603979715989
10
2230.9509688361559
20
1999.4995357899238
42
0.99999999999999989
10
2243.667701691315
20
2010.7815881530291
10
2230.3946989119381
20
2025.7424503346824
42
0.060580859696031032
10
2228.8573838439652
20
2027.1019572611426
10
2271.1124810517967
20
2088.45957096863
42
-0.41421356237330831
10
2312.8357203468531
20
2096.1518594920385
10
2316.9536809985307
20
2093.3159469276275
42
0.4142135623727472
10
2337.815300646052
20
2097.1620911893183
10
2343.48712577471
20
2105.3980124924465
42
0.12902579585733989
10
2346.0727861923024
20
2112.5603603871987
10
2348.094355927994
20
2135.0083726778657
42
0.41421356237424362
10
2346.2994886059628
20
2144.7437951802121
10
2323.3125615878735
20
2160.5741832440663
42
-0.094132466563887462
10
2327.8307323383697
20
2170.8187839991342
10
2338.8907913393691
20
2186.8788305409298
10
2363.5985552485495
20
2169.8633551550283
42
1.0000000074505806
10
2377.7781180693173
20
2190.4531584114734
10
2353.0703541601538
20
2207.4686337973994
10
2403.5495978053141
20
2280.7683333951782
10
2432.375322366066
20
2260.9169454450202
42
0.49218230205445818
10
2445.1972915133447
20
2265.047754776715
10
2451.4225964386555
20
2282.4041823638249
42
0.41421356237310064
10
2449.2431146903837
20
2294.2257668307152
10
2424.5353507811783
20
2311.2412422165798
10
2431.0579496790779
20
2320.7125517150694
10
2433.4584480585063
20
2329.7532950491709
42
-0.33945425888951769
10
2437.3154179768871
20
2332.7267734177349
10
2497.7458660534107
20
2332.8638189732792
42
-0.33945425884360353
10
2501.6162828743345
20
2329.9078649501535
10
2504.0577619595097
20
2320.8781023763204
10
2513.1115230079431
20
2318.5271783485732
42
-0.33945425887584568
0
ENDSEC
0
SECTION
2
OBJECTS
0
DICTIONARY
5
C
100
AcDbDictionary
3
ACAD_GROUP
350
D
3
ACAD_MLINESTYLE
350
17
0
DICTIONARY
5
D
100
AcDbDictionary
0
DICTIONARY
5
1A
330
C
100
AcDbDictionary
0
DICTIONARY
5
17
100
AcDbDictionary
0
ENDSEC
0
EOF
