0
SECTION
2
HEADER
9
$INSUNITS
70
4
9
$ACADVER
1
AC1014
9
$HANDSEED
5
FFFF
0
ENDSEC
0
SECTION
2
TABLES
0
TABLE
2
VPORT
5
8
100
AcDbSymbolTable
0
ENDTAB
0
TABLE
2
LTYPE
5
5
100
AcDbSymbolTable
0
LTYPE
5
14
100
AcDbSymbolTableRecord
100
AcDbLinetypeTableRecord
2
BYBLOCK
70
0
0
LTYPE
5
15
100
AcDbSymbolTableRecord
100
AcDbLinetypeTableRecord
2
BYLAYER
70
0
0
ENDTAB
0
TABLE
2
LAYER
5
2
100
AcDbSymbolTable
70
2
0
LAYER
5
50
100
AcDbSymbolTableRecord
100
AcDbLayerTableRecord
2
0
70
0
6
CONTINUOUS
0
ENDTAB
0
TABLE
2
STYLE
5
3
100
AcDbSymbolTable
70
1
0
STYLE
5
11
100
AcDbSymbolTableRecord
100
AcDbTextStyleTableRecord
2
STANDARD
70
0
0
ENDTAB
0
TABLE
2
VIEW
5
6
100
AcDbSymbolTable
70
0
0
ENDTAB
0
TABLE
2
UCS
5
7
100
AcDbSymbolTable
70
0
0
ENDTAB
0
TABLE
2
APPID
5
9
100
AcDbSymbolTable
70
2
0
APPID
5
12
100
AcDbSymbolTableRecord
100
AcDbRegAppTableRecord
2
ACAD
70
0
0
ENDTAB
0
TABLE
2
DIMSTYLE
5
A
100
AcDbSymbolTable
70
1
0
ENDTAB
0
TABLE
2
BLOCK_RECORD
5
1
100
AcDbSymbolTable
70
1
0
BLOCK_RECORD
5
1F
100
AcDbSymbolTableRecord
100
AcDbBlockTableRecord
2
*MODEL_SPACE
0
BLOCK_RECORD
5
1B
100
AcDbSymbolTableRecord
100
AcDbBlockTableRecord
2
*PAPER_SPACE
0
ENDTAB
0
ENDSEC
0
SECTION
2
BLOCKS
0
BLOCK
5
20
100
AcDbEntity
100
AcDbBlockBegin
2
*MODEL_SPACE
0
ENDBLK
5
21
100
AcDbEntity
100
AcDbBlockEnd
0
BLOCK
5
1C
100
AcDbEntity
100
AcDbBlockBegin
2
*PAPER_SPACE
0
ENDBLK
5
1D
100
AcDbEntity
100
AcDbBlockEnd
0
ENDSEC
0
SECTION
2
ENTITIES
0
LWPOLYLINE
5
100
100
AcDbEntity
8
0
100
AcDbPolyline
90
15
70
1
43
0.0
10
2070.7216210936258
20
252.53698928266937
10
2048.4363032216211
20
180.92438838489682
10
2019.1008251368444
20
192.73242486572661
10
1280.1987627103656
20
287.8573014327585
10
1278.7516802094756
20
227.87475436916836
10
1316.540063474049
20
140.7137648712858
10
1314.5164409146105
20
-432.28266177702631
10
1313.9019377286183
20
-606.2815766755399
10
1334.330582664064
20
-607.99051380178878
10
1334.9450858500516
20
-433.99159890334829
10
1615.9185932219748
20
36.495263989884876
10
2260.3046961422838
20
8.3607591395808356
10
2482.4446743101594
20
-337.4351779383108
10
2492.7013370952468
20
-333.04926015361298
10
2499.2387282418185
20
66.897314424786089
0
LINE
5
101
100
AcDbEntity
8
0
100
AcDbLine
10
-9.5464110374450684
20
1000
30
0
11
-276.84592008590698
21
1000
31
0
0
LWPOLYLINE
5
102
100
AcDbEntity
8
0
100
AcDbPolyline
90
15
70
1
43
0.0
10
2492.7013370952468
20
2333.049260153613
10
2482.4446743101594
20
2337.4351779383105
10
2260.3046961422838
20
1991.639240860419
10
1615.9185932219748
20
1963.5047360101153
10
1334.9450858500516
20
2433.9915989033484
10
1334.330582664064
20
2607.9905138017884
10
1313.9019377286183
20
2606.2815766755398
10
1314.5164409146105
20
2432.2826617770265
10
1316.540063474049
20
1859.286235128714
10
1278.7516802094756
20
1772.1252456308316
10
1280.1987627103656
20
1712.1426985672415
10
2019.1008251368444
20
1807.2675751342736
10
2048.4363032216211
20
1819.0756116151033
10
2070.7216210936258
20
1747.4630107173307
10
2499.2387282418185
20
1933.1026855752139
0
ENDSEC
0
SECTION
2
OBJECTS
0
DICTIONARY
5
C
100
AcDbDictionary
3
ACAD_GROUP
350
D
3
ACAD_MLINESTYLE
350
17
0
DICTIONARY
5
D
100
AcDbDictionary
0
DICTIONARY
5
1A
330
C
100
AcDbDictionary
0
DICTIONARY
5
17
100
AcDbDictionary
0
ENDSEC
0
EOF
