0
SECTION
2
HEADER
9
$INSUNITS
70
4
9
$ACADVER
1
AC1014
9
$HANDSEED
5
FFFF
0
ENDSEC
0
SECTION
2
TABLES
0
TABLE
2
VPORT
5
8
100
AcDbSymbolTable
0
ENDTAB
0
TABLE
2
LTYPE
5
5
100
AcDbSymbolTable
0
LTYPE
5
14
100
AcDbSymbolTableRecord
100
AcDbLinetypeTableRecord
2
BYBLOCK
70
0
0
LTYPE
5
15
100
AcDbSymbolTableRecord
100
AcDbLinetypeTableRecord
2
BYLAYER
70
0
0
LTYPE
5
16
100
AcDbSymbolTableRecord
100
AcDbLinetypeTableRecord
2
DASHED
70
0
3
Dashed __ __ __ __ __ __ __ __ __ __ __ __ __ _
72
65
73
2
40
0.75
49
0.5
74
0
49
-0.25
74
0
0
ENDTAB
0
TABLE
2
LAYER
5
2
100
AcDbSymbolTable
70
3
0
LAYER
5
50
100
AcDbSymbolTableRecord
100
AcDbLayerTableRecord
2
1
70
0
62
7
6
DASHED
0
LAYER
5
51
100
AcDbSymbolTableRecord
100
AcDbLayerTableRecord
2
0
70
0
62
7
6
CONTINUOUS
0
ENDTAB
0
TABLE
2
STYLE
5
3
100
AcDbSymbolTable
70
1
0
STYLE
5
11
100
AcDbSymbolTableRecord
100
AcDbTextStyleTableRecord
2
STANDARD
70
0
0
ENDTAB
0
TABLE
2
VIEW
5
6
100
AcDbSymbolTable
70
0
0
ENDTAB
0
TABLE
2
UCS
5
7
100
AcDbSymbolTable
70
0
0
ENDTAB
0
TABLE
2
APPID
5
9
100
AcDbSymbolTable
70
2
0
APPID
5
12
100
AcDbSymbolTableRecord
100
AcDbRegAppTableRecord
2
ACAD
70
0
0
ENDTAB
0
TABLE
2
DIMSTYLE
5
A
100
AcDbSymbolTable
70
1
0
ENDTAB
0
TABLE
2
BLOCK_RECORD
5
1
100
AcDbSymbolTable
70
1
0
BLOCK_RECORD
5
1F
100
AcDbSymbolTableRecord
100
AcDbBlockTableRecord
2
*MODEL_SPACE
0
BLOCK_RECORD
5
1B
100
AcDbSymbolTableRecord
100
AcDbBlockTableRecord
2
*PAPER_SPACE
0
ENDTAB
0
ENDSEC
0
SECTION
2
BLOCKS
0
BLOCK
5
20
100
AcDbEntity
100
AcDbBlockBegin
2
*MODEL_SPACE
0
ENDBLK
5
21
100
AcDbEntity
100
AcDbBlockEnd
0
BLOCK
5
1C
100
AcDbEntity
100
AcDbBlockBegin
2
*PAPER_SPACE
0
ENDBLK
5
1D
100
AcDbEntity
100
AcDbBlockEnd
0
ENDSEC
0
SECTION
2
ENTITIES
0
POINT
5
100
100
AcDbEntity
8
0
100
AcDbPoint
10
2025.467624891196
20
191.40545867039691
30
2.8421709430404007e-13
0
POINT
5
101
100
AcDbEntity
8
0
100
AcDbPoint
10
2061.1910743208123
20
15.618895660448144
30
0
0
POINT
5
102
100
AcDbEntity
8
0
100
AcDbPoint
10
2021.1910743208125
20
15.795745203325078
30
0
0
POINT
5
103
100
AcDbEntity
8
0
100
AcDbPoint
10
2286.7100001428134
20
-111.10835453336676
30
4.4224280487778477e-14
0
POINT
5
104
100
AcDbEntity
8
0
100
AcDbPoint
10
2327.8896066578868
20
-82.749228889964343
30
4.4224280487778477e-14
0
POINT
5
105
100
AcDbEntity
8
0
100
AcDbPoint
10
2310.8152569522799
20
-146.11102009005091
30
6.9666758950970242e-14
0
POINT
5
106
100
AcDbEntity
8
0
100
AcDbPoint
10
2351.9948634676075
20
-117.75189444698677
30
6.9666758950970242e-14
0
POINT
5
107
100
AcDbEntity
8
0
100
AcDbPoint
10
2021.1910743208125
20
1984.2042547966748
30
0
0
POINT
5
108
100
AcDbEntity
8
0
100
AcDbPoint
10
2025.467624891196
20
1808.5945413296031
30
2.8421709430404007e-13
0
POINT
5
109
100
AcDbEntity
8
0
100
AcDbPoint
10
2286.7100001428134
20
2111.1083545333668
30
4.4224280487778477e-14
0
POINT
5
110
100
AcDbEntity
8
0
100
AcDbPoint
10
2061.1910743208123
20
1984.3811043395519
30
0
0
POINT
5
111
100
AcDbEntity
8
0
100
AcDbPoint
10
2327.8896066578868
20
2082.7492288899643
30
4.4224280487778477e-14
0
POINT
5
112
100
AcDbEntity
8
0
100
AcDbPoint
10
2351.9948634676075
20
2117.7518944469871
30
6.9666758950970242e-14
0
POINT
5
113
100
AcDbEntity
8
0
100
AcDbPoint
10
2310.8152569522799
20
2146.1110200900512
30
6.9666758950970242e-14
0
LINE
5
114
100
AcDbEntity
8
0
100
AcDbLine
10
2077.0594710260393
20
261.05883216693513
30
2.8421709430404007e-13
11
2055.3906159423645
21
189.25729514047023
31
2.8421709430404007e-13
0
LINE
5
115
100
AcDbEntity
8
1
100
AcDbLine
10
2507.1566504383782
20
79.109893556261383
30
1.4210854715202004e-13
11
2077.0594710260393
21
261.05883216693513
31
2.8421709430404007e-13
0
LINE
5
116
100
AcDbEntity
8
1
100
AcDbLine
10
1342.1926450906631
20
-605.77887694025276
30
2.8421709430404007e-13
11
1345.9525860000542
21
-431.81950569409901
31
2.8421709430404007e-13
0
LINE
5
117
100
AcDbEntity
8
1
100
AcDbLine
10
2268.7346748239879
20
18.521433069741462
30
1.4210854715202004e-13
11
1624.1305172814077
21
41.115239209830634
31
2.8421709430404007e-13
0
LINE
5
118
100
AcDbEntity
8
1
100
AcDbLine
10
1321.7648577110663
20
-604.05971936345077
30
2.8421709430404007e-13
11
1342.1926450906631
21
-605.77887694025276
31
2.8421709430404007e-13
0
LINE
5
119
100
AcDbEntity
8
1
100
AcDbLine
10
1329.2066271092519
20
-430.21892993743813
30
2.8421709430404007e-13
11
1321.7648577110663
21
-604.05971936345077
31
2.8421709430404007e-13
0
LINE
5
120
100
AcDbEntity
8
1
100
AcDbLine
10
2507.1566504383782
20
79.109893556261383
30
1.4210854715202004e-13
11
2504.0577619595101
21
-320.87810237632061
31
1.4210854715202004e-13
0
LINE
5
121
100
AcDbEntity
8
1
100
AcDbLine
10
1624.1305172814077
20
41.115239209830634
30
2.8421709430404007e-13
11
1345.9525860000542
21
-431.81950569409901
31
2.8421709430404007e-13
0
LINE
5
122
100
AcDbEntity
8
1
100
AcDbLine
10
1323.8671048115807
20
142.75619125163445
30
2.8458163836431066e-13
11
1285.3308122703995
21
229.58910065568872
31
2.8421709430404007e-13
0
LINE
5
123
100
AcDbEntity
8
1
100
AcDbLine
10
1323.8671048115807
20
142.75619125163445
30
2.8458163836431066e-13
11
1329.2066271092519
21
-430.21892993743813
31
2.8421709430404007e-13
0
LINE
5
124
100
AcDbEntity
8
1
100
AcDbLine
10
1285.3308122703995
20
229.58910065568872
30
2.8421709430404007e-13
11
1285.3629802073219
21
289.58909203255263
31
2.8421709430404007e-13
0
LINE
5
125
100
AcDbEntity
8
0
100
AcDbLine
10
1285.3629802073219
20
289.58909203255263
30
2.8421709430404007e-13
11
2025.12484074197
21
201.3995818949241
31
2.8421709430404007e-13
0
LINE
5
126
100
AcDbEntity
8
0
100
AcDbLine
10
2025.12484074197
20
201.3995818949241
30
2.8421709430404007e-13
11
2055.3906159423645
21
189.25729514047023
31
2.8421709430404007e-13
0
LINE
5
127
100
AcDbEntity
8
0
100
AcDbLine
10
-9.5464110374450684
20
1000
30
0
11
-276.84592008590698
21
1000
31
0
0
LINE
5
128
100
AcDbEntity
8
1
100
AcDbLine
10
2504.0577619595101
20
-320.87810237632061
30
1.4210854715202004e-13
11
2431.0579496790783
21
-320.71255171506942
31
1.4210854715202004e-13
0
LINE
5
129
100
AcDbEntity
8
0
100
AcDbLine
10
2431.0579496790783
20
-320.71255171506942
30
1.4210854715202004e-13
11
2224.0363324843643
21
-20.101424153140709
31
0
0
LINE
5
130
100
AcDbEntity
8
0
100
AcDbLine
10
2224.0363324843643
20
-20.101424153140709
30
0
11
1670.233773305351
21
-17.65293091725432
31
0
0
LINE
5
131
100
AcDbEntity
8
0
100
AcDbLine
10
1670.233773305351
20
-17.65293091725432
30
0
11
1426.2066173481892
21
-430.17541389275328
31
0
0
LINE
5
132
100
AcDbEntity
8
0
100
AcDbLine
10
1426.2066173481892
20
-430.17541389275328
30
0
11
1422.6102759625164
21
-560.12565948173892
31
0
0
LINE
5
133
100
AcDbEntity
8
0
100
AcDbLine
10
1426.2066173481892
20
-430.17541389275328
30
0
11
1648.1904849867331
21
-54.916619847585096
31
0
0
LINE
5
134
100
AcDbEntity
8
1
100
AcDbLine
10
1342.1926450906631
20
-605.77887694025276
30
2.8421709430404007e-13
11
1342.6248222066843
21
-585.78354691195989
31
2.8421709430404007e-13
0
LINE
5
135
100
AcDbEntity
8
1
100
AcDbLine
10
1342.6248222066843
20
-585.78354691195989
30
2.8421709430404007e-13
11
1422.6102759625164
21
-560.12565948173892
31
0
0
LWPOLYLINE
5
136
100
AcDbEntity
8
0
100
AcDbPolyline
90
4
70
1
43
0.0
10
1441.4807366811058
20
-404.35485466945556
10
1408.7746949982361
20
-385.0076368478052
42
0.99999999999999989
10
1401.6467726428914
20
-397.05723115202028
10
1434.3528143257613
20
-416.4044489736707
42
0.99999999999999989
0
LINE
5
137
100
AcDbEntity
8
1
100
AcDbLine
10
1437.9167755034334
20
-410.37965182156319
30
0
11
1405.2107338205637
21
-391.03243399991277
31
0
0
LWPOLYLINE
5
138
100
AcDbEntity
8
0
100
AcDbPolyline
90
4
70
1
43
0.0
10
1509.7051363681614
20
-289.02302347207598
10
1483.8845771440162
20
-273.7489041387654
42
0.99999999999999989
10
1473.7018309221248
20
-290.96261028766173
10
1499.5223901462705
20
-306.23672962097282
42
0.99999999999999989
0
LINE
5
139
100
AcDbEntity
8
1
100
AcDbLine
10
1504.6137632572161
20
-297.62987654652443
30
0
11
1478.7932040330704
21
-282.35575721321334
31
0
0
LWPOLYLINE
5
140
100
AcDbEntity
8
0
100
AcDbPolyline
90
4
70
1
43
0.0
10
1547.890434700505
20
-224.47162541386248
10
1526.3733020144064
20
-211.74319263646098
42
0.99999999999999989
10
1519.2453796590619
20
-223.79278694067605
10
1540.7625123451603
20
-236.52121971807756
42
0.99999999999999989
0
LINE
5
141
100
AcDbEntity
8
1
100
AcDbLine
10
1544.3264735228327
20
-230.49642256596999
30
0
11
1522.809340836734
21
-217.76798978856846
31
0
0
LWPOLYLINE
5
142
100
AcDbEntity
8
0
100
AcDbPolyline
90
4
70
1
43
0.0
10
1646.4085043978939
20
-57.929018423631561
10
1629.1947978985922
20
-47.746271994367746
42
0.99999999999999989
10
1621.5577382321194
20
-60.656551606008158
10
1638.7714447314297
20
-70.839298035277224
42
0.99999999999999989
0
LINE
5
143
100
AcDbEntity
8
1
100
AcDbLine
10
1642.5899745646595
20
-64.384158229459061
30
0
11
1625.3762680653558
21
-54.201411800187948
31
0
0
LWPOLYLINE
5
144
100
AcDbEntity
8
0
100
AcDbPolyline
90
4
70
1
43
0.0
10
1425.6577801449166
20
-450.00710440961717
10
1376.6577801449166
20
-448.65104134882932
42
0.99999998946328783
10
1376.2428176773387
20
-463.64530045525095
10
1425.2428176773387
20
-465.00136351603862
42
0.99999998946328783
0
LINE
5
145
100
AcDbEntity
8
1
100
AcDbLine
10
1425.4502989111277
20
-457.50423396282793
30
0
11
1376.4502989111274
21
-456.14817090204014
31
0
0
LWPOLYLINE
5
146
100
AcDbEntity
8
0
100
AcDbPolyline
90
4
70
1
43
0.0
10
1424.2695460677371
20
-500.16957229522745
10
1404.2695460677371
20
-499.61607716837534
42
0.99999998946328783
10
1403.8545836001592
20
-514.61033627479662
10
1423.8545836001592
20
-515.16383140164885
42
0.99999998946328783
0
LINE
5
147
100
AcDbEntity
8
1
100
AcDbLine
10
1424.0620648339482
20
-507.66670184843815
30
0
11
1404.0620648339482
21
-507.11320672158598
31
0
0
LWPOLYLINE
5
148
100
AcDbEntity
8
0
100
AcDbPolyline
90
4
70
1
43
0.0
10
1659.3915058307857
20
-35.981543083783663
10
1642.177799681938
20
-25.798796861809347
42
0.99999999999999989
10
1631.9950534601739
20
-43.012503010778858
10
1649.2087596091333
20
-53.19524923256408
42
0.99999999999999989
0
LINE
5
149
100
AcDbEntity
8
1
100
AcDbLine
10
1654.3001327199033
20
-44.588396158268893
30
0
11
1637.0864265710561
21
-34.405649936294097
31
0
0
LWPOLYLINE
5
150
100
AcDbEntity
8
0
100
AcDbPolyline
90
4
70
1
43
0.0
10
2100.5362494090054
20
-19.555400822186108
10
2100.6246733161852
20
0.44440370715478134
42
1.0000000074505806
10
2083.6248394669101
20
0.51956402826187342
10
2083.5364155597354
20
-19.4802405010904
42
0.9999999925494194
0
LINE
5
151
100
AcDbEntity
8
1
100
AcDbLine
10
2092.0363324843702
20
-19.517820661638229
30
0
11
2092.1247563915476
21
0.4819838677089
31
0
0
LWPOLYLINE
5
152
100
AcDbEntity
8
0
100
AcDbPolyline
90
4
70
1
43
0.0
10
1833.53624941104
20
-18.374930123514453
10
1833.6246741824552
20
1.6250698764879978
42
0.99999999999999989
10
1816.6248403291345
20
1.7002301976316316
10
1816.5364155577188
20
-18.299769802385146
42
0.99999999999999989
0
LINE
5
153
100
AcDbEntity
8
1
100
AcDbLine
10
1825.0363324843793
20
-18.337349962949027
30
0
11
1825.124757255795
21
1.6626500370509703
31
0
0
LWPOLYLINE
5
154
100
AcDbEntity
8
0
100
AcDbPolyline
90
4
70
1
43
0.0
10
1745.5362494093133
20
-17.985861129166729
10
1745.6246741807331
20
2.0141388708059371
42
0.99999999999999989
10
1728.6248403307925
20
2.0892991919794386
10
1728.5364155593743
20
-17.910700808052134
42
1.0000000074505806
0
LINE
5
155
100
AcDbEntity
8
1
100
AcDbLine
10
1737.0363324843393
20
-17.948280968609442
30
0
11
1737.1247572557561
21
2.051719031390558
31
0
0
LWPOLYLINE
5
156
100
AcDbEntity
8
0
100
AcDbPolyline
90
4
70
1
43
0.0
10
1721.536249404448
20
-17.879751403401599
10
1721.6246741758537
20
2.1202485965772788
42
0.99999999999999989
10
1704.6248403356876
20
2.1954089176370486
10
1704.5364155642756
20
-17.804591082335072
42
1.0000000074505806
0
LINE
5
157
100
AcDbEntity
8
1
100
AcDbLine
10
1713.036332484364
20
-17.842171242868652
30
0
11
1713.1247572557704
21
2.1578287571313481
31
0
0
LWPOLYLINE
5
158
100
AcDbEntity
8
0
100
AcDbPolyline
90
4
70
1
43
0.0
10
2230.3946989119322
20
-25.742450334688996
10
2243.6677016913154
20
-10.781588153029183
42
0.99999999999999989
10
2230.9509688361563
20
0.50046421007579711
10
2217.67796605679
20
-14.460397971599059
42
0.99999999999999989
0
LINE
5
159
100
AcDbEntity
8
1
100
AcDbLine
10
2224.0363324843643
20
-20.101424153140709
30
0
11
2237.3093352637447
21
-5.1405619714821613
31
0
0
LINE
5
160
100
AcDbEntity
8
0
100
AcDbLine
10
2061.0363324843825
20
-19.38076226589104
30
0
11
2061.1468623675682
21
5.6189933960834768
31
0
0
LINE
5
161
100
AcDbEntity
8
0
100
AcDbLine
10
2021.0363324843865
20
-19.203912723018032
30
0
11
2021.1468623675742
21
5.7958429398315472
31
0
0
LINE
5
162
100
AcDbEntity
8
0
100
AcDbLine
10
2051.1911720573671
20
15.663107614041534
30
0
11
2031.1909765869505
21
15.751533251449706
31
0
0
ARC
5
163
100
AcDbEntity
8
0
100
AcDbCircle
10
2031.146764632472
20
5.7516309865580251
30
0
40
10.000000000215227
210
0
220
-0
230
1
100
AcDbArc
50
89.746683335174779
51
179.74668334207837
0
ARC
5
164
100
AcDbEntity
8
0
100
AcDbCircle
10
2051.1469601028884
20
5.663205349355426
30
0
40
9.999999999997792
210
0
220
0
230
1
100
AcDbArc
50
-0.25331665791734559
51
89.746683335168285
0
LINE
5
165
100
AcDbEntity
8
0
100
AcDbLine
10
2312.8357203468545
20
-96.151859492039591
30
4.4224280487778477e-14
11
2316.9536809985384
21
-93.315946927638649
31
4.4224280487778477e-14
0
LINE
5
166
100
AcDbEntity
8
0
100
AcDbLine
10
2335.5230208617741
20
-129.0955447040549
30
6.9666758950970242e-14
11
2339.640981513016
21
-126.25963213995678
31
6.9666758950970242e-14
0
LINE
5
167
100
AcDbEntity
8
1
100
AcDbLine
10
2299.4716066950709
20
-129.63917748393496
30
5.2046001958932813e-14
11
2340.6512132104108
21
-101.28005184082284
31
5.2046001958932813e-14
0
LINE
5
168
100
AcDbEntity
8
0
100
AcDbLine
10
2337.8153006460525
20
-97.16209118931846
30
4.9878164590710109e-14
11
2343.4871257747127
21
-105.39801249244536
31
6.1185932796572989e-14
0
ARC
5
169
100
AcDbEntity
8
0
100
AcDbCircle
10
2325.4614186914437
20
-105.66982888224642
30
4.987816459071004e-14
40
15.000000000002458
210
-3.2067841929299663e-16
220
4.6564944528428771e-16
230
1
100
AcDbArc
50
34.553986571760824
51
124.55398657169174
0
ARC
5
170
100
AcDbEntity
8
0
100
AcDbCircle
10
2331.1332438201093
20
-113.90575018535459
30
6.1185932796573115e-14
40
14.999999999985027
210
-3.2067841929294274e-16
220
4.6564944528499571e-16
230
1
100
AcDbArc
50
-55.446013428291913
51
34.553986571713722
0
LINE
5
171
100
AcDbEntity
8
0
100
AcDbLine
10
2224.0363324843643
20
-20.101424153140709
30
0
11
2271.1124810517967
21
-88.459570968629919
31
4.0222083158567733e-14
0
LINE
5
172
100
AcDbEntity
8
0
100
AcDbLine
10
2431.0579496790783
20
-320.71255171506942
30
1.4210854715202004e-13
11
2327.8307323383883
21
-170.81878399912145
31
8.0040284707683286e-14
0
ARC
5
173
100
AcDbEntity
8
0
100
AcDbCircle
10
2295.8202449610271
20
-71.444095582821248
30
4.0222083158567329e-14
40
29.999999999988432
210
-2.2699763381451425e-16
220
3.2961782242775076e-16
230
1
100
AcDbArc
50
214.55398657167268
51
304.55398657171514
0
ARC
5
174
100
AcDbEntity
8
0
100
AcDbCircle
10
2352.5384962476123
20
-153.80330861329679
30
8.0040284707684018e-14
40
30.000000000014978
210
-1.9612274686399181e-16
220
2.8478513922559436e-16
230
1
100
AcDbArc
50
124.55398657170683
51
214.55398657170474
0
LWPOLYLINE
5
175
100
AcDbEntity
8
0
100
AcDbPolyline
90
4
70
1
43
0.0
10
2321.5917246967815
20
-161.75927056605357
10
2346.2994886059632
20
-144.74379518021243
42
0.99999999999999989
10
2338.3589334257003
20
-133.21350535562414
10
2313.6511695164727
20
-150.22898074143404
42
0.99999999999999989
0
LINE
5
176
100
AcDbEntity
8
1
100
AcDbLine
10
2317.6214471066446
20
-155.99412565376281
30
7.679339360644083e-14
11
2342.3292110158486
21
-138.97865026789543
31
6.8749631202200392e-14
0
LWPOLYLINE
5
177
100
AcDbEntity
8
0
100
AcDbPolyline
90
4
70
1
43
0.0
10
2353.0703541601542
20
-207.46863379739963
10
2377.7781180693173
20
-190.4531584114734
42
0.99999999999999989
10
2363.5985552485495
20
-169.86335515502859
10
2338.8907913393696
20
-186.87883054092978
42
0.99999999999999989
0
LINE
5
178
100
AcDbEntity
8
1
100
AcDbLine
10
2345.9805727497696
20
-197.17373216908885
30
8.9945468852603081e-14
11
2370.6883366589741
21
-180.15825678322301
31
8.9945468852603081e-14
0
LWPOLYLINE
5
179
100
AcDbEntity
8
0
100
AcDbPolyline
90
4
70
1
43
0.0
10
2413.1917005239047
20
-294.76939961036339
10
2442.0174250847222
20
-274.91801166030092
42
0.9999999925494194
10
2432.375322366066
20
-260.91694544502019
10
2403.5495978053145
20
-280.76833339517827
42
0.99999999999999989
0
LINE
5
180
100
AcDbEntity
8
1
100
AcDbLine
10
2408.3706491646199
20
-287.76886650285752
30
1.1353254625365281e-13
11
2437.1963737253604
21
-267.91747855268363
31
1.1353254625365281e-13
0
LWPOLYLINE
5
181
100
AcDbEntity
8
0
100
AcDbPolyline
90
4
70
1
43
0.0
10
2424.5353507811787
20
-311.24124221658013
10
2449.2431146903841
20
-294.22576683071526
42
0.99999999999999989
10
2439.6010119717648
20
-280.22470061555327
10
2414.8932480625595
20
-297.24017600141798
42
0.99999999999999989
0
LINE
5
182
100
AcDbEntity
8
1
100
AcDbLine
10
2419.7142994218689
20
-304.24070910899883
30
1.3552656122062671e-13
11
2444.4220633310742
21
-287.22523372313424
31
1.3552656122062671e-13
0
LINE
5
183
100
AcDbEntity
8
0
100
AcDbLine
10
1618.9211282595361
20
-50.382881966952546
30
0
11
1628.4795734965712
21
-29.314276825411859
31
0
0
LINE
5
184
100
AcDbEntity
8
0
100
AcDbLine
10
1713.1623374163014
20
10.65774567719135
30
0
11
1737.1623374163423
21
10.551635956366423
31
0
0
LINE
5
185
100
AcDbEntity
8
0
100
AcDbLine
10
2092.1623365521004
20
8.9819007923234437
30
0
11
2052.7868901218908
21
15.527820371390259
31
0
0
LINE
5
186
100
AcDbEntity
8
0
100
AcDbLine
10
2348.094355927994
20
-135.00837267786574
30
6.8749631202200405e-14
11
2346.0727861923033
21
-112.56036038719877
31
6.5350241616259623e-14
0
LINE
5
187
100
AcDbEntity
8
0
100
AcDbLine
10
2451.4225964386555
20
-282.40418236382516
30
1.3552656122062671e-13
11
2445.1972915133447
21
-265.04775477671507
31
1.1353254625365281e-13
0
LINE
5
188
100
AcDbEntity
8
1
100
AcDbLine
10
1342.1926450906631
20
-605.77887694025276
30
2.8421709430404007e-13
11
1342.6248222066843
21
-585.78354691195989
31
2.8421709430404007e-13
0
LINE
5
189
100
AcDbEntity
8
0
100
AcDbLine
10
1273.3341637217302
20
235.88023689163953
30
2.8420823609981516e-13
11
1273.3595927937524
21
283.31082299250801
31
2.8421602708576979e-13
0
LINE
5
190
100
AcDbEntity
8
0
100
AcDbLine
10
1309.1515475964204
20
146.33190227757666
30
2.8453849490807806e-13
11
1276.9118023431627
21
218.97695174956721
31
2.8423210050305949e-13
0
LINE
5
191
100
AcDbEntity
8
0
100
AcDbLine
10
1311.9537068010054
20
133.40716557122224
30
2.8421709430404007e-13
11
1317.1485839329084
21
-424.04632700546517
31
2.8421709430404007e-13
0
LINE
5
192
100
AcDbEntity
8
0
100
AcDbLine
10
1316.9488182121518
20
-435.98465220297447
30
2.8421709430404007e-13
11
1310.0446266915474
21
-597.26754614730623
31
2.8421709430404007e-13
0
LINE
5
193
100
AcDbEntity
8
0
100
AcDbLine
10
1327.0210815595296
20
-616.54449181273151
30
2.8421709430404007e-13
11
1334.9237489556976
21
-617.20956288914442
31
2.8421709430404007e-13
0
LINE
5
194
100
AcDbEntity
8
0
100
AcDbLine
10
1354.3256482449067
20
-599.75495241565375
30
2.8421709430404007e-13
11
1354.326911228319
21
-599.69651857124165
31
2.8421709430404007e-13
0
LINE
5
195
100
AcDbEntity
8
0
100
AcDbLine
10
1359.294397600408
20
-593.03853995957058
30
2.6938782340858642e-13
11
1422.4668573205292
21
-572.77395703488992
31
1.5318497376294153e-14
0
LINE
5
196
100
AcDbEntity
8
0
100
AcDbLine
10
1425.0538842882386
20
-567.743321740184
30
-2.1890890119883078e-28
11
1422.6102759625164
21
-560.12565948173892
31
0
0
LINE
5
197
100
AcDbEntity
8
1
100
AcDbLine
10
1285.3308122703995
20
229.58910065568872
30
2.8421709430404007e-13
11
1273.2892884489063
21
227.13947599072984
31
2.842069425033431e-13
0
LINE
5
198
100
AcDbEntity
8
0
100
AcDbLine
10
1285.3629802073219
20
289.58909203255263
30
2.8421709430404007e-13
11
1276.3263876433271
21
287.17293625823015
31
2.8421667036009451e-13
0
LINE
5
199
100
AcDbEntity
8
0
100
AcDbLine
10
1285.3308122703995
20
229.58910065568872
30
2.8421709430404007e-13
11
1276.2968156591619
21
232.01494465762354
31
2.8421004499950456e-13
0
LINE
5
200
100
AcDbEntity
8
0
100
AcDbLine
10
1285.3308122703995
20
229.58910065568872
30
2.8421709430404007e-13
11
1278.0543580691703
21
223.71112083953483
31
2.8421948391811527e-13
0
LINE
5
201
100
AcDbEntity
8
0
100
AcDbLine
10
1323.8671048115807
20
142.75619125163445
30
2.8458163836431066e-13
11
1312.3848049864753
21
143.97689768156945
31
2.8455310462591721e-13
0
LINE
5
202
100
AcDbEntity
8
0
100
AcDbLine
10
1323.8671048115807
20
142.75619125163445
30
2.8458163836431066e-13
11
1313.9213396012894
21
136.8897538562922
31
2.8427785164741894e-13
0
LINE
5
203
100
AcDbEntity
8
1
100
AcDbLine
10
1329.2066271092519
20
-430.21892993743813
30
2.8421709430404007e-13
11
1317.204234468737
21
-430.01809216693846
31
2.8421709430404007e-13
0
LINE
5
204
100
AcDbEntity
8
0
100
AcDbLine
10
1329.2066271092519
20
-430.21892993743813
30
2.8421709430404007e-13
11
1320.1491830948132
21
-427.882235662646
31
2.8421709430404007e-13
0
LINE
5
205
100
AcDbEntity
8
0
100
AcDbLine
10
1329.2066271092519
20
-430.21892993743813
30
2.8421709430404007e-13
11
1320.0760752135529
21
-432.25128184844493
31
2.8421709430404007e-13
0
LINE
5
206
100
AcDbEntity
8
0
100
AcDbLine
10
1321.7648577110663
20
-604.05971936345077
30
2.8421709430404007e-13
11
1312.8413918651763
21
-601.25451180054722
31
2.8421709430404007e-13
0
LINE
5
207
100
AcDbEntity
8
0
100
AcDbLine
10
1321.7648577110663
20
-604.05971936345077
30
2.8421709430404007e-13
11
1323.4196141354644
21
-613.26619607421867
31
2.8421709430404007e-13
0
LINE
5
208
100
AcDbEntity
8
0
100
AcDbLine
10
1342.1926450906631
20
-605.77887694025276
30
2.8421709430404007e-13
11
1339.0224678355719
21
-614.57929786419868
31
2.8421709430404007e-13
0
LINE
5
209
100
AcDbEntity
8
0
100
AcDbLine
10
1342.1926450906631
20
-605.77887694025276
30
2.8421709430404007e-13
11
1351.2781264768932
21
-603.55368926265919
31
2.8421709430404007e-13
0
LINE
5
210
100
AcDbEntity
8
1
100
AcDbLine
10
1342.6248222066843
20
-585.78354691195989
30
2.8421709430404007e-13
11
1354.4371390610579
21
-594.59666068120077
31
2.8421709430404007e-13
0
LINE
5
211
100
AcDbEntity
8
0
100
AcDbLine
10
1342.6248222066843
20
-585.78354691195989
30
2.8421709430404007e-13
11
1356.2432891248354
21
-592.78690515887729
31
2.7656126861759583e-13
0
LINE
5
212
100
AcDbEntity
8
0
100
AcDbLine
10
1342.6248222066843
20
-585.78354691195989
30
2.8421709430404007e-13
11
1353.2167309873237
21
-596.84343553137728
31
2.8421709430404007e-13
0
LINE
5
213
100
AcDbEntity
8
0
100
AcDbLine
10
2506.0439229601261
20
92.610236877590438
30
1.4751850118776823e-13
11
2087.5228934157913
21
269.66198413989912
31
2.7995295343250113e-13
0
LINE
5
214
100
AcDbEntity
8
0
100
AcDbLine
10
2519.1076013696779
20
72.732417246164573
30
1.4210854715202004e-13
11
2516.1060908196573
21
-314.68655936471822
31
1.4210854715202004e-13
0
LINE
5
215
100
AcDbEntity
8
0
100
AcDbLine
10
2497.7458660534112
20
-332.86381897327931
30
1.4210854715202004e-13
11
2437.3154179768876
21
-332.72677341773488
31
1.4210854715202004e-13
0
LINE
5
216
100
AcDbEntity
8
0
100
AcDbLine
10
2504.0577619595101
20
-320.87810237632061
30
1.4210854715202004e-13
11
2501.6162828743345
21
-329.90786495015328
31
1.4210854715202004e-13
0
LINE
5
217
100
AcDbEntity
8
0
100
AcDbLine
10
2504.0577619595101
20
-320.87810237632061
30
1.4210854715202004e-13
11
2513.1115230079431
21
-318.52717834857322
31
1.4210854715202004e-13
0
LINE
5
218
100
AcDbEntity
8
0
100
AcDbLine
10
2431.0579496790783
20
-320.71255171506942
30
1.4210854715202004e-13
11
2433.4584480585063
21
-329.75329504917084
31
1.4210854715202004e-13
0
LINE
5
219
100
AcDbEntity
8
0
100
AcDbLine
10
2507.1566504383782
20
79.109893556261383
30
1.4210854715202004e-13
11
2516.17289948593
21
76.61897297185061
31
1.4210854715202004e-13
0
LINE
5
220
100
AcDbEntity
8
0
100
AcDbLine
10
2507.1566504383782
20
79.109893556261383
30
1.4210854715202004e-13
11
2508.4472196227075
21
88.3744422994301
31
1.4550842171290713e-13
0
LINE
5
221
100
AcDbEntity
8
0
100
AcDbLine
10
2077.0594710260393
20
261.05883216693513
30
2.8421709430404007e-13
11
2082.8094110905895
21
268.43688213324856
31
2.8167994794295478e-13
0
ARC
5
222
100
AcDbEntity
8
0
100
AcDbCircle
10
1277.3595922188765
20
283.30867846337981
30
2.8421603871508259e-13
40
3.9999999999998073
210
-2.9953932811952823e-21
220
-1.6425919274859444e-19
230
1
100
AcDbArc
50
104.96928188148217
51
179.96928188152324
0
ARC
5
223
100
AcDbEntity
8
0
100
AcDbCircle
10
1277.3341631468545
20
235.87809236251121
30
2.8421153293923446e-13
40
4.0000000000000613
210
-8.2429780187231578e-19
220
-1.6381886595144141e-19
230
1
100
AcDbArc
50
179.96928188151139
51
254.96928188148968
0
ARC
5
224
100
AcDbEntity
8
0
100
AcDbCircle
10
1280.567924844569
20
220.59953248860964
30
2.8423517448172762e-13
40
4.0000000000002327
210
-2.2662300744731344e-18
220
3.2119425401426889e-18
230
1
100
AcDbArc
50
128.93156405063041
51
203.93156405566592
0
ARC
5
225
100
AcDbEntity
8
0
100
AcDbCircle
10
1312.8076700978268
20
147.95448301661946
30
2.845410054332638e-13
40
4.000000000000254
210
-2.1374766397889934e-18
220
3.269083088202309e-18
230
1
100
AcDbArc
50
203.93156405567075
51
263.93156405061904
0
ARC
5
226
100
AcDbEntity
8
0
100
AcDbCircle
10
1315.9535331269335
20
133.44443972339548
30
2.8433860899079736e-13
40
4.0000000000010028
210
-3.0377352692403109e-17
220
-2.8308480785075452e-19
230
1
100
AcDbArc
50
120.5339206283749
51
180.5339206284832
0
ARC
5
227
100
AcDbEntity
8
0
100
AcDbCircle
10
1321.1484102588363
20
-424.00905285329094
30
2.8421709430404007e-13
40
4.0000000000006866
210
0
220
0
230
1
100
AcDbArc
50
180.53392062849684
51
255.53392062836991
0
ARC
5
228
100
AcDbEntity
8
0
100
AcDbCircle
10
1320.9451581989558
20
-436.15572736150824
30
2.8421709430404007e-13
40
3.9999999999996354
210
0
220
0
230
1
100
AcDbArc
50
102.54878118874227
51
177.54878118907283
0
ARC
5
229
100
AcDbEntity
8
0
100
AcDbCircle
10
1350.3278452226441
20
-599.61008314873663
30
2.8421709430404007e-13
40
4.0000000000008908
210
-0
220
0
230
1
100
AcDbArc
50
-1.238192601064023
51
43.761807393423169
0
ARC
5
230
100
AcDbEntity
8
0
100
AcDbCircle
10
1358.0725934369098
20
-589.22970882836148
30
2.5689737320891007e-13
40
4.0000000000011076
210
2.6927928520149436e-15
220
4.1431387147627122e-15
230
1
100
AcDbArc
50
242.78530165466211
51
287.78530165616922
0
ARC
5
231
100
AcDbEntity
8
0
100
AcDbCircle
10
1421.2450531570314
20
-568.96512590368252
30
1.531849737629236e-14
40
3.9999999999994467
210
3.6465981056348035e-15
220
1.1697627420560052e-15
230
1
100
AcDbArc
50
-72.214698343829497
51
17.785301656180785
0
ARC
5
232
100
AcDbEntity
8
0
100
AcDbCircle
10
2085.9644442628842
20
265.9780682562502
30
2.8076381837761256e-13
40
3.9999999999997722
210
3.4738111422098436e-16
220
7.3152903168585031e-17
230
1
100
AcDbArc
50
67.069623003202963
51
142.06962300315001
0
ARC
5
233
100
AcDbEntity
8
0
100
AcDbCircle
10
2504.4854738072186
20
88.926320993941417
30
1.4632569852213855e-13
40
4.0000000000000666
210
1.5221773355424528e-16
220
-3.8818103037910061e-16
230
1
100
AcDbArc
50
-7.9303769968552764
51
67.069623003197506
0
ARC
5
234
100
AcDbEntity
8
0
100
AcDbCircle
10
2515.1077214103493
20
72.763406130606228
30
1.4210854715202004e-13
40
3.9999999999999809
210
-0
220
0
230
1
100
AcDbArc
50
-0.44388751297003565
51
74.556112484469253
0
ARC
5
235
100
AcDbEntity
8
0
100
AcDbCircle
10
2512.1062108603282
20
-314.65557048027654
30
1.4210854715202004e-13
40
3.9999999999998863
210
0
220
0
230
1
100
AcDbArc
50
284.55611248446644
51
359.55611248702996
0
ARC
5
236
100
AcDbEntity
8
0
100
AcDbCircle
10
2497.7549373217867
20
-328.8638292592816
30
1.4210854715202004e-13
40
3.9999999999996461
210
0
220
0
230
1
100
AcDbArc
50
269.8700635404366
51
344.8700635363723
0
ARC
5
237
100
AcDbEntity
8
0
100
AcDbCircle
10
2437.3244892452622
20
-328.72678370373717
30
1.4210854715202004e-13
40
3.9999999999996416
210
0
220
0
230
1
100
AcDbArc
50
194.87006353507113
51
269.87006354044962
0
ARC
5
238
100
AcDbEntity
8
0
100
AcDbCircle
10
1314.0409666783523
20
-597.43862130584012
30
2.8421709430404007e-13
40
4.0000000000003535
210
0
220
0
230
1
100
AcDbArc
50
177.54878118907178
51
252.5487811887441
0
ARC
5
239
100
AcDbEntity
8
0
100
AcDbCircle
10
1327.3565269406195
20
-612.55858208014808
30
2.8421709430404007e-13
40
3.9999999999997229
210
0
220
0
230
1
100
AcDbArc
50
190.1894490299866
51
265.18944902820374
0
ARC
5
240
100
AcDbEntity
8
0
100
AcDbCircle
10
1335.2591943367875
20
-613.22365315656077
30
2.8421709430404007e-13
40
3.9999999999999587
210
0
220
0
230
1
100
AcDbArc
50
265.18944902820397
51
340.18944903000477
0
ARC
5
241
100
AcDbEntity
8
0
100
AcDbCircle
10
1350.3265822392325
20
-599.66851699314827
30
2.8421709430404007e-13
40
4.0000000000003464
210
0
220
0
230
1
100
AcDbArc
50
283.76180739412877
51
358.76180739892953
0
LWPOLYLINE
5
242
100
AcDbEntity
8
0
100
AcDbPolyline
90
4
70
1
43
0.0
10
1816.6248403291345
20
1998.2997698023682
10
1816.5364155577186
20
2018.2997698023837
42
-0.99999999999999989
10
1833.53624941104
20
2018.3749301235143
10
1833.6246741824552
20
1998.3749301235298
42
-0.99999999999999989
0
LINE
5
243
100
AcDbEntity
8
0
100
AcDbLine
10
1670.233773305351
20
2017.6529309172543
30
0
11
1426.2066173481892
21
2430.1754138927531
31
0
0
LWPOLYLINE
5
244
100
AcDbEntity
8
0
100
AcDbPolyline
90
4
70
1
43
0.0
10
1745.5362494093133
20
2017.9858611291666
42
0.99999999999999989
10
1728.5364155593743
20
2017.9107008080521
10
1728.6248403307925
20
1997.9107008080205
42
0.99999999999999989
10
1745.6246741807331
20
1997.9858611291938
0
LINE
5
245
100
AcDbEntity
8
0
100
AcDbLine
10
1311.9537068010054
20
1866.5928344287777
30
2.8421709430404007e-13
11
1317.1485839329084
21
2424.0463270054652
31
2.8421709430404007e-13
0
LINE
5
246
100
AcDbEntity
8
1
100
AcDbLine
10
1624.1305172814077
20
1958.8847607901694
30
2.8421709430404007e-13
11
1345.9525860000542
21
2431.819505694099
31
2.8421709430404007e-13
0
LINE
5
247
100
AcDbEntity
8
1
100
AcDbLine
10
1737.0363324843393
20
2017.9482809686097
30
0
11
1737.1247572557561
21
1997.9482809686097
31
0
0
LINE
5
248
100
AcDbEntity
8
1
100
AcDbLine
10
1323.8671048115807
20
1857.2438087483656
30
2.8458163836431066e-13
11
1329.2066271092519
21
2430.2189299374381
31
2.8421709430404007e-13
0
LINE
5
249
100
AcDbEntity
8
1
100
AcDbLine
10
1825.0363324843793
20
2018.337349962949
30
0
11
1825.124757255795
21
1998.337349962949
31
0
0
LINE
5
250
100
AcDbEntity
8
1
100
AcDbLine
10
1654.3001327199033
20
2044.588396158269
30
0
11
1637.0864265710561
21
2034.4056499362941
31
0
0
LINE
5
251
100
AcDbEntity
8
1
100
AcDbLine
10
1642.5899745646595
20
2064.384158229459
30
0
11
1625.3762680653558
21
2054.201411800188
31
0
0
LWPOLYLINE
5
252
100
AcDbEntity
8
0
100
AcDbPolyline
90
4
70
1
43
0.0
10
1704.6248403356876
20
1997.804591082363
10
1704.5364155648399
20
2017.8045909556772
42
-1.0000000074505806
10
1721.536249404448
20
2017.8797514034018
10
1721.624674175853
20
1997.8797514033745
42
-0.99999999999999989
0
LWPOLYLINE
5
253
100
AcDbEntity
8
0
100
AcDbPolyline
90
4
70
1
43
0.0
10
1646.4085043978939
20
2057.9290184236315
42
1.0000000105367122
10
1638.7714447314297
20
2070.8392980352774
10
1621.5577382321194
20
2060.6565516060082
42
1.0000000105367122
10
1629.1947978985922
20
2047.7462719943678
0
LINE
5
254
100
AcDbEntity
8
1
100
AcDbLine
10
1713.036332484364
20
2017.8421712428687
30
0
11
1713.1247572557704
21
1997.8421712428687
31
0
0
LINE
5
255
100
AcDbEntity
8
0
100
AcDbLine
10
2224.0363324843643
20
2020.1014241531407
30
0
11
2271.1124810517967
21
2088.45957096863
31
4.0222083158567733e-14
0
LWPOLYLINE
5
256
100
AcDbEntity
8
0
100
AcDbPolyline
90
4
70
1
43
0.0
10
1631.9950534601739
20
2043.0125030107788
10
1649.2087596090209
20
2053.1952492327541
42
-0.99999999999999989
10
1659.3915058307857
20
2035.9815430837834
10
1642.177799681938
20
2025.7987968618093
42
-0.99999999999999989
0
LINE
5
257
100
AcDbEntity
8
0
100
AcDbLine
10
1618.9211282595361
20
2050.3828819669525
30
0
11
1628.4795734965712
21
2029.314276825412
31
0
0
LINE
5
258
100
AcDbEntity
8
0
100
AcDbLine
10
1342.1926450906631
20
2605.7788769402528
30
2.8421709430404007e-13
11
1339.0224678355719
21
2614.5792978641985
31
2.8421709430404007e-13
0
LINE
5
259
100
AcDbEntity
8
0
100
AcDbLine
10
1327.0210815595296
20
2616.5444918127314
30
2.8421709430404007e-13
11
1334.9237489556976
21
2617.2095628891439
31
2.8421709430404007e-13
0
ARC
5
260
100
AcDbEntity
8
0
100
AcDbCircle
10
2051.1469601028884
20
1994.3367946506446
30
0
40
10.000000000009948
210
0
220
0
230
1
100
AcDbArc
50
-89.746683335168285
51
0.25331665791732011
0
LINE
5
261
100
AcDbEntity
8
0
100
AcDbLine
10
1342.6248222066843
20
2585.7835469119595
30
2.8421709430404007e-13
11
1356.2432891248354
21
2592.7869051588773
31
2.7656126861759583e-13
0
LWPOLYLINE
5
262
100
AcDbEntity
8
0
100
AcDbPolyline
90
4
70
1
43
0.0
10
2083.6248394669101
20
1999.4804359717382
10
2083.5364155597354
20
2019.480240501091
42
-0.99999999999999989
10
2100.5362494090054
20
2019.5554008221859
10
2100.6246733156249
20
1999.5555964195028
42
-1.0000000074505806
0
LINE
5
263
100
AcDbEntity
8
1
100
AcDbLine
10
1321.7648577110663
20
2604.0597193634503
30
2.8421709430404007e-13
11
1342.1926450906631
21
2605.7788769402528
31
2.8421709430404007e-13
0
LINE
5
264
100
AcDbEntity
8
1
100
AcDbLine
10
2224.0363324843643
20
2020.1014241531407
30
0
11
2237.3093352637447
21
2005.1405619714822
31
0
0
LINE
5
265
100
AcDbEntity
8
0
100
AcDbLine
10
2051.1911720573671
20
1984.3368923859584
30
0
11
2031.1909765869505
21
1984.2484667485501
31
0
0
ARC
5
266
100
AcDbEntity
8
0
100
AcDbCircle
10
1421.2450531570314
20
2568.9651259036827
30
1.531849737629236e-14
40
3.999999999999436
210
4.3270557799553076e-15
220
9.5148422275974809e-16
230
1
100
AcDbArc
50
-17.785301656183883
51
72.214698343828502
0
LINE
5
267
100
AcDbEntity
8
0
100
AcDbLine
10
1342.1926450906631
20
2605.7788769402528
30
2.8421709430404007e-13
11
1351.2781264768932
21
2603.5536892626587
31
2.8421709430404007e-13
0
ARC
5
268
100
AcDbEntity
8
0
100
AcDbCircle
10
1358.0725934369098
20
2589.2297088283613
30
2.5689737320891007e-13
40
4.0000000000014282
210
2.8270537626158364e-16
220
-3.3700262267495696e-15
230
1
100
AcDbArc
50
72.214698343832254
51
117.21469834533643
0
LINE
5
269
100
AcDbEntity
8
1
100
AcDbLine
10
1342.6248222066843
20
2585.7835469119595
30
2.8421709430404007e-13
11
1422.6102759625164
21
2560.1256594817391
31
0
0
ARC
5
270
100
AcDbEntity
8
0
100
AcDbCircle
10
1350.3265822392325
20
2599.6685169931479
30
2.8421709430404007e-13
40
4.0000000000003268
210
0
220
-0
230
1
100
AcDbArc
50
1.2381926010704745
51
76.238192605870879
0
ARC
5
271
100
AcDbEntity
8
0
100
AcDbCircle
10
2031.146764632472
20
1994.2483690134418
30
0
40
10.000000000216074
210
0
220
0
230
1
100
AcDbArc
50
180.25331665791873
51
270.25331666482521
0
LINE
5
272
100
AcDbEntity
8
0
100
AcDbLine
10
2021.0363324843865
20
2019.203912723018
30
0
11
2021.1468623675742
21
1994.2041570601687
31
0
0
ARC
5
273
100
AcDbEntity
8
0
100
AcDbCircle
10
1335.2591943367875
20
2613.2236531565604
30
2.8421709430404007e-13
40
4.0000000000000444
210
0
220
-0
230
1
100
AcDbArc
50
19.810550969996775
51
94.810550971796317
0
LWPOLYLINE
5
274
100
AcDbEntity
8
0
100
AcDbPolyline
90
4
70
1
43
0.0
10
2230.3946989119322
20
2025.7424503346892
42
0.99999999999999989
10
2217.67796605679
20
2014.4603979715994
10
2230.9509688361563
20
1999.4995357899243
42
0.99999999999999989
10
2243.6677016913154
20
2010.7815881530291
0
LINE
5
275
100
AcDbEntity
8
1
100
AcDbLine
10
2092.0363324843702
20
2019.5178206616383
30
0
11
2092.1247563915476
21
1999.5180161322912
31
0
0
LINE
5
276
100
AcDbEntity
8
0
100
AcDbLine
10
2077.0594710260393
20
1738.9411678330648
30
2.8421709430404007e-13
11
2055.3906159423645
21
1810.7427048595298
31
2.8421709430404007e-13
0
LINE
5
277
100
AcDbEntity
8
0
100
AcDbLine
10
2061.0363324843825
20
2019.380762265891
30
0
11
2061.1468623675682
21
1994.3810066039166
31
0
0
ARC
5
278
100
AcDbEntity
8
0
100
AcDbCircle
10
1350.3278452226441
20
2599.6100831487365
30
2.8421709430404007e-13
40
4.0000000000006981
210
-0
220
0
230
1
100
AcDbArc
50
-43.761807393419623
51
1.2381926010639983
0
LINE
5
279
100
AcDbEntity
8
0
100
AcDbLine
10
1354.3256482449067
20
2599.7549524156534
30
2.8421709430404007e-13
11
1354.326911228319
21
2599.6965185712415
31
2.8421709430404007e-13
0
LINE
5
280
100
AcDbEntity
8
1
100
AcDbLine
10
1342.1926450906631
20
2605.7788769402528
30
2.8421709430404007e-13
11
1342.6248222066843
21
2585.7835469119595
31
2.8421709430404007e-13
0
LINE
5
281
100
AcDbEntity
8
0
100
AcDbLine
10
2025.12484074197
20
1798.600418105076
30
2.8421709430404007e-13
11
2055.3906159423645
21
1810.7427048595298
31
2.8421709430404007e-13
0
LINE
5
282
100
AcDbEntity
8
0
100
AcDbLine
10
2092.1623365521004
20
1991.0180992076766
30
0
11
2052.7868901218908
21
1984.4721796286099
31
0
0
LINE
5
283
100
AcDbEntity
8
0
100
AcDbLine
10
2431.0579496790783
20
2320.7125517150694
30
1.4210854715202004e-13
11
2224.0363324843643
21
2020.1014241531407
31
0
0
LINE
5
284
100
AcDbEntity
8
0
100
AcDbLine
10
1285.3308122703995
20
1770.410899344311
30
2.8421709430404007e-13
11
1278.0543580691706
21
1776.2888791604653
31
2.8421948391811527e-13
0
LINE
5
285
100
AcDbEntity
8
1
100
AcDbLine
10
2345.9805727497696
20
2197.1737321690889
30
8.9945468852603081e-14
11
2370.6883366589741
21
2180.1582567832229
31
8.9945468852603081e-14
0
LINE
5
286
100
AcDbEntity
8
1
100
AcDbLine
10
2507.1566504383782
20
1920.8901064437384
30
1.4210854715202004e-13
11
2077.0594710260393
21
1738.9411678330648
31
2.8421709430404007e-13
0
LWPOLYLINE
5
287
100
AcDbEntity
8
0
100
AcDbPolyline
90
4
70
1
43
0.0
10
1509.7051363681614
20
2289.0230234720761
42
0.99999999999999989
10
1499.5223901462705
20
2306.2367296209727
10
1473.7018309221248
20
2290.9626102876618
42
0.99999999999999989
10
1483.8845771440162
20
2273.7489041387653
0
LWPOLYLINE
5
288
100
AcDbEntity
8
0
100
AcDbPolyline
90
4
70
1
43
0.0
10
2363.5985552485495
20
2169.8633551550283
10
2338.890791339385
20
2186.8788305407775
42
-0.99999999999999989
10
2353.0703541601542
20
2207.4686337973999
10
2377.7781179159929
20
2190.4531585170635
42
-1.0000000074505806
0
LWPOLYLINE
5
289
100
AcDbEntity
8
0
100
AcDbPolyline
90
4
70
1
43
0.0
10
2432.375322366066
20
2260.9169454450202
10
2403.5495978053355
20
2280.7683333953514
42
-0.99999999999999989
10
2413.1917005239047
20
2294.7693996103635
10
2442.0174250846549
20
2274.918011660347
42
-0.99999999999999989
0
LINE
5
290
100
AcDbEntity
8
1
100
AcDbLine
10
2507.1566504383782
20
1920.8901064437384
30
1.4210854715202004e-13
11
2504.0577619595101
21
2320.8781023763204
31
1.4210854715202004e-13
0
LINE
5
291
100
AcDbEntity
8
1
100
AcDbLine
10
1329.2066271092519
20
2430.2189299374381
30
2.8421709430404007e-13
11
1321.7648577110663
21
2604.0597193634503
31
2.8421709430404007e-13
0
LWPOLYLINE
5
292
100
AcDbEntity
8
0
100
AcDbPolyline
90
4
70
1
43
0.0
10
1547.890434700505
20
2224.4716254138625
10
1526.3733020144061
20
2211.7431926364607
42
-0.99999999999999989
10
1519.2453796590619
20
2223.7927869406763
10
1540.7625123451601
20
2236.5212197180772
42
-0.99999999999999989
0
LINE
5
293
100
AcDbEntity
8
0
100
AcDbLine
10
1426.2066173481892
20
2430.1754138927531
30
0
11
1422.6102759625164
21
2560.1256594817391
31
0
0
LINE
5
294
100
AcDbEntity
8
0
100
AcDbLine
10
2519.1076013696779
20
1927.2675827538353
30
1.4210854715202004e-13
11
2516.1060908196573
21
2314.6865593647185
31
1.4210854715202004e-13
0
LINE
5
295
100
AcDbEntity
8
0
100
AcDbLine
10
2431.0579496790783
20
2320.7125517150694
30
1.4210854715202004e-13
11
2327.8307323383883
21
2170.8187839991215
31
8.0040284707683286e-14
0
LINE
5
296
100
AcDbEntity
8
0
100
AcDbLine
10
1316.9488182121518
20
2435.9846522029743
30
2.8421709430404007e-13
11
1310.0446266915474
21
2597.2675461473063
31
2.8421709430404007e-13
0
LWPOLYLINE
5
297
100
AcDbEntity
8
0
100
AcDbPolyline
90
4
70
1
43
0.0
10
2338.3589334257003
20
2133.2135053556244
42
1.0000000074505806
10
2346.2994886059632
20
2144.7437951802121
10
2321.5917246967815
20
2161.7592705660536
42
0.99999999999999989
10
2313.6511695164727
20
2150.228980741434
0
LINE
5
298
100
AcDbEntity
8
0
100
AcDbLine
10
2507.1566504383782
20
1920.8901064437384
30
1.4210854715202004e-13
11
2516.17289948593
21
1923.3810270281492
31
1.4210854715202004e-13
0
ARC
5
299
100
AcDbEntity
8
0
100
AcDbCircle
10
2504.4854738072186
20
1911.0736790060585
30
1.4632569852213855e-13
40
4.0000000000001572
210
-1.2636016882788696e-16
220
2.7033102790938145e-16
230
1
100
AcDbArc
50
-67.069623003197265
51
7.9303769968580662
0
LINE
5
300
100
AcDbEntity
8
0
100
AcDbLine
10
2312.8357203468545
20
2096.1518594920399
30
4.4224280487778477e-14
11
2316.9536809985384
21
2093.3159469276388
31
4.4224280487778477e-14
0
LINE
5
301
100
AcDbEntity
8
0
100
AcDbLine
10
2431.0579496790783
20
2320.7125517150694
30
1.4210854715202004e-13
11
2433.4584480585063
21
2329.7532950491709
31
1.4210854715202004e-13
0
LINE
5
302
100
AcDbEntity
8
0
100
AcDbLine
10
2348.094355927994
20
2135.0083726778657
30
6.8749631202200405e-14
11
2346.0727861923033
21
2112.5603603871987
31
6.5350241616259623e-14
0
ARC
5
303
100
AcDbEntity
8
0
100
AcDbCircle
10
2515.1077214103493
20
1927.2365938693938
30
1.4210854715202004e-13
40
4.0000000000002807
210
-0
220
0
230
1
100
AcDbArc
50
-74.55611248447002
51
0.44388751296674195
0
LINE
5
304
100
AcDbEntity
8
0
100
AcDbLine
10
2504.0577619595101
20
2320.8781023763204
30
1.4210854715202004e-13
11
2501.6162828743345
21
2329.9078649501535
31
1.4210854715202004e-13
0
ARC
5
305
100
AcDbEntity
8
0
100
AcDbCircle
10
2331.1332438201093
20
2113.9057501853545
30
6.1185932796573115e-14
40
14.999999999987399
210
1.1435648789020513e-16
220
1.6605431468766851e-16
230
1
100
AcDbArc
50
-34.55398657171272
51
55.446013428292488
0
LWPOLYLINE
5
306
100
AcDbEntity
8
0
100
AcDbPolyline
90
4
70
1
43
0.0
10
1424.2695460677371
20
2500.1695722952272
42
0.99999999999999989
10
1423.8545836001592
20
2515.1638314016491
10
1403.8545836001592
20
2514.6103362747963
42
0.99999998946328783
10
1404.2695460677371
20
2499.6160771683753
0
ARC
5
307
100
AcDbEntity
8
0
100
AcDbCircle
10
2497.7549373217867
20
2328.8638292592814
30
1.4210854715202004e-13
40
3.9999999999996412
210
0
220
-0
230
1
100
AcDbArc
50
15.129936463633234
51
90.129936459563396
0
LINE
5
308
100
AcDbEntity
8
1
100
AcDbLine
10
1342.1926450906631
20
2605.7788769402528
30
2.8421709430404007e-13
11
1342.6248222066843
21
2585.7835469119595
31
2.8421709430404007e-13
0
ARC
5
309
100
AcDbEntity
8
0
100
AcDbCircle
10
2085.9644442628842
20
1734.02193174375
30
2.8076381837761256e-13
40
3.9999999999999587
210
2.7644438423022796e-16
220
1.7869739231732141e-17
230
1
100
AcDbArc
50
217.9303769968532
51
292.93037699679678
0
LWPOLYLINE
5
310
100
AcDbEntity
8
0
100
AcDbPolyline
90
4
70
1
43
0.0
10
1441.4807366811058
20
2404.3548546694556
42
0.99999999999999989
10
1434.3528143257613
20
2416.4044489736707
10
1401.6467726428914
20
2397.0572311520204
42
0.99999999999999989
10
1408.7746949982361
20
2385.0076368478049
0
LINE
5
311
100
AcDbEntity
8
1
100
AcDbLine
10
1329.2066271092519
20
2430.2189299374381
30
2.8421709430404007e-13
11
1317.204234468737
21
2430.0180921669385
31
2.8421709430404007e-13
0
LINE
5
312
100
AcDbEntity
8
0
100
AcDbLine
10
1359.294397600408
20
2593.0385399595707
30
2.6938782340858642e-13
11
1422.4668573205292
21
2572.7739570348899
31
1.5318497376294153e-14
0
ARC
5
313
100
AcDbEntity
8
0
100
AcDbCircle
10
2512.1062108603282
20
2314.6555704802763
30
1.4210854715202004e-13
40
3.9999999999999822
210
0
220
-0
230
1
100
AcDbArc
50
0.4438875129765949
51
75.443887515534399
0
LINE
5
314
100
AcDbEntity
8
0
100
AcDbLine
10
1321.7648577110663
20
2604.0597193634503
30
2.8421709430404007e-13
11
1312.8413918651763
21
2601.2545118005473
31
2.8421709430404007e-13
0
LINE
5
315
100
AcDbEntity
8
1
100
AcDbLine
10
1342.6248222066843
20
2585.7835469119595
30
2.8421709430404007e-13
11
1354.4371390610579
21
2594.5966606812008
31
2.8421709430404007e-13
0
LWPOLYLINE
5
316
100
AcDbEntity
8
0
100
AcDbPolyline
90
4
70
1
43
0.0
10
2439.6010119717648
20
2280.2247006155535
10
2414.893248062559
20
2297.2401760014172
42
-0.99999999999999989
10
2424.5353507811787
20
2311.2412422165798
10
2449.2431145860678
20
2294.2257669025544
42
-1.0000000074505806
0
LINE
5
317
100
AcDbEntity
8
1
100
AcDbLine
10
2419.7142994218689
20
2304.2407091089985
30
1.3552656122062671e-13
11
2444.4220633310742
21
2287.2252337231344
31
1.3552656122062671e-13
0
LINE
5
318
100
AcDbEntity
8
0
100
AcDbLine
10
1285.3629802073219
20
1710.4109079674477
30
2.8421709430404007e-13
11
2025.12484074197
21
1798.600418105076
31
2.8421709430404007e-13
0
LINE
5
319
100
AcDbEntity
8
1
100
AcDbLine
10
1504.6137632572161
20
2297.6298765465244
30
0
11
1478.7932040330704
21
2282.3557572132136
31
0
0
LINE
5
320
100
AcDbEntity
8
0
100
AcDbLine
10
1321.7648577110663
20
2604.0597193634503
30
2.8421709430404007e-13
11
1323.4196141354644
21
2613.2661960742189
31
2.8421709430404007e-13
0
LWPOLYLINE
5
321
100
AcDbEntity
8
0
100
AcDbPolyline
90
4
70
1
43
0.0
10
1425.6577801449166
20
2450.0071044096171
10
1376.6577799869262
20
2448.6510413444566
42
-0.99999998946328783
10
1376.2428176773387
20
2463.6453004552509
10
1425.2428176773387
20
2465.001363516039
42
-0.99999999999999989
0
LINE
5
322
100
AcDbEntity
8
1
100
AcDbLine
10
1424.0620648339482
20
2507.6667018484382
30
0
11
1404.0620648339482
21
2507.1132067215858
31
0
0
ARC
5
323
100
AcDbEntity
8
0
100
AcDbCircle
10
1327.3565269406195
20
2612.5585820801484
30
2.8421709430404007e-13
40
3.9999999999993685
210
0
220
0
230
1
100
AcDbArc
50
94.810550971796857
51
169.81055097001502
0
ARC
5
324
100
AcDbEntity
8
0
100
AcDbCircle
10
1315.9535331269335
20
1866.5555602766044
30
2.8433860899079736e-13
40
4.0000000000009619
210
-3.0382628336432547e-17
220
-2.8303564442656015e-19
230
1
100
AcDbArc
50
179.46607937151677
51
239.46607937162383
0
LINE
5
325
100
AcDbEntity
8
0
100
AcDbLine
10
1425.0538842882386
20
2567.743321740184
30
-2.1890890119883078e-28
11
1422.6102759625164
21
2560.1256594817391
31
0
0
LINE
5
326
100
AcDbEntity
8
1
100
AcDbLine
10
1323.8671048115807
20
1857.2438087483656
30
2.8458163836431066e-13
11
1285.3308122703995
21
1770.410899344311
31
2.8421709430404007e-13
0
ARC
5
327
100
AcDbEntity
8
0
100
AcDbCircle
10
1312.8076700978268
20
1852.0455169833804
30
2.845410054332638e-13
40
4.0000000000003526
210
-1.4501592491187509e-18
220
-3.1960129915343222e-18
230
1
100
AcDbArc
50
96.068435949380984
51
156.06843594432848
0
LINE
5
328
100
AcDbEntity
8
0
100
AcDbLine
10
2506.0439229601261
20
1907.3897631224095
30
1.4751850118776823e-13
11
2087.5228934157913
21
1730.338015860101
31
2.7995295343250113e-13
0
ARC
5
329
100
AcDbEntity
8
0
100
AcDbCircle
10
1280.567924844569
20
1779.4004675113906
30
2.8423517448172762e-13
40
4.0000000000000959
210
1.1556742756026253e-19
220
2.1549049956916457e-18
230
1
100
AcDbArc
50
156.06843594433312
51
231.06843594937342
0
LINE
5
330
100
AcDbEntity
8
0
100
AcDbLine
10
1273.3341637217302
20
1764.1197631083605
30
2.8420823609981516e-13
11
1273.3595927937522
21
1716.6891770074922
31
2.8421602708576979e-13
0
LINE
5
331
100
AcDbEntity
8
1
100
AcDbLine
10
1425.4502989111277
20
2457.504233962828
30
0
11
1376.4502989111274
21
2456.14817090204
31
0
0
ARC
5
332
100
AcDbEntity
8
0
100
AcDbCircle
10
1277.3595922188765
20
1716.6913215366203
30
2.8421603871508259e-13
40
3.9999999999997771
210
-2.8192639938086336e-21
220
-1.6425909831998411e-19
230
1
100
AcDbArc
50
180.03071811847676
51
255.03071811851467
0
ARC
5
333
100
AcDbEntity
8
0
100
AcDbCircle
10
1277.3341631468545
20
1764.1219076374887
30
2.8421153293923446e-13
40
4.0000000000002505
210
-9.0635931130609e-19
220
1.4178338940647583e-19
230
1
100
AcDbArc
50
105.03071811851004
51
180.03071811847676
0
LINE
5
334
100
AcDbEntity
8
0
100
AcDbLine
10
2335.5230208617741
20
2129.0955447040551
30
6.9666758950970242e-14
11
2339.640981513016
21
2126.2596321399569
31
6.9666758950970242e-14
0
ARC
5
335
100
AcDbEntity
8
0
100
AcDbCircle
10
2352.5384962476123
20
2153.8033086132968
30
8.0040284707684018e-14
40
29.999999999992465
210
6.9938939377933801e-17
220
1.0155665727987107e-16
230
1
100
AcDbArc
50
145.44601342829529
51
235.44601342829304
0
LINE
5
336
100
AcDbEntity
8
0
100
AcDbLine
10
1309.1515475964204
20
1853.6680977224232
30
2.8453849490807806e-13
11
1276.9118023431629
21
1781.023048250433
31
2.8423210050305949e-13
0
LINE
5
337
100
AcDbEntity
8
1
100
AcDbLine
10
2299.4716066950709
20
2129.6391774839349
30
5.2046001958932813e-14
11
2340.6512132104108
21
2101.2800518408226
31
5.2046001958932813e-14
0
LINE
5
338
100
AcDbEntity
8
0
100
AcDbLine
10
1342.6248222066843
20
2585.7835469119595
30
2.8421709430404007e-13
11
1353.2167309873237
21
2596.8434355313775
31
2.8421709430404007e-13
0
LINE
5
339
100
AcDbEntity
8
1
100
AcDbLine
10
1285.3308122703995
20
1770.410899344311
30
2.8421709430404007e-13
11
1273.2892884489065
21
1772.8605240092702
31
2.842069425033431e-13
0
LINE
5
340
100
AcDbEntity
8
0
100
AcDbLine
10
1285.3629802073219
20
1710.4109079674477
30
2.8421709430404007e-13
11
1276.3263876433268
21
1712.82706374177
31
2.8421667036009451e-13
0
ARC
5
341
100
AcDbEntity
8
0
100
AcDbCircle
10
2295.8202449610271
20
2071.4440955828213
30
4.0222083158567329e-14
40
29.99999999998979
210
-3.8361268263786769e-16
220
1.0220086444012978e-16
230
1
100
AcDbArc
50
55.446013428285085
51
145.44601342832723
0
LINE
5
342
100
AcDbEntity
8
0
100
AcDbLine
10
1323.8671048115807
20
1857.2438087483656
30
2.8458163836431066e-13
11
1312.3848049864753
21
1856.0231023184303
31
2.8455310462591721e-13
0
LINE
5
343
100
AcDbEntity
8
0
100
AcDbLine
10
1285.3308122703995
20
1770.410899344311
30
2.8421709430404007e-13
11
1276.2968156591619
21
1767.9850553423764
31
2.8421004499950456e-13
0
ARC
5
344
100
AcDbEntity
8
0
100
AcDbCircle
10
1320.9451581989558
20
2436.1557273615081
30
2.8421709430404007e-13
40
3.9999999999994991
210
0
220
0
230
1
100
AcDbArc
50
182.45121881092717
51
257.45121881125795
0
ARC
5
345
100
AcDbEntity
8
0
100
AcDbCircle
10
2325.4614186914437
20
2105.6698288822463
30
4.987816459071004e-14
40
14.999999999988656
210
-6.4882052004468174e-16
220
-1.0837832926442271e-17
230
1
100
AcDbArc
50
235.44601342830759
51
325.44601342823904
0
LINE
5
346
100
AcDbEntity
8
1
100
AcDbLine
10
1285.3308122703995
20
1770.410899344311
30
2.8421709430404007e-13
11
1285.3629802073219
21
1710.4109079674477
31
2.8421709430404007e-13
0
LINE
5
347
100
AcDbEntity
8
0
100
AcDbLine
10
1426.2066173481892
20
2430.1754138927531
30
0
11
1648.1904849867331
21
2054.916619847585
31
0
0
LINE
5
348
100
AcDbEntity
8
0
100
AcDbLine
10
1713.1623374163014
20
1989.3422543228087
30
0
11
1737.1623374163423
21
1989.4483640436333
31
0
0
LINE
5
349
100
AcDbEntity
8
1
100
AcDbLine
10
1342.1926450906631
20
2605.7788769402528
30
2.8421709430404007e-13
11
1345.9525860000542
21
2431.819505694099
31
2.8421709430404007e-13
0
LINE
5
350
100
AcDbEntity
8
0
100
AcDbLine
10
2224.0363324843643
20
2020.1014241531407
30
0
11
1670.233773305351
21
2017.6529309172543
31
0
0
LINE
5
351
100
AcDbEntity
8
1
100
AcDbLine
10
1544.3264735228327
20
2230.4964225659701
30
0
11
1522.809340836734
21
2217.7679897885682
31
0
0
LINE
5
352
100
AcDbEntity
8
1
100
AcDbLine
10
2268.7346748239879
20
1981.4785669302587
30
1.4210854715202004e-13
11
1624.1305172814077
21
1958.8847607901694
31
2.8421709430404007e-13
0
LINE
5
353
100
AcDbEntity
8
0
100
AcDbLine
10
1329.2066271092519
20
2430.2189299374381
30
2.8421709430404007e-13
11
1320.1491830948132
21
2427.8822356626461
31
2.8421709430404007e-13
0
LINE
5
354
100
AcDbEntity
8
1
100
AcDbLine
10
2317.6214471066446
20
2155.9941256537627
30
7.679339360644083e-14
11
2342.3292110158486
21
2138.9786502678953
31
6.8749631202200392e-14
0
LINE
5
355
100
AcDbEntity
8
0
100
AcDbLine
10
1323.8671048115807
20
1857.2438087483656
30
2.8458163836431066e-13
11
1313.9213396012894
21
1863.1102461437079
31
2.8427785164741894e-13
0
LINE
5
356
100
AcDbEntity
8
1
100
AcDbLine
10
2504.0577619595101
20
2320.8781023763204
30
1.4210854715202004e-13
11
2431.0579496790783
21
2320.7125517150694
31
1.4210854715202004e-13
0
LINE
5
357
100
AcDbEntity
8
0
100
AcDbLine
10
1329.2066271092519
20
2430.2189299374381
30
2.8421709430404007e-13
11
1320.0760752135529
21
2432.2512818484447
31
2.8421709430404007e-13
0
ARC
5
358
100
AcDbEntity
8
0
100
AcDbCircle
10
2437.3244892452622
20
2328.7267837037371
30
1.4210854715202004e-13
40
3.9999999999997864
210
0
220
0
230
1
100
AcDbArc
50
90.129936459550379
51
165.12993646492654
0
LINE
5
359
100
AcDbEntity
8
0
100
AcDbLine
10
2451.4225964386555
20
2282.4041823638249
30
1.3552656122062671e-13
11
2445.1972915133447
21
2265.047754776715
31
1.1353254625365281e-13
0
ARC
5
360
100
AcDbEntity
8
0
100
AcDbCircle
10
1314.0409666783523
20
2597.4386213058406
30
2.8421709430404007e-13
40
3.9999999999999969
210
0
220
0
230
1
100
AcDbArc
50
107.45121881125736
51
182.45121881093314
0
LINE
5
361
100
AcDbEntity
8
1
100
AcDbLine
10
2408.3706491646199
20
2287.7688665028572
30
1.1353254625365281e-13
11
2437.1963737253604
21
2267.9174785526839
31
1.1353254625365281e-13
0
LINE
5
362
100
AcDbEntity
8
0
100
AcDbLine
10
2504.0577619595101
20
2320.8781023763204
30
1.4210854715202004e-13
11
2513.1115230079431
21
2318.5271783485732
31
1.4210854715202004e-13
0
LINE
5
363
100
AcDbEntity
8
0
100
AcDbLine
10
2497.7458660534112
20
2332.8638189732792
30
1.4210854715202004e-13
11
2437.3154179768876
21
2332.7267734177349
31
1.4210854715202004e-13
0
LINE
5
364
100
AcDbEntity
8
0
100
AcDbLine
10
2337.8153006460525
20
2097.1620911893183
30
4.9878164590710109e-14
11
2343.4871257747127
21
2105.3980124924456
31
6.1185932796572989e-14
0
LINE
5
365
100
AcDbEntity
8
0
100
AcDbLine
10
2077.0594710260393
20
1738.9411678330648
30
2.8421709430404007e-13
11
2082.8094110905895
21
1731.5631178667513
31
2.8167994794295478e-13
0
ARC
5
366
100
AcDbEntity
8
0
100
AcDbCircle
10
1321.1484102588363
20
2424.009052853291
30
2.8421709430404007e-13
40
4.000000000000778
210
0
220
0
230
1
100
AcDbArc
50
104.46607937163006
51
179.46607937150318
0
LINE
5
367
100
AcDbEntity
8
1
100
AcDbLine
10
1437.9167755034334
20
2410.3796518215631
30
0
11
1405.2107338205637
21
2391.0324339999129
31
0
0
LINE
5
368
100
AcDbEntity
8
0
100
AcDbLine
10
2507.1566504383782
20
1920.8901064437384
30
1.4210854715202004e-13
11
2508.4472196227075
21
1911.62555770057
31
1.4550842171290713e-13
0
ENDSEC
0
SECTION
2
OBJECTS
0
DICTIONARY
5
C
100
AcDbDictionary
3
ACAD_GROUP
350
D
3
ACAD_MLINESTYLE
350
17
0
DICTIONARY
5
D
100
AcDbDictionary
0
DICTIONARY
5
1A
330
C
100
AcDbDictionary
0
DICTIONARY
5
17
100
AcDbDictionary
0
ENDSEC
0
EOF
