0
SECTION
2
HEADER
9
$INSUNITS
70
4
9
$ACADVER
1
AC1014
9
$HANDSEED
5
FFFF
0
ENDSEC
0
SECTION
2
TABLES
0
TABLE
2
VPORT
5
8
100
AcDbSymbolTable
0
ENDTAB
0
TABLE
2
LTYPE
5
5
100
AcDbSymbolTable
0
LTYPE
5
14
100
AcDbSymbolTableRecord
100
AcDbLinetypeTableRecord
2
BYBLOCK
70
0
0
LTYPE
5
15
100
AcDbSymbolTableRecord
100
AcDbLinetypeTableRecord
2
BYLAYER
70
0
0
ENDTAB
0
TABLE
2
LAYER
5
2
100
AcDbSymbolTable
70
2
0
LAYER
5
50
100
AcDbSymbolTableRecord
100
AcDbLayerTableRecord
2
0
70
0
6
CONTINUOUS
0
ENDTAB
0
TABLE
2
STYLE
5
3
100
AcDbSymbolTable
70
1
0
STYLE
5
11
100
AcDbSymbolTableRecord
100
AcDbTextStyleTableRecord
2
STANDARD
70
0
0
ENDTAB
0
TABLE
2
VIEW
5
6
100
AcDbSymbolTable
70
0
0
ENDTAB
0
TABLE
2
UCS
5
7
100
AcDbSymbolTable
70
0
0
ENDTAB
0
TABLE
2
APPID
5
9
100
AcDbSymbolTable
70
2
0
APPID
5
12
100
AcDbSymbolTableRecord
100
AcDbRegAppTableRecord
2
ACAD
70
0
0
ENDTAB
0
TABLE
2
DIMSTYLE
5
A
100
AcDbSymbolTable
70
1
0
ENDTAB
0
TABLE
2
BLOCK_RECORD
5
1
100
AcDbSymbolTable
70
1
0
BLOCK_RECORD
5
1F
100
AcDbSymbolTableRecord
100
AcDbBlockTableRecord
2
*MODEL_SPACE
0
BLOCK_RECORD
5
1B
100
AcDbSymbolTableRecord
100
AcDbBlockTableRecord
2
*PAPER_SPACE
0
ENDTAB
0
ENDSEC
0
SECTION
2
BLOCKS
0
BLOCK
5
20
100
AcDbEntity
100
AcDbBlockBegin
2
*MODEL_SPACE
0
ENDBLK
5
21
100
AcDbEntity
100
AcDbBlockEnd
0
BLOCK
5
1C
100
AcDbEntity
100
AcDbBlockBegin
2
*PAPER_SPACE
0
ENDBLK
5
1D
100
AcDbEntity
100
AcDbBlockEnd
0
ENDSEC
0
SECTION
2
ENTITIES
0
LINE
5
100
100
AcDbEntity
8
0
100
AcDbLine
10
-610.7623352362815
20
185.96975519875016
30
0
11
614.2376647637185
21
185.96975519875059
31
0
0
LINE
5
101
100
AcDbEntity
8
0
100
AcDbLine
10
614.2376647637185
20
185.96975519875059
30
0
11
1008.4232995886565
21
211.32099378112827
31
0
0
LINE
5
102
100
AcDbEntity
8
0
100
AcDbLine
10
1008.4232995886565
20
211.32099378112827
30
0
11
996.64004963156322
21
-109.46266387687771
31
0
0
LINE
5
103
100
AcDbEntity
8
0
100
AcDbLine
10
646.73766476371861
20
-101.19700819840872
30
0
11
996.64004963156322
21
-109.46266387687771
31
0
0
LINE
5
104
100
AcDbEntity
8
0
100
AcDbLine
10
646.73766476371884
20
-101.19700819840872
30
0
11
-643.26233523628139
21
-101.19700819840915
31
0
0
LWPOLYLINE
5
105
100
AcDbEntity
8
0
100
AcDbPolyline
90
16
70
1
43
0.0
10
-610.7623352362815
20
185.96975519875016
10
-1004.9479700612198
20
211.32099378112699
10
-1017.4272470307811
20
224.14836413935041
10
-1004.7218692937788
20
-121.73902323192692
10
-993.16472010412565
20
-109.46266387687899
10
-643.26233523628139
20
-101.19700819840915
10
-640.9186415826008
20
-109.54804581156253
42
0.33616506078374347
10
-636.10463105417
20
-113.19700819840847
10
-3.8938550686793731
20
-113.19700819840877
42
0.38887873185299082
10
1.0871184217793575
20
-108.63278691214703
10
1.7376647637188114
20
-101.19700819840894
10
1.7376647637185272
20
185.96975519875036
10
1.0871184217790564
20
193.40553391248858
42
0.38887873185298671
10
-3.8938550686796702
20
197.96975519875025
10
-603.41957473485218
20
197.96975519875016
42
0.33052527115348496
10
-608.20516476855778
20
194.41824683811106
0
LINE
5
106
100
AcDbEntity
8
0
100
AcDbLine
10
-1004.9479700612198
20
211.32099378112699
30
0
11
-993.16472010412565
21
-109.46266387687899
31
0
0
LINE
5
107
100
AcDbEntity
8
0
100
AcDbLine
10
-610.37685576280364
20
197.96975519875016
30
0
11
-1017.4272470307811
21
224.14836413935041
31
0
0
LINE
5
108
100
AcDbEntity
8
0
100
AcDbLine
10
-1004.7218692937788
20
-121.73902323192692
30
0
11
-650.13464922294236
21
-113.36269887449865
31
0
0
LINE
5
109
100
AcDbEntity
8
0
100
AcDbLine
10
646.5959480468008
20
-113.19700819840904
30
0
11
982.15049411113284
21
-121.12372850401768
31
0
0
LINE
5
110
100
AcDbEntity
8
0
100
AcDbLine
10
1020.9025765582194
20
224.14836413935134
30
0
11
1009.1535865305668
21
-95.702611489786051
31
0
0
LINE
5
111
100
AcDbEntity
8
0
100
AcDbLine
10
613.85218529023757
20
197.96975519875033
30
0
11
1020.9025765582194
21
224.14836413935134
31
0
0
LINE
5
112
100
AcDbEntity
8
0
100
AcDbLine
10
-610.37685576280364
20
197.96975519875016
30
0
11
-3.8938550686796729
21
197.96975519875025
31
0
0
LINE
5
113
100
AcDbEntity
8
0
100
AcDbLine
10
-1014.9501821468546
20
201.59020941619985
30
0
11
-994.94575797558525
21
221.05177814605398
31
0
0
LINE
5
114
100
AcDbEntity
8
0
100
AcDbLine
10
-1004.1089108253442
20
-99.159638259342472
30
0
11
-982.22052938290722
21
-119.76568949441527
31
0
0
LINE
5
115
100
AcDbEntity
8
0
100
AcDbLine
10
985.6958589103466
20
-119.76568949441356
30
0
11
1007.5842403527852
21
-99.159638259336319
31
0
0
LINE
5
116
100
AcDbEntity
8
0
100
AcDbLine
10
996.64004963156322
20
-109.46266387687771
30
0
11
1008.19719882122
21
-121.73902323192777
31
0
0
LINE
5
117
100
AcDbEntity
8
0
100
AcDbLine
10
998.42108750302327
20
221.05177814605557
30
0
11
1018.425511674292
21
201.59020941619858
31
0
0
LINE
5
118
100
AcDbEntity
8
0
100
AcDbLine
10
1008.4232995886565
20
211.32099378112827
30
0
11
1020.9025765582194
21
224.14836413935134
31
0
0
LINE
5
119
100
AcDbEntity
8
0
100
AcDbLine
10
-610.7623352362815
20
185.96975519875016
30
0
11
-610.37685576280364
21
197.96975519875016
31
0
0
LINE
5
120
100
AcDbEntity
8
0
100
AcDbLine
10
-610.7623352362815
20
185.96975519875016
30
0
11
-612.77200646910319
21
194.56494881595958
31
0
0
LINE
5
121
100
AcDbEntity
8
0
100
AcDbLine
10
-643.12061851932003
20
-113.19700819840847
30
0
11
-643.26233523628139
21
-101.19700819840915
31
0
0
LINE
5
122
100
AcDbEntity
8
0
100
AcDbLine
10
-643.26233523628139
20
-101.19700819840915
30
0
11
-645.40815580006483
21
-109.60106574614105
31
0
0
LINE
5
123
100
AcDbEntity
8
0
100
AcDbLine
10
-991.13828346293053
20
222.45764350264341
30
0
11
-617.31979307586334
21
198.41627593602666
31
0
0
LINE
5
124
100
AcDbEntity
8
0
100
AcDbLine
10
-1016.4602395699961
20
197.82284347376901
30
0
11
-1005.6782570031261
21
-95.702611489792133
31
0
0
LINE
5
125
100
AcDbEntity
8
0
100
AcDbLine
10
-978.67516458369346
20
-121.12372850401903
30
0
11
-646.34576605749635
21
-113.27319504427089
31
0
0
LINE
5
126
100
AcDbEntity
8
0
100
AcDbLine
10
606.89490426228917
20
197.96975519875136
30
0
11
7.3691845961165106
21
197.96975519875042
31
0
0
LINE
5
127
100
AcDbEntity
8
0
100
AcDbLine
10
614.2376647637185
20
185.96975519875139
30
0
11
611.68049429599466
21
194.41824683811231
31
0
0
LINE
5
128
100
AcDbEntity
8
0
100
AcDbLine
10
614.2376647637185
20
185.96975519875139
30
0
11
616.2473359965403
21
194.5649488159608
31
0
0
LINE
5
129
100
AcDbEntity
8
0
100
AcDbLine
10
994.61361299036844
20
222.45764350264534
30
0
11
620.79512260330034
21
198.41627593602789
31
0
0
LINE
5
130
100
AcDbEntity
8
0
100
AcDbLine
10
1019.935569097433
20
197.8228434737681
30
0
11
1009.0782650460675
21
-97.753140960430073
31
0
0
LINE
5
131
100
AcDbEntity
8
0
100
AcDbLine
10
984.20183421705906
20
-121.17218679332385
30
0
11
653.60997875037981
21
-113.36269887449744
31
0
0
LINE
5
132
100
AcDbEntity
8
0
100
AcDbLine
10
646.73766476371895
20
-101.19700819840787
30
0
11
648.88348532750229
21
-109.60106574613965
31
0
0
LINE
5
133
100
AcDbEntity
8
0
100
AcDbLine
10
646.73766476371895
20
-101.19700819840787
30
0
11
644.39397111003859
21
-109.54804581156118
31
0
0
LINE
5
134
100
AcDbEntity
8
0
100
AcDbLine
10
639.57996058160779
20
-113.19700819840713
30
0
11
7.3691845961164404
21
-113.19700819840875
31
0
0
ARC
5
135
100
AcDbEntity
8
0
100
AcDbCircle
10
-1000.6816268215384
20
-95.519071770834842
30
0
40
4.9999999999988098
210
0
220
0
230
1
100
AcDbArc
50
182.10368287704495
51
226.72845746435524
0
ARC
5
136
100
AcDbEntity
8
0
100
AcDbCircle
10
-978.7932453791002
20
-116.1251230059068
30
0
40
5.0000000000001732
210
0
220
0
230
1
100
AcDbArc
50
226.72845746435138
51
271.35323205165344
0
ARC
5
137
100
AcDbEntity
8
0
100
AcDbCircle
10
-1011.4636093884076
20
198.00638319272701
30
0
40
4.9999999999996501
210
0
220
0
230
1
100
AcDbArc
50
134.21194522101635
51
182.10368287705273
0
ARC
5
138
100
AcDbEntity
8
0
100
AcDbCircle
10
-991.45918521713782
20
217.4679519225806
30
0
40
5.0000000000003197
210
0
220
-0
230
1
100
AcDbArc
50
86.320207564984742
51
134.21194522101578
0
ARC
5
139
100
AcDbEntity
8
0
100
AcDbCircle
10
-617.64069483007052
20
193.42658435596434
30
0
40
4.9999999999998277
210
0
220
-0
230
1
100
AcDbArc
50
13.160103782482119
51
86.320207564985679
0
ARC
5
140
100
AcDbEntity
8
0
100
AcDbCircle
10
606.89490426228917
20
192.96975519875144
30
0
40
4.9999999999999636
210
0
220
-0
230
1
100
AcDbArc
50
16.839896217498953
51
90
0
ARC
5
141
100
AcDbEntity
8
0
100
AcDbCircle
10
621.11602435750751
20
193.42658435596553
30
0
40
4.9999999999998144
210
0
220
0
230
1
100
AcDbArc
50
93.679792435014306
51
166.83989621751726
0
ARC
5
142
100
AcDbEntity
8
0
100
AcDbCircle
10
994.93451474457618
20
217.46795192258412
30
0
40
4.9999999999987557
210
0
220
-0
230
1
100
AcDbArc
50
45.788054778971578
51
93.679792435021639
0
ARC
5
143
100
AcDbEntity
8
0
100
AcDbCircle
10
1014.9389389158466
20
198.00638319272704
30
0
40
4.9999999999975921
210
-0
220
0
230
1
100
AcDbArc
50
-2.1036828770643403
51
45.788054778986279
0
ARC
5
144
100
AcDbEntity
8
0
100
AcDbCircle
10
1004.1569563489766
20
-95.519071770827793
30
0
40
5.0000000000013936
210
0
220
0
230
1
100
AcDbArc
50
313.27154253566147
51
357.89631712294505
0
ARC
5
145
100
AcDbEntity
8
0
100
AcDbCircle
10
982.26857490653947
20
-116.12512300590565
30
0
40
4.9999999999999636
210
0
220
0
230
1
100
AcDbArc
50
268.64676794834776
51
313.27154253565391
0
ARC
5
146
100
AcDbEntity
8
0
100
AcDbCircle
10
653.72805954578644
20
-108.36409337638551
30
0
40
4.9999999999998099
210
0
220
0
230
1
100
AcDbArc
50
194.32338397392328
51
268.64676794834776
0
ARC
5
147
100
AcDbEntity
8
0
100
AcDbCircle
10
639.57996058160779
20
-108.19700819840718
30
0
40
4.9999999999999645
210
-0
220
0
230
1
100
AcDbArc
50
270
51
344.32338397394199
0
ARC
5
148
100
AcDbEntity
8
0
100
AcDbCircle
10
-650.25273001834864
20
-108.36409337638706
30
0
40
4.9999999999995133
210
-0
220
0
230
1
100
AcDbArc
50
271.35323205164843
51
345.67661602607745
0
LINE
5
149
100
AcDbEntity
8
0
100
AcDbLine
10
1.7376647637188114
20
-101.19700819840894
30
0
11
2.3882111056582769
21
-108.63278691214701
31
0
0
LINE
5
150
100
AcDbEntity
8
0
100
AcDbLine
10
646.5959480468008
20
-113.19700819840904
30
0
11
2.7875287260298953
21
-113.19700819840875
31
0
0
LINE
5
151
100
AcDbEntity
8
0
100
AcDbLine
10
0.68780080140775102
20
-113.19700819840875
30
0
11
-643.12061851932003
21
-113.19700819840847
31
0
0
ARC
5
152
100
AcDbEntity
8
0
100
AcDbCircle
10
7.3691845961161135
20
-108.19700819840972
30
0
40
4.9999999999990266
210
0
220
0
230
1
100
AcDbArc
50
184.99999999998948
51
270.00000000000375
0
LINE
5
153
100
AcDbEntity
8
0
100
AcDbLine
10
1.7376647637185272
20
185.96975519875036
30
0
11
2.3882111056579971
21
193.40553391248864
31
0
0
ARC
5
154
100
AcDbEntity
8
0
100
AcDbCircle
10
7.3691845961165008
20
192.96975519875062
30
0
40
4.9999999999997868
210
0
220
-0
230
1
100
AcDbArc
50
89.999999999999901
51
175.00000000000293
0
ENDSEC
0
SECTION
2
OBJECTS
0
DICTIONARY
5
C
100
AcDbDictionary
3
ACAD_GROUP
350
D
3
ACAD_MLINESTYLE
350
17
0
DICTIONARY
5
D
100
AcDbDictionary
0
DICTIONARY
5
1A
330
C
100
AcDbDictionary
0
DICTIONARY
5
17
100
AcDbDictionary
0
ENDSEC
0
EOF
