0
SECTION
2
HEADER
9
$INSUNITS
70
1
9
$ACADVER
1
AC1014
9
$HANDSEED
5
FFFF
0
ENDSEC
0
SECTION
2
TABLES
0
TABLE
2
VPORT
5
8
100
AcDbSymbolTable
0
ENDTAB
0
TABLE
2
LTYPE
5
5
100
AcDbSymbolTable
0
LTYPE
5
14
100
AcDbSymbolTableRecord
100
AcDbLinetypeTableRecord
2
BYBLOCK
70
0
0
LTYPE
5
15
100
AcDbSymbolTableRecord
100
AcDbLinetypeTableRecord
2
BYLAYER
70
0
0
LTYPE
5
16
100
AcDbSymbolTableRecord
100
AcDbLinetypeTableRecord
2
DASHED
70
0
3
Dashed __ __ __ __ __ __ __ __ __ __ __ __ __ _
72
65
73
2
40
0.75
49
0.5
74
0
49
-0.25
74
0
0
ENDTAB
0
TABLE
2
LAYER
5
2
100
AcDbSymbolTable
70
3
0
LAYER
5
50
100
AcDbSymbolTableRecord
100
AcDbLayerTableRecord
2
1
70
0
62
7
6
DASHED
0
LAYER
5
51
100
AcDbSymbolTableRecord
100
AcDbLayerTableRecord
2
0
70
0
62
7
6
CONTINUOUS
0
ENDTAB
0
TABLE
2
STYLE
5
3
100
AcDbSymbolTable
70
1
0
STYLE
5
11
100
AcDbSymbolTableRecord
100
AcDbTextStyleTableRecord
2
STANDARD
70
0
0
ENDTAB
0
TABLE
2
VIEW
5
6
100
AcDbSymbolTable
70
0
0
ENDTAB
0
TABLE
2
UCS
5
7
100
AcDbSymbolTable
70
0
0
ENDTAB
0
TABLE
2
APPID
5
9
100
AcDbSymbolTable
70
2
0
APPID
5
12
100
AcDbSymbolTableRecord
100
AcDbRegAppTableRecord
2
ACAD
70
0
0
ENDTAB
0
TABLE
2
DIMSTYLE
5
A
100
AcDbSymbolTable
70
1
0
ENDTAB
0
TABLE
2
BLOCK_RECORD
5
1
100
AcDbSymbolTable
70
1
0
BLOCK_RECORD
5
1F
100
AcDbSymbolTableRecord
100
AcDbBlockTableRecord
2
*MODEL_SPACE
0
BLOCK_RECORD
5
1B
100
AcDbSymbolTableRecord
100
AcDbBlockTableRecord
2
*PAPER_SPACE
0
ENDTAB
0
ENDSEC
0
SECTION
2
BLOCKS
0
BLOCK
5
20
100
AcDbEntity
100
AcDbBlockBegin
2
*MODEL_SPACE
0
ENDBLK
5
21
100
AcDbEntity
100
AcDbBlockEnd
0
BLOCK
5
1C
100
AcDbEntity
100
AcDbBlockBegin
2
*PAPER_SPACE
0
ENDBLK
5
1D
100
AcDbEntity
100
AcDbBlockEnd
0
ENDSEC
0
SECTION
2
ENTITIES
0
LINE
5
100
100
AcDbEntity
8
0
100
AcDbLine
10
16.362252441230599
20
-3.3711821441542007
30
0
11
18.58155796244867
21
-15.904251585593496
31
0
0
LINE
5
101
100
AcDbEntity
8
0
100
AcDbLine
10
18.58155796244867
20
-15.904251585593496
30
0
11
41.663092941912474
21
-9.3421510458703274
31
0
0
LINE
5
102
100
AcDbEntity
8
0
100
AcDbLine
10
41.663092941912474
20
-9.3421510458703274
30
0
11
42.434151879975758
21
-3.2879522947790609
31
0
0
LINE
5
103
100
AcDbEntity
8
0
100
AcDbLine
10
42.434151879975758
20
-3.2879522947790609
30
0
11
16.832887733104805
21
-6.0289977257664464
31
0
0
LINE
5
104
100
AcDbEntity
8
0
100
AcDbLine
10
35.378803815513322
20
-4.0433458357063801
30
0
11
35.153887630612118
21
-1.942636888869353
31
0
0
LWPOLYLINE
5
105
100
AcDbEntity
8
0
100
AcDbPolyline
90
25
70
1
43
0.0
10
35.153887630612118
20
-1.942636888869353
10
21.135920983290958
20
-3.0501805952256564
10
9.5474078863762273
20
12.309389315179406
10
-17.240819274783124
20
11.182033361087647
10
-29.078639075724865
20
-6.4143237572175993
10
-29.690226788038157
20
-14.791128836461688
10
-125.34512592602451
20
-15.261305799659556
10
-125.60376898332335
20
-7.9781881691060912
10
-135.69522385238218
20
7.4241402654061837
10
-157.69694874101185
20
6.8534325414636736
10
-165.50018868182104
20
-4.1163221845321445
10
-168.44750210918446
20
-4.3085740368058358
10
-178.45834485088568
20
-4.35177074438106
10
-178.59615324322812
20
-4.1003856648388446
10
-179.45000572702077
20
6.8500002186129407
10
-179.40188119964384
20
6.9492628181834473
10
-178.4759089345599
20
8.048309232333505
10
-178.76473121232161
20
9.4038785056503471
10
-178.85739851070491
20
9.4852886033113251
10
-178.64463463980101
20
9.6900510562189144
10
-86.997957847841377
20
39.53013751831044
10
-39.160561524060185
20
34.493920734820819
10
40.912383998770188
20
22.874845025273626
10
39.201437230997961
20
-0.12931224365826458
10
38.317423462088911
20
-1.4401701828446467
0
LINE
5
106
100
AcDbEntity
8
0
100
AcDbLine
10
21.135920983290958
20
-3.0501805952256564
30
0
11
21.559709390898785
21
-5.5229120561737606
31
0
0
LINE
5
107
100
AcDbEntity
8
0
100
AcDbLine
10
-29.690226788038157
20
-14.791128836461688
30
0
11
-23.725620386850153
21
-14.972296067245727
31
0
0
LINE
5
108
100
AcDbEntity
8
0
100
AcDbLine
10
16.362252441230599
20
-3.3711821441542007
30
0
11
6.6488464952676605
21
8.9317763456397365
31
0
0
LINE
5
109
100
AcDbEntity
8
0
100
AcDbLine
10
6.6488464952676605
20
8.9317763456397365
30
0
11
-14.335682757347199
21
8.0426713672205192
31
0
0
LINE
5
110
100
AcDbEntity
8
0
100
AcDbLine
10
-14.335682757347199
20
8.0426713672205192
30
0
11
-24.324033784576358
21
-6.6058303556868205
31
0
0
LINE
5
111
100
AcDbEntity
8
0
100
AcDbLine
10
-24.324033784576358
20
-6.6058303556868205
30
0
11
-25.129708866668931
21
-22.516861241912618
31
0
0
LINE
5
112
100
AcDbEntity
8
0
100
AcDbLine
10
-25.129708866668931
20
-22.516861241912618
30
0
11
-26.169771861084239
21
-22.485270669146299
31
0
0
LINE
5
113
100
AcDbEntity
8
0
100
AcDbLine
10
-26.169771861084239
20
-22.485270669146299
30
0
11
-28.864862156039614
21
-19.662280481885784
31
0
0
LINE
5
114
100
AcDbEntity
8
0
100
AcDbLine
10
-28.864862156039614
20
-19.662280481885784
30
0
11
-90.666356215300226
21
-19.917327419121055
31
0
0
CIRCLE
5
115
100
AcDbEntity
8
0
100
AcDbCircle
10
-3.0920446572736062
20
-11.581260646743251
30
0
40
17.500000000000004
210
0
220
-0
230
1
0
CIRCLE
5
116
100
AcDbEntity
8
0
100
AcDbCircle
10
-3.0920446572736062
20
-11.581260646743251
30
0
40
11.000000000000002
210
0
220
-0
230
1
0
CIRCLE
5
117
100
AcDbEntity
8
0
100
AcDbCircle
10
-3.0920446572736062
20
-11.581260646743251
30
0
40
3.9999999999999996
210
0
220
-0
230
1
0
LINE
5
118
100
AcDbEntity
8
0
100
AcDbLine
10
-178.4759089345599
20
8.048309232333505
30
0
11
-168.61321173472601
21
9.2542684979908785
31
0
0
LINE
5
119
100
AcDbEntity
8
0
100
AcDbLine
10
-168.61321173472601
20
9.2542684979908785
30
0
11
-168.63939640008633
21
11.39740588031021
31
0
0
LINE
5
120
100
AcDbEntity
8
0
100
AcDbLine
10
-168.63939640008633
20
11.39740588031021
30
0
11
-176.5116906985084
21
9.574437338073281
31
0
0
LINE
5
121
100
AcDbEntity
8
0
100
AcDbLine
10
-176.5116906985084
20
9.574437338073281
30
0
11
-178.76473121232161
21
9.4038785056503471
31
0
0
LINE
5
122
100
AcDbEntity
8
0
100
AcDbLine
10
-178.64463463980101
20
9.6900510562189162
30
0
11
-154.93928584204474
21
18.400310066501884
31
0
0
LINE
5
123
100
AcDbEntity
8
0
100
AcDbLine
10
-154.93928584204474
20
18.400310066501884
30
0
11
-151.53465267620868
21
18.041877710038428
31
0
0
LINE
5
124
100
AcDbEntity
8
0
100
AcDbLine
10
-151.53465267620868
20
18.041877710038428
30
0
11
-168.63939640008633
21
11.39740588031021
31
0
0
LINE
5
125
100
AcDbEntity
8
0
100
AcDbLine
10
-168.60627308881487
20
8.6863608608213951
30
0
11
-176.30573836261914
21
7.3384502031797094
31
0
0
LINE
5
126
100
AcDbEntity
8
0
100
AcDbLine
10
-176.30573836261914
20
7.3384502031797094
30
0
11
-179.20563050752224
21
7.1821948698050502
31
0
0
LINE
5
127
100
AcDbEntity
8
0
100
AcDbLine
10
-151.53465267620868
20
18.041877710038428
30
0
11
-86.997957847841377
21
39.53013751831044
31
0
0
LINE
5
128
100
AcDbEntity
8
0
100
AcDbLine
10
-90.666356215300226
20
-19.917327419121055
30
0
11
-59.765609185669767
21
-19.789803950503419
31
0
0
LINE
5
129
100
AcDbEntity
8
0
100
AcDbLine
10
-90.666356215300226
20
-19.917327419121055
30
0
11
-125.17472068012614
21
-20.059739067896295
31
0
0
LINE
5
130
100
AcDbEntity
8
0
100
AcDbLine
10
-125.34512592602451
20
-15.261305799659556
30
0
11
-125.17472068012614
21
-20.059739067896295
31
0
0
CIRCLE
5
131
100
AcDbEntity
8
0
100
AcDbCircle
10
-146.47379095826597
20
-11.457729219676622
30
0
40
17.500000000000004
210
0
220
-0
230
1
0
CIRCLE
5
132
100
AcDbEntity
8
0
100
AcDbCircle
10
-146.47379095826597
20
-11.457729219676622
30
0
40
11.000000000000002
210
0
220
-0
230
1
0
CIRCLE
5
133
100
AcDbEntity
8
0
100
AcDbCircle
10
-146.47379095826597
20
-11.457729219676622
30
0
40
3.9999999999999996
210
0
220
-0
230
1
0
LWPOLYLINE
5
134
100
AcDbEntity
8
0
100
AcDbPolyline
90
4
70
1
43
0.0
10
-39.493291734858225
20
31.711707686839738
10
-38.486593076977591
20
22.242133972558413
10
-149.46732000669698
20
15.914378970489899
10
-87.261813697088527
20
37.028516597677331
0
LINE
5
135
100
AcDbEntity
8
0
100
AcDbLine
10
-72.757050296450458
20
35.414084077469141
30
0
11
-73.440951737275569
21
20.249151731625126
31
0
0
LINE
5
136
100
AcDbEntity
8
0
100
AcDbLine
10
-81.031179069732985
20
19.816382003956921
30
0
11
-78.684917217599661
21
36.073877061927512
31
0
0
LINE
5
137
100
AcDbEntity
8
0
100
AcDbLine
10
-112.34295158695393
20
28.515337802582707
30
0
11
-113.86857947825365
21
17.944101740181672
31
0
0
LWPOLYLINE
5
138
100
AcDbEntity
8
0
100
AcDbPolyline
90
7
70
1
43
0.0
10
-166.48808035494585
20
-5.5050952367815675
10
-180.39163688691099
20
-6.1591793672409656
10
-180.10630284893872
20
-9.0092018473504663
10
-177.9276985582963
20
-15.087763726526974
10
-168.63132268318523
20
-15.179504159554636
10
-167.28654835183764
20
-18.931582507024526
10
-166.95323402109193
20
-18.980105317648942
0
LINE
5
139
100
AcDbEntity
8
0
100
AcDbLine
10
-168.60627308881487
20
8.6863608608213951
30
0
11
-168.44750210918446
21
-4.3085740368058358
31
0
0
LINE
5
140
100
AcDbEntity
8
0
100
AcDbLine
10
-168.60627308881487
20
8.6863608608213951
30
0
11
-168.63939640008633
21
11.39740588031021
31
0
0
LINE
5
141
100
AcDbEntity
8
0
100
AcDbLine
10
-168.63939640008633
20
11.39740588031021
30
0
11
40.912383998770188
21
22.874845025273626
31
0
0
LINE
5
142
100
AcDbEntity
8
0
100
AcDbLine
10
-165.50018868182104
20
-4.1163221845321445
30
0
11
-166.48808035494585
21
-5.5050952367815675
31
0
0
LINE
5
143
100
AcDbEntity
8
0
100
AcDbLine
10
-177.71775089577656
20
-4.3485750872984088
30
0
11
-177.54986418914575
21
-6.0254899461415761
31
0
0
LINE
5
144
100
AcDbEntity
8
0
100
AcDbLine
10
-122.42356899130682
20
-8.5358703607646405
30
0
11
-122.1091681892311
21
-15.24539994647866
31
0
0
LINE
5
145
100
AcDbEntity
8
0
100
AcDbLine
10
-122.42356899130682
20
-8.5358703607646405
30
0
11
-133.78723241662823
21
10.339272785165148
31
0
0
LINE
5
146
100
AcDbEntity
8
0
100
AcDbLine
10
-159.09319840879024
20
9.5387423892480889
30
0
11
-133.78723241662823
21
10.339272785165148
31
0
0
LINE
5
147
100
AcDbEntity
8
0
100
AcDbLine
10
-159.09319840879024
20
9.5387423892480889
30
0
11
-168.44750210918446
21
-4.3085740368058358
31
0
0
ENDSEC
0
SECTION
2
OBJECTS
0
DICTIONARY
5
C
100
AcDbDictionary
3
ACAD_GROUP
350
D
3
ACAD_MLINESTYLE
350
17
0
DICTIONARY
5
D
100
AcDbDictionary
0
DICTIONARY
5
1A
330
C
100
AcDbDictionary
0
DICTIONARY
5
17
100
AcDbDictionary
0
ENDSEC
0
EOF
