  0
SECTION
  2
HEADER
  9
$ACADVER
  1
AC1009
  9
$EXTMIN
 10
0.0
 20
0.0
 30
0.0
  9
$EXTMAX
 10
1000.0
 20
1000.0
 30
0.0
  9
$FILLMODE
 70
 0
  9
$SPLFRAME
 70
 1
  0
ENDSEC
  0
SECTION
  2
TABLES
  0
TABLE
  2
LAYER
 70
1
  0
LAYER
  2
0
 70
     0
 62
     7
  6
CONTINUOUS
  0
ENDTAB
  0
ENDSEC
  0
SECTION
  2
ENTITIES
  0
POLYLINE
  8
0
 62
     0
 66
     1
 10
0
 20
0
 30
0.0
 70
     1
 40
0
 41
0
  0
VERTEX
  8
0
 10
1102.27
 20
12155.5
 30
0.0
 40
0
 41
0
  0
VERTEX
  8
0
 10
16.2806
 20
12160.9
 30
0.0
 40
0
 41
0
  0
VERTEX
  8
0
 10
7.29264
 20
11986.2
 30
0.0
 40
0
 41
0
  0
VERTEX
  8
0
 10
0
 20
11413.2
 30
0.0
 40
0
 41
0
  0
VERTEX
  8
0
 10
40.1808
 20
11327.1
 30
0.0
 40
0
 41
0
  0
VERTEX
  8
0
 10
42.3599
 20
11270.2
 30
0.0
 40
0
 41
0
  0
VERTEX
  8
0
 10
68.2383
 20
11267.6
 30
0.0
 40
0
 41
0
  0
VERTEX
  8
0
 10
72.2965
 20
11309.4
 30
0.0
 40
0
 41
0
  0
VERTEX
  8
0
 10
156.899
 20
11301.2
 30
0.0
 40
0
 41
0
  0
VERTEX
  8
0
 10
153.275
 20
11263.9
 30
0.0
 40
0
 41
0
  0
VERTEX
  8
0
 10
1130.14
 20
11208.9
 30
0.0
 40
0
 41
0
  0
VERTEX
  8
0
 10
1130.53
 20
11215.9
 30
0.0
 40
0
 41
0
  0
VERTEX
  8
0
 10
1136.52
 20
11215.5
 30
0.0
 40
0
 41
0
  0
VERTEX
  8
0
 10
1139.34
 20
11263.5
 30
0.0
 40
0
 41
0
  0
VERTEX
  8
0
 10
1104.87
 20
11353.1
 30
0.0
 40
0
 41
0
  0
VERTEX
  8
0
 10
1101.16
 20
11969
 30
0.0
 40
0
 41
0
  0
VERTEX
  8
0
 10
1102.27
 20
12155.5
 30
0.0
 40
0
 41
0
  0
SEQEND
 8
0
  0
POLYLINE
  8
0
 62
     0
 66
     1
 10
0
 20
0
 30
0.0
 70
     1
 40
0
 41
0
  0
VERTEX
  8
0
 10
68.3401
 20
11268.7
 30
0.0
 40
0
 41
0
  0
VERTEX
  8
0
 10
42.3599
 20
11270.2
 30
0.0
 40
0
 41
0
  0
SEQEND
 8
0
  0
POLYLINE
  8
0
 62
     0
 66
     1
 10
0
 20
0
 30
0.0
 70
     1
 40
0
 41
0
  0
VERTEX
  8
0
 10
37.0724
 20
10324.3
 30
0.0
 40
0
 41
0
  0
VERTEX
  8
0
 10
1123.06
 20
10318.9
 30
0.0
 40
0
 41
0
  0
VERTEX
  8
0
 10
1132.05
 20
10493.7
 30
0.0
 40
0
 41
0
  0
VERTEX
  8
0
 10
1139.34
 20
11066.6
 30
0.0
 40
0
 41
0
  0
VERTEX
  8
0
 10
1099.16
 20
11152.7
 30
0.0
 40
0
 41
0
  0
VERTEX
  8
0
 10
1096.98
 20
11209.6
 30
0.0
 40
0
 41
0
  0
VERTEX
  8
0
 10
1071.1
 20
11212.2
 30
0.0
 40
0
 41
0
  0
VERTEX
  8
0
 10
1067.04
 20
11170.3
 30
0.0
 40
0
 41
0
  0
VERTEX
  8
0
 10
982.443
 20
11178.6
 30
0.0
 40
0
 41
0
  0
VERTEX
  8
0
 10
986.065
 20
11215.9
 30
0.0
 40
0
 41
0
  0
VERTEX
  8
0
 10
9.20497
 20
11270.9
 30
0.0
 40
0
 41
0
  0
VERTEX
  8
0
 10
8.81136
 20
11263.9
 30
0.0
 40
0
 41
0
  0
VERTEX
  8
0
 10
2.82086
 20
11264.3
 30
0.0
 40
0
 41
0
  0
VERTEX
  8
0
 10
0.000162761
 20
11216.3
 30
0.0
 40
0
 41
0
  0
VERTEX
  8
0
 10
34.475
 20
11126.7
 30
0.0
 40
0
 41
0
  0
VERTEX
  8
0
 10
38.1807
 20
10510.8
 30
0.0
 40
0
 41
0
  0
VERTEX
  8
0
 10
37.0724
 20
10324.3
 30
0.0
 40
0
 41
0
  0
SEQEND
 8
0
  0
POLYLINE
  8
0
 62
     0
 66
     1
 10
0
 20
0
 30
0.0
 70
     1
 40
0
 41
0
  0
VERTEX
  8
0
 10
1071
 20
11211.1
 30
0.0
 40
0
 41
0
  0
VERTEX
  8
0
 10
1096.98
 20
11209.6
 30
0.0
 40
0
 41
0
  0
SEQEND
 8
0
  0
POLYLINE
  8
0
 62
     0
 66
     1
 10
0
 20
0
 30
0.0
 70
     1
 40
0
 41
0
  0
VERTEX
  8
0
 10
917.826
 20
10319.9
 30
0.0
 40
0
 41
0
  0
VERTEX
  8
0
 10
1276.77
 20
8277.93
 30
0.0
 40
0
 41
0
  0
VERTEX
  8
0
 10
847.072
 20
8311.36
 30
0.0
 40
0
 41
0
  0
VERTEX
  8
0
 10
198.778
 20
8300.19
 30
0.0
 40
0
 41
0
  0
VERTEX
  8
0
 10
5.42535e-05
 20
8290.79
 30
0.0
 40
0
 41
0
  0
VERTEX
  8
0
 10
5.51708
 20
8552.72
 30
0.0
 40
0
 41
0
  0
VERTEX
  8
0
 10
206.513
 20
8554.07
 30
0.0
 40
0
 41
0
  0
VERTEX
  8
0
 10
639.083
 20
8839.92
 30
0.0
 40
0
 41
0
  0
VERTEX
  8
0
 10
658.269
 20
9467.17
 30
0.0
 40
0
 41
0
  0
VERTEX
  8
0
 10
598.297
 20
9469
 30
0.0
 40
0
 41
0
  0
VERTEX
  8
0
 10
599.061
 20
9493.99
 30
0.0
 40
0
 41
0
  0
VERTEX
  8
0
 10
466.294
 20
9591.96
 30
0.0
 40
0
 41
0
  0
VERTEX
  8
0
 10
501.919
 20
9640.24
 30
0.0
 40
0
 41
0
  0
VERTEX
  8
0
 10
271.349
 20
9810.38
 30
0.0
 40
0
 41
0
  0
VERTEX
  8
0
 10
304.399
 20
10254.2
 30
0.0
 40
0
 41
0
  0
VERTEX
  8
0
 10
329.95
 20
10269.9
 30
0.0
 40
0
 41
0
  0
VERTEX
  8
0
 10
917.826
 20
10319.9
 30
0.0
 40
0
 41
0
  0
SEQEND
 8
0
  0
POLYLINE
  8
0
 62
     0
 66
     1
 10
0
 20
0
 30
0.0
 70
     1
 40
0
 41
0
  0
VERTEX
  8
0
 10
183.747
 20
6712.22
 30
0.0
 40
0
 41
0
  0
VERTEX
  8
0
 10
441.042
 20
6411.19
 30
0.0
 40
0
 41
0
  0
VERTEX
  8
0
 10
892.689
 20
6525.97
 30
0.0
 40
0
 41
0
  0
VERTEX
  8
0
 10
891.561
 20
6529.28
 30
0.0
 40
0
 41
0
  0
VERTEX
  8
0
 10
888.199
 20
6539.24
 30
0.0
 40
0
 41
0
  0
VERTEX
  8
0
 10
883.746
 20
6552.5
 30
0.0
 40
0
 41
0
  0
VERTEX
  8
0
 10
879.332
 20
6565.79
 30
0.0
 40
0
 41
0
  0
VERTEX
  8
0
 10
874.956
 20
6579.08
 30
0.0
 40
0
 41
0
  0
VERTEX
  8
0
 10
870.617
 20
6592.39
 30
0.0
 40
0
 41
0
  0
VERTEX
  8
0
 10
866.315
 20
6605.71
 30
0.0
 40
0
 41
0
  0
VERTEX
  8
0
 10
862.053
 20
6619.03
 30
0.0
 40
0
 41
0
  0
VERTEX
  8
0
 10
857.828
 20
6632.38
 30
0.0
 40
0
 41
0
  0
VERTEX
  8
0
 10
853.642
 20
6645.72
 30
0.0
 40
0
 41
0
  0
VERTEX
  8
0
 10
849.492
 20
6659.08
 30
0.0
 40
0
 41
0
  0
VERTEX
  8
0
 10
845.382
 20
6672.44
 30
0.0
 40
0
 41
0
  0
VERTEX
  8
0
 10
841.308
 20
6685.82
 30
0.0
 40
0
 41
0
  0
VERTEX
  8
0
 10
837.274
 20
6699.21
 30
0.0
 40
0
 41
0
  0
VERTEX
  8
0
 10
833.276
 20
6712.61
 30
0.0
 40
0
 41
0
  0
VERTEX
  8
0
 10
829.318
 20
6726.01
 30
0.0
 40
0
 41
0
  0
VERTEX
  8
0
 10
825.397
 20
6739.43
 30
0.0
 40
0
 41
0
  0
VERTEX
  8
0
 10
821.514
 20
6752.86
 30
0.0
 40
0
 41
0
  0
VERTEX
  8
0
 10
817.669
 20
6766.31
 30
0.0
 40
0
 41
0
  0
VERTEX
  8
0
 10
813.863
 20
6779.75
 30
0.0
 40
0
 41
0
  0
VERTEX
  8
0
 10
810.094
 20
6793.21
 30
0.0
 40
0
 41
0
  0
VERTEX
  8
0
 10
806.364
 20
6806.67
 30
0.0
 40
0
 41
0
  0
VERTEX
  8
0
 10
802.671
 20
6820.14
 30
0.0
 40
0
 41
0
  0
VERTEX
  8
0
 10
799.017
 20
6833.63
 30
0.0
 40
0
 41
0
  0
VERTEX
  8
0
 10
795.4
 20
6847.13
 30
0.0
 40
0
 41
0
  0
VERTEX
  8
0
 10
791.822
 20
6860.63
 30
0.0
 40
0
 41
0
  0
VERTEX
  8
0
 10
788.282
 20
6874.14
 30
0.0
 40
0
 41
0
  0
VERTEX
  8
0
 10
784.781
 20
6887.65
 30
0.0
 40
0
 41
0
  0
VERTEX
  8
0
 10
781.318
 20
6901.18
 30
0.0
 40
0
 41
0
  0
VERTEX
  8
0
 10
777.892
 20
6914.72
 30
0.0
 40
0
 41
0
  0
VERTEX
  8
0
 10
774.506
 20
6928.26
 30
0.0
 40
0
 41
0
  0
VERTEX
  8
0
 10
771.156
 20
6941.82
 30
0.0
 40
0
 41
0
  0
VERTEX
  8
0
 10
767.846
 20
6955.39
 30
0.0
 40
0
 41
0
  0
VERTEX
  8
0
 10
764.574
 20
6968.96
 30
0.0
 40
0
 41
0
  0
VERTEX
  8
0
 10
761.339
 20
6982.53
 30
0.0
 40
0
 41
0
  0
VERTEX
  8
0
 10
758.143
 20
6996.13
 30
0.0
 40
0
 41
0
  0
VERTEX
  8
0
 10
754.986
 20
7009.72
 30
0.0
 40
0
 41
0
  0
VERTEX
  8
0
 10
751.867
 20
7023.32
 30
0.0
 40
0
 41
0
  0
VERTEX
  8
0
 10
748.785
 20
7036.93
 30
0.0
 40
0
 41
0
  0
VERTEX
  8
0
 10
745.743
 20
7050.56
 30
0.0
 40
0
 41
0
  0
VERTEX
  8
0
 10
742.739
 20
7064.18
 30
0.0
 40
0
 41
0
  0
VERTEX
  8
0
 10
739.772
 20
7077.82
 30
0.0
 40
0
 41
0
  0
VERTEX
  8
0
 10
736.844
 20
7091.46
 30
0.0
 40
0
 41
0
  0
VERTEX
  8
0
 10
733.956
 20
7105.11
 30
0.0
 40
0
 41
0
  0
VERTEX
  8
0
 10
731.104
 20
7118.76
 30
0.0
 40
0
 41
0
  0
VERTEX
  8
0
 10
728.292
 20
7132.43
 30
0.0
 40
0
 41
0
  0
VERTEX
  8
0
 10
725.518
 20
7146.11
 30
0.0
 40
0
 41
0
  0
VERTEX
  8
0
 10
722.782
 20
7159.79
 30
0.0
 40
0
 41
0
  0
VERTEX
  8
0
 10
720.085
 20
7173.47
 30
0.0
 40
0
 41
0
  0
VERTEX
  8
0
 10
717.426
 20
7187.17
 30
0.0
 40
0
 41
0
  0
VERTEX
  8
0
 10
714.806
 20
7200.88
 30
0.0
 40
0
 41
0
  0
VERTEX
  8
0
 10
712.224
 20
7214.58
 30
0.0
 40
0
 41
0
  0
VERTEX
  8
0
 10
709.681
 20
7228.29
 30
0.0
 40
0
 41
0
  0
VERTEX
  8
0
 10
707.175
 20
7242.01
 30
0.0
 40
0
 41
0
  0
VERTEX
  8
0
 10
704.708
 20
7255.75
 30
0.0
 40
0
 41
0
  0
VERTEX
  8
0
 10
702.281
 20
7269.49
 30
0.0
 40
0
 41
0
  0
VERTEX
  8
0
 10
699.892
 20
7283.22
 30
0.0
 40
0
 41
0
  0
VERTEX
  8
0
 10
697.54
 20
7296.97
 30
0.0
 40
0
 41
0
  0
VERTEX
  8
0
 10
695.228
 20
7310.72
 30
0.0
 40
0
 41
0
  0
VERTEX
  8
0
 10
692.954
 20
7324.49
 30
0.0
 40
0
 41
0
  0
VERTEX
  8
0
 10
690.719
 20
7338.25
 30
0.0
 40
0
 41
0
  0
VERTEX
  8
0
 10
688.522
 20
7352.03
 30
0.0
 40
0
 41
0
  0
VERTEX
  8
0
 10
686.364
 20
7365.81
 30
0.0
 40
0
 41
0
  0
VERTEX
  8
0
 10
684.244
 20
7379.58
 30
0.0
 40
0
 41
0
  0
VERTEX
  8
0
 10
682.164
 20
7393.38
 30
0.0
 40
0
 41
0
  0
VERTEX
  8
0
 10
680.122
 20
7407.18
 30
0.0
 40
0
 41
0
  0
VERTEX
  8
0
 10
678.118
 20
7420.97
 30
0.0
 40
0
 41
0
  0
VERTEX
  8
0
 10
676.154
 20
7434.79
 30
0.0
 40
0
 41
0
  0
VERTEX
  8
0
 10
674.228
 20
7448.6
 30
0.0
 40
0
 41
0
  0
VERTEX
  8
0
 10
672.34
 20
7462.42
 30
0.0
 40
0
 41
0
  0
VERTEX
  8
0
 10
670.492
 20
7476.24
 30
0.0
 40
0
 41
0
  0
VERTEX
  8
0
 10
668.681
 20
7490.07
 30
0.0
 40
0
 41
0
  0
VERTEX
  8
0
 10
666.91
 20
7503.9
 30
0.0
 40
0
 41
0
  0
VERTEX
  8
0
 10
665.178
 20
7517.75
 30
0.0
 40
0
 41
0
  0
VERTEX
  8
0
 10
663.483
 20
7531.6
 30
0.0
 40
0
 41
0
  0
VERTEX
  8
0
 10
661.828
 20
7545.44
 30
0.0
 40
0
 41
0
  0
VERTEX
  8
0
 10
660.211
 20
7559.29
 30
0.0
 40
0
 41
0
  0
VERTEX
  8
0
 10
658.633
 20
7573.15
 30
0.0
 40
0
 41
0
  0
VERTEX
  8
0
 10
657.096
 20
7587.01
 30
0.0
 40
0
 41
0
  0
VERTEX
  8
0
 10
655.596
 20
7600.89
 30
0.0
 40
0
 41
0
  0
VERTEX
  8
0
 10
654.133
 20
7614.76
 30
0.0
 40
0
 41
0
  0
VERTEX
  8
0
 10
652.711
 20
7628.64
 30
0.0
 40
0
 41
0
  0
VERTEX
  8
0
 10
651.328
 20
7642.53
 30
0.0
 40
0
 41
0
  0
VERTEX
  8
0
 10
649.983
 20
7656.4
 30
0.0
 40
0
 41
0
  0
VERTEX
  8
0
 10
648.678
 20
7670.31
 30
0.0
 40
0
 41
0
  0
VERTEX
  8
0
 10
647.411
 20
7684.19
 30
0.0
 40
0
 41
0
  0
VERTEX
  8
0
 10
646.182
 20
7698.1
 30
0.0
 40
0
 41
0
  0
VERTEX
  8
0
 10
644.993
 20
7712
 30
0.0
 40
0
 41
0
  0
VERTEX
  8
0
 10
643.843
 20
7725.9
 30
0.0
 40
0
 41
0
  0
VERTEX
  8
0
 10
642.732
 20
7739.82
 30
0.0
 40
0
 41
0
  0
VERTEX
  8
0
 10
641.66
 20
7753.72
 30
0.0
 40
0
 41
0
  0
VERTEX
  8
0
 10
640.626
 20
7767.65
 30
0.0
 40
0
 41
0
  0
VERTEX
  8
0
 10
639.632
 20
7781.57
 30
0.0
 40
0
 41
0
  0
VERTEX
  8
0
 10
638.676
 20
7795.5
 30
0.0
 40
0
 41
0
  0
VERTEX
  8
0
 10
637.76
 20
7809.42
 30
0.0
 40
0
 41
0
  0
VERTEX
  8
0
 10
636.882
 20
7823.36
 30
0.0
 40
0
 41
0
  0
VERTEX
  8
0
 10
636.043
 20
7837.29
 30
0.0
 40
0
 41
0
  0
VERTEX
  8
0
 10
635.244
 20
7851.22
 30
0.0
 40
0
 41
0
  0
VERTEX
  8
0
 10
634.483
 20
7865.17
 30
0.0
 40
0
 41
0
  0
VERTEX
  8
0
 10
633.762
 20
7879.11
 30
0.0
 40
0
 41
0
  0
VERTEX
  8
0
 10
633.081
 20
7893.06
 30
0.0
 40
0
 41
0
  0
VERTEX
  8
0
 10
632.438
 20
7907.01
 30
0.0
 40
0
 41
0
  0
VERTEX
  8
0
 10
631.833
 20
7920.96
 30
0.0
 40
0
 41
0
  0
VERTEX
  8
0
 10
631.268
 20
7934.92
 30
0.0
 40
0
 41
0
  0
VERTEX
  8
0
 10
630.742
 20
7948.88
 30
0.0
 40
0
 41
0
  0
VERTEX
  8
0
 10
630.256
 20
7962.83
 30
0.0
 40
0
 41
0
  0
VERTEX
  8
0
 10
629.807
 20
7976.81
 30
0.0
 40
0
 41
0
  0
VERTEX
  8
0
 10
629.399
 20
7990.76
 30
0.0
 40
0
 41
0
  0
VERTEX
  8
0
 10
629.029
 20
8004.74
 30
0.0
 40
0
 41
0
  0
VERTEX
  8
0
 10
628.699
 20
8018.71
 30
0.0
 40
0
 41
0
  0
VERTEX
  8
0
 10
628.408
 20
8032.68
 30
0.0
 40
0
 41
0
  0
VERTEX
  8
0
 10
628.156
 20
8046.65
 30
0.0
 40
0
 41
0
  0
VERTEX
  8
0
 10
627.943
 20
8060.63
 30
0.0
 40
0
 41
0
  0
VERTEX
  8
0
 10
627.769
 20
8074.61
 30
0.0
 40
0
 41
0
  0
VERTEX
  8
0
 10
627.636
 20
8088.58
 30
0.0
 40
0
 41
0
  0
VERTEX
  8
0
 10
627.54
 20
8102.57
 30
0.0
 40
0
 41
0
  0
VERTEX
  8
0
 10
627.485
 20
8116.56
 30
0.0
 40
0
 41
0
  0
VERTEX
  8
0
 10
627.468
 20
8130.53
 30
0.0
 40
0
 41
0
  0
VERTEX
  8
0
 10
627.492
 20
8144.51
 30
0.0
 40
0
 41
0
  0
VERTEX
  8
0
 10
627.554
 20
8158.51
 30
0.0
 40
0
 41
0
  0
VERTEX
  8
0
 10
627.656
 20
8172.5
 30
0.0
 40
0
 41
0
  0
VERTEX
  8
0
 10
627.796
 20
8186.49
 30
0.0
 40
0
 41
0
  0
VERTEX
  8
0
 10
627.976
 20
8200.47
 30
0.0
 40
0
 41
0
  0
VERTEX
  8
0
 10
628.196
 20
8214.47
 30
0.0
 40
0
 41
0
  0
VERTEX
  8
0
 10
628.454
 20
8228.46
 30
0.0
 40
0
 41
0
  0
VERTEX
  8
0
 10
628.753
 20
8242.46
 30
0.0
 40
0
 41
0
  0
VERTEX
  8
0
 10
629.09
 20
8256.44
 30
0.0
 40
0
 41
0
  0
VERTEX
  8
0
 10
629.467
 20
8270.44
 30
0.0
 40
0
 41
0
  0
VERTEX
  8
0
 10
629.774
 20
8280.94
 30
0.0
 40
0
 41
0
  0
VERTEX
  8
0
 10
629.883
 20
8284.44
 30
0.0
 40
0
 41
0
  0
VERTEX
  8
0
 10
164.415
 20
8262.14
 30
0.0
 40
0
 41
0
  0
VERTEX
  8
0
 10
6.375
 20
7899.04
 30
0.0
 40
0
 41
0
  0
VERTEX
  8
0
 10
6.21511
 20
7896.68
 30
0.0
 40
0
 41
0
  0
VERTEX
  8
0
 10
5.75157
 20
7889.58
 30
0.0
 40
0
 41
0
  0
VERTEX
  8
0
 10
5.16026
 20
7880.13
 30
0.0
 40
0
 41
0
  0
VERTEX
  8
0
 10
4.60113
 20
7870.65
 30
0.0
 40
0
 41
0
  0
VERTEX
  8
0
 10
4.07411
 20
7861.19
 30
0.0
 40
0
 41
0
  0
VERTEX
  8
0
 10
3.57915
 20
7851.72
 30
0.0
 40
0
 41
0
  0
VERTEX
  8
0
 10
3.11632
 20
7842.26
 30
0.0
 40
0
 41
0
  0
VERTEX
  8
0
 10
2.6856
 20
7832.79
 30
0.0
 40
0
 41
0
  0
VERTEX
  8
0
 10
2.28689
 20
7823.33
 30
0.0
 40
0
 41
0
  0
VERTEX
  8
0
 10
1.92031
 20
7813.88
 30
0.0
 40
0
 41
0
  0
VERTEX
  8
0
 10
1.58572
 20
7804.4
 30
0.0
 40
0
 41
0
  0
VERTEX
  8
0
 10
1.28315
 20
7794.94
 30
0.0
 40
0
 41
0
  0
VERTEX
  8
0
 10
1.01264
 20
7785.49
 30
0.0
 40
0
 41
0
  0
VERTEX
  8
0
 10
0.774089
 20
7776.01
 30
0.0
 40
0
 41
0
  0
VERTEX
  8
0
 10
0.5676
 20
7766.56
 30
0.0
 40
0
 41
0
  0
VERTEX
  8
0
 10
0.393013
 20
7757.1
 30
0.0
 40
0
 41
0
  0
VERTEX
  8
0
 10
0.250489
 20
7747.64
 30
0.0
 40
0
 41
0
  0
VERTEX
  8
0
 10
0.139865
 20
7738.18
 30
0.0
 40
0
 41
0
  0
VERTEX
  8
0
 10
0.0611979
 20
7728.72
 30
0.0
 40
0
 41
0
  0
VERTEX
  8
0
 10
0.0144857
 20
7719.26
 30
0.0
 40
0
 41
0
  0
VERTEX
  8
0
 10
-0.000271268
 20
7709.81
 30
0.0
 40
0
 41
0
  0
VERTEX
  8
0
 10
0.0168186
 20
7700.35
 30
0.0
 40
0
 41
0
  0
VERTEX
  8
0
 10
0.0658637
 20
7690.89
 30
0.0
 40
0
 41
0
  0
VERTEX
  8
0
 10
0.146756
 20
7681.44
 30
0.0
 40
0
 41
0
  0
VERTEX
  8
0
 10
0.259549
 20
7671.99
 30
0.0
 40
0
 41
0
  0
VERTEX
  8
0
 10
0.404243
 20
7662.54
 30
0.0
 40
0
 41
0
  0
VERTEX
  8
0
 10
0.580729
 20
7653.1
 30
0.0
 40
0
 41
0
  0
VERTEX
  8
0
 10
0.789117
 20
7643.65
 30
0.0
 40
0
 41
0
  0
VERTEX
  8
0
 10
1.0293
 20
7634.21
 30
0.0
 40
0
 41
0
  0
VERTEX
  8
0
 10
1.30132
 20
7624.76
 30
0.0
 40
0
 41
0
  0
VERTEX
  8
0
 10
1.60508
 20
7615.32
 30
0.0
 40
0
 41
0
  0
VERTEX
  8
0
 10
1.94069
 20
7605.88
 30
0.0
 40
0
 41
0
  0
VERTEX
  8
0
 10
2.30811
 20
7596.44
 30
0.0
 40
0
 41
0
  0
VERTEX
  8
0
 10
2.70725
 20
7587.01
 30
0.0
 40
0
 41
0
  0
VERTEX
  8
0
 10
3.13818
 20
7577.57
 30
0.0
 40
0
 41
0
  0
VERTEX
  8
0
 10
3.60086
 20
7568.14
 30
0.0
 40
0
 41
0
  0
VERTEX
  8
0
 10
4.09526
 20
7558.72
 30
0.0
 40
0
 41
0
  0
VERTEX
  8
0
 10
4.62136
 20
7549.29
 30
0.0
 40
0
 41
0
  0
VERTEX
  8
0
 10
5.17919
 20
7539.88
 30
0.0
 40
0
 41
0
  0
VERTEX
  8
0
 10
5.76878
 20
7530.44
 30
0.0
 40
0
 41
0
  0
VERTEX
  8
0
 10
6.38997
 20
7521.03
 30
0.0
 40
0
 41
0
  0
VERTEX
  8
0
 10
7.04286
 20
7511.61
 30
0.0
 40
0
 41
0
  0
VERTEX
  8
0
 10
7.72743
 20
7502.21
 30
0.0
 40
0
 41
0
  0
VERTEX
  8
0
 10
8.44368
 20
7492.79
 30
0.0
 40
0
 41
0
  0
VERTEX
  8
0
 10
9.19151
 20
7483.39
 30
0.0
 40
0
 41
0
  0
VERTEX
  8
0
 10
9.97097
 20
7473.99
 30
0.0
 40
0
 41
0
  0
VERTEX
  8
0
 10
10.7821
 20
7464.58
 30
0.0
 40
0
 41
0
  0
VERTEX
  8
0
 10
11.6248
 20
7455.19
 30
0.0
 40
0
 41
0
  0
VERTEX
  8
0
 10
12.4991
 20
7445.79
 30
0.0
 40
0
 41
0
  0
VERTEX
  8
0
 10
13.4049
 20
7436.4
 30
0.0
 40
0
 41
0
  0
VERTEX
  8
0
 10
14.3424
 20
7427.03
 30
0.0
 40
0
 41
0
  0
VERTEX
  8
0
 10
15.3114
 20
7417.64
 30
0.0
 40
0
 41
0
  0
VERTEX
  8
0
 10
16.3119
 20
7408.26
 30
0.0
 40
0
 41
0
  0
VERTEX
  8
0
 10
17.344
 20
7398.89
 30
0.0
 40
0
 41
0
  0
VERTEX
  8
0
 10
18.4076
 20
7389.51
 30
0.0
 40
0
 41
0
  0
VERTEX
  8
0
 10
19.5028
 20
7380.15
 30
0.0
 40
0
 41
0
  0
VERTEX
  8
0
 10
20.6293
 20
7370.78
 30
0.0
 40
0
 41
0
  0
VERTEX
  8
0
 10
21.7875
 20
7361.43
 30
0.0
 40
0
 41
0
  0
VERTEX
  8
0
 10
22.9769
 20
7352.07
 30
0.0
 40
0
 41
0
  0
VERTEX
  8
0
 10
24.1981
 20
7342.72
 30
0.0
 40
0
 41
0
  0
VERTEX
  8
0
 10
25.4504
 20
7333.38
 30
0.0
 40
0
 41
0
  0
VERTEX
  8
0
 10
26.7344
 20
7324.03
 30
0.0
 40
0
 41
0
  0
VERTEX
  8
0
 10
28.0497
 20
7314.69
 30
0.0
 40
0
 41
0
  0
VERTEX
  8
0
 10
29.3965
 20
7305.36
 30
0.0
 40
0
 41
0
  0
VERTEX
  8
0
 10
30.7746
 20
7296.03
 30
0.0
 40
0
 41
0
  0
VERTEX
  8
0
 10
32.1842
 20
7286.71
 30
0.0
 40
0
 41
0
  0
VERTEX
  8
0
 10
33.6251
 20
7277.39
 30
0.0
 40
0
 41
0
  0
VERTEX
  8
0
 10
35.0974
 20
7268.07
 30
0.0
 40
0
 41
0
  0
VERTEX
  8
0
 10
36.601
 20
7258.76
 30
0.0
 40
0
 41
0
  0
VERTEX
  8
0
 10
38.136
 20
7249.46
 30
0.0
 40
0
 41
0
  0
VERTEX
  8
0
 10
39.7024
 20
7240.15
 30
0.0
 40
0
 41
0
  0
VERTEX
  8
0
 10
41.2999
 20
7230.86
 30
0.0
 40
0
 41
0
  0
VERTEX
  8
0
 10
42.9289
 20
7221.57
 30
0.0
 40
0
 41
0
  0
VERTEX
  8
0
 10
44.589
 20
7212.29
 30
0.0
 40
0
 41
0
  0
VERTEX
  8
0
 10
46.2806
 20
7203.01
 30
0.0
 40
0
 41
0
  0
VERTEX
  8
0
 10
48.0033
 20
7193.74
 30
0.0
 40
0
 41
0
  0
VERTEX
  8
0
 10
49.7575
 20
7184.47
 30
0.0
 40
0
 41
0
  0
VERTEX
  8
0
 10
51.5426
 20
7175.21
 30
0.0
 40
0
 41
0
  0
VERTEX
  8
0
 10
53.3592
 20
7165.96
 30
0.0
 40
0
 41
0
  0
VERTEX
  8
0
 10
55.2069
 20
7156.71
 30
0.0
 40
0
 41
0
  0
VERTEX
  8
0
 10
57.086
 20
7147.46
 30
0.0
 40
0
 41
0
  0
VERTEX
  8
0
 10
58.9961
 20
7138.22
 30
0.0
 40
0
 41
0
  0
VERTEX
  8
0
 10
60.9375
 20
7128.99
 30
0.0
 40
0
 41
0
  0
VERTEX
  8
0
 10
62.91
 20
7119.76
 30
0.0
 40
0
 41
0
  0
VERTEX
  8
0
 10
64.9136
 20
7110.54
 30
0.0
 40
0
 41
0
  0
VERTEX
  8
0
 10
66.9485
 20
7101.33
 30
0.0
 40
0
 41
0
  0
VERTEX
  8
0
 10
69.0144
 20
7092.13
 30
0.0
 40
0
 41
0
  0
VERTEX
  8
0
 10
71.1115
 20
7082.92
 30
0.0
 40
0
 41
0
  0
VERTEX
  8
0
 10
73.2397
 20
7073.72
 30
0.0
 40
0
 41
0
  0
VERTEX
  8
0
 10
75.399
 20
7064.54
 30
0.0
 40
0
 41
0
  0
VERTEX
  8
0
 10
77.5894
 20
7055.36
 30
0.0
 40
0
 41
0
  0
VERTEX
  8
0
 10
79.811
 20
7046.18
 30
0.0
 40
0
 41
0
  0
VERTEX
  8
0
 10
82.0635
 20
7037.01
 30
0.0
 40
0
 41
0
  0
VERTEX
  8
0
 10
84.3472
 20
7027.86
 30
0.0
 40
0
 41
0
  0
VERTEX
  8
0
 10
86.6618
 20
7018.71
 30
0.0
 40
0
 41
0
  0
VERTEX
  8
0
 10
89.0075
 20
7009.56
 30
0.0
 40
0
 41
0
  0
VERTEX
  8
0
 10
91.3842
 20
7000.42
 30
0.0
 40
0
 41
0
  0
VERTEX
  8
0
 10
93.7919
 20
6991.29
 30
0.0
 40
0
 41
0
  0
VERTEX
  8
0
 10
96.2307
 20
6982.17
 30
0.0
 40
0
 41
0
  0
VERTEX
  8
0
 10
98.7004
 20
6973.04
 30
0.0
 40
0
 41
0
  0
VERTEX
  8
0
 10
101.201
 20
6963.93
 30
0.0
 40
0
 41
0
  0
VERTEX
  8
0
 10
103.733
 20
6954.83
 30
0.0
 40
0
 41
0
  0
VERTEX
  8
0
 10
106.295
 20
6945.74
 30
0.0
 40
0
 41
0
  0
VERTEX
  8
0
 10
108.889
 20
6936.65
 30
0.0
 40
0
 41
0
  0
VERTEX
  8
0
 10
111.513
 20
6927.57
 30
0.0
 40
0
 41
0
  0
VERTEX
  8
0
 10
114.169
 20
6918.5
 30
0.0
 40
0
 41
0
  0
VERTEX
  8
0
 10
116.855
 20
6909.44
 30
0.0
 40
0
 41
0
  0
VERTEX
  8
0
 10
119.572
 20
6900.39
 30
0.0
 40
0
 41
0
  0
VERTEX
  8
0
 10
122.32
 20
6891.33
 30
0.0
 40
0
 41
0
  0
VERTEX
  8
0
 10
125.099
 20
6882.31
 30
0.0
 40
0
 41
0
  0
VERTEX
  8
0
 10
127.909
 20
6873.26
 30
0.0
 40
0
 41
0
  0
VERTEX
  8
0
 10
130.749
 20
6864.25
 30
0.0
 40
0
 41
0
  0
VERTEX
  8
0
 10
133.621
 20
6855.24
 30
0.0
 40
0
 41
0
  0
VERTEX
  8
0
 10
136.523
 20
6846.22
 30
0.0
 40
0
 41
0
  0
VERTEX
  8
0
 10
139.456
 20
6837.24
 30
0.0
 40
0
 41
0
  0
VERTEX
  8
0
 10
142.419
 20
6828.24
 30
0.0
 40
0
 41
0
  0
VERTEX
  8
0
 10
145.414
 20
6819.26
 30
0.0
 40
0
 41
0
  0
VERTEX
  8
0
 10
148.44
 20
6810.29
 30
0.0
 40
0
 41
0
  0
VERTEX
  8
0
 10
151.496
 20
6801.33
 30
0.0
 40
0
 41
0
  0
VERTEX
  8
0
 10
154.583
 20
6792.38
 30
0.0
 40
0
 41
0
  0
VERTEX
  8
0
 10
157.7
 20
6783.43
 30
0.0
 40
0
 41
0
  0
VERTEX
  8
0
 10
160.849
 20
6774.5
 30
0.0
 40
0
 41
0
  0
VERTEX
  8
0
 10
164.028
 20
6765.58
 30
0.0
 40
0
 41
0
  0
VERTEX
  8
0
 10
167.237
 20
6756.67
 30
0.0
 40
0
 41
0
  0
VERTEX
  8
0
 10
170.478
 20
6747.75
 30
0.0
 40
0
 41
0
  0
VERTEX
  8
0
 10
173.749
 20
6738.86
 30
0.0
 40
0
 41
0
  0
VERTEX
  8
0
 10
177.051
 20
6729.97
 30
0.0
 40
0
 41
0
  0
VERTEX
  8
0
 10
180.383
 20
6721.1
 30
0.0
 40
0
 41
0
  0
VERTEX
  8
0
 10
182.901
 20
6714.44
 30
0.0
 40
0
 41
0
  0
VERTEX
  8
0
 10
183.747
 20
6712.22
 30
0.0
 40
0
 41
0
  0
SEQEND
 8
0
  0
POLYLINE
  8
0
 62
     0
 66
     1
 10
0
 20
0
 30
0.0
 70
     1
 40
0
 41
0
  0
VERTEX
  8
0
 10
95.061
 20
7305.64
 30
0.0
 40
0
 41
0
  0
VERTEX
  8
0
 10
30.7747
 20
7296.03
 30
0.0
 40
0
 41
0
  0
SEQEND
 8
0
  0
POLYLINE
  8
0
 62
     0
 66
     1
 10
0
 20
0
 30
0.0
 70
     1
 40
0
 41
0
  0
VERTEX
  8
0
 10
892.689
 20
8142.4
 30
0.0
 40
0
 41
0
  0
VERTEX
  8
0
 10
901.689
 20
8142.4
 30
0.0
 40
0
 41
0
  0
VERTEX
  8
0
 10
901.689
 20
8145.4
 30
0.0
 40
0
 41
0
  0
VERTEX
  8
0
 10
892.689
 20
8145.4
 30
0.0
 40
0
 41
0
  0
VERTEX
  8
0
 10
892.689
 20
8281.4
 30
0.0
 40
0
 41
0
  0
VERTEX
  8
0
 10
931.783
 20
8281.4
 30
0.0
 40
0
 41
0
  0
VERTEX
  8
0
 10
1384.68
 20
8271.9
 30
0.0
 40
0
 41
0
  0
VERTEX
  8
0
 10
1426.58
 20
8271.9
 30
0.0
 40
0
 41
0
  0
VERTEX
  8
0
 10
1426.58
 20
6449.9
 30
0.0
 40
0
 41
0
  0
VERTEX
  8
0
 10
1384.68
 20
6449.9
 30
0.0
 40
0
 41
0
  0
VERTEX
  8
0
 10
931.783
 20
6440.4
 30
0.0
 40
0
 41
0
  0
VERTEX
  8
0
 10
892.689
 20
6440.4
 30
0.0
 40
0
 41
0
  0
VERTEX
  8
0
 10
892.689
 20
6576.4
 30
0.0
 40
0
 41
0
  0
VERTEX
  8
0
 10
901.689
 20
6576.4
 30
0.0
 40
0
 41
0
  0
VERTEX
  8
0
 10
901.689
 20
6579.4
 30
0.0
 40
0
 41
0
  0
VERTEX
  8
0
 10
892.689
 20
6579.4
 30
0.0
 40
0
 41
0
  0
VERTEX
  8
0
 10
892.689
 20
8142.4
 30
0.0
 40
0
 41
0
  0
SEQEND
 8
0
  0
POLYLINE
  8
0
 62
     0
 66
     1
 10
0
 20
0
 30
0.0
 70
     1
 40
0
 41
0
  0
VERTEX
  8
0
 10
358.949
 20
4373.68
 30
0.0
 40
0
 41
0
  0
VERTEX
  8
0
 10
5.42535e-05
 20
6415.64
 30
0.0
 40
0
 41
0
  0
VERTEX
  8
0
 10
429.701
 20
6382.21
 30
0.0
 40
0
 41
0
  0
VERTEX
  8
0
 10
1078
 20
6393.38
 30
0.0
 40
0
 41
0
  0
VERTEX
  8
0
 10
1276.77
 20
6402.78
 30
0.0
 40
0
 41
0
  0
VERTEX
  8
0
 10
1271.26
 20
6140.83
 30
0.0
 40
0
 41
0
  0
VERTEX
  8
0
 10
1070.26
 20
6139.5
 30
0.0
 40
0
 41
0
  0
VERTEX
  8
0
 10
637.69
 20
5853.65
 30
0.0
 40
0
 41
0
  0
VERTEX
  8
0
 10
618.506
 20
5226.4
 30
0.0
 40
0
 41
0
  0
VERTEX
  8
0
 10
678.478
 20
5224.57
 30
0.0
 40
0
 41
0
  0
VERTEX
  8
0
 10
677.713
 20
5199.58
 30
0.0
 40
0
 41
0
  0
VERTEX
  8
0
 10
810.481
 20
5101.61
 30
0.0
 40
0
 41
0
  0
VERTEX
  8
0
 10
774.856
 20
5053.33
 30
0.0
 40
0
 41
0
  0
VERTEX
  8
0
 10
1005.43
 20
4883.19
 30
0.0
 40
0
 41
0
  0
VERTEX
  8
0
 10
972.375
 20
4439.42
 30
0.0
 40
0
 41
0
  0
VERTEX
  8
0
 10
946.825
 20
4423.69
 30
0.0
 40
0
 41
0
  0
VERTEX
  8
0
 10
358.949
 20
4373.68
 30
0.0
 40
0
 41
0
  0
SEQEND
 8
0
  0
POLYLINE
  8
0
 62
     0
 66
     1
 10
0
 20
0
 30
0.0
 70
     1
 40
0
 41
0
  0
VERTEX
  8
0
 10
988.511
 20
3391.13
 30
0.0
 40
0
 41
0
  0
VERTEX
  8
0
 10
988.194
 20
3384.14
 30
0.0
 40
0
 41
0
  0
VERTEX
  8
0
 10
48.1587
 20
3426.76
 30
0.0
 40
0
 41
0
  0
VERTEX
  8
0
 10
48.0719
 20
3433.76
 30
0.0
 40
0
 41
0
  0
VERTEX
  8
0
 10
42.0724
 20
3433.68
 30
0.0
 40
0
 41
0
  0
VERTEX
  8
0
 10
43.2768
 20
3481.67
 30
0.0
 40
0
 41
0
  0
VERTEX
  8
0
 10
7.21724
 20
3571.72
 30
0.0
 40
0
 41
0
  0
VERTEX
  8
0
 10
0.000108507
 20
4186.68
 30
0.0
 40
0
 41
0
  0
VERTEX
  8
0
 10
0.806315
 20
4373.68
 30
0.0
 40
0
 41
0
  0
VERTEX
  8
0
 10
979.308
 20
4373.68
 30
0.0
 40
0
 41
0
  0
VERTEX
  8
0
 10
994.925
 20
4174.29
 30
0.0
 40
0
 41
0
  0
VERTEX
  8
0
 10
1024.23
 20
3526.94
 30
0.0
 40
0
 41
0
  0
VERTEX
  8
0
 10
1017.07
 20
3433.22
 30
0.0
 40
0
 41
0
  0
VERTEX
  8
0
 10
994.506
 20
3390.86
 30
0.0
 40
0
 41
0
  0
VERTEX
  8
0
 10
988.511
 20
3391.13
 30
0.0
 40
0
 41
0
  0
SEQEND
 8
0
  0
POLYLINE
  8
0
 62
     0
 66
     1
 10
0
 20
0
 30
0.0
 70
     1
 40
0
 41
0
  0
VERTEX
  8
0
 10
35.3204
 20
2978.81
 30
0.0
 40
0
 41
0
  0
VERTEX
  8
0
 10
106.933
 20
2956.53
 30
0.0
 40
0
 41
0
  0
VERTEX
  8
0
 10
95.125
 20
2927.19
 30
0.0
 40
0
 41
0
  0
VERTEX
  8
0
 10
0
 20
2188.28
 30
0.0
 40
0
 41
0
  0
VERTEX
  8
0
 10
59.9826
 20
2186.83
 30
0.0
 40
0
 41
0
  0
VERTEX
  8
0
 10
147.144
 20
2224.63
 30
0.0
 40
0
 41
0
  0
VERTEX
  8
0
 10
720.142
 20
2222.6
 30
0.0
 40
0
 41
0
  0
VERTEX
  8
0
 10
894.14
 20
2221.99
 30
0.0
 40
0
 41
0
  0
VERTEX
  8
0
 10
895.849
 20
2242.42
 30
0.0
 40
0
 41
0
  0
VERTEX
  8
0
 10
721.85
 20
2243.03
 30
0.0
 40
0
 41
0
  0
VERTEX
  8
0
 10
251.362
 20
2524
 30
0.0
 40
0
 41
0
  0
VERTEX
  8
0
 10
279.497
 20
3168.39
 30
0.0
 40
0
 41
0
  0
VERTEX
  8
0
 10
625.293
 20
3390.53
 30
0.0
 40
0
 41
0
  0
VERTEX
  8
0
 10
620.907
 20
3400.79
 30
0.0
 40
0
 41
0
  0
VERTEX
  8
0
 10
220.96
 20
3407.33
 30
0.0
 40
0
 41
0
  0
VERTEX
  8
0
 10
35.3204
 20
2978.81
 30
0.0
 40
0
 41
0
  0
SEQEND
 8
0
  0
POLYLINE
  8
0
 62
     0
 66
     1
 10
0
 20
0
 30
0.0
 70
     1
 40
0
 41
0
  0
VERTEX
  8
0
 10
988.511
 20
1204.29
 30
0.0
 40
0
 41
0
  0
VERTEX
  8
0
 10
988.194
 20
1197.3
 30
0.0
 40
0
 41
0
  0
VERTEX
  8
0
 10
48.1587
 20
1239.92
 30
0.0
 40
0
 41
0
  0
VERTEX
  8
0
 10
48.0719
 20
1246.92
 30
0.0
 40
0
 41
0
  0
VERTEX
  8
0
 10
42.0724
 20
1246.85
 30
0.0
 40
0
 41
0
  0
VERTEX
  8
0
 10
43.2768
 20
1294.83
 30
0.0
 40
0
 41
0
  0
VERTEX
  8
0
 10
7.21724
 20
1384.88
 30
0.0
 40
0
 41
0
  0
VERTEX
  8
0
 10
0.000108507
 20
1999.83
 30
0.0
 40
0
 41
0
  0
VERTEX
  8
0
 10
0.806315
 20
2186.83
 30
0.0
 40
0
 41
0
  0
VERTEX
  8
0
 10
979.308
 20
2186.83
 30
0.0
 40
0
 41
0
  0
VERTEX
  8
0
 10
994.925
 20
1987.44
 30
0.0
 40
0
 41
0
  0
VERTEX
  8
0
 10
1024.23
 20
1340.11
 30
0.0
 40
0
 41
0
  0
VERTEX
  8
0
 10
1017.07
 20
1246.38
 30
0.0
 40
0
 41
0
  0
VERTEX
  8
0
 10
994.506
 20
1204.02
 30
0.0
 40
0
 41
0
  0
VERTEX
  8
0
 10
988.511
 20
1204.29
 30
0.0
 40
0
 41
0
  0
SEQEND
 8
0
  0
POLYLINE
  8
0
 62
     0
 66
     1
 10
0
 20
0
 30
0.0
 70
     1
 40
0
 41
0
  0
VERTEX
  8
0
 10
35.3204
 20
791.971
 30
0.0
 40
0
 41
0
  0
VERTEX
  8
0
 10
106.933
 20
769.686
 30
0.0
 40
0
 41
0
  0
VERTEX
  8
0
 10
95.125
 20
740.351
 30
0.0
 40
0
 41
0
  0
VERTEX
  8
0
 10
0
 20
1.44706
 30
0.0
 40
0
 41
0
  0
VERTEX
  8
0
 10
59.9826
 20
0
 30
0.0
 40
0
 41
0
  0
VERTEX
  8
0
 10
147.144
 20
37.7882
 30
0.0
 40
0
 41
0
  0
VERTEX
  8
0
 10
720.142
 20
35.7647
 30
0.0
 40
0
 41
0
  0
VERTEX
  8
0
 10
894.14
 20
35.1501
 30
0.0
 40
0
 41
0
  0
VERTEX
  8
0
 10
895.849
 20
55.579
 30
0.0
 40
0
 41
0
  0
VERTEX
  8
0
 10
721.85
 20
56.1936
 30
0.0
 40
0
 41
0
  0
VERTEX
  8
0
 10
251.362
 20
337.168
 30
0.0
 40
0
 41
0
  0
VERTEX
  8
0
 10
279.497
 20
981.554
 30
0.0
 40
0
 41
0
  0
VERTEX
  8
0
 10
625.293
 20
1203.7
 30
0.0
 40
0
 41
0
  0
VERTEX
  8
0
 10
620.907
 20
1213.95
 30
0.0
 40
0
 41
0
  0
VERTEX
  8
0
 10
220.96
 20
1220.49
 30
0.0
 40
0
 41
0
  0
VERTEX
  8
0
 10
35.3204
 20
791.971
 30
0.0
 40
0
 41
0
  0
SEQEND
 8
0
  0
POLYLINE
  8
0
 62
     0
 66
     1
 10
0
 20
0
 30
0.0
 70
     1
 40
0
 41
0
  0
VERTEX
  8
0
 10
943.394
 20
153.326
 30
0.0
 40
0
 41
0
  0
VERTEX
  8
0
 10
869.072
 20
169.21
 30
0.0
 40
0
 41
0
  0
VERTEX
  8
0
 10
1424.04
 20
1794.06
 30
0.0
 40
0
 41
0
  0
VERTEX
  8
0
 10
1259.81
 20
3013.04
 30
0.0
 40
0
 41
0
  0
VERTEX
  8
0
 10
1329.58
 20
3007.39
 30
0.0
 40
0
 41
0
  0
VERTEX
  8
0
 10
1329.56
 20
3007.49
 30
0.0
 40
0
 41
0
  0
VERTEX
  8
0
 10
1329.52
 20
3007.79
 30
0.0
 40
0
 41
0
  0
VERTEX
  8
0
 10
1329.5
 20
3008.19
 30
0.0
 40
0
 41
0
  0
VERTEX
  8
0
 10
1329.52
 20
3008.6
 30
0.0
 40
0
 41
0
  0
VERTEX
  8
0
 10
1329.58
 20
3008.99
 30
0.0
 40
0
 41
0
  0
VERTEX
  8
0
 10
1329.67
 20
3009.36
 30
0.0
 40
0
 41
0
  0
VERTEX
  8
0
 10
1329.79
 20
3009.72
 30
0.0
 40
0
 41
0
  0
VERTEX
  8
0
 10
1329.95
 20
3010.08
 30
0.0
 40
0
 41
0
  0
VERTEX
  8
0
 10
1330.13
 20
3010.42
 30
0.0
 40
0
 41
0
  0
VERTEX
  8
0
 10
1330.35
 20
3010.74
 30
0.0
 40
0
 41
0
  0
VERTEX
  8
0
 10
1330.6
 20
3011.04
 30
0.0
 40
0
 41
0
  0
VERTEX
  8
0
 10
1330.87
 20
3011.31
 30
0.0
 40
0
 41
0
  0
VERTEX
  8
0
 10
1331.17
 20
3011.56
 30
0.0
 40
0
 41
0
  0
VERTEX
  8
0
 10
1331.49
 20
3011.78
 30
0.0
 40
0
 41
0
  0
VERTEX
  8
0
 10
1331.84
 20
3011.97
 30
0.0
 40
0
 41
0
  0
VERTEX
  8
0
 10
1332.21
 20
3012.14
 30
0.0
 40
0
 41
0
  0
VERTEX
  8
0
 10
1332.5
 20
3012.24
 30
0.0
 40
0
 41
0
  0
VERTEX
  8
0
 10
1332.6
 20
3012.26
 30
0.0
 40
0
 41
0
  0
VERTEX
  8
0
 10
1332.7
 20
3012.29
 30
0.0
 40
0
 41
0
  0
VERTEX
  8
0
 10
1333
 20
3012.36
 30
0.0
 40
0
 41
0
  0
VERTEX
  8
0
 10
1333.4
 20
3012.4
 30
0.0
 40
0
 41
0
  0
VERTEX
  8
0
 10
1333.79
 20
3012.42
 30
0.0
 40
0
 41
0
  0
VERTEX
  8
0
 10
1334.19
 20
3012.4
 30
0.0
 40
0
 41
0
  0
VERTEX
  8
0
 10
1334.57
 20
3012.33
 30
0.0
 40
0
 41
0
  0
VERTEX
  8
0
 10
1334.95
 20
3012.24
 30
0.0
 40
0
 41
0
  0
VERTEX
  8
0
 10
1335.31
 20
3012.11
 30
0.0
 40
0
 41
0
  0
VERTEX
  8
0
 10
1335.66
 20
3011.96
 30
0.0
 40
0
 41
0
  0
VERTEX
  8
0
 10
1336
 20
3011.76
 30
0.0
 40
0
 41
0
  0
VERTEX
  8
0
 10
1336.31
 20
3011.54
 30
0.0
 40
0
 41
0
  0
VERTEX
  8
0
 10
1336.61
 20
3011.29
 30
0.0
 40
0
 41
0
  0
VERTEX
  8
0
 10
1336.88
 20
3011.01
 30
0.0
 40
0
 41
0
  0
VERTEX
  8
0
 10
1337.13
 20
3010.71
 30
0.0
 40
0
 41
0
  0
VERTEX
  8
0
 10
1337.35
 20
3010.38
 30
0.0
 40
0
 41
0
  0
VERTEX
  8
0
 10
1337.54
 20
3010.01
 30
0.0
 40
0
 41
0
  0
VERTEX
  8
0
 10
1337.66
 20
3009.74
 30
0.0
 40
0
 41
0
  0
VERTEX
  8
0
 10
1337.7
 20
3009.64
 30
0.0
 40
0
 41
0
  0
VERTEX
  8
0
 10
1483.78
 20
1788.35
 30
0.0
 40
0
 41
0
  0
VERTEX
  8
0
 10
943.394
 20
153.326
 30
0.0
 40
0
 41
0
  0
SEQEND
 8
0
  0
POLYLINE
  8
0
 62
     0
 66
     1
 10
0
 20
0
 30
0.0
 70
     1
 40
0
 41
0
  0
VERTEX
  8
0
 10
943.394
 20
2340.17
 30
0.0
 40
0
 41
0
  0
VERTEX
  8
0
 10
869.072
 20
2356.04
 30
0.0
 40
0
 41
0
  0
VERTEX
  8
0
 10
1424.04
 20
3980.89
 30
0.0
 40
0
 41
0
  0
VERTEX
  8
0
 10
1259.81
 20
5199.88
 30
0.0
 40
0
 41
0
  0
VERTEX
  8
0
 10
1329.58
 20
5194.22
 30
0.0
 40
0
 41
0
  0
VERTEX
  8
0
 10
1329.56
 20
5194.33
 30
0.0
 40
0
 41
0
  0
VERTEX
  8
0
 10
1329.52
 20
5194.63
 30
0.0
 40
0
 41
0
  0
VERTEX
  8
0
 10
1329.5
 20
5195.03
 30
0.0
 40
0
 41
0
  0
VERTEX
  8
0
 10
1329.52
 20
5195.43
 30
0.0
 40
0
 41
0
  0
VERTEX
  8
0
 10
1329.58
 20
5195.82
 30
0.0
 40
0
 41
0
  0
VERTEX
  8
0
 10
1329.67
 20
5196.19
 30
0.0
 40
0
 41
0
  0
VERTEX
  8
0
 10
1329.79
 20
5196.57
 30
0.0
 40
0
 41
0
  0
VERTEX
  8
0
 10
1329.95
 20
5196.92
 30
0.0
 40
0
 41
0
  0
VERTEX
  8
0
 10
1330.13
 20
5197.25
 30
0.0
 40
0
 41
0
  0
VERTEX
  8
0
 10
1330.35
 20
5197.57
 30
0.0
 40
0
 41
0
  0
VERTEX
  8
0
 10
1330.6
 20
5197.88
 30
0.0
 40
0
 41
0
  0
VERTEX
  8
0
 10
1330.87
 20
5198.15
 30
0.0
 40
0
 41
0
  0
VERTEX
  8
0
 10
1331.17
 20
5198.4
 30
0.0
 40
0
 41
0
  0
VERTEX
  8
0
 10
1331.49
 20
5198.63
 30
0.0
 40
0
 41
0
  0
VERTEX
  8
0
 10
1331.84
 20
5198.82
 30
0.0
 40
0
 41
0
  0
VERTEX
  8
0
 10
1332.21
 20
5198.97
 30
0.0
 40
0
 41
0
  0
VERTEX
  8
0
 10
1332.5
 20
5199.08
 30
0.0
 40
0
 41
0
  0
VERTEX
  8
0
 10
1332.6
 20
5199.11
 30
0.0
 40
0
 41
0
  0
VERTEX
  8
0
 10
1332.7
 20
5199.13
 30
0.0
 40
0
 41
0
  0
VERTEX
  8
0
 10
1333
 20
5199.19
 30
0.0
 40
0
 41
0
  0
VERTEX
  8
0
 10
1333.4
 20
5199.25
 30
0.0
 40
0
 41
0
  0
VERTEX
  8
0
 10
1333.79
 20
5199.26
 30
0.0
 40
0
 41
0
  0
VERTEX
  8
0
 10
1334.19
 20
5199.24
 30
0.0
 40
0
 41
0
  0
VERTEX
  8
0
 10
1334.57
 20
5199.18
 30
0.0
 40
0
 41
0
  0
VERTEX
  8
0
 10
1334.95
 20
5199.08
 30
0.0
 40
0
 41
0
  0
VERTEX
  8
0
 10
1335.31
 20
5198.94
 30
0.0
 40
0
 41
0
  0
VERTEX
  8
0
 10
1335.66
 20
5198.79
 30
0.0
 40
0
 41
0
  0
VERTEX
  8
0
 10
1336
 20
5198.6
 30
0.0
 40
0
 41
0
  0
VERTEX
  8
0
 10
1336.31
 20
5198.38
 30
0.0
 40
0
 41
0
  0
VERTEX
  8
0
 10
1336.61
 20
5198.13
 30
0.0
 40
0
 41
0
  0
VERTEX
  8
0
 10
1336.88
 20
5197.85
 30
0.0
 40
0
 41
0
  0
VERTEX
  8
0
 10
1337.13
 20
5197.54
 30
0.0
 40
0
 41
0
  0
VERTEX
  8
0
 10
1337.35
 20
5197.21
 30
0.0
 40
0
 41
0
  0
VERTEX
  8
0
 10
1337.54
 20
5196.86
 30
0.0
 40
0
 41
0
  0
VERTEX
  8
0
 10
1337.66
 20
5196.57
 30
0.0
 40
0
 41
0
  0
VERTEX
  8
0
 10
1337.7
 20
5196.47
 30
0.0
 40
0
 41
0
  0
VERTEX
  8
0
 10
1483.78
 20
3975.18
 30
0.0
 40
0
 41
0
  0
VERTEX
  8
0
 10
943.394
 20
2340.17
 30
0.0
 40
0
 41
0
  0
SEQEND
 8
0
  0
POLYLINE
  8
0
 62
     0
 66
     1
 10
0
 20
0
 30
0.0
 70
     1
 40
0
 41
0
  0
VERTEX
  8
0
 10
1459.06
 20
10678.3
 30
0.0
 40
0
 41
0
  0
VERTEX
  8
0
 10
1485.24
 20
11085.4
 30
0.0
 40
0
 41
0
  0
VERTEX
  8
0
 10
1139.34
 20
11072.7
 30
0.0
 40
0
 41
0
  0
VERTEX
  8
0
 10
1147.88
 20
10711.1
 30
0.0
 40
0
 41
0
  0
VERTEX
  8
0
 10
1147.88
 20
9421.35
 30
0.0
 40
0
 41
0
  0
VERTEX
  8
0
 10
1139.34
 20
9059.75
 30
0.0
 40
0
 41
0
  0
VERTEX
  8
0
 10
1485.24
 20
9047.04
 30
0.0
 40
0
 41
0
  0
VERTEX
  8
0
 10
1459.06
 20
9454.1
 30
0.0
 40
0
 41
0
  0
VERTEX
  8
0
 10
1459.06
 20
10678.3
 30
0.0
 40
0
 41
0
  0
SEQEND
 8
0
  0
POLYLINE
  8
0
 62
     0
 66
     1
 10
0
 20
0
 30
0.0
 70
     1
 40
0
 41
0
  0
VERTEX
  8
0
 10
1151.62
 20
11061.1
 30
0.0
 40
0
 41
0
  0
VERTEX
  8
0
 10
1472.4
 20
11072.9
 30
0.0
 40
0
 41
0
  0
VERTEX
  8
0
 10
1447.06
 20
10678.7
 30
0.0
 40
0
 41
0
  0
VERTEX
  8
0
 10
1447.06
 20
9453.71
 30
0.0
 40
0
 41
0
  0
VERTEX
  8
0
 10
1472.4
 20
9059.53
 30
0.0
 40
0
 41
0
  0
VERTEX
  8
0
 10
1151.62
 20
9071.31
 30
0.0
 40
0
 41
0
  0
VERTEX
  8
0
 10
1159.88
 20
9421.21
 30
0.0
 40
0
 41
0
  0
VERTEX
  8
0
 10
1159.88
 20
10711.2
 30
0.0
 40
0
 41
0
  0
VERTEX
  8
0
 10
1151.62
 20
11061.1
 30
0.0
 40
0
 41
0
  0
SEQEND
 8
0
  0
ENDSEC
  0
EOF
