  0
SECTION
  2
HEADER
  9
$ACADVER
  1
AC1009
  9
$EXTMIN
 10
0.0
 20
0.0
 30
0.0
  9
$EXTMAX
 10
1000.0
 20
1000.0
 30
0.0
  9
$FILLMODE
 70
 0
  9
$SPLFRAME
 70
 1
  0
ENDSEC
  0
SECTION
  2
TABLES
  0
TABLE
  2
LAYER
 70
1
  0
LAYER
  2
0
 70
     0
 62
     7
  6
CONTINUOUS
  0
ENDTAB
  0
ENDSEC
  0
SECTION
  2
ENTITIES
  0
POLYLINE
  8
0
 62
     0
 66
     1
 10
0
 20
0
 30
0.0
 70
     1
 40
0
 41
0
  0
VERTEX
  8
0
 10
2041.97
 20
500.438
 30
0.0
 40
0
 41
0
  0
VERTEX
  8
0
 10
0
 20
141.49
 30
0.0
 40
0
 41
0
  0
VERTEX
  8
0
 10
33.4369
 20
571.192
 30
0.0
 40
0
 41
0
  0
VERTEX
  8
0
 10
22.2675
 20
1219.49
 30
0.0
 40
0
 41
0
  0
VERTEX
  8
0
 10
12.8615
 20
1418.26
 30
0.0
 40
0
 41
0
  0
VERTEX
  8
0
 10
274.804
 20
1412.75
 30
0.0
 40
0
 41
0
  0
VERTEX
  8
0
 10
276.15
 20
1211.75
 30
0.0
 40
0
 41
0
  0
VERTEX
  8
0
 10
561.988
 20
779.181
 30
0.0
 40
0
 41
0
  0
VERTEX
  8
0
 10
1189.24
 20
759.994
 30
0.0
 40
0
 41
0
  0
VERTEX
  8
0
 10
1191.08
 20
819.967
 30
0.0
 40
0
 41
0
  0
VERTEX
  8
0
 10
1216.07
 20
819.203
 30
0.0
 40
0
 41
0
  0
VERTEX
  8
0
 10
1314.03
 20
951.969
 30
0.0
 40
0
 41
0
  0
VERTEX
  8
0
 10
1362.31
 20
916.344
 30
0.0
 40
0
 41
0
  0
VERTEX
  8
0
 10
1532.46
 20
1146.92
 30
0.0
 40
0
 41
0
  0
VERTEX
  8
0
 10
1976.22
 20
1113.87
 30
0.0
 40
0
 41
0
  0
VERTEX
  8
0
 10
1991.94
 20
1088.31
 30
0.0
 40
0
 41
0
  0
VERTEX
  8
0
 10
2041.97
 20
500.438
 30
0.0
 40
0
 41
0
  0
SEQEND
 8
0
  0
POLYLINE
  8
0
 62
     0
 66
     1
 10
0
 20
0
 30
0.0
 70
     1
 40
0
 41
0
  0
VERTEX
  8
0
 10
1994.42
 20
1059.32
 30
0.0
 40
0
 41
0
  0
VERTEX
  8
0
 10
4036.39
 20
1418.26
 30
0.0
 40
0
 41
0
  0
VERTEX
  8
0
 10
4002.94
 20
988.563
 30
0.0
 40
0
 41
0
  0
VERTEX
  8
0
 10
4014.11
 20
340.268
 30
0.0
 40
0
 41
0
  0
VERTEX
  8
0
 10
4023.51
 20
141.49
 30
0.0
 40
0
 41
0
  0
VERTEX
  8
0
 10
3761.58
 20
147.007
 30
0.0
 40
0
 41
0
  0
VERTEX
  8
0
 10
3760.24
 20
348.003
 30
0.0
 40
0
 41
0
  0
VERTEX
  8
0
 10
3474.39
 20
780.574
 30
0.0
 40
0
 41
0
  0
VERTEX
  8
0
 10
2847.14
 20
799.758
 30
0.0
 40
0
 41
0
  0
VERTEX
  8
0
 10
2845.31
 20
739.786
 30
0.0
 40
0
 41
0
  0
VERTEX
  8
0
 10
2820.32
 20
740.551
 30
0.0
 40
0
 41
0
  0
VERTEX
  8
0
 10
2722.35
 20
607.783
 30
0.0
 40
0
 41
0
  0
VERTEX
  8
0
 10
2674.07
 20
643.408
 30
0.0
 40
0
 41
0
  0
VERTEX
  8
0
 10
2503.93
 20
412.839
 30
0.0
 40
0
 41
0
  0
VERTEX
  8
0
 10
2060.15
 20
445.889
 30
0.0
 40
0
 41
0
  0
VERTEX
  8
0
 10
2044.43
 20
471.439
 30
0.0
 40
0
 41
0
  0
VERTEX
  8
0
 10
1994.42
 20
1059.32
 30
0.0
 40
0
 41
0
  0
SEQEND
 8
0
  0
POLYLINE
  8
0
 62
     0
 66
     1
 10
0
 20
0
 30
0.0
 70
     1
 40
0
 41
0
  0
VERTEX
  8
0
 10
4458.1
 20
557.735
 30
0.0
 40
0
 41
0
  0
VERTEX
  8
0
 10
4480.39
 20
629.347
 30
0.0
 40
0
 41
0
  0
VERTEX
  8
0
 10
4509.72
 20
617.54
 30
0.0
 40
0
 41
0
  0
VERTEX
  8
0
 10
5248.63
 20
522.415
 30
0.0
 40
0
 41
0
  0
VERTEX
  8
0
 10
5250.07
 20
582.397
 30
0.0
 40
0
 41
0
  0
VERTEX
  8
0
 10
5212.28
 20
669.558
 30
0.0
 40
0
 41
0
  0
VERTEX
  8
0
 10
5214.31
 20
1242.56
 30
0.0
 40
0
 41
0
  0
VERTEX
  8
0
 10
5214.92
 20
1416.56
 30
0.0
 40
0
 41
0
  0
VERTEX
  8
0
 10
5194.5
 20
1418.26
 30
0.0
 40
0
 41
0
  0
VERTEX
  8
0
 10
5193.88
 20
1244.27
 30
0.0
 40
0
 41
0
  0
VERTEX
  8
0
 10
4912.9
 20
773.776
 30
0.0
 40
0
 41
0
  0
VERTEX
  8
0
 10
4268.51
 20
801.911
 30
0.0
 40
0
 41
0
  0
VERTEX
  8
0
 10
4046.38
 20
1147.71
 30
0.0
 40
0
 41
0
  0
VERTEX
  8
0
 10
4036.13
 20
1143.32
 30
0.0
 40
0
 41
0
  0
VERTEX
  8
0
 10
4029.58
 20
743.375
 30
0.0
 40
0
 41
0
  0
VERTEX
  8
0
 10
4458.1
 20
557.735
 30
0.0
 40
0
 41
0
  0
SEQEND
 8
0
  0
POLYLINE
  8
0
 62
     0
 66
     1
 10
0
 20
0
 30
0.0
 70
     1
 40
0
 41
0
  0
VERTEX
  8
0
 10
4027.54
 20
540.389
 30
0.0
 40
0
 41
0
  0
VERTEX
  8
0
 10
4043.42
 20
614.711
 30
0.0
 40
0
 41
0
  0
VERTEX
  8
0
 10
5668.26
 20
59.7379
 30
0.0
 40
0
 41
0
  0
VERTEX
  8
0
 10
6887.25
 20
223.975
 30
0.0
 40
0
 41
0
  0
VERTEX
  8
0
 10
6881.6
 20
154.203
 30
0.0
 40
0
 41
0
  0
VERTEX
  8
0
 10
6881.71
 20
154.222
 30
0.0
 40
0
 41
0
  0
VERTEX
  8
0
 10
6882
 20
154.261
 30
0.0
 40
0
 41
0
  0
VERTEX
  8
0
 10
6882.4
 20
154.281
 30
0.0
 40
0
 41
0
  0
VERTEX
  8
0
 10
6882.81
 20
154.263
 30
0.0
 40
0
 41
0
  0
VERTEX
  8
0
 10
6883.19
 20
154.207
 30
0.0
 40
0
 41
0
  0
VERTEX
  8
0
 10
6883.57
 20
154.117
 30
0.0
 40
0
 41
0
  0
VERTEX
  8
0
 10
6883.94
 20
153.993
 30
0.0
 40
0
 41
0
  0
VERTEX
  8
0
 10
6884.29
 20
153.836
 30
0.0
 40
0
 41
0
  0
VERTEX
  8
0
 10
6884.63
 20
153.649
 30
0.0
 40
0
 41
0
  0
VERTEX
  8
0
 10
6884.94
 20
153.431
 30
0.0
 40
0
 41
0
  0
VERTEX
  8
0
 10
6885.25
 20
153.185
 30
0.0
 40
0
 41
0
  0
VERTEX
  8
0
 10
6885.53
 20
152.911
 30
0.0
 40
0
 41
0
  0
VERTEX
  8
0
 10
6885.78
 20
152.612
 30
0.0
 40
0
 41
0
  0
VERTEX
  8
0
 10
6886
 20
152.289
 30
0.0
 40
0
 41
0
  0
VERTEX
  8
0
 10
6886.19
 20
151.942
 30
0.0
 40
0
 41
0
  0
VERTEX
  8
0
 10
6886.35
 20
151.574
 30
0.0
 40
0
 41
0
  0
VERTEX
  8
0
 10
6886.46
 20
151.283
 30
0.0
 40
0
 41
0
  0
VERTEX
  8
0
 10
6886.49
 20
151.185
 30
0.0
 40
0
 41
0
  0
VERTEX
  8
0
 10
6886.5
 20
151.086
 30
0.0
 40
0
 41
0
  0
VERTEX
  8
0
 10
6886.57
 20
150.786
 30
0.0
 40
0
 41
0
  0
VERTEX
  8
0
 10
6886.63
 20
150.386
 30
0.0
 40
0
 41
0
  0
VERTEX
  8
0
 10
6886.64
 20
149.99
 30
0.0
 40
0
 41
0
  0
VERTEX
  8
0
 10
6886.61
 20
149.597
 30
0.0
 40
0
 41
0
  0
VERTEX
  8
0
 10
6886.56
 20
149.212
 30
0.0
 40
0
 41
0
  0
VERTEX
  8
0
 10
6886.46
 20
148.836
 30
0.0
 40
0
 41
0
  0
VERTEX
  8
0
 10
6886.32
 20
148.472
 30
0.0
 40
0
 41
0
  0
VERTEX
  8
0
 10
6886.17
 20
148.121
 30
0.0
 40
0
 41
0
  0
VERTEX
  8
0
 10
6885.97
 20
147.786
 30
0.0
 40
0
 41
0
  0
VERTEX
  8
0
 10
6885.75
 20
147.469
 30
0.0
 40
0
 41
0
  0
VERTEX
  8
0
 10
6885.5
 20
147.174
 30
0.0
 40
0
 41
0
  0
VERTEX
  8
0
 10
6885.22
 20
146.901
 30
0.0
 40
0
 41
0
  0
VERTEX
  8
0
 10
6884.92
 20
146.653
 30
0.0
 40
0
 41
0
  0
VERTEX
  8
0
 10
6884.58
 20
146.433
 30
0.0
 40
0
 41
0
  0
VERTEX
  8
0
 10
6884.24
 20
146.243
 30
0.0
 40
0
 41
0
  0
VERTEX
  8
0
 10
6883.94
 20
146.119
 30
0.0
 40
0
 41
0
  0
VERTEX
  8
0
 10
6883.85
 20
146.085
 30
0.0
 40
0
 41
0
  0
VERTEX
  8
0
 10
5662.56
 20
0.00954861
 30
0.0
 40
0
 41
0
  0
VERTEX
  8
0
 10
4027.54
 20
540.389
 30
0.0
 40
0
 41
0
  0
SEQEND
 8
0
  0
POLYLINE
  8
0
 62
     0
 66
     1
 10
0
 20
0
 30
0.0
 70
     1
 40
0
 41
0
  0
VERTEX
  8
0
 10
5534.46
 20
1234.52
 30
0.0
 40
0
 41
0
  0
VERTEX
  8
0
 10
5233.43
 20
977.222
 30
0.0
 40
0
 41
0
  0
VERTEX
  8
0
 10
5348.21
 20
525.575
 30
0.0
 40
0
 41
0
  0
VERTEX
  8
0
 10
5351.51
 20
526.703
 30
0.0
 40
0
 41
0
  0
VERTEX
  8
0
 10
5361.46
 20
530.065
 30
0.0
 40
0
 41
0
  0
VERTEX
  8
0
 10
5374.74
 20
534.518
 30
0.0
 40
0
 41
0
  0
VERTEX
  8
0
 10
5388.03
 20
538.932
 30
0.0
 40
0
 41
0
  0
VERTEX
  8
0
 10
5401.32
 20
543.308
 30
0.0
 40
0
 41
0
  0
VERTEX
  8
0
 10
5414.63
 20
547.647
 30
0.0
 40
0
 41
0
  0
VERTEX
  8
0
 10
5427.94
 20
551.949
 30
0.0
 40
0
 41
0
  0
VERTEX
  8
0
 10
5441.26
 20
556.211
 30
0.0
 40
0
 41
0
  0
VERTEX
  8
0
 10
5454.61
 20
560.436
 30
0.0
 40
0
 41
0
  0
VERTEX
  8
0
 10
5467.96
 20
564.622
 30
0.0
 40
0
 41
0
  0
VERTEX
  8
0
 10
5481.31
 20
568.772
 30
0.0
 40
0
 41
0
  0
VERTEX
  8
0
 10
5494.68
 20
572.882
 30
0.0
 40
0
 41
0
  0
VERTEX
  8
0
 10
5508.06
 20
576.956
 30
0.0
 40
0
 41
0
  0
VERTEX
  8
0
 10
5521.44
 20
580.99
 30
0.0
 40
0
 41
0
  0
VERTEX
  8
0
 10
5534.85
 20
584.988
 30
0.0
 40
0
 41
0
  0
VERTEX
  8
0
 10
5548.25
 20
588.946
 30
0.0
 40
0
 41
0
  0
VERTEX
  8
0
 10
5561.67
 20
592.867
 30
0.0
 40
0
 41
0
  0
VERTEX
  8
0
 10
5575.1
 20
596.75
 30
0.0
 40
0
 41
0
  0
VERTEX
  8
0
 10
5588.53
 20
600.594
 30
0.0
 40
0
 41
0
  0
VERTEX
  8
0
 10
5601.99
 20
604.401
 30
0.0
 40
0
 41
0
  0
VERTEX
  8
0
 10
5615.43
 20
608.169
 30
0.0
 40
0
 41
0
  0
VERTEX
  8
0
 10
5628.9
 20
611.9
 30
0.0
 40
0
 41
0
  0
VERTEX
  8
0
 10
5642.38
 20
615.593
 30
0.0
 40
0
 41
0
  0
VERTEX
  8
0
 10
5655.86
 20
619.247
 30
0.0
 40
0
 41
0
  0
VERTEX
  8
0
 10
5669.35
 20
622.864
 30
0.0
 40
0
 41
0
  0
VERTEX
  8
0
 10
5682.86
 20
626.442
 30
0.0
 40
0
 41
0
  0
VERTEX
  8
0
 10
5696.36
 20
629.982
 30
0.0
 40
0
 41
0
  0
VERTEX
  8
0
 10
5709.89
 20
633.483
 30
0.0
 40
0
 41
0
  0
VERTEX
  8
0
 10
5723.42
 20
636.946
 30
0.0
 40
0
 41
0
  0
VERTEX
  8
0
 10
5736.96
 20
640.372
 30
0.0
 40
0
 41
0
  0
VERTEX
  8
0
 10
5750.5
 20
643.758
 30
0.0
 40
0
 41
0
  0
VERTEX
  8
0
 10
5764.06
 20
647.108
 30
0.0
 40
0
 41
0
  0
VERTEX
  8
0
 10
5777.61
 20
650.418
 30
0.0
 40
0
 41
0
  0
VERTEX
  8
0
 10
5791.19
 20
653.69
 30
0.0
 40
0
 41
0
  0
VERTEX
  8
0
 10
5804.76
 20
656.925
 30
0.0
 40
0
 41
0
  0
VERTEX
  8
0
 10
5818.36
 20
660.121
 30
0.0
 40
0
 41
0
  0
VERTEX
  8
0
 10
5831.96
 20
663.278
 30
0.0
 40
0
 41
0
  0
VERTEX
  8
0
 10
5845.56
 20
666.397
 30
0.0
 40
0
 41
0
  0
VERTEX
  8
0
 10
5859.17
 20
669.479
 30
0.0
 40
0
 41
0
  0
VERTEX
  8
0
 10
5872.79
 20
672.521
 30
0.0
 40
0
 41
0
  0
VERTEX
  8
0
 10
5886.42
 20
675.525
 30
0.0
 40
0
 41
0
  0
VERTEX
  8
0
 10
5900.06
 20
678.492
 30
0.0
 40
0
 41
0
  0
VERTEX
  8
0
 10
5913.69
 20
681.419
 30
0.0
 40
0
 41
0
  0
VERTEX
  8
0
 10
5927.35
 20
684.308
 30
0.0
 40
0
 41
0
  0
VERTEX
  8
0
 10
5941
 20
687.16
 30
0.0
 40
0
 41
0
  0
VERTEX
  8
0
 10
5954.67
 20
689.972
 30
0.0
 40
0
 41
0
  0
VERTEX
  8
0
 10
5968.35
 20
692.746
 30
0.0
 40
0
 41
0
  0
VERTEX
  8
0
 10
5982.03
 20
695.482
 30
0.0
 40
0
 41
0
  0
VERTEX
  8
0
 10
5995.71
 20
698.179
 30
0.0
 40
0
 41
0
  0
VERTEX
  8
0
 10
6009.4
 20
700.838
 30
0.0
 40
0
 41
0
  0
VERTEX
  8
0
 10
6023.11
 20
703.458
 30
0.0
 40
0
 41
0
  0
VERTEX
  8
0
 10
6036.82
 20
706.04
 30
0.0
 40
0
 41
0
  0
VERTEX
  8
0
 10
6050.53
 20
708.583
 30
0.0
 40
0
 41
0
  0
VERTEX
  8
0
 10
6064.25
 20
711.089
 30
0.0
 40
0
 41
0
  0
VERTEX
  8
0
 10
6077.97
 20
713.556
 30
0.0
 40
0
 41
0
  0
VERTEX
  8
0
 10
6091.71
 20
715.983
 30
0.0
 40
0
 41
0
  0
VERTEX
  8
0
 10
6105.46
 20
718.372
 30
0.0
 40
0
 41
0
  0
VERTEX
  8
0
 10
6119.21
 20
720.724
 30
0.0
 40
0
 41
0
  0
VERTEX
  8
0
 10
6132.96
 20
723.036
 30
0.0
 40
0
 41
0
  0
VERTEX
  8
0
 10
6146.72
 20
725.31
 30
0.0
 40
0
 41
0
  0
VERTEX
  8
0
 10
6160.49
 20
727.544
 30
0.0
 40
0
 41
0
  0
VERTEX
  8
0
 10
6174.26
 20
729.742
 30
0.0
 40
0
 41
0
  0
VERTEX
  8
0
 10
6188.04
 20
731.9
 30
0.0
 40
0
 41
0
  0
VERTEX
  8
0
 10
6201.82
 20
734.019
 30
0.0
 40
0
 41
0
  0
VERTEX
  8
0
 10
6215.61
 20
736.1
 30
0.0
 40
0
 41
0
  0
VERTEX
  8
0
 10
6229.42
 20
738.142
 30
0.0
 40
0
 41
0
  0
VERTEX
  8
0
 10
6243.21
 20
740.146
 30
0.0
 40
0
 41
0
  0
VERTEX
  8
0
 10
6257.01
 20
742.11
 30
0.0
 40
0
 41
0
  0
VERTEX
  8
0
 10
6270.83
 20
744.036
 30
0.0
 40
0
 41
0
  0
VERTEX
  8
0
 10
6284.65
 20
745.924
 30
0.0
 40
0
 41
0
  0
VERTEX
  8
0
 10
6298.47
 20
747.772
 30
0.0
 40
0
 41
0
  0
VERTEX
  8
0
 10
6312.31
 20
749.583
 30
0.0
 40
0
 41
0
  0
VERTEX
  8
0
 10
6326.14
 20
751.354
 30
0.0
 40
0
 41
0
  0
VERTEX
  8
0
 10
6339.99
 20
753.088
 30
0.0
 40
0
 41
0
  0
VERTEX
  8
0
 10
6353.82
 20
754.781
 30
0.0
 40
0
 41
0
  0
VERTEX
  8
0
 10
6367.68
 20
756.436
 30
0.0
 40
0
 41
0
  0
VERTEX
  8
0
 10
6381.53
 20
758.053
 30
0.0
 40
0
 41
0
  0
VERTEX
  8
0
 10
6395.39
 20
759.631
 30
0.0
 40
0
 41
0
  0
VERTEX
  8
0
 10
6409.25
 20
761.168
 30
0.0
 40
0
 41
0
  0
VERTEX
  8
0
 10
6423.13
 20
762.668
 30
0.0
 40
0
 41
0
  0
VERTEX
  8
0
 10
6437
 20
764.131
 30
0.0
 40
0
 41
0
  0
VERTEX
  8
0
 10
6450.88
 20
765.553
 30
0.0
 40
0
 41
0
  0
VERTEX
  8
0
 10
6464.75
 20
766.936
 30
0.0
 40
0
 41
0
  0
VERTEX
  8
0
 10
6478.64
 20
768.281
 30
0.0
 40
0
 41
0
  0
VERTEX
  8
0
 10
6492.53
 20
769.586
 30
0.0
 40
0
 41
0
  0
VERTEX
  8
0
 10
6506.43
 20
770.853
 30
0.0
 40
0
 41
0
  0
VERTEX
  8
0
 10
6520.33
 20
772.082
 30
0.0
 40
0
 41
0
  0
VERTEX
  8
0
 10
6534.24
 20
773.271
 30
0.0
 40
0
 41
0
  0
VERTEX
  8
0
 10
6548.14
 20
774.421
 30
0.0
 40
0
 41
0
  0
VERTEX
  8
0
 10
6562.04
 20
775.532
 30
0.0
 40
0
 41
0
  0
VERTEX
  8
0
 10
6575.96
 20
776.604
 30
0.0
 40
0
 41
0
  0
VERTEX
  8
0
 10
6589.88
 20
777.637
 30
0.0
 40
0
 41
0
  0
VERTEX
  8
0
 10
6603.81
 20
778.632
 30
0.0
 40
0
 41
0
  0
VERTEX
  8
0
 10
6617.72
 20
779.588
 30
0.0
 40
0
 41
0
  0
VERTEX
  8
0
 10
6631.65
 20
780.504
 30
0.0
 40
0
 41
0
  0
VERTEX
  8
0
 10
6645.58
 20
781.382
 30
0.0
 40
0
 41
0
  0
VERTEX
  8
0
 10
6659.53
 20
782.221
 30
0.0
 40
0
 41
0
  0
VERTEX
  8
0
 10
6673.46
 20
783.019
 30
0.0
 40
0
 41
0
  0
VERTEX
  8
0
 10
6687.4
 20
783.781
 30
0.0
 40
0
 41
0
  0
VERTEX
  8
0
 10
6701.35
 20
784.501
 30
0.0
 40
0
 41
0
  0
VERTEX
  8
0
 10
6715.29
 20
785.183
 30
0.0
 40
0
 41
0
  0
VERTEX
  8
0
 10
6729.25
 20
785.826
 30
0.0
 40
0
 41
0
  0
VERTEX
  8
0
 10
6743.19
 20
786.431
 30
0.0
 40
0
 41
0
  0
VERTEX
  8
0
 10
6757.15
 20
786.996
 30
0.0
 40
0
 41
0
  0
VERTEX
  8
0
 10
6771.11
 20
787.522
 30
0.0
 40
0
 41
0
  0
VERTEX
  8
0
 10
6785.07
 20
788.008
 30
0.0
 40
0
 41
0
  0
VERTEX
  8
0
 10
6799.04
 20
788.457
 30
0.0
 40
0
 41
0
  0
VERTEX
  8
0
 10
6813
 20
788.865
 30
0.0
 40
0
 41
0
  0
VERTEX
  8
0
 10
6826.97
 20
789.235
 30
0.0
 40
0
 41
0
  0
VERTEX
  8
0
 10
6840.94
 20
789.565
 30
0.0
 40
0
 41
0
  0
VERTEX
  8
0
 10
6854.92
 20
789.856
 30
0.0
 40
0
 41
0
  0
VERTEX
  8
0
 10
6868.89
 20
790.108
 30
0.0
 40
0
 41
0
  0
VERTEX
  8
0
 10
6882.86
 20
790.321
 30
0.0
 40
0
 41
0
  0
VERTEX
  8
0
 10
6896.83
 20
790.494
 30
0.0
 40
0
 41
0
  0
VERTEX
  8
0
 10
6910.82
 20
790.628
 30
0.0
 40
0
 41
0
  0
VERTEX
  8
0
 10
6924.81
 20
790.724
 30
0.0
 40
0
 41
0
  0
VERTEX
  8
0
 10
6938.78
 20
790.779
 30
0.0
 40
0
 41
0
  0
VERTEX
  8
0
 10
6952.76
 20
790.796
 30
0.0
 40
0
 41
0
  0
VERTEX
  8
0
 10
6966.75
 20
790.772
 30
0.0
 40
0
 41
0
  0
VERTEX
  8
0
 10
6980.74
 20
790.71
 30
0.0
 40
0
 41
0
  0
VERTEX
  8
0
 10
6994.74
 20
790.608
 30
0.0
 40
0
 41
0
  0
VERTEX
  8
0
 10
7008.72
 20
790.468
 30
0.0
 40
0
 41
0
  0
VERTEX
  8
0
 10
7022.71
 20
790.287
 30
0.0
 40
0
 41
0
  0
VERTEX
  8
0
 10
7036.71
 20
790.068
 30
0.0
 40
0
 41
0
  0
VERTEX
  8
0
 10
7050.69
 20
789.81
 30
0.0
 40
0
 41
0
  0
VERTEX
  8
0
 10
7064.69
 20
789.511
 30
0.0
 40
0
 41
0
  0
VERTEX
  8
0
 10
7078.68
 20
789.174
 30
0.0
 40
0
 41
0
  0
VERTEX
  8
0
 10
7092.68
 20
788.797
 30
0.0
 40
0
 41
0
  0
VERTEX
  8
0
 10
7103.18
 20
788.49
 30
0.0
 40
0
 41
0
  0
VERTEX
  8
0
 10
7106.68
 20
788.381
 30
0.0
 40
0
 41
0
  0
VERTEX
  8
0
 10
7084.38
 20
1253.85
 30
0.0
 40
0
 41
0
  0
VERTEX
  8
0
 10
6721.28
 20
1411.89
 30
0.0
 40
0
 41
0
  0
VERTEX
  8
0
 10
6718.92
 20
1412.06
 30
0.0
 40
0
 41
0
  0
VERTEX
  8
0
 10
6711.82
 20
1412.51
 30
0.0
 40
0
 41
0
  0
VERTEX
  8
0
 10
6702.35
 20
1413.1
 30
0.0
 40
0
 41
0
  0
VERTEX
  8
0
 10
6692.89
 20
1413.67
 30
0.0
 40
0
 41
0
  0
VERTEX
  8
0
 10
6683.43
 20
1414.19
 30
0.0
 40
0
 41
0
  0
VERTEX
  8
0
 10
6673.96
 20
1414.68
 30
0.0
 40
0
 41
0
  0
VERTEX
  8
0
 10
6664.5
 20
1415.15
 30
0.0
 40
0
 41
0
  0
VERTEX
  8
0
 10
6655.03
 20
1415.58
 30
0.0
 40
0
 41
0
  0
VERTEX
  8
0
 10
6645.57
 20
1415.97
 30
0.0
 40
0
 41
0
  0
VERTEX
  8
0
 10
6636.1
 20
1416.35
 30
0.0
 40
0
 41
0
  0
VERTEX
  8
0
 10
6626.64
 20
1416.68
 30
0.0
 40
0
 41
0
  0
VERTEX
  8
0
 10
6617.18
 20
1416.99
 30
0.0
 40
0
 41
0
  0
VERTEX
  8
0
 10
6607.71
 20
1417.25
 30
0.0
 40
0
 41
0
  0
VERTEX
  8
0
 10
6598.25
 20
1417.49
 30
0.0
 40
0
 41
0
  0
VERTEX
  8
0
 10
6588.79
 20
1417.69
 30
0.0
 40
0
 41
0
  0
VERTEX
  8
0
 10
6579.33
 20
1417.88
 30
0.0
 40
0
 41
0
  0
VERTEX
  8
0
 10
6569.86
 20
1418.01
 30
0.0
 40
0
 41
0
  0
VERTEX
  8
0
 10
6560.4
 20
1418.13
 30
0.0
 40
0
 41
0
  0
VERTEX
  8
0
 10
6550.94
 20
1418.21
 30
0.0
 40
0
 41
0
  0
VERTEX
  8
0
 10
6541.49
 20
1418.25
 30
0.0
 40
0
 41
0
  0
VERTEX
  8
0
 10
6532.04
 20
1418.26
 30
0.0
 40
0
 41
0
  0
VERTEX
  8
0
 10
6522.58
 20
1418.25
 30
0.0
 40
0
 41
0
  0
VERTEX
  8
0
 10
6513.13
 20
1418.19
 30
0.0
 40
0
 41
0
  0
VERTEX
  8
0
 10
6503.68
 20
1418.11
 30
0.0
 40
0
 41
0
  0
VERTEX
  8
0
 10
6494.22
 20
1418
 30
0.0
 40
0
 41
0
  0
VERTEX
  8
0
 10
6484.78
 20
1417.86
 30
0.0
 40
0
 41
0
  0
VERTEX
  8
0
 10
6475.32
 20
1417.68
 30
0.0
 40
0
 41
0
  0
VERTEX
  8
0
 10
6465.88
 20
1417.47
 30
0.0
 40
0
 41
0
  0
VERTEX
  8
0
 10
6456.43
 20
1417.24
 30
0.0
 40
0
 41
0
  0
VERTEX
  8
0
 10
6446.99
 20
1416.96
 30
0.0
 40
0
 41
0
  0
VERTEX
  8
0
 10
6437.56
 20
1416.65
 30
0.0
 40
0
 41
0
  0
VERTEX
  8
0
 10
6428.11
 20
1416.32
 30
0.0
 40
0
 41
0
  0
VERTEX
  8
0
 10
6418.68
 20
1415.96
 30
0.0
 40
0
 41
0
  0
VERTEX
  8
0
 10
6409.24
 20
1415.56
 30
0.0
 40
0
 41
0
  0
VERTEX
  8
0
 10
6399.81
 20
1415.13
 30
0.0
 40
0
 41
0
  0
VERTEX
  8
0
 10
6390.38
 20
1414.67
 30
0.0
 40
0
 41
0
  0
VERTEX
  8
0
 10
6380.94
 20
1414.17
 30
0.0
 40
0
 41
0
  0
VERTEX
  8
0
 10
6371.53
 20
1413.64
 30
0.0
 40
0
 41
0
  0
VERTEX
  8
0
 10
6362.1
 20
1413.08
 30
0.0
 40
0
 41
0
  0
VERTEX
  8
0
 10
6352.68
 20
1412.5
 30
0.0
 40
0
 41
0
  0
VERTEX
  8
0
 10
6343.26
 20
1411.88
 30
0.0
 40
0
 41
0
  0
VERTEX
  8
0
 10
6333.85
 20
1411.22
 30
0.0
 40
0
 41
0
  0
VERTEX
  8
0
 10
6324.44
 20
1410.54
 30
0.0
 40
0
 41
0
  0
VERTEX
  8
0
 10
6315.03
 20
1409.82
 30
0.0
 40
0
 41
0
  0
VERTEX
  8
0
 10
6305.63
 20
1409.07
 30
0.0
 40
0
 41
0
  0
VERTEX
  8
0
 10
6296.22
 20
1408.29
 30
0.0
 40
0
 41
0
  0
VERTEX
  8
0
 10
6286.82
 20
1407.49
 30
0.0
 40
0
 41
0
  0
VERTEX
  8
0
 10
6277.43
 20
1406.64
 30
0.0
 40
0
 41
0
  0
VERTEX
  8
0
 10
6268.03
 20
1405.76
 30
0.0
 40
0
 41
0
  0
VERTEX
  8
0
 10
6258.64
 20
1404.86
 30
0.0
 40
0
 41
0
  0
VERTEX
  8
0
 10
6249.25
 20
1403.92
 30
0.0
 40
0
 41
0
  0
VERTEX
  8
0
 10
6239.88
 20
1402.96
 30
0.0
 40
0
 41
0
  0
VERTEX
  8
0
 10
6230.5
 20
1401.96
 30
0.0
 40
0
 41
0
  0
VERTEX
  8
0
 10
6221.13
 20
1400.92
 30
0.0
 40
0
 41
0
  0
VERTEX
  8
0
 10
6211.75
 20
1399.86
 30
0.0
 40
0
 41
0
  0
VERTEX
  8
0
 10
6202.38
 20
1398.76
 30
0.0
 40
0
 41
0
  0
VERTEX
  8
0
 10
6193.01
 20
1397.64
 30
0.0
 40
0
 41
0
  0
VERTEX
  8
0
 10
6183.65
 20
1396.47
 30
0.0
 40
0
 41
0
  0
VERTEX
  8
0
 10
6174.31
 20
1395.29
 30
0.0
 40
0
 41
0
  0
VERTEX
  8
0
 10
6164.96
 20
1394.07
 30
0.0
 40
0
 41
0
  0
VERTEX
  8
0
 10
6155.61
 20
1392.82
 30
0.0
 40
0
 41
0
  0
VERTEX
  8
0
 10
6146.26
 20
1391.53
 30
0.0
 40
0
 41
0
  0
VERTEX
  8
0
 10
6136.93
 20
1390.21
 30
0.0
 40
0
 41
0
  0
VERTEX
  8
0
 10
6127.6
 20
1388.87
 30
0.0
 40
0
 41
0
  0
VERTEX
  8
0
 10
6118.26
 20
1387.49
 30
0.0
 40
0
 41
0
  0
VERTEX
  8
0
 10
6108.94
 20
1386.08
 30
0.0
 40
0
 41
0
  0
VERTEX
  8
0
 10
6099.63
 20
1384.64
 30
0.0
 40
0
 41
0
  0
VERTEX
  8
0
 10
6090.31
 20
1383.17
 30
0.0
 40
0
 41
0
  0
VERTEX
  8
0
 10
6081
 20
1381.66
 30
0.0
 40
0
 41
0
  0
VERTEX
  8
0
 10
6071.69
 20
1380.13
 30
0.0
 40
0
 41
0
  0
VERTEX
  8
0
 10
6062.39
 20
1378.56
 30
0.0
 40
0
 41
0
  0
VERTEX
  8
0
 10
6053.1
 20
1376.96
 30
0.0
 40
0
 41
0
  0
VERTEX
  8
0
 10
6043.81
 20
1375.33
 30
0.0
 40
0
 41
0
  0
VERTEX
  8
0
 10
6034.53
 20
1373.68
 30
0.0
 40
0
 41
0
  0
VERTEX
  8
0
 10
6025.25
 20
1371.98
 30
0.0
 40
0
 41
0
  0
VERTEX
  8
0
 10
6015.97
 20
1370.26
 30
0.0
 40
0
 41
0
  0
VERTEX
  8
0
 10
6006.71
 20
1368.51
 30
0.0
 40
0
 41
0
  0
VERTEX
  8
0
 10
5997.44
 20
1366.72
 30
0.0
 40
0
 41
0
  0
VERTEX
  8
0
 10
5988.19
 20
1364.9
 30
0.0
 40
0
 41
0
  0
VERTEX
  8
0
 10
5978.94
 20
1363.06
 30
0.0
 40
0
 41
0
  0
VERTEX
  8
0
 10
5969.69
 20
1361.18
 30
0.0
 40
0
 41
0
  0
VERTEX
  8
0
 10
5960.46
 20
1359.27
 30
0.0
 40
0
 41
0
  0
VERTEX
  8
0
 10
5951.22
 20
1357.33
 30
0.0
 40
0
 41
0
  0
VERTEX
  8
0
 10
5942
 20
1355.35
 30
0.0
 40
0
 41
0
  0
VERTEX
  8
0
 10
5932.78
 20
1353.35
 30
0.0
 40
0
 41
0
  0
VERTEX
  8
0
 10
5923.57
 20
1351.32
 30
0.0
 40
0
 41
0
  0
VERTEX
  8
0
 10
5914.36
 20
1349.25
 30
0.0
 40
0
 41
0
  0
VERTEX
  8
0
 10
5905.15
 20
1347.15
 30
0.0
 40
0
 41
0
  0
VERTEX
  8
0
 10
5895.96
 20
1345.02
 30
0.0
 40
0
 41
0
  0
VERTEX
  8
0
 10
5886.78
 20
1342.87
 30
0.0
 40
0
 41
0
  0
VERTEX
  8
0
 10
5877.6
 20
1340.68
 30
0.0
 40
0
 41
0
  0
VERTEX
  8
0
 10
5868.42
 20
1338.45
 30
0.0
 40
0
 41
0
  0
VERTEX
  8
0
 10
5859.25
 20
1336.2
 30
0.0
 40
0
 41
0
  0
VERTEX
  8
0
 10
5850.1
 20
1333.92
 30
0.0
 40
0
 41
0
  0
VERTEX
  8
0
 10
5840.94
 20
1331.6
 30
0.0
 40
0
 41
0
  0
VERTEX
  8
0
 10
5831.79
 20
1329.26
 30
0.0
 40
0
 41
0
  0
VERTEX
  8
0
 10
5822.65
 20
1326.88
 30
0.0
 40
0
 41
0
  0
VERTEX
  8
0
 10
5813.53
 20
1324.47
 30
0.0
 40
0
 41
0
  0
VERTEX
  8
0
 10
5804.4
 20
1322.03
 30
0.0
 40
0
 41
0
  0
VERTEX
  8
0
 10
5795.28
 20
1319.56
 30
0.0
 40
0
 41
0
  0
VERTEX
  8
0
 10
5786.17
 20
1317.06
 30
0.0
 40
0
 41
0
  0
VERTEX
  8
0
 10
5777.07
 20
1314.53
 30
0.0
 40
0
 41
0
  0
VERTEX
  8
0
 10
5767.97
 20
1311.97
 30
0.0
 40
0
 41
0
  0
VERTEX
  8
0
 10
5758.89
 20
1309.38
 30
0.0
 40
0
 41
0
  0
VERTEX
  8
0
 10
5749.81
 20
1306.75
 30
0.0
 40
0
 41
0
  0
VERTEX
  8
0
 10
5740.74
 20
1304.1
 30
0.0
 40
0
 41
0
  0
VERTEX
  8
0
 10
5731.68
 20
1301.41
 30
0.0
 40
0
 41
0
  0
VERTEX
  8
0
 10
5722.63
 20
1298.69
 30
0.0
 40
0
 41
0
  0
VERTEX
  8
0
 10
5713.57
 20
1295.94
 30
0.0
 40
0
 41
0
  0
VERTEX
  8
0
 10
5704.53
 20
1293.17
 30
0.0
 40
0
 41
0
  0
VERTEX
  8
0
 10
5695.5
 20
1290.36
 30
0.0
 40
0
 41
0
  0
VERTEX
  8
0
 10
5686.49
 20
1287.52
 30
0.0
 40
0
 41
0
  0
VERTEX
  8
0
 10
5677.47
 20
1284.64
 30
0.0
 40
0
 41
0
  0
VERTEX
  8
0
 10
5668.46
 20
1281.74
 30
0.0
 40
0
 41
0
  0
VERTEX
  8
0
 10
5659.46
 20
1278.81
 30
0.0
 40
0
 41
0
  0
VERTEX
  8
0
 10
5650.47
 20
1275.84
 30
0.0
 40
0
 41
0
  0
VERTEX
  8
0
 10
5641.5
 20
1272.85
 30
0.0
 40
0
 41
0
  0
VERTEX
  8
0
 10
5632.53
 20
1269.82
 30
0.0
 40
0
 41
0
  0
VERTEX
  8
0
 10
5623.57
 20
1266.77
 30
0.0
 40
0
 41
0
  0
VERTEX
  8
0
 10
5614.61
 20
1263.68
 30
0.0
 40
0
 41
0
  0
VERTEX
  8
0
 10
5605.67
 20
1260.56
 30
0.0
 40
0
 41
0
  0
VERTEX
  8
0
 10
5596.74
 20
1257.42
 30
0.0
 40
0
 41
0
  0
VERTEX
  8
0
 10
5587.81
 20
1254.24
 30
0.0
 40
0
 41
0
  0
VERTEX
  8
0
 10
5578.89
 20
1251.03
 30
0.0
 40
0
 41
0
  0
VERTEX
  8
0
 10
5569.99
 20
1247.79
 30
0.0
 40
0
 41
0
  0
VERTEX
  8
0
 10
5561.1
 20
1244.52
 30
0.0
 40
0
 41
0
  0
VERTEX
  8
0
 10
5552.21
 20
1241.21
 30
0.0
 40
0
 41
0
  0
VERTEX
  8
0
 10
5543.33
 20
1237.88
 30
0.0
 40
0
 41
0
  0
VERTEX
  8
0
 10
5536.68
 20
1235.36
 30
0.0
 40
0
 41
0
  0
VERTEX
  8
0
 10
5534.46
 20
1234.52
 30
0.0
 40
0
 41
0
  0
SEQEND
 8
0
  0
POLYLINE
  8
0
 62
     0
 66
     1
 10
0
 20
0
 30
0.0
 70
     1
 40
0
 41
0
  0
VERTEX
  8
0
 10
6127.88
 20
1323.2
 30
0.0
 40
0
 41
0
  0
VERTEX
  8
0
 10
6118.26
 20
1387.49
 30
0.0
 40
0
 41
0
  0
SEQEND
 8
0
  0
POLYLINE
  8
0
 62
     0
 66
     1
 10
0
 20
0
 30
0.0
 70
     1
 40
0
 41
0
  0
VERTEX
  8
0
 10
7119.83
 20
471.613
 30
0.0
 40
0
 41
0
  0
VERTEX
  8
0
 10
8205.83
 20
466.238
 30
0.0
 40
0
 41
0
  0
VERTEX
  8
0
 10
8214.82
 20
641.007
 30
0.0
 40
0
 41
0
  0
VERTEX
  8
0
 10
8222.11
 20
1213.96
 30
0.0
 40
0
 41
0
  0
VERTEX
  8
0
 10
8181.93
 20
1300.05
 30
0.0
 40
0
 41
0
  0
VERTEX
  8
0
 10
8179.75
 20
1357
 30
0.0
 40
0
 41
0
  0
VERTEX
  8
0
 10
8153.88
 20
1359.52
 30
0.0
 40
0
 41
0
  0
VERTEX
  8
0
 10
8149.81
 20
1317.71
 30
0.0
 40
0
 41
0
  0
VERTEX
  8
0
 10
8065.21
 20
1325.93
 30
0.0
 40
0
 41
0
  0
VERTEX
  8
0
 10
8068.83
 20
1363.25
 30
0.0
 40
0
 41
0
  0
VERTEX
  8
0
 10
7091.97
 20
1418.26
 30
0.0
 40
0
 41
0
  0
VERTEX
  8
0
 10
7091.58
 20
1411.28
 30
0.0
 40
0
 41
0
  0
VERTEX
  8
0
 10
7085.58
 20
1411.61
 30
0.0
 40
0
 41
0
  0
VERTEX
  8
0
 10
7082.76
 20
1363.7
 30
0.0
 40
0
 41
0
  0
VERTEX
  8
0
 10
7117.24
 20
1274.1
 30
0.0
 40
0
 41
0
  0
VERTEX
  8
0
 10
7120.94
 20
658.108
 30
0.0
 40
0
 41
0
  0
VERTEX
  8
0
 10
7119.83
 20
471.613
 30
0.0
 40
0
 41
0
  0
SEQEND
 8
0
  0
POLYLINE
  8
0
 62
     0
 66
     1
 10
0
 20
0
 30
0.0
 70
     1
 40
0
 41
0
  0
VERTEX
  8
0
 10
8153.76
 20
1358.47
 30
0.0
 40
0
 41
0
  0
VERTEX
  8
0
 10
8179.75
 20
1357
 30
0.0
 40
0
 41
0
  0
SEQEND
 8
0
  0
POLYLINE
  8
0
 62
     0
 66
     1
 10
0
 20
0
 30
0.0
 70
     1
 40
0
 41
0
  0
VERTEX
  8
0
 10
8158.67
 20
125.788
 30
0.0
 40
0
 41
0
  0
VERTEX
  8
0
 10
8142.79
 20
51.4656
 30
0.0
 40
0
 41
0
  0
VERTEX
  8
0
 10
6517.94
 20
606.439
 30
0.0
 40
0
 41
0
  0
VERTEX
  8
0
 10
5298.96
 20
442.203
 30
0.0
 40
0
 41
0
  0
VERTEX
  8
0
 10
5304.61
 20
511.974
 30
0.0
 40
0
 41
0
  0
VERTEX
  8
0
 10
5304.51
 20
511.954
 30
0.0
 40
0
 41
0
  0
VERTEX
  8
0
 10
5304.21
 20
511.915
 30
0.0
 40
0
 41
0
  0
VERTEX
  8
0
 10
5303.81
 20
511.896
 30
0.0
 40
0
 41
0
  0
VERTEX
  8
0
 10
5303.4
 20
511.914
 30
0.0
 40
0
 41
0
  0
VERTEX
  8
0
 10
5303.01
 20
511.969
 30
0.0
 40
0
 41
0
  0
VERTEX
  8
0
 10
5302.64
 20
512.06
 30
0.0
 40
0
 41
0
  0
VERTEX
  8
0
 10
5302.28
 20
512.183
 30
0.0
 40
0
 41
0
  0
VERTEX
  8
0
 10
5301.92
 20
512.34
 30
0.0
 40
0
 41
0
  0
VERTEX
  8
0
 10
5301.58
 20
512.529
 30
0.0
 40
0
 41
0
  0
VERTEX
  8
0
 10
5301.26
 20
512.746
 30
0.0
 40
0
 41
0
  0
VERTEX
  8
0
 10
5300.96
 20
512.993
 30
0.0
 40
0
 41
0
  0
VERTEX
  8
0
 10
5300.69
 20
513.265
 30
0.0
 40
0
 41
0
  0
VERTEX
  8
0
 10
5300.44
 20
513.565
 30
0.0
 40
0
 41
0
  0
VERTEX
  8
0
 10
5300.22
 20
513.889
 30
0.0
 40
0
 41
0
  0
VERTEX
  8
0
 10
5300.03
 20
514.235
 30
0.0
 40
0
 41
0
  0
VERTEX
  8
0
 10
5299.86
 20
514.603
 30
0.0
 40
0
 41
0
  0
VERTEX
  8
0
 10
5299.76
 20
514.893
 30
0.0
 40
0
 41
0
  0
VERTEX
  8
0
 10
5299.74
 20
514.992
 30
0.0
 40
0
 41
0
  0
VERTEX
  8
0
 10
5299.71
 20
515.09
 30
0.0
 40
0
 41
0
  0
VERTEX
  8
0
 10
5299.64
 20
515.392
 30
0.0
 40
0
 41
0
  0
VERTEX
  8
0
 10
5299.6
 20
515.79
 30
0.0
 40
0
 41
0
  0
VERTEX
  8
0
 10
5299.58
 20
516.188
 30
0.0
 40
0
 41
0
  0
VERTEX
  8
0
 10
5299.6
 20
516.579
 30
0.0
 40
0
 41
0
  0
VERTEX
  8
0
 10
5299.67
 20
516.964
 30
0.0
 40
0
 41
0
  0
VERTEX
  8
0
 10
5299.76
 20
517.34
 30
0.0
 40
0
 41
0
  0
VERTEX
  8
0
 10
5299.89
 20
517.706
 30
0.0
 40
0
 41
0
  0
VERTEX
  8
0
 10
5300.04
 20
518.056
 30
0.0
 40
0
 41
0
  0
VERTEX
  8
0
 10
5300.24
 20
518.39
 30
0.0
 40
0
 41
0
  0
VERTEX
  8
0
 10
5300.46
 20
518.707
 30
0.0
 40
0
 41
0
  0
VERTEX
  8
0
 10
5300.71
 20
519.003
 30
0.0
 40
0
 41
0
  0
VERTEX
  8
0
 10
5300.99
 20
519.276
 30
0.0
 40
0
 41
0
  0
VERTEX
  8
0
 10
5301.29
 20
519.524
 30
0.0
 40
0
 41
0
  0
VERTEX
  8
0
 10
5301.63
 20
519.743
 30
0.0
 40
0
 41
0
  0
VERTEX
  8
0
 10
5301.99
 20
519.933
 30
0.0
 40
0
 41
0
  0
VERTEX
  8
0
 10
5302.26
 20
520.057
 30
0.0
 40
0
 41
0
  0
VERTEX
  8
0
 10
5302.36
 20
520.092
 30
0.0
 40
0
 41
0
  0
VERTEX
  8
0
 10
6523.65
 20
666.167
 30
0.0
 40
0
 41
0
  0
VERTEX
  8
0
 10
8158.67
 20
125.788
 30
0.0
 40
0
 41
0
  0
SEQEND
 8
0
  0
POLYLINE
  8
0
 62
     0
 66
     1
 10
0
 20
0
 30
0.0
 70
     1
 40
0
 41
0
  0
VERTEX
  8
0
 10
9047.58
 20
626.293
 30
0.0
 40
0
 41
0
  0
VERTEX
  8
0
 10
8975.97
 20
648.578
 30
0.0
 40
0
 41
0
  0
VERTEX
  8
0
 10
8987.79
 20
677.914
 30
0.0
 40
0
 41
0
  0
VERTEX
  8
0
 10
9082.92
 20
1416.82
 30
0.0
 40
0
 41
0
  0
VERTEX
  8
0
 10
9022.93
 20
1418.26
 30
0.0
 40
0
 41
0
  0
VERTEX
  8
0
 10
8935.76
 20
1380.48
 30
0.0
 40
0
 41
0
  0
VERTEX
  8
0
 10
8362.76
 20
1382.5
 30
0.0
 40
0
 41
0
  0
VERTEX
  8
0
 10
8188.76
 20
1383.11
 30
0.0
 40
0
 41
0
  0
VERTEX
  8
0
 10
8187.06
 20
1362.68
 30
0.0
 40
0
 41
0
  0
VERTEX
  8
0
 10
8361.06
 20
1362.07
 30
0.0
 40
0
 41
0
  0
VERTEX
  8
0
 10
8831.54
 20
1081.1
 30
0.0
 40
0
 41
0
  0
VERTEX
  8
0
 10
8803.42
 20
436.71
 30
0.0
 40
0
 41
0
  0
VERTEX
  8
0
 10
8457.61
 20
214.569
 30
0.0
 40
0
 41
0
  0
VERTEX
  8
0
 10
8462
 20
204.313
 30
0.0
 40
0
 41
0
  0
VERTEX
  8
0
 10
8861.94
 20
197.775
 30
0.0
 40
0
 41
0
  0
VERTEX
  8
0
 10
9047.58
 20
626.293
 30
0.0
 40
0
 41
0
  0
SEQEND
 8
0
  0
POLYLINE
  8
0
 62
     0
 66
     1
 10
0
 20
0
 30
0.0
 70
     1
 40
0
 41
0
  0
VERTEX
  8
0
 10
9045.68
 20
429.753
 30
0.0
 40
0
 41
0
  0
VERTEX
  8
0
 10
9038.69
 20
430.069
 30
0.0
 40
0
 41
0
  0
VERTEX
  8
0
 10
9081.32
 20
1370.11
 30
0.0
 40
0
 41
0
  0
VERTEX
  8
0
 10
9088.32
 20
1370.19
 30
0.0
 40
0
 41
0
  0
VERTEX
  8
0
 10
9088.24
 20
1376.19
 30
0.0
 40
0
 41
0
  0
VERTEX
  8
0
 10
9136.22
 20
1374.99
 30
0.0
 40
0
 41
0
  0
VERTEX
  8
0
 10
9226.28
 20
1411.04
 30
0.0
 40
0
 41
0
  0
VERTEX
  8
0
 10
9841.24
 20
1418.26
 30
0.0
 40
0
 41
0
  0
VERTEX
  8
0
 10
10028.2
 20
1417.46
 30
0.0
 40
0
 41
0
  0
VERTEX
  8
0
 10
10028.2
 20
438.956
 30
0.0
 40
0
 41
0
  0
VERTEX
  8
0
 10
9828.85
 20
423.339
 30
0.0
 40
0
 41
0
  0
VERTEX
  8
0
 10
9181.5
 20
394.031
 30
0.0
 40
0
 41
0
  0
VERTEX
  8
0
 10
9087.78
 20
401.19
 30
0.0
 40
0
 41
0
  0
VERTEX
  8
0
 10
9045.42
 20
423.758
 30
0.0
 40
0
 41
0
  0
VERTEX
  8
0
 10
9045.68
 20
429.753
 30
0.0
 40
0
 41
0
  0
SEQEND
 8
0
  0
POLYLINE
  8
0
 62
     0
 66
     1
 10
0
 20
0
 30
0.0
 70
     1
 40
0
 41
0
  0
VERTEX
  8
0
 10
11010.8
 20
1382.54
 30
0.0
 40
0
 41
0
  0
VERTEX
  8
0
 10
11017.8
 20
1382.23
 30
0.0
 40
0
 41
0
  0
VERTEX
  8
0
 10
10975.2
 20
442.189
 30
0.0
 40
0
 41
0
  0
VERTEX
  8
0
 10
10968.2
 20
442.101
 30
0.0
 40
0
 41
0
  0
VERTEX
  8
0
 10
10968.2
 20
436.103
 30
0.0
 40
0
 41
0
  0
VERTEX
  8
0
 10
10920.2
 20
437.307
 30
0.0
 40
0
 41
0
  0
VERTEX
  8
0
 10
10830.2
 20
401.247
 30
0.0
 40
0
 41
0
  0
VERTEX
  8
0
 10
10215.2
 20
394.031
 30
0.0
 40
0
 41
0
  0
VERTEX
  8
0
 10
10028.2
 20
394.836
 30
0.0
 40
0
 41
0
  0
VERTEX
  8
0
 10
10028.2
 20
1373.34
 30
0.0
 40
0
 41
0
  0
VERTEX
  8
0
 10
10227.6
 20
1388.96
 30
0.0
 40
0
 41
0
  0
VERTEX
  8
0
 10
10875
 20
1418.26
 30
0.0
 40
0
 41
0
  0
VERTEX
  8
0
 10
10968.7
 20
1411.1
 30
0.0
 40
0
 41
0
  0
VERTEX
  8
0
 10
11011.1
 20
1388.53
 30
0.0
 40
0
 41
0
  0
VERTEX
  8
0
 10
11010.8
 20
1382.54
 30
0.0
 40
0
 41
0
  0
SEQEND
 8
0
  0
POLYLINE
  8
0
 62
     0
 66
     1
 10
0
 20
0
 30
0.0
 70
     1
 40
0
 41
0
  0
VERTEX
  8
0
 10
10565.5
 20
74.3208
 30
0.0
 40
0
 41
0
  0
VERTEX
  8
0
 10
10972.6
 20
48.1421
 30
0.0
 40
0
 41
0
  0
VERTEX
  8
0
 10
10959.9
 20
394.031
 30
0.0
 40
0
 41
0
  0
VERTEX
  8
0
 10
10598.3
 20
385.487
 30
0.0
 40
0
 41
0
  0
VERTEX
  8
0
 10
9308.57
 20
385.487
 30
0.0
 40
0
 41
0
  0
VERTEX
  8
0
 10
8946.97
 20
394.031
 30
0.0
 40
0
 41
0
  0
VERTEX
  8
0
 10
8934.26
 20
48.1421
 30
0.0
 40
0
 41
0
  0
VERTEX
  8
0
 10
9341.32
 20
74.3208
 30
0.0
 40
0
 41
0
  0
VERTEX
  8
0
 10
10565.5
 20
74.3208
 30
0.0
 40
0
 41
0
  0
SEQEND
 8
0
  0
POLYLINE
  8
0
 62
     0
 66
     1
 10
0
 20
0
 30
0.0
 70
     1
 40
0
 41
0
  0
VERTEX
  8
0
 10
10948.3
 20
381.754
 30
0.0
 40
0
 41
0
  0
VERTEX
  8
0
 10
10960.1
 20
60.9694
 30
0.0
 40
0
 41
0
  0
VERTEX
  8
0
 10
10565.9
 20
86.3208
 30
0.0
 40
0
 41
0
  0
VERTEX
  8
0
 10
9340.93
 20
86.3208
 30
0.0
 40
0
 41
0
  0
VERTEX
  8
0
 10
8946.75
 20
60.9694
 30
0.0
 40
0
 41
0
  0
VERTEX
  8
0
 10
8958.53
 20
381.754
 30
0.0
 40
0
 41
0
  0
VERTEX
  8
0
 10
9308.43
 20
373.487
 30
0.0
 40
0
 41
0
  0
VERTEX
  8
0
 10
10598.4
 20
373.487
 30
0.0
 40
0
 41
0
  0
VERTEX
  8
0
 10
10948.3
 20
381.754
 30
0.0
 40
0
 41
0
  0
SEQEND
 8
0
  0
POLYLINE
  8
0
 62
     0
 66
     1
 10
0
 20
0
 30
0.0
 70
     1
 40
0
 41
0
  0
VERTEX
  8
0
 10
11911.6
 20
285.125
 30
0.0
 40
0
 41
0
  0
VERTEX
  8
0
 10
11916.9
 20
1371.11
 30
0.0
 40
0
 41
0
  0
VERTEX
  8
0
 10
11742.2
 20
1380.1
 30
0.0
 40
0
 41
0
  0
VERTEX
  8
0
 10
11169.2
 20
1387.39
 30
0.0
 40
0
 41
0
  0
VERTEX
  8
0
 10
11083.1
 20
1347.21
 30
0.0
 40
0
 41
0
  0
VERTEX
  8
0
 10
11026.2
 20
1345.03
 30
0.0
 40
0
 41
0
  0
VERTEX
  8
0
 10
11023.7
 20
1319.16
 30
0.0
 40
0
 41
0
  0
VERTEX
  8
0
 10
11065.5
 20
1315.1
 30
0.0
 40
0
 41
0
  0
VERTEX
  8
0
 10
11057.3
 20
1230.5
 30
0.0
 40
0
 41
0
  0
VERTEX
  8
0
 10
11019.9
 20
1234.12
 30
0.0
 40
0
 41
0
  0
VERTEX
  8
0
 10
10964.9
 20
257.258
 30
0.0
 40
0
 41
0
  0
VERTEX
  8
0
 10
10971.9
 20
256.864
 30
0.0
 40
0
 41
0
  0
VERTEX
  8
0
 10
10971.6
 20
250.874
 30
0.0
 40
0
 41
0
  0
VERTEX
  8
0
 10
11019.5
 20
248.053
 30
0.0
 40
0
 41
0
  0
VERTEX
  8
0
 10
11109.1
 20
282.528
 30
0.0
 40
0
 41
0
  0
VERTEX
  8
0
 10
11725.1
 20
286.233
 30
0.0
 40
0
 41
0
  0
VERTEX
  8
0
 10
11911.6
 20
285.125
 30
0.0
 40
0
 41
0
  0
SEQEND
 8
0
  0
POLYLINE
  8
0
 62
     0
 66
     1
 10
0
 20
0
 30
0.0
 70
     1
 40
0
 41
0
  0
VERTEX
  8
0
 10
11024.7
 20
1319.05
 30
0.0
 40
0
 41
0
  0
VERTEX
  8
0
 10
11026.2
 20
1345.03
 30
0.0
 40
0
 41
0
  0
SEQEND
 8
0
  0
ENDSEC
  0
EOF
