  0
SECTION
  2
HEADER
  9
$ACADVER
  1
AC1009
  9
$EXTMIN
 10
0.0
 20
0.0
 30
0.0
  9
$EXTMAX
 10
1000.0
 20
1000.0
 30
0.0
  9
$FILLMODE
 70
 0
  9
$SPLFRAME
 70
 1
  0
ENDSEC
  0
SECTION
  2
TABLES
  0
TABLE
  2
LAYER
 70
1
  0
LAYER
  2
0
 70
     0
 62
     7
  6
CONTINUOUS
  0
ENDTAB
  0
ENDSEC
  0
SECTION
  2
ENTITIES
  0
POLYLINE
  8
0
 62
     0
 66
     1
 10
0
 20
0
 30
0.0
 70
     1
 40
0
 41
0
  0
VERTEX
  8
0
 10
917.826
 20
9672.93
 30
0.0
 40
0
 41
0
  0
VERTEX
  8
0
 10
1276.77
 20
11714.9
 30
0.0
 40
0
 41
0
  0
VERTEX
  8
0
 10
847.072
 20
11681.5
 30
0.0
 40
0
 41
0
  0
VERTEX
  8
0
 10
198.778
 20
11692.6
 30
0.0
 40
0
 41
0
  0
VERTEX
  8
0
 10
5.42535e-05
 20
11702
 30
0.0
 40
0
 41
0
  0
VERTEX
  8
0
 10
5.51708
 20
11440.1
 30
0.0
 40
0
 41
0
  0
VERTEX
  8
0
 10
206.513
 20
11438.8
 30
0.0
 40
0
 41
0
  0
VERTEX
  8
0
 10
639.083
 20
11152.9
 30
0.0
 40
0
 41
0
  0
VERTEX
  8
0
 10
658.269
 20
10525.7
 30
0.0
 40
0
 41
0
  0
VERTEX
  8
0
 10
598.297
 20
10523.8
 30
0.0
 40
0
 41
0
  0
VERTEX
  8
0
 10
599.061
 20
10498.8
 30
0.0
 40
0
 41
0
  0
VERTEX
  8
0
 10
466.294
 20
10400.9
 30
0.0
 40
0
 41
0
  0
VERTEX
  8
0
 10
501.919
 20
10352.6
 30
0.0
 40
0
 41
0
  0
VERTEX
  8
0
 10
271.349
 20
10182.5
 30
0.0
 40
0
 41
0
  0
VERTEX
  8
0
 10
304.399
 20
9738.68
 30
0.0
 40
0
 41
0
  0
VERTEX
  8
0
 10
329.95
 20
9722.96
 30
0.0
 40
0
 41
0
  0
VERTEX
  8
0
 10
917.826
 20
9672.93
 30
0.0
 40
0
 41
0
  0
SEQEND
 8
0
  0
POLYLINE
  8
0
 62
     0
 66
     1
 10
0
 20
0
 30
0.0
 70
     1
 40
0
 41
0
  0
VERTEX
  8
0
 10
5.37418
 20
9637.06
 30
0.0
 40
0
 41
0
  0
VERTEX
  8
0
 10
5.42535e-05
 20
8551.07
 30
0.0
 40
0
 41
0
  0
VERTEX
  8
0
 10
174.769
 20
8542.08
 30
0.0
 40
0
 41
0
  0
VERTEX
  8
0
 10
747.724
 20
8534.79
 30
0.0
 40
0
 41
0
  0
VERTEX
  8
0
 10
833.808
 20
8574.97
 30
0.0
 40
0
 41
0
  0
VERTEX
  8
0
 10
890.767
 20
8577.15
 30
0.0
 40
0
 41
0
  0
VERTEX
  8
0
 10
893.279
 20
8603.03
 30
0.0
 40
0
 41
0
  0
VERTEX
  8
0
 10
851.475
 20
8607.08
 30
0.0
 40
0
 41
0
  0
VERTEX
  8
0
 10
859.689
 20
8691.69
 30
0.0
 40
0
 41
0
  0
VERTEX
  8
0
 10
897.012
 20
8688.07
 30
0.0
 40
0
 41
0
  0
VERTEX
  8
0
 10
952.026
 20
9664.93
 30
0.0
 40
0
 41
0
  0
VERTEX
  8
0
 10
945.038
 20
9665.32
 30
0.0
 40
0
 41
0
  0
VERTEX
  8
0
 10
945.375
 20
9671.31
 30
0.0
 40
0
 41
0
  0
VERTEX
  8
0
 10
897.457
 20
9674.14
 30
0.0
 40
0
 41
0
  0
VERTEX
  8
0
 10
807.861
 20
9639.65
 30
0.0
 40
0
 41
0
  0
VERTEX
  8
0
 10
191.871
 20
9635.96
 30
0.0
 40
0
 41
0
  0
VERTEX
  8
0
 10
5.37418
 20
9637.06
 30
0.0
 40
0
 41
0
  0
SEQEND
 8
0
  0
POLYLINE
  8
0
 62
     0
 66
     1
 10
0
 20
0
 30
0.0
 70
     1
 40
0
 41
0
  0
VERTEX
  8
0
 10
892.229
 20
8603.14
 30
0.0
 40
0
 41
0
  0
VERTEX
  8
0
 10
890.767
 20
8577.15
 30
0.0
 40
0
 41
0
  0
SEQEND
 8
0
  0
POLYLINE
  8
0
 62
     0
 66
     1
 10
0
 20
0
 30
0.0
 70
     1
 40
0
 41
0
  0
VERTEX
  8
0
 10
1017.02
 20
7732.83
 30
0.0
 40
0
 41
0
  0
VERTEX
  8
0
 10
980.957
 20
7642.79
 30
0.0
 40
0
 41
0
  0
VERTEX
  8
0
 10
982.161
 20
7594.81
 30
0.0
 40
0
 41
0
  0
VERTEX
  8
0
 10
976.163
 20
7594.88
 30
0.0
 40
0
 41
0
  0
VERTEX
  8
0
 10
976.075
 20
7587.88
 30
0.0
 40
0
 41
0
  0
VERTEX
  8
0
 10
36.0394
 20
7545.25
 30
0.0
 40
0
 41
0
  0
VERTEX
  8
0
 10
35.7224
 20
7552.25
 30
0.0
 40
0
 41
0
  0
VERTEX
  8
0
 10
29.7285
 20
7551.97
 30
0.0
 40
0
 41
0
  0
VERTEX
  8
0
 10
7.1601
 20
7594.33
 30
0.0
 40
0
 41
0
  0
VERTEX
  8
0
 10
0
 20
7688.07
 30
0.0
 40
0
 41
0
  0
VERTEX
  8
0
 10
29.3094
 20
8335.4
 30
0.0
 40
0
 41
0
  0
VERTEX
  8
0
 10
44.9261
 20
8534.79
 30
0.0
 40
0
 41
0
  0
VERTEX
  8
0
 10
1023.43
 20
8534.79
 30
0.0
 40
0
 41
0
  0
VERTEX
  8
0
 10
1024.23
 20
8347.79
 30
0.0
 40
0
 41
0
  0
VERTEX
  8
0
 10
1017.02
 20
7732.83
 30
0.0
 40
0
 41
0
  0
SEQEND
 8
0
  0
POLYLINE
  8
0
 62
     0
 66
     1
 10
0
 20
0
 30
0.0
 70
     1
 40
0
 41
0
  0
VERTEX
  8
0
 10
945.038
 20
6428.31
 30
0.0
 40
0
 41
0
  0
VERTEX
  8
0
 10
952.026
 20
6428.69
 30
0.0
 40
0
 41
0
  0
VERTEX
  8
0
 10
897.012
 20
7405.56
 30
0.0
 40
0
 41
0
  0
VERTEX
  8
0
 10
859.689
 20
7401.93
 30
0.0
 40
0
 41
0
  0
VERTEX
  8
0
 10
851.475
 20
7486.54
 30
0.0
 40
0
 41
0
  0
VERTEX
  8
0
 10
893.279
 20
7490.6
 30
0.0
 40
0
 41
0
  0
VERTEX
  8
0
 10
890.767
 20
7516.47
 30
0.0
 40
0
 41
0
  0
VERTEX
  8
0
 10
833.808
 20
7518.65
 30
0.0
 40
0
 41
0
  0
VERTEX
  8
0
 10
747.724
 20
7558.83
 30
0.0
 40
0
 41
0
  0
VERTEX
  8
0
 10
174.769
 20
7551.54
 30
0.0
 40
0
 41
0
  0
VERTEX
  8
0
 10
5.42535e-05
 20
7542.56
 30
0.0
 40
0
 41
0
  0
VERTEX
  8
0
 10
5.37424
 20
6456.57
 30
0.0
 40
0
 41
0
  0
VERTEX
  8
0
 10
191.871
 20
6457.68
 30
0.0
 40
0
 41
0
  0
VERTEX
  8
0
 10
807.861
 20
6453.97
 30
0.0
 40
0
 41
0
  0
VERTEX
  8
0
 10
897.457
 20
6419.5
 30
0.0
 40
0
 41
0
  0
VERTEX
  8
0
 10
945.375
 20
6422.32
 30
0.0
 40
0
 41
0
  0
VERTEX
  8
0
 10
945.038
 20
6428.31
 30
0.0
 40
0
 41
0
  0
SEQEND
 8
0
  0
POLYLINE
  8
0
 62
     0
 66
     1
 10
0
 20
0
 30
0.0
 70
     1
 40
0
 41
0
  0
VERTEX
  8
0
 10
892.231
 20
7490.5
 30
0.0
 40
0
 41
0
  0
VERTEX
  8
0
 10
890.767
 20
7516.47
 30
0.0
 40
0
 41
0
  0
SEQEND
 8
0
  0
POLYLINE
  8
0
 62
     0
 66
     1
 10
0
 20
0
 30
0.0
 70
     1
 40
0
 41
0
  0
VERTEX
  8
0
 10
35.7225
 20
6448.31
 30
0.0
 40
0
 41
0
  0
VERTEX
  8
0
 10
36.0394
 20
6455.29
 30
0.0
 40
0
 41
0
  0
VERTEX
  8
0
 10
976.075
 20
6412.67
 30
0.0
 40
0
 41
0
  0
VERTEX
  8
0
 10
976.163
 20
6405.67
 30
0.0
 40
0
 41
0
  0
VERTEX
  8
0
 10
982.161
 20
6405.75
 30
0.0
 40
0
 41
0
  0
VERTEX
  8
0
 10
980.957
 20
6357.76
 30
0.0
 40
0
 41
0
  0
VERTEX
  8
0
 10
1017.02
 20
6267.71
 30
0.0
 40
0
 41
0
  0
VERTEX
  8
0
 10
1024.23
 20
5652.75
 30
0.0
 40
0
 41
0
  0
VERTEX
  8
0
 10
1023.43
 20
5465.75
 30
0.0
 40
0
 41
0
  0
VERTEX
  8
0
 10
44.9261
 20
5465.75
 30
0.0
 40
0
 41
0
  0
VERTEX
  8
0
 10
29.3094
 20
5665.14
 30
0.0
 40
0
 41
0
  0
VERTEX
  8
0
 10
5.42535e-05
 20
6312.49
 30
0.0
 40
0
 41
0
  0
VERTEX
  8
0
 10
7.16015
 20
6406.21
 30
0.0
 40
0
 41
0
  0
VERTEX
  8
0
 10
29.7286
 20
6448.57
 30
0.0
 40
0
 41
0
  0
VERTEX
  8
0
 10
35.7225
 20
6448.31
 30
0.0
 40
0
 41
0
  0
SEQEND
 8
0
  0
POLYLINE
  8
0
 62
     0
 66
     1
 10
0
 20
0
 30
0.0
 70
     1
 40
0
 41
0
  0
VERTEX
  8
0
 10
0
 20
5326.86
 30
0.0
 40
0
 41
0
  0
VERTEX
  8
0
 10
9.00006
 20
5326.86
 30
0.0
 40
0
 41
0
  0
VERTEX
  8
0
 10
9.00006
 20
5329.86
 30
0.0
 40
0
 41
0
  0
VERTEX
  8
0
 10
0
 20
5329.86
 30
0.0
 40
0
 41
0
  0
VERTEX
  8
0
 10
0
 20
5465.86
 30
0.0
 40
0
 41
0
  0
VERTEX
  8
0
 10
39.0944
 20
5465.86
 30
0.0
 40
0
 41
0
  0
VERTEX
  8
0
 10
491.996
 20
5456.36
 30
0.0
 40
0
 41
0
  0
VERTEX
  8
0
 10
533.901
 20
5456.36
 30
0.0
 40
0
 41
0
  0
VERTEX
  8
0
 10
533.901
 20
3634.36
 30
0.0
 40
0
 41
0
  0
VERTEX
  8
0
 10
491.996
 20
3634.36
 30
0.0
 40
0
 41
0
  0
VERTEX
  8
0
 10
39.0944
 20
3624.86
 30
0.0
 40
0
 41
0
  0
VERTEX
  8
0
 10
0
 20
3624.86
 30
0.0
 40
0
 41
0
  0
VERTEX
  8
0
 10
0
 20
3760.86
 30
0.0
 40
0
 41
0
  0
VERTEX
  8
0
 10
9.00006
 20
3760.86
 30
0.0
 40
0
 41
0
  0
VERTEX
  8
0
 10
9.00006
 20
3763.86
 30
0.0
 40
0
 41
0
  0
VERTEX
  8
0
 10
0
 20
3763.86
 30
0.0
 40
0
 41
0
  0
VERTEX
  8
0
 10
0
 20
5326.86
 30
0.0
 40
0
 41
0
  0
SEQEND
 8
0
  0
POLYLINE
  8
0
 62
     0
 66
     1
 10
0
 20
0
 30
0.0
 70
     1
 40
0
 41
0
  0
VERTEX
  8
0
 10
717.647
 20
3900.26
 30
0.0
 40
0
 41
0
  0
VERTEX
  8
0
 10
974.943
 20
3599.24
 30
0.0
 40
0
 41
0
  0
VERTEX
  8
0
 10
1426.58
 20
3714
 30
0.0
 40
0
 41
0
  0
VERTEX
  8
0
 10
1425.46
 20
3717.32
 30
0.0
 40
0
 41
0
  0
VERTEX
  8
0
 10
1422.1
 20
3727.26
 30
0.0
 40
0
 41
0
  0
VERTEX
  8
0
 10
1417.65
 20
3740.54
 30
0.0
 40
0
 41
0
  0
VERTEX
  8
0
 10
1413.24
 20
3753.82
 30
0.0
 40
0
 41
0
  0
VERTEX
  8
0
 10
1408.86
 20
3767.13
 30
0.0
 40
0
 41
0
  0
VERTEX
  8
0
 10
1404.51
 20
3780.43
 30
0.0
 40
0
 41
0
  0
VERTEX
  8
0
 10
1400.22
 20
3793.74
 30
0.0
 40
0
 41
0
  0
VERTEX
  8
0
 10
1395.96
 20
3807.07
 30
0.0
 40
0
 41
0
  0
VERTEX
  8
0
 10
1391.74
 20
3820.4
 30
0.0
 40
0
 41
0
  0
VERTEX
  8
0
 10
1387.54
 20
3833.75
 30
0.0
 40
0
 41
0
  0
VERTEX
  8
0
 10
1383.39
 20
3847.11
 30
0.0
 40
0
 41
0
  0
VERTEX
  8
0
 10
1379.28
 20
3860.49
 30
0.0
 40
0
 41
0
  0
VERTEX
  8
0
 10
1375.21
 20
3873.86
 30
0.0
 40
0
 41
0
  0
VERTEX
  8
0
 10
1371.18
 20
3887.25
 30
0.0
 40
0
 41
0
  0
VERTEX
  8
0
 10
1367.18
 20
3900.64
 30
0.0
 40
0
 41
0
  0
VERTEX
  8
0
 10
1363.22
 20
3914.06
 30
0.0
 40
0
 41
0
  0
VERTEX
  8
0
 10
1359.3
 20
3927.47
 30
0.0
 40
0
 41
0
  0
VERTEX
  8
0
 10
1355.42
 20
3940.9
 30
0.0
 40
0
 41
0
  0
VERTEX
  8
0
 10
1351.57
 20
3954.33
 30
0.0
 40
0
 41
0
  0
VERTEX
  8
0
 10
1347.76
 20
3967.78
 30
0.0
 40
0
 41
0
  0
VERTEX
  8
0
 10
1343.99
 20
3981.24
 30
0.0
 40
0
 41
0
  0
VERTEX
  8
0
 10
1340.26
 20
3994.71
 30
0.0
 40
0
 41
0
  0
VERTEX
  8
0
 10
1336.57
 20
4008.18
 30
0.0
 40
0
 41
0
  0
VERTEX
  8
0
 10
1332.92
 20
4021.67
 30
0.0
 40
0
 41
0
  0
VERTEX
  8
0
 10
1329.3
 20
4035.15
 30
0.0
 40
0
 41
0
  0
VERTEX
  8
0
 10
1325.72
 20
4048.65
 30
0.0
 40
0
 41
0
  0
VERTEX
  8
0
 10
1322.18
 20
4062.17
 30
0.0
 40
0
 41
0
  0
VERTEX
  8
0
 10
1318.68
 20
4075.69
 30
0.0
 40
0
 41
0
  0
VERTEX
  8
0
 10
1315.22
 20
4089.22
 30
0.0
 40
0
 41
0
  0
VERTEX
  8
0
 10
1311.79
 20
4102.75
 30
0.0
 40
0
 41
0
  0
VERTEX
  8
0
 10
1308.41
 20
4116.31
 30
0.0
 40
0
 41
0
  0
VERTEX
  8
0
 10
1305.06
 20
4129.86
 30
0.0
 40
0
 41
0
  0
VERTEX
  8
0
 10
1301.75
 20
4143.42
 30
0.0
 40
0
 41
0
  0
VERTEX
  8
0
 10
1298.48
 20
4156.99
 30
0.0
 40
0
 41
0
  0
VERTEX
  8
0
 10
1295.24
 20
4170.57
 30
0.0
 40
0
 41
0
  0
VERTEX
  8
0
 10
1292.04
 20
4184.15
 30
0.0
 40
0
 41
0
  0
VERTEX
  8
0
 10
1288.89
 20
4197.75
 30
0.0
 40
0
 41
0
  0
VERTEX
  8
0
 10
1285.77
 20
4211.36
 30
0.0
 40
0
 41
0
  0
VERTEX
  8
0
 10
1282.69
 20
4224.97
 30
0.0
 40
0
 41
0
  0
VERTEX
  8
0
 10
1279.64
 20
4238.58
 30
0.0
 40
0
 41
0
  0
VERTEX
  8
0
 10
1276.64
 20
4252.22
 30
0.0
 40
0
 41
0
  0
VERTEX
  8
0
 10
1273.67
 20
4265.85
 30
0.0
 40
0
 41
0
  0
VERTEX
  8
0
 10
1270.75
 20
4279.5
 30
0.0
 40
0
 41
0
  0
VERTEX
  8
0
 10
1267.86
 20
4293.15
 30
0.0
 40
0
 41
0
  0
VERTEX
  8
0
 10
1265.01
 20
4306.81
 30
0.0
 40
0
 41
0
  0
VERTEX
  8
0
 10
1262.19
 20
4320.47
 30
0.0
 40
0
 41
0
  0
VERTEX
  8
0
 10
1259.42
 20
4334.14
 30
0.0
 40
0
 41
0
  0
VERTEX
  8
0
 10
1256.68
 20
4347.82
 30
0.0
 40
0
 41
0
  0
VERTEX
  8
0
 10
1253.99
 20
4361.51
 30
0.0
 40
0
 41
0
  0
VERTEX
  8
0
 10
1251.33
 20
4375.21
 30
0.0
 40
0
 41
0
  0
VERTEX
  8
0
 10
1248.71
 20
4388.9
 30
0.0
 40
0
 41
0
  0
VERTEX
  8
0
 10
1246.13
 20
4402.61
 30
0.0
 40
0
 41
0
  0
VERTEX
  8
0
 10
1243.58
 20
4416.33
 30
0.0
 40
0
 41
0
  0
VERTEX
  8
0
 10
1241.08
 20
4430.06
 30
0.0
 40
0
 41
0
  0
VERTEX
  8
0
 10
1238.61
 20
4443.78
 30
0.0
 40
0
 41
0
  0
VERTEX
  8
0
 10
1236.18
 20
4457.51
 30
0.0
 40
0
 41
0
  0
VERTEX
  8
0
 10
1233.79
 20
4471.26
 30
0.0
 40
0
 41
0
  0
VERTEX
  8
0
 10
1231.44
 20
4485
 30
0.0
 40
0
 41
0
  0
VERTEX
  8
0
 10
1229.13
 20
4498.76
 30
0.0
 40
0
 41
0
  0
VERTEX
  8
0
 10
1226.86
 20
4512.51
 30
0.0
 40
0
 41
0
  0
VERTEX
  8
0
 10
1224.62
 20
4526.29
 30
0.0
 40
0
 41
0
  0
VERTEX
  8
0
 10
1222.42
 20
4540.06
 30
0.0
 40
0
 41
0
  0
VERTEX
  8
0
 10
1220.27
 20
4553.83
 30
0.0
 40
0
 41
0
  0
VERTEX
  8
0
 10
1218.15
 20
4567.63
 30
0.0
 40
0
 41
0
  0
VERTEX
  8
0
 10
1216.07
 20
4581.42
 30
0.0
 40
0
 41
0
  0
VERTEX
  8
0
 10
1214.02
 20
4595.21
 30
0.0
 40
0
 41
0
  0
VERTEX
  8
0
 10
1212.02
 20
4609.01
 30
0.0
 40
0
 41
0
  0
VERTEX
  8
0
 10
1210.06
 20
4622.82
 30
0.0
 40
0
 41
0
  0
VERTEX
  8
0
 10
1208.13
 20
4636.64
 30
0.0
 40
0
 41
0
  0
VERTEX
  8
0
 10
1206.24
 20
4650.46
 30
0.0
 40
0
 41
0
  0
VERTEX
  8
0
 10
1204.39
 20
4664.28
 30
0.0
 40
0
 41
0
  0
VERTEX
  8
0
 10
1202.58
 20
4678.11
 30
0.0
 40
0
 41
0
  0
VERTEX
  8
0
 10
1200.81
 20
4691.94
 30
0.0
 40
0
 41
0
  0
VERTEX
  8
0
 10
1199.08
 20
4705.78
 30
0.0
 40
0
 41
0
  0
VERTEX
  8
0
 10
1197.38
 20
4719.63
 30
0.0
 40
0
 41
0
  0
VERTEX
  8
0
 10
1195.73
 20
4733.47
 30
0.0
 40
0
 41
0
  0
VERTEX
  8
0
 10
1194.11
 20
4747.33
 30
0.0
 40
0
 41
0
  0
VERTEX
  8
0
 10
1192.53
 20
4761.19
 30
0.0
 40
0
 41
0
  0
VERTEX
  8
0
 10
1191
 20
4775.06
 30
0.0
 40
0
 41
0
  0
VERTEX
  8
0
 10
1189.5
 20
4788.93
 30
0.0
 40
0
 41
0
  0
VERTEX
  8
0
 10
1188.03
 20
4802.79
 30
0.0
 40
0
 41
0
  0
VERTEX
  8
0
 10
1186.61
 20
4816.68
 30
0.0
 40
0
 41
0
  0
VERTEX
  8
0
 10
1185.23
 20
4830.56
 30
0.0
 40
0
 41
0
  0
VERTEX
  8
0
 10
1183.88
 20
4844.44
 30
0.0
 40
0
 41
0
  0
VERTEX
  8
0
 10
1182.58
 20
4858.33
 30
0.0
 40
0
 41
0
  0
VERTEX
  8
0
 10
1181.31
 20
4872.24
 30
0.0
 40
0
 41
0
  0
VERTEX
  8
0
 10
1180.08
 20
4886.13
 30
0.0
 40
0
 41
0
  0
VERTEX
  8
0
 10
1178.89
 20
4900.03
 30
0.0
 40
0
 41
0
  0
VERTEX
  8
0
 10
1177.74
 20
4913.94
 30
0.0
 40
0
 41
0
  0
VERTEX
  8
0
 10
1176.63
 20
4927.85
 30
0.0
 40
0
 41
0
  0
VERTEX
  8
0
 10
1175.56
 20
4941.76
 30
0.0
 40
0
 41
0
  0
VERTEX
  8
0
 10
1174.53
 20
4955.68
 30
0.0
 40
0
 41
0
  0
VERTEX
  8
0
 10
1173.53
 20
4969.6
 30
0.0
 40
0
 41
0
  0
VERTEX
  8
0
 10
1172.58
 20
4983.53
 30
0.0
 40
0
 41
0
  0
VERTEX
  8
0
 10
1171.66
 20
4997.46
 30
0.0
 40
0
 41
0
  0
VERTEX
  8
0
 10
1170.78
 20
5011.39
 30
0.0
 40
0
 41
0
  0
VERTEX
  8
0
 10
1169.94
 20
5025.32
 30
0.0
 40
0
 41
0
  0
VERTEX
  8
0
 10
1169.15
 20
5039.26
 30
0.0
 40
0
 41
0
  0
VERTEX
  8
0
 10
1168.38
 20
5053.21
 30
0.0
 40
0
 41
0
  0
VERTEX
  8
0
 10
1167.66
 20
5067.15
 30
0.0
 40
0
 41
0
  0
VERTEX
  8
0
 10
1166.98
 20
5081.1
 30
0.0
 40
0
 41
0
  0
VERTEX
  8
0
 10
1166.34
 20
5095.04
 30
0.0
 40
0
 41
0
  0
VERTEX
  8
0
 10
1165.73
 20
5109
 30
0.0
 40
0
 41
0
  0
VERTEX
  8
0
 10
1165.17
 20
5122.96
 30
0.0
 40
0
 41
0
  0
VERTEX
  8
0
 10
1164.64
 20
5136.92
 30
0.0
 40
0
 41
0
  0
VERTEX
  8
0
 10
1164.16
 20
5150.88
 30
0.0
 40
0
 41
0
  0
VERTEX
  8
0
 10
1163.71
 20
5164.83
 30
0.0
 40
0
 41
0
  0
VERTEX
  8
0
 10
1163.3
 20
5178.81
 30
0.0
 40
0
 41
0
  0
VERTEX
  8
0
 10
1162.93
 20
5192.76
 30
0.0
 40
0
 41
0
  0
VERTEX
  8
0
 10
1162.6
 20
5206.74
 30
0.0
 40
0
 41
0
  0
VERTEX
  8
0
 10
1162.31
 20
5220.71
 30
0.0
 40
0
 41
0
  0
VERTEX
  8
0
 10
1162.06
 20
5234.68
 30
0.0
 40
0
 41
0
  0
VERTEX
  8
0
 10
1161.84
 20
5248.67
 30
0.0
 40
0
 41
0
  0
VERTEX
  8
0
 10
1161.67
 20
5262.64
 30
0.0
 40
0
 41
0
  0
VERTEX
  8
0
 10
1161.54
 20
5276.63
 30
0.0
 40
0
 41
0
  0
VERTEX
  8
0
 10
1161.44
 20
5290.6
 30
0.0
 40
0
 41
0
  0
VERTEX
  8
0
 10
1161.39
 20
5304.58
 30
0.0
 40
0
 41
0
  0
VERTEX
  8
0
 10
1161.37
 20
5318.57
 30
0.0
 40
0
 41
0
  0
VERTEX
  8
0
 10
1161.39
 20
5332.56
 30
0.0
 40
0
 41
0
  0
VERTEX
  8
0
 10
1161.46
 20
5346.54
 30
0.0
 40
0
 41
0
  0
VERTEX
  8
0
 10
1161.56
 20
5360.53
 30
0.0
 40
0
 41
0
  0
VERTEX
  8
0
 10
1161.7
 20
5374.51
 30
0.0
 40
0
 41
0
  0
VERTEX
  8
0
 10
1161.88
 20
5388.51
 30
0.0
 40
0
 41
0
  0
VERTEX
  8
0
 10
1162.1
 20
5402.5
 30
0.0
 40
0
 41
0
  0
VERTEX
  8
0
 10
1162.36
 20
5416.5
 30
0.0
 40
0
 41
0
  0
VERTEX
  8
0
 10
1162.65
 20
5430.49
 30
0.0
 40
0
 41
0
  0
VERTEX
  8
0
 10
1162.99
 20
5444.49
 30
0.0
 40
0
 41
0
  0
VERTEX
  8
0
 10
1163.37
 20
5458.49
 30
0.0
 40
0
 41
0
  0
VERTEX
  8
0
 10
1163.68
 20
5468.97
 30
0.0
 40
0
 41
0
  0
VERTEX
  8
0
 10
1163.78
 20
5472.47
 30
0.0
 40
0
 41
0
  0
VERTEX
  8
0
 10
698.317
 20
5450.18
 30
0.0
 40
0
 41
0
  0
VERTEX
  8
0
 10
540.276
 20
5087.08
 30
0.0
 40
0
 41
0
  0
VERTEX
  8
0
 10
540.117
 20
5084.72
 30
0.0
 40
0
 41
0
  0
VERTEX
  8
0
 10
539.653
 20
5077.63
 30
0.0
 40
0
 41
0
  0
VERTEX
  8
0
 10
539.061
 20
5068.15
 30
0.0
 40
0
 41
0
  0
VERTEX
  8
0
 10
538.503
 20
5058.69
 30
0.0
 40
0
 41
0
  0
VERTEX
  8
0
 10
537.975
 20
5049.22
 30
0.0
 40
0
 41
0
  0
VERTEX
  8
0
 10
537.481
 20
5039.76
 30
0.0
 40
0
 41
0
  0
VERTEX
  8
0
 10
537.018
 20
5030.29
 30
0.0
 40
0
 41
0
  0
VERTEX
  8
0
 10
536.588
 20
5020.83
 30
0.0
 40
0
 41
0
  0
VERTEX
  8
0
 10
536.188
 20
5011.38
 30
0.0
 40
0
 41
0
  0
VERTEX
  8
0
 10
535.821
 20
5001.9
 30
0.0
 40
0
 41
0
  0
VERTEX
  8
0
 10
535.488
 20
4992.44
 30
0.0
 40
0
 41
0
  0
VERTEX
  8
0
 10
535.185
 20
4982.97
 30
0.0
 40
0
 41
0
  0
VERTEX
  8
0
 10
534.914
 20
4973.51
 30
0.0
 40
0
 41
0
  0
VERTEX
  8
0
 10
534.675
 20
4964.06
 30
0.0
 40
0
 41
0
  0
VERTEX
  8
0
 10
534.469
 20
4954.58
 30
0.0
 40
0
 41
0
  0
VERTEX
  8
0
 10
534.294
 20
4945.13
 30
0.0
 40
0
 41
0
  0
VERTEX
  8
0
 10
534.151
 20
4935.67
 30
0.0
 40
0
 41
0
  0
VERTEX
  8
0
 10
534.042
 20
4926.21
 30
0.0
 40
0
 41
0
  0
VERTEX
  8
0
 10
533.963
 20
4916.75
 30
0.0
 40
0
 41
0
  0
VERTEX
  8
0
 10
533.915
 20
4907.29
 30
0.0
 40
0
 41
0
  0
VERTEX
  8
0
 10
533.901
 20
4897.83
 30
0.0
 40
0
 41
0
  0
VERTEX
  8
0
 10
533.918
 20
4888.39
 30
0.0
 40
0
 41
0
  0
VERTEX
  8
0
 10
533.967
 20
4878.93
 30
0.0
 40
0
 41
0
  0
VERTEX
  8
0
 10
534.049
 20
4869.47
 30
0.0
 40
0
 41
0
  0
VERTEX
  8
0
 10
534.161
 20
4860.03
 30
0.0
 40
0
 41
0
  0
VERTEX
  8
0
 10
534.306
 20
4850.57
 30
0.0
 40
0
 41
0
  0
VERTEX
  8
0
 10
534.482
 20
4841.13
 30
0.0
 40
0
 41
0
  0
VERTEX
  8
0
 10
534.69
 20
4831.68
 30
0.0
 40
0
 41
0
  0
VERTEX
  8
0
 10
534.931
 20
4822.24
 30
0.0
 40
0
 41
0
  0
VERTEX
  8
0
 10
535.203
 20
4812.79
 30
0.0
 40
0
 41
0
  0
VERTEX
  8
0
 10
535.507
 20
4803.35
 30
0.0
 40
0
 41
0
  0
VERTEX
  8
0
 10
535.842
 20
4793.92
 30
0.0
 40
0
 41
0
  0
VERTEX
  8
0
 10
536.21
 20
4784.47
 30
0.0
 40
0
 41
0
  0
VERTEX
  8
0
 10
536.608
 20
4775.04
 30
0.0
 40
0
 41
0
  0
VERTEX
  8
0
 10
537.039
 20
4765.61
 30
0.0
 40
0
 41
0
  0
VERTEX
  8
0
 10
537.501
 20
4756.18
 30
0.0
 40
0
 41
0
  0
VERTEX
  8
0
 10
537.996
 20
4746.75
 30
0.0
 40
0
 41
0
  0
VERTEX
  8
0
 10
538.522
 20
4737.33
 30
0.0
 40
0
 41
0
  0
VERTEX
  8
0
 10
539.081
 20
4727.9
 30
0.0
 40
0
 41
0
  0
VERTEX
  8
0
 10
539.669
 20
4718.49
 30
0.0
 40
0
 41
0
  0
VERTEX
  8
0
 10
540.292
 20
4709.07
 30
0.0
 40
0
 41
0
  0
VERTEX
  8
0
 10
540.944
 20
4699.65
 30
0.0
 40
0
 41
0
  0
VERTEX
  8
0
 10
541.629
 20
4690.24
 30
0.0
 40
0
 41
0
  0
VERTEX
  8
0
 10
542.344
 20
4680.83
 30
0.0
 40
0
 41
0
  0
VERTEX
  8
0
 10
543.093
 20
4671.43
 30
0.0
 40
0
 41
0
  0
VERTEX
  8
0
 10
543.872
 20
4662.03
 30
0.0
 40
0
 41
0
  0
VERTEX
  8
0
 10
544.683
 20
4652.63
 30
0.0
 40
0
 41
0
  0
VERTEX
  8
0
 10
545.526
 20
4643.22
 30
0.0
 40
0
 41
0
  0
VERTEX
  8
0
 10
546.4
 20
4633.83
 30
0.0
 40
0
 41
0
  0
VERTEX
  8
0
 10
547.306
 20
4624.44
 30
0.0
 40
0
 41
0
  0
VERTEX
  8
0
 10
548.243
 20
4615.06
 30
0.0
 40
0
 41
0
  0
VERTEX
  8
0
 10
549.213
 20
4605.68
 30
0.0
 40
0
 41
0
  0
VERTEX
  8
0
 10
550.213
 20
4596.29
 30
0.0
 40
0
 41
0
  0
VERTEX
  8
0
 10
551.246
 20
4586.92
 30
0.0
 40
0
 41
0
  0
VERTEX
  8
0
 10
552.308
 20
4577.56
 30
0.0
 40
0
 41
0
  0
VERTEX
  8
0
 10
553.404
 20
4568.18
 30
0.0
 40
0
 41
0
  0
VERTEX
  8
0
 10
554.531
 20
4558.82
 30
0.0
 40
0
 41
0
  0
VERTEX
  8
0
 10
555.689
 20
4549.46
 30
0.0
 40
0
 41
0
  0
VERTEX
  8
0
 10
556.878
 20
4540.11
 30
0.0
 40
0
 41
0
  0
VERTEX
  8
0
 10
558.099
 20
4530.75
 30
0.0
 40
0
 41
0
  0
VERTEX
  8
0
 10
559.351
 20
4521.4
 30
0.0
 40
0
 41
0
  0
VERTEX
  8
0
 10
560.636
 20
4512.07
 30
0.0
 40
0
 41
0
  0
VERTEX
  8
0
 10
561.951
 20
4502.72
 30
0.0
 40
0
 41
0
  0
VERTEX
  8
0
 10
563.297
 20
4493.39
 30
0.0
 40
0
 41
0
  0
VERTEX
  8
0
 10
564.676
 20
4484.07
 30
0.0
 40
0
 41
0
  0
VERTEX
  8
0
 10
566.085
 20
4474.74
 30
0.0
 40
0
 41
0
  0
VERTEX
  8
0
 10
567.526
 20
4465.42
 30
0.0
 40
0
 41
0
  0
VERTEX
  8
0
 10
568.999
 20
4456.11
 30
0.0
 40
0
 41
0
  0
VERTEX
  8
0
 10
570.503
 20
4446.79
 30
0.0
 40
0
 41
0
  0
VERTEX
  8
0
 10
572.037
 20
4437.49
 30
0.0
 40
0
 41
0
  0
VERTEX
  8
0
 10
573.604
 20
4428.19
 30
0.0
 40
0
 41
0
  0
VERTEX
  8
0
 10
575.201
 20
4418.9
 30
0.0
 40
0
 41
0
  0
VERTEX
  8
0
 10
576.831
 20
4409.61
 30
0.0
 40
0
 41
0
  0
VERTEX
  8
0
 10
578.49
 20
4400.32
 30
0.0
 40
0
 41
0
  0
VERTEX
  8
0
 10
580.182
 20
4391.04
 30
0.0
 40
0
 41
0
  0
VERTEX
  8
0
 10
581.904
 20
4381.78
 30
0.0
 40
0
 41
0
  0
VERTEX
  8
0
 10
583.658
 20
4372.51
 30
0.0
 40
0
 41
0
  0
VERTEX
  8
0
 10
585.444
 20
4363.25
 30
0.0
 40
0
 41
0
  0
VERTEX
  8
0
 10
587.261
 20
4353.99
 30
0.0
 40
0
 41
0
  0
VERTEX
  8
0
 10
589.108
 20
4344.74
 30
0.0
 40
0
 41
0
  0
VERTEX
  8
0
 10
590.988
 20
4335.5
 30
0.0
 40
0
 41
0
  0
VERTEX
  8
0
 10
592.897
 20
4326.26
 30
0.0
 40
0
 41
0
  0
VERTEX
  8
0
 10
594.839
 20
4317.03
 30
0.0
 40
0
 41
0
  0
VERTEX
  8
0
 10
596.811
 20
4307.81
 30
0.0
 40
0
 41
0
  0
VERTEX
  8
0
 10
598.815
 20
4298.58
 30
0.0
 40
0
 41
0
  0
VERTEX
  8
0
 10
600.85
 20
4289.36
 30
0.0
 40
0
 41
0
  0
VERTEX
  8
0
 10
602.915
 20
4280.15
 30
0.0
 40
0
 41
0
  0
VERTEX
  8
0
 10
605.012
 20
4270.96
 30
0.0
 40
0
 41
0
  0
VERTEX
  8
0
 10
607.14
 20
4261.76
 30
0.0
 40
0
 41
0
  0
VERTEX
  8
0
 10
609.3
 20
4252.58
 30
0.0
 40
0
 41
0
  0
VERTEX
  8
0
 10
611.49
 20
4243.4
 30
0.0
 40
0
 41
0
  0
VERTEX
  8
0
 10
613.713
 20
4234.22
 30
0.0
 40
0
 41
0
  0
VERTEX
  8
0
 10
615.965
 20
4225.06
 30
0.0
 40
0
 41
0
  0
VERTEX
  8
0
 10
618.249
 20
4215.89
 30
0.0
 40
0
 41
0
  0
VERTEX
  8
0
 10
620.563
 20
4206.74
 30
0.0
 40
0
 41
0
  0
VERTEX
  8
0
 10
622.908
 20
4197.6
 30
0.0
 40
0
 41
0
  0
VERTEX
  8
0
 10
625.286
 20
4188.46
 30
0.0
 40
0
 41
0
  0
VERTEX
  8
0
 10
627.693
 20
4179.32
 30
0.0
 40
0
 41
0
  0
VERTEX
  8
0
 10
630.132
 20
4170.19
 30
0.0
 40
0
 41
0
  0
VERTEX
  8
0
 10
632.601
 20
4161.08
 30
0.0
 40
0
 41
0
  0
VERTEX
  8
0
 10
635.103
 20
4151.97
 30
0.0
 40
0
 41
0
  0
VERTEX
  8
0
 10
637.633
 20
4142.88
 30
0.0
 40
0
 41
0
  0
VERTEX
  8
0
 10
640.196
 20
4133.78
 30
0.0
 40
0
 41
0
  0
VERTEX
  8
0
 10
642.79
 20
4124.69
 30
0.0
 40
0
 41
0
  0
VERTEX
  8
0
 10
645.414
 20
4115.61
 30
0.0
 40
0
 41
0
  0
VERTEX
  8
0
 10
648.069
 20
4106.54
 30
0.0
 40
0
 41
0
  0
VERTEX
  8
0
 10
650.756
 20
4097.47
 30
0.0
 40
0
 41
0
  0
VERTEX
  8
0
 10
653.474
 20
4088.42
 30
0.0
 40
0
 41
0
  0
VERTEX
  8
0
 10
656.221
 20
4079.38
 30
0.0
 40
0
 41
0
  0
VERTEX
  8
0
 10
659
 20
4070.33
 30
0.0
 40
0
 41
0
  0
VERTEX
  8
0
 10
661.81
 20
4061.31
 30
0.0
 40
0
 41
0
  0
VERTEX
  8
0
 10
664.65
 20
4052.28
 30
0.0
 40
0
 41
0
  0
VERTEX
  8
0
 10
667.522
 20
4043.26
 30
0.0
 40
0
 41
0
  0
VERTEX
  8
0
 10
670.424
 20
4034.26
 30
0.0
 40
0
 41
0
  0
VERTEX
  8
0
 10
673.357
 20
4025.26
 30
0.0
 40
0
 41
0
  0
VERTEX
  8
0
 10
676.321
 20
4016.28
 30
0.0
 40
0
 41
0
  0
VERTEX
  8
0
 10
679.315
 20
4007.31
 30
0.0
 40
0
 41
0
  0
VERTEX
  8
0
 10
682.342
 20
3998.33
 30
0.0
 40
0
 41
0
  0
VERTEX
  8
0
 10
685.397
 20
3989.36
 30
0.0
 40
0
 41
0
  0
VERTEX
  8
0
 10
688.485
 20
3980.42
 30
0.0
 40
0
 41
0
  0
VERTEX
  8
0
 10
691.601
 20
3971.47
 30
0.0
 40
0
 41
0
  0
VERTEX
  8
0
 10
694.75
 20
3962.54
 30
0.0
 40
0
 41
0
  0
VERTEX
  8
0
 10
697.929
 20
3953.61
 30
0.0
 40
0
 41
0
  0
VERTEX
  8
0
 10
701.139
 20
3944.69
 30
0.0
 40
0
 41
0
  0
VERTEX
  8
0
 10
704.379
 20
3935.79
 30
0.0
 40
0
 41
0
  0
VERTEX
  8
0
 10
707.65
 20
3926.89
 30
0.0
 40
0
 41
0
  0
VERTEX
  8
0
 10
710.953
 20
3918.01
 30
0.0
 40
0
 41
0
  0
VERTEX
  8
0
 10
714.285
 20
3909.13
 30
0.0
 40
0
 41
0
  0
VERTEX
  8
0
 10
716.803
 20
3902.47
 30
0.0
 40
0
 41
0
  0
VERTEX
  8
0
 10
717.647
 20
3900.26
 30
0.0
 40
0
 41
0
  0
SEQEND
 8
0
  0
POLYLINE
  8
0
 62
     0
 66
     1
 10
0
 20
0
 30
0.0
 70
     1
 40
0
 41
0
  0
VERTEX
  8
0
 10
628.963
 20
4493.67
 30
0.0
 40
0
 41
0
  0
VERTEX
  8
0
 10
564.676
 20
4484.07
 30
0.0
 40
0
 41
0
  0
SEQEND
 8
0
  0
POLYLINE
  8
0
 62
     0
 66
     1
 10
0
 20
0
 30
0.0
 70
     1
 40
0
 41
0
  0
VERTEX
  8
0
 10
1499.11
 20
5952.07
 30
0.0
 40
0
 41
0
  0
VERTEX
  8
0
 10
1353.03
 20
4730.78
 30
0.0
 40
0
 41
0
  0
VERTEX
  8
0
 10
1352.99
 20
4730.68
 30
0.0
 40
0
 41
0
  0
VERTEX
  8
0
 10
1352.87
 20
4730.4
 30
0.0
 40
0
 41
0
  0
VERTEX
  8
0
 10
1352.68
 20
4730.04
 30
0.0
 40
0
 41
0
  0
VERTEX
  8
0
 10
1352.46
 20
4729.71
 30
0.0
 40
0
 41
0
  0
VERTEX
  8
0
 10
1352.21
 20
4729.4
 30
0.0
 40
0
 41
0
  0
VERTEX
  8
0
 10
1351.94
 20
4729.13
 30
0.0
 40
0
 41
0
  0
VERTEX
  8
0
 10
1351.64
 20
4728.88
 30
0.0
 40
0
 41
0
  0
VERTEX
  8
0
 10
1351.33
 20
4728.65
 30
0.0
 40
0
 41
0
  0
VERTEX
  8
0
 10
1350.99
 20
4728.46
 30
0.0
 40
0
 41
0
  0
VERTEX
  8
0
 10
1350.64
 20
4728.31
 30
0.0
 40
0
 41
0
  0
VERTEX
  8
0
 10
1350.28
 20
4728.18
 30
0.0
 40
0
 41
0
  0
VERTEX
  8
0
 10
1349.9
 20
4728.08
 30
0.0
 40
0
 41
0
  0
VERTEX
  8
0
 10
1349.52
 20
4728.01
 30
0.0
 40
0
 41
0
  0
VERTEX
  8
0
 10
1349.13
 20
4728
 30
0.0
 40
0
 41
0
  0
VERTEX
  8
0
 10
1348.73
 20
4728.01
 30
0.0
 40
0
 41
0
  0
VERTEX
  8
0
 10
1348.33
 20
4728.06
 30
0.0
 40
0
 41
0
  0
VERTEX
  8
0
 10
1348.03
 20
4728.13
 30
0.0
 40
0
 41
0
  0
VERTEX
  8
0
 10
1347.93
 20
4728.15
 30
0.0
 40
0
 41
0
  0
VERTEX
  8
0
 10
1347.83
 20
4728.18
 30
0.0
 40
0
 41
0
  0
VERTEX
  8
0
 10
1347.54
 20
4728.28
 30
0.0
 40
0
 41
0
  0
VERTEX
  8
0
 10
1347.17
 20
4728.44
 30
0.0
 40
0
 41
0
  0
VERTEX
  8
0
 10
1346.83
 20
4728.64
 30
0.0
 40
0
 41
0
  0
VERTEX
  8
0
 10
1346.5
 20
4728.86
 30
0.0
 40
0
 41
0
  0
VERTEX
  8
0
 10
1346.2
 20
4729.11
 30
0.0
 40
0
 41
0
  0
VERTEX
  8
0
 10
1345.93
 20
4729.38
 30
0.0
 40
0
 41
0
  0
VERTEX
  8
0
 10
1345.68
 20
4729.68
 30
0.0
 40
0
 41
0
  0
VERTEX
  8
0
 10
1345.47
 20
4730
 30
0.0
 40
0
 41
0
  0
VERTEX
  8
0
 10
1345.28
 20
4730.33
 30
0.0
 40
0
 41
0
  0
VERTEX
  8
0
 10
1345.12
 20
4730.69
 30
0.0
 40
0
 41
0
  0
VERTEX
  8
0
 10
1345
 20
4731.06
 30
0.0
 40
0
 41
0
  0
VERTEX
  8
0
 10
1344.91
 20
4731.43
 30
0.0
 40
0
 41
0
  0
VERTEX
  8
0
 10
1344.85
 20
4731.82
 30
0.0
 40
0
 41
0
  0
VERTEX
  8
0
 10
1344.83
 20
4732.22
 30
0.0
 40
0
 41
0
  0
VERTEX
  8
0
 10
1344.85
 20
4732.63
 30
0.0
 40
0
 41
0
  0
VERTEX
  8
0
 10
1344.89
 20
4732.93
 30
0.0
 40
0
 41
0
  0
VERTEX
  8
0
 10
1344.91
 20
4733.03
 30
0.0
 40
0
 41
0
  0
VERTEX
  8
0
 10
1275.14
 20
4727.38
 30
0.0
 40
0
 41
0
  0
VERTEX
  8
0
 10
1439.38
 20
5946.36
 30
0.0
 40
0
 41
0
  0
VERTEX
  8
0
 10
884.403
 20
7571.21
 30
0.0
 40
0
 41
0
  0
VERTEX
  8
0
 10
958.725
 20
7587.08
 30
0.0
 40
0
 41
0
  0
VERTEX
  8
0
 10
1499.11
 20
5952.07
 30
0.0
 40
0
 41
0
  0
SEQEND
 8
0
  0
POLYLINE
  8
0
 62
     0
 66
     1
 10
0
 20
0
 30
0.0
 70
     1
 40
0
 41
0
  0
VERTEX
  8
0
 10
358.949
 20
1567.08
 30
0.0
 40
0
 41
0
  0
VERTEX
  8
0
 10
5.42535e-05
 20
3609.06
 30
0.0
 40
0
 41
0
  0
VERTEX
  8
0
 10
429.701
 20
3575.63
 30
0.0
 40
0
 41
0
  0
VERTEX
  8
0
 10
1078
 20
3586.79
 30
0.0
 40
0
 41
0
  0
VERTEX
  8
0
 10
1276.77
 20
3596.19
 30
0.0
 40
0
 41
0
  0
VERTEX
  8
0
 10
1271.26
 20
3334.25
 30
0.0
 40
0
 41
0
  0
VERTEX
  8
0
 10
1070.26
 20
3332.9
 30
0.0
 40
0
 41
0
  0
VERTEX
  8
0
 10
637.69
 20
3047.07
 30
0.0
 40
0
 41
0
  0
VERTEX
  8
0
 10
618.506
 20
2419.82
 30
0.0
 40
0
 41
0
  0
VERTEX
  8
0
 10
678.478
 20
2417.99
 30
0.0
 40
0
 41
0
  0
VERTEX
  8
0
 10
677.713
 20
2392.99
 30
0.0
 40
0
 41
0
  0
VERTEX
  8
0
 10
810.481
 20
2295.03
 30
0.0
 40
0
 41
0
  0
VERTEX
  8
0
 10
774.856
 20
2246.75
 30
0.0
 40
0
 41
0
  0
VERTEX
  8
0
 10
1005.43
 20
2076.61
 30
0.0
 40
0
 41
0
  0
VERTEX
  8
0
 10
972.375
 20
1632.83
 30
0.0
 40
0
 41
0
  0
VERTEX
  8
0
 10
946.825
 20
1617.11
 30
0.0
 40
0
 41
0
  0
VERTEX
  8
0
 10
358.949
 20
1567.08
 30
0.0
 40
0
 41
0
  0
SEQEND
 8
0
  0
POLYLINE
  8
0
 62
     0
 66
     1
 10
0
 20
0
 30
0.0
 70
     1
 40
0
 41
0
  0
VERTEX
  8
0
 10
428.518
 20
807.976
 30
0.0
 40
0
 41
0
  0
VERTEX
  8
0
 10
450.803
 20
879.589
 30
0.0
 40
0
 41
0
  0
VERTEX
  8
0
 10
480.139
 20
867.781
 30
0.0
 40
0
 41
0
  0
VERTEX
  8
0
 10
1219.04
 20
772.656
 30
0.0
 40
0
 41
0
  0
VERTEX
  8
0
 10
1220.49
 20
832.637
 30
0.0
 40
0
 41
0
  0
VERTEX
  8
0
 10
1182.7
 20
919.799
 30
0.0
 40
0
 41
0
  0
VERTEX
  8
0
 10
1184.72
 20
1492.79
 30
0.0
 40
0
 41
0
  0
VERTEX
  8
0
 10
1185.34
 20
1666.79
 30
0.0
 40
0
 41
0
  0
VERTEX
  8
0
 10
1164.91
 20
1668.5
 30
0.0
 40
0
 41
0
  0
VERTEX
  8
0
 10
1164.3
 20
1494.5
 30
0.0
 40
0
 41
0
  0
VERTEX
  8
0
 10
883.322
 20
1024.02
 30
0.0
 40
0
 41
0
  0
VERTEX
  8
0
 10
238.935
 20
1052.15
 30
0.0
 40
0
 41
0
  0
VERTEX
  8
0
 10
16.7942
 20
1397.94
 30
0.0
 40
0
 41
0
  0
VERTEX
  8
0
 10
6.53743
 20
1393.57
 30
0.0
 40
0
 41
0
  0
VERTEX
  8
0
 10
5.42535e-05
 20
993.615
 30
0.0
 40
0
 41
0
  0
VERTEX
  8
0
 10
428.518
 20
807.976
 30
0.0
 40
0
 41
0
  0
SEQEND
 8
0
  0
POLYLINE
  8
0
 62
     0
 66
     1
 10
0
 20
0
 30
0.0
 70
     1
 40
0
 41
0
  0
VERTEX
  8
0
 10
1213.95
 20
620.918
 30
0.0
 40
0
 41
0
  0
VERTEX
  8
0
 10
1203.69
 20
625.304
 30
0.0
 40
0
 41
0
  0
VERTEX
  8
0
 10
981.554
 20
279.507
 30
0.0
 40
0
 41
0
  0
VERTEX
  8
0
 10
337.168
 20
251.372
 30
0.0
 40
0
 41
0
  0
VERTEX
  8
0
 10
56.1936
 20
721.86
 30
0.0
 40
0
 41
0
  0
VERTEX
  8
0
 10
55.5792
 20
895.86
 30
0.0
 40
0
 41
0
  0
VERTEX
  8
0
 10
35.1504
 20
894.15
 30
0.0
 40
0
 41
0
  0
VERTEX
  8
0
 10
35.765
 20
720.151
 30
0.0
 40
0
 41
0
  0
VERTEX
  8
0
 10
37.7886
 20
147.154
 30
0.0
 40
0
 41
0
  0
VERTEX
  8
0
 10
0.000162761
 20
59.9931
 30
0.0
 40
0
 41
0
  0
VERTEX
  8
0
 10
1.44721
 20
0.0104167
 30
0.0
 40
0
 41
0
  0
VERTEX
  8
0
 10
740.35
 20
95.1354
 30
0.0
 40
0
 41
0
  0
VERTEX
  8
0
 10
769.686
 20
106.944
 30
0.0
 40
0
 41
0
  0
VERTEX
  8
0
 10
791.971
 20
35.3307
 30
0.0
 40
0
 41
0
  0
VERTEX
  8
0
 10
1220.49
 20
220.971
 30
0.0
 40
0
 41
0
  0
VERTEX
  8
0
 10
1213.95
 20
620.918
 30
0.0
 40
0
 41
0
  0
SEQEND
 8
0
  0
POLYLINE
  8
0
 62
     0
 66
     1
 10
0
 20
0
 30
0.0
 70
     1
 40
0
 41
0
  0
VERTEX
  8
0
 10
961.451
 20
8534.79
 30
0.0
 40
0
 41
0
  0
VERTEX
  8
0
 10
887.129
 20
8550.68
 30
0.0
 40
0
 41
0
  0
VERTEX
  8
0
 10
1442.1
 20
10175.5
 30
0.0
 40
0
 41
0
  0
VERTEX
  8
0
 10
1277.87
 20
11394.5
 30
0.0
 40
0
 41
0
  0
VERTEX
  8
0
 10
1347.64
 20
11388.8
 30
0.0
 40
0
 41
0
  0
VERTEX
  8
0
 10
1347.62
 20
11389
 30
0.0
 40
0
 41
0
  0
VERTEX
  8
0
 10
1347.58
 20
11389.3
 30
0.0
 40
0
 41
0
  0
VERTEX
  8
0
 10
1347.56
 20
11389.7
 30
0.0
 40
0
 41
0
  0
VERTEX
  8
0
 10
1347.58
 20
11390.1
 30
0.0
 40
0
 41
0
  0
VERTEX
  8
0
 10
1347.63
 20
11390.4
 30
0.0
 40
0
 41
0
  0
VERTEX
  8
0
 10
1347.72
 20
11390.8
 30
0.0
 40
0
 41
0
  0
VERTEX
  8
0
 10
1347.85
 20
11391.2
 30
0.0
 40
0
 41
0
  0
VERTEX
  8
0
 10
1348
 20
11391.5
 30
0.0
 40
0
 41
0
  0
VERTEX
  8
0
 10
1348.19
 20
11391.9
 30
0.0
 40
0
 41
0
  0
VERTEX
  8
0
 10
1348.41
 20
11392.2
 30
0.0
 40
0
 41
0
  0
VERTEX
  8
0
 10
1348.66
 20
11392.5
 30
0.0
 40
0
 41
0
  0
VERTEX
  8
0
 10
1348.93
 20
11392.8
 30
0.0
 40
0
 41
0
  0
VERTEX
  8
0
 10
1349.23
 20
11393
 30
0.0
 40
0
 41
0
  0
VERTEX
  8
0
 10
1349.55
 20
11393.3
 30
0.0
 40
0
 41
0
  0
VERTEX
  8
0
 10
1349.9
 20
11393.4
 30
0.0
 40
0
 41
0
  0
VERTEX
  8
0
 10
1350.27
 20
11393.6
 30
0.0
 40
0
 41
0
  0
VERTEX
  8
0
 10
1350.56
 20
11393.7
 30
0.0
 40
0
 41
0
  0
VERTEX
  8
0
 10
1350.66
 20
11393.7
 30
0.0
 40
0
 41
0
  0
VERTEX
  8
0
 10
1350.75
 20
11393.8
 30
0.0
 40
0
 41
0
  0
VERTEX
  8
0
 10
1351.05
 20
11393.8
 30
0.0
 40
0
 41
0
  0
VERTEX
  8
0
 10
1351.45
 20
11393.9
 30
0.0
 40
0
 41
0
  0
VERTEX
  8
0
 10
1351.85
 20
11393.9
 30
0.0
 40
0
 41
0
  0
VERTEX
  8
0
 10
1352.24
 20
11393.9
 30
0.0
 40
0
 41
0
  0
VERTEX
  8
0
 10
1352.63
 20
11393.8
 30
0.0
 40
0
 41
0
  0
VERTEX
  8
0
 10
1353
 20
11393.7
 30
0.0
 40
0
 41
0
  0
VERTEX
  8
0
 10
1353.37
 20
11393.6
 30
0.0
 40
0
 41
0
  0
VERTEX
  8
0
 10
1353.72
 20
11393.4
 30
0.0
 40
0
 41
0
  0
VERTEX
  8
0
 10
1354.05
 20
11393.2
 30
0.0
 40
0
 41
0
  0
VERTEX
  8
0
 10
1354.37
 20
11393
 30
0.0
 40
0
 41
0
  0
VERTEX
  8
0
 10
1354.67
 20
11392.8
 30
0.0
 40
0
 41
0
  0
VERTEX
  8
0
 10
1354.94
 20
11392.5
 30
0.0
 40
0
 41
0
  0
VERTEX
  8
0
 10
1355.19
 20
11392.2
 30
0.0
 40
0
 41
0
  0
VERTEX
  8
0
 10
1355.41
 20
11391.8
 30
0.0
 40
0
 41
0
  0
VERTEX
  8
0
 10
1355.6
 20
11391.5
 30
0.0
 40
0
 41
0
  0
VERTEX
  8
0
 10
1355.72
 20
11391.2
 30
0.0
 40
0
 41
0
  0
VERTEX
  8
0
 10
1355.76
 20
11391.1
 30
0.0
 40
0
 41
0
  0
VERTEX
  8
0
 10
1501.83
 20
10169.8
 30
0.0
 40
0
 41
0
  0
VERTEX
  8
0
 10
961.451
 20
8534.79
 30
0.0
 40
0
 41
0
  0
SEQEND
 8
0
  0
POLYLINE
  8
0
 62
     0
 66
     1
 10
0
 20
0
 30
0.0
 70
     1
 40
0
 41
0
  0
VERTEX
  8
0
 10
1166.5
 20
7444.71
 30
0.0
 40
0
 41
0
  0
VERTEX
  8
0
 10
1140.32
 20
7037.65
 30
0.0
 40
0
 41
0
  0
VERTEX
  8
0
 10
1486.21
 20
7050.36
 30
0.0
 40
0
 41
0
  0
VERTEX
  8
0
 10
1477.67
 20
7411.96
 30
0.0
 40
0
 41
0
  0
VERTEX
  8
0
 10
1477.67
 20
8701.68
 30
0.0
 40
0
 41
0
  0
VERTEX
  8
0
 10
1486.21
 20
9063.28
 30
0.0
 40
0
 41
0
  0
VERTEX
  8
0
 10
1140.32
 20
9075.99
 30
0.0
 40
0
 41
0
  0
VERTEX
  8
0
 10
1166.5
 20
8668.93
 30
0.0
 40
0
 41
0
  0
VERTEX
  8
0
 10
1166.5
 20
7444.71
 30
0.0
 40
0
 41
0
  0
SEQEND
 8
0
  0
POLYLINE
  8
0
 62
     0
 66
     1
 10
0
 20
0
 30
0.0
 70
     1
 40
0
 41
0
  0
VERTEX
  8
0
 10
1473.93
 20
7061.92
 30
0.0
 40
0
 41
0
  0
VERTEX
  8
0
 10
1153.14
 20
7050.13
 30
0.0
 40
0
 41
0
  0
VERTEX
  8
0
 10
1178.5
 20
7444.32
 30
0.0
 40
0
 41
0
  0
VERTEX
  8
0
 10
1178.5
 20
8669.32
 30
0.0
 40
0
 41
0
  0
VERTEX
  8
0
 10
1153.14
 20
9063.5
 30
0.0
 40
0
 41
0
  0
VERTEX
  8
0
 10
1473.93
 20
9051.72
 30
0.0
 40
0
 41
0
  0
VERTEX
  8
0
 10
1465.67
 20
8701.82
 30
0.0
 40
0
 41
0
  0
VERTEX
  8
0
 10
1465.67
 20
7411.82
 30
0.0
 40
0
 41
0
  0
VERTEX
  8
0
 10
1473.93
 20
7061.92
 30
0.0
 40
0
 41
0
  0
SEQEND
 8
0
  0
ENDSEC
  0
EOF
