0
SECTION
2
HEADER
9
$INSUNITS
70
4
9
$ACADVER
1
AC1014
9
$HANDSEED
5
FFFF
0
ENDSEC
0
SECTION
2
TABLES
0
TABLE
2
VPORT
5
8
100
AcDbSymbolTable
0
ENDTAB
0
TABLE
2
LTYPE
5
5
100
AcDbSymbolTable
0
LTYPE
5
14
100
AcDbSymbolTableRecord
100
AcDbLinetypeTableRecord
2
BYBLOCK
70
0
0
LTYPE
5
15
100
AcDbSymbolTableRecord
100
AcDbLinetypeTableRecord
2
BYLAYER
70
0
0
LTYPE
5
16
100
AcDbSymbolTableRecord
100
AcDbLinetypeTableRecord
2
DASHED
70
0
3
Dashed __ __ __ __ __ __ __ __ __ __ __ __ __ _
72
65
73
2
40
0.75
49
0.5
74
0
49
-0.25
74
0
0
ENDTAB
0
TABLE
2
LAYER
5
2
100
AcDbSymbolTable
70
3
0
LAYER
5
50
100
AcDbSymbolTableRecord
100
AcDbLayerTableRecord
2
1
70
0
62
7
6
DASHED
0
LAYER
5
51
100
AcDbSymbolTableRecord
100
AcDbLayerTableRecord
2
0
70
0
62
7
6
CONTINUOUS
0
ENDTAB
0
TABLE
2
STYLE
5
3
100
AcDbSymbolTable
70
1
0
STYLE
5
11
100
AcDbSymbolTableRecord
100
AcDbTextStyleTableRecord
2
STANDARD
70
0
0
ENDTAB
0
TABLE
2
VIEW
5
6
100
AcDbSymbolTable
70
0
0
ENDTAB
0
TABLE
2
UCS
5
7
100
AcDbSymbolTable
70
0
0
ENDTAB
0
TABLE
2
APPID
5
9
100
AcDbSymbolTable
70
2
0
APPID
5
12
100
AcDbSymbolTableRecord
100
AcDbRegAppTableRecord
2
ACAD
70
0
0
ENDTAB
0
TABLE
2
DIMSTYLE
5
A
100
AcDbSymbolTable
70
1
0
ENDTAB
0
TABLE
2
BLOCK_RECORD
5
1
100
AcDbSymbolTable
70
1
0
BLOCK_RECORD
5
1F
100
AcDbSymbolTableRecord
100
AcDbBlockTableRecord
2
*MODEL_SPACE
0
BLOCK_RECORD
5
1B
100
AcDbSymbolTableRecord
100
AcDbBlockTableRecord
2
*PAPER_SPACE
0
ENDTAB
0
ENDSEC
0
SECTION
2
BLOCKS
0
BLOCK
5
20
100
AcDbEntity
100
AcDbBlockBegin
2
*MODEL_SPACE
0
ENDBLK
5
21
100
AcDbEntity
100
AcDbBlockEnd
0
BLOCK
5
1C
100
AcDbEntity
100
AcDbBlockBegin
2
*PAPER_SPACE
0
ENDBLK
5
1D
100
AcDbEntity
100
AcDbBlockEnd
0
ENDSEC
0
SECTION
2
ENTITIES
0
POINT
5
100
100
AcDbEntity
8
0
100
AcDbPoint
10
0
20
0
30
0
0
POINT
5
101
100
AcDbEntity
8
0
100
AcDbPoint
10
0
20
2000
30
0
0
LWPOLYLINE
5
102
100
AcDbEntity
8
0
100
AcDbPolyline
90
6
70
1
43
0.0
10
-775.37939474929658
20
-601.94560729003774
10
203.12060525070393
20
-601.94560729003592
10
200.89820913308097
20
-610.23970251554863
42
-0.33945425886336672
10
196.06858000163569
20
-613.94560729003592
10
-768.32736950022831
20
-613.94560729003774
42
-0.33945425886339137
10
-773.15699863167367
20
-610.23970251555033
0
LWPOLYLINE
5
103
100
AcDbEntity
8
0
100
AcDbPolyline
90
18
70
1
43
0.0
10
203.12060525070393
20
-601.94560729003592
10
203.9268137330744
20
-414.94734519147272
10
212.19425761064954
20
-412.62776940166958
42
0.33945425886337538
10
215.84323062785387
20
-407.75498337470424
10
208.79160813072974
20
193.09958867073169
42
0.33945425886336089
10
205.02928197322117
20
197.88539577396938
10
196.70967765597737
20
200.0103061527841
10
160.6502235993986
20
290.05871409618663
10
169.17608402297913
20
291.07889258601898
42
-0.33945425886337172
10
174.41180170038251
20
287.9730419541628
10
205.22811801521667
20
211.0179050716938
42
-0.33945425886338221
10
203.58320012700261
20
205.15673685316384
10
196.70967765597737
20
200.0103061527841
10
203.9268137330744
20
-414.94734519147272
10
212.21125051515799
20
-417.20547878299396
42
-0.33945425886337055
10
215.89629898766839
20
-422.05104020558724
10
215.15089694993623
20
-594.94538288328454
42
-0.33945425886337566
10
211.42420475579513
20
-599.75898995439059
0
LINE
5
104
100
AcDbEntity
8
0
100
AcDbLine
10
-775.37939474929658
20
-601.94560729003774
30
0
11
-790.996027722907
21
-402.55623752683363
31
0
0
LWPOLYLINE
5
105
100
AcDbEntity
8
0
100
AcDbPolyline
90
18
70
1
43
0.0
10
-790.996027722907
20
-402.55623752683363
10
-820.30537735371945
20
244.78058517385165
10
-828.40609398877132
20
247.6282947995135
42
-0.33945425886333846
10
-831.73335422516959
20
252.72617544387541
10
-825.64759440482521
20
332.39000835576462
42
-0.33945425886337349
10
-821.58457814828932
20
336.92332354930659
10
-813.1452969406439
20
338.50749298840782
10
-790.57688537164779
20
380.87100086077811
10
-798.94194617648213
20
382.80925209447321
42
0.33945425886335917
10
-804.48345001090559
20
380.28917610396331
10
-820.42048623757137
20
350.3735235297205
42
0.33945425886339003
10
-819.42052648498429
20
344.36859819812139
10
-813.1452969406439
20
338.50749298840782
10
-820.30537735371945
20
244.78058517385165
10
-828.49046418339663
20
242.18531761459212
42
0.3394542588633655
10
-831.97412982096932
20
237.19301138695874
10
-803.30271313345997
20
-396.05419520774865
42
0.33945425886338448
10
-799.38215462921835
20
-400.71126174793164
0
LWPOLYLINE
5
106
100
AcDbEntity
8
0
100
AcDbPolyline
90
6
70
1
43
0.0
10
160.6502235993986
20
290.05871409618663
10
161.85459270315548
20
338.04360229092708
10
170.09031451258025
20
335.61379851463988
42
-0.33945425886337477
10
173.67387222415584
20
330.69270494992463
10
172.82338817576945
20
296.80742688531086
42
-0.33945425886337888
10
168.99746979300579
20
292.07230320442301
0
LINE
5
107
100
AcDbEntity
8
0
100
AcDbLine
10
-784.26597250793543
20
387.59204087156775
30
0
11
155.76819901663583
21
344.96861578497175
31
0
0
LINE
5
108
100
AcDbEntity
8
0
100
AcDbLine
10
155.76819901663583
20
344.96861578497175
30
0
11
155.85505459180752
21
337.96915465506572
31
0
0
LINE
5
109
100
AcDbEntity
8
0
100
AcDbLine
10
155.85505459180752
20
337.96915465506572
30
0
11
161.85459270315562
21
338.04360229092708
31
0
0
LINE
5
110
100
AcDbEntity
8
0
100
AcDbLine
10
-784.26597250793543
20
387.59204087156775
30
0
11
-784.58304368286235
21
380.59922556798369
31
0
0
LINE
5
111
100
AcDbEntity
8
0
100
AcDbLine
10
-784.58304368286235
20
380.59922556798369
30
0
11
-790.57688537164779
21
380.87100086077811
31
0
0
LINE
5
112
100
AcDbEntity
8
0
100
AcDbLine
10
-9.5464110374450684
20
1000
30
0
11
-276.84592008590698
21
1000
31
0
0
LINE
5
113
100
AcDbEntity
8
0
100
AcDbLine
10
-787.89340138526518
20
-595.85211091862459
30
0
11
-802.4087454585225
21
-410.52372985507986
31
0
0
LINE
5
114
100
AcDbEntity
8
0
100
AcDbLine
10
-790.996027722907
20
-402.55623752683363
30
0
11
-799.09126809930717
21
-405.41947753804374
31
0
0
LINE
5
115
100
AcDbEntity
8
0
100
AcDbLine
10
-775.37939474929658
20
-601.94560729003774
30
0
11
-783.8216985706058
21
-600.37762568867754
31
0
0
ARC
5
116
100
AcDbEntity
8
0
100
AcDbCircle
10
-797.42401121444209
20
-410.13331403073983
30
0
40
5.000000000000365
210
0
220
0
230
1
100
AcDbArc
50
109.478394464792
51
184.47839446478756
0
ARC
5
117
100
AcDbEntity
8
0
100
AcDbCircle
10
-782.90866714118511
20
-595.46169509428444
30
0
40
4.9999999999999458
210
0
220
0
230
1
100
AcDbArc
50
184.47839446478918
51
259.47839446478753
0
LWPOLYLINE
5
118
100
AcDbEntity
8
0
100
AcDbPolyline
90
6
70
1
43
0.0
10
203.9268137330744
20
2414.9473451914728
10
212.19425761064957
20
2412.6277694016694
42
-0.33945425886337832
10
215.84323062785387
20
2407.7549833747044
10
208.79160813072971
20
1806.9004113292683
42
-0.33945425886336245
10
205.02928197322117
20
1802.1146042260307
10
196.70967765597737
20
1799.9896938472159
0
LWPOLYLINE
5
119
100
AcDbEntity
8
0
100
AcDbPolyline
90
6
70
1
43
0.0
10
-790.57688537164779
20
1619.1289991392218
10
-798.94194617648225
20
1617.1907479055269
42
-0.33945425886335995
10
-804.48345001090559
20
1619.7108238960368
10
-820.42048623757125
20
1649.6264764702796
42
-0.33945425886339703
10
-819.42052648498429
20
1655.6314018018788
10
-813.1452969406439
20
1661.4925070115921
0
LWPOLYLINE
5
120
100
AcDbEntity
8
0
100
AcDbPolyline
90
6
70
1
43
0.0
10
160.6502235993986
20
1709.9412859038134
10
168.99746979300585
20
1707.927696795577
42
-0.33945425886338576
10
172.82338817576945
20
1703.1925731146889
10
173.6738722241557
20
1669.3072950500755
42
-0.33945425886338443
10
170.09031451258025
20
1664.3862014853603
10
161.85459270315548
20
1661.9563977090729
0
ARC
5
121
100
AcDbEntity
8
0
100
AcDbCircle
10
-797.42401121444209
20
2410.1333140307397
30
0
40
5.000000000000365
210
0
220
0
230
1
100
AcDbArc
50
175.52160553520855
51
250.52160553520736
0
LWPOLYLINE
5
122
100
AcDbEntity
8
0
100
AcDbPolyline
90
6
70
1
43
0.0
10
203.12060525070393
20
2601.9456072900357
10
203.9268137330744
20
2414.9473451914728
10
212.21125051515801
20
2417.2054787829939
42
0.3394542588633776
10
215.89629898766839
20
2422.0510402055875
10
215.15089694993623
20
2594.9453828832843
42
0.33945425886336955
10
211.42420475579513
20
2599.75898995439
0
LWPOLYLINE
5
123
100
AcDbEntity
8
0
100
AcDbPolyline
90
12
70
1
43
0.0
10
-799.38215462921835
20
2400.7112617479315
42
0.33945425886339153
10
-803.30271313345997
20
2396.0541952077488
10
-831.97412982096932
20
1762.8069886130413
42
0.33945425886337754
10
-828.49046418339663
20
1757.8146823854079
10
-820.30537735371945
20
1755.2194148261483
10
-828.40609398877132
20
1752.3717052004863
42
0.33945425886333519
10
-831.73335422516959
20
1747.2738245561245
10
-825.64759440482521
20
1667.6099916442354
42
0.33945425886337488
10
-821.58457814828932
20
1663.0766764506934
10
-813.1452969406439
20
1661.4925070115921
10
-820.30537735371945
20
1755.2194148261483
10
-790.996027722907
20
2402.5562375268337
0
LWPOLYLINE
5
124
100
AcDbEntity
8
0
100
AcDbPolyline
90
6
70
1
43
0.0
10
-768.32736950022831
20
2613.945607290038
10
196.06858000163569
20
2613.9456072900362
42
-0.33945425886339731
10
200.898209133081
20
2610.2397025155483
10
203.12060525070393
20
2601.9456072900357
10
-775.37939474929658
20
2601.945607290038
10
-773.15699863167379
20
2610.2397025155506
42
-0.33945425886337599
0
LINE
5
125
100
AcDbEntity
8
0
100
AcDbLine
10
155.85505459180752
20
1662.0308453449343
30
0
11
161.85459270315562
21
1661.9563977090729
31
0
0
LINE
5
126
100
AcDbEntity
8
0
100
AcDbLine
10
-775.37939474929658
20
2601.945607290038
30
0
11
-783.8216985706058
21
2600.3776256886772
31
0
0
LINE
5
127
100
AcDbEntity
8
0
100
AcDbLine
10
-784.26597250793543
20
1612.4079591284321
30
0
11
155.76819901663583
21
1655.0313842150283
31
0
0
ARC
5
128
100
AcDbEntity
8
0
100
AcDbCircle
10
-782.90866714118511
20
2595.4616950942841
30
0
40
5.000000000000008
210
0
220
0
230
1
100
AcDbArc
50
100.52160553521247
51
175.52160553520818
0
LWPOLYLINE
5
129
100
AcDbEntity
8
0
100
AcDbPolyline
90
6
70
1
43
0.0
10
160.6502235993986
20
1709.9412859038134
10
169.17608402297913
20
1708.9211074139812
42
0.33945425886338232
10
174.41180170038251
20
1712.0269580458373
10
205.22811801521667
20
1788.9820949283062
42
0.33945425886337549
10
203.58320012700261
20
1794.8432631468361
10
196.70967765597737
20
1799.9896938472159
0
LINE
5
130
100
AcDbEntity
8
0
100
AcDbLine
10
-787.89340138526518
20
2595.8521109186245
30
0
11
-802.4087454585225
21
2410.5237298550801
31
0
0
LINE
5
131
100
AcDbEntity
8
0
100
AcDbLine
10
-790.996027722907
20
2402.5562375268337
30
0
11
-799.09126809930717
21
2405.4194775380438
31
0
0
LINE
5
132
100
AcDbEntity
8
0
100
AcDbLine
10
-784.26597250793543
20
1612.4079591284321
30
0
11
-784.58304368286235
21
1619.4007744320163
31
0
0
LINE
5
133
100
AcDbEntity
8
0
100
AcDbLine
10
-784.58304368286235
20
1619.4007744320163
30
0
11
-790.57688537164779
21
1619.1289991392218
31
0
0
LINE
5
134
100
AcDbEntity
8
0
100
AcDbLine
10
155.76819901663583
20
1655.0313842150283
30
0
11
155.85505459180752
21
1662.0308453449343
31
0
0
LINE
5
135
100
AcDbEntity
8
0
100
AcDbLine
10
-775.37939474929658
20
2601.945607290038
30
0
11
-790.996027722907
21
2402.5562375268337
31
0
0
ENDSEC
0
SECTION
2
OBJECTS
0
DICTIONARY
5
C
100
AcDbDictionary
3
ACAD_GROUP
350
D
3
ACAD_MLINESTYLE
350
17
0
DICTIONARY
5
D
100
AcDbDictionary
0
DICTIONARY
5
1A
330
C
100
AcDbDictionary
0
DICTIONARY
5
17
100
AcDbDictionary
0
ENDSEC
0
EOF
