0
SECTION
2
HEADER
9
$INSUNITS
70
4
9
$ACADVER
1
AC1014
9
$HANDSEED
5
FFFF
0
ENDSEC
0
SECTION
2
TABLES
0
TABLE
2
VPORT
5
8
100
AcDbSymbolTable
0
ENDTAB
0
TABLE
2
LTYPE
5
5
100
AcDbSymbolTable
0
LTYPE
5
14
100
AcDbSymbolTableRecord
100
AcDbLinetypeTableRecord
2
BYBLOCK
70
0
0
LTYPE
5
15
100
AcDbSymbolTableRecord
100
AcDbLinetypeTableRecord
2
BYLAYER
70
0
0
ENDTAB
0
TABLE
2
LAYER
5
2
100
AcDbSymbolTable
70
2
0
LAYER
5
50
100
AcDbSymbolTableRecord
100
AcDbLayerTableRecord
2
0
70
0
6
CONTINUOUS
0
ENDTAB
0
TABLE
2
STYLE
5
3
100
AcDbSymbolTable
70
1
0
STYLE
5
11
100
AcDbSymbolTableRecord
100
AcDbTextStyleTableRecord
2
STANDARD
70
0
0
ENDTAB
0
TABLE
2
VIEW
5
6
100
AcDbSymbolTable
70
0
0
ENDTAB
0
TABLE
2
UCS
5
7
100
AcDbSymbolTable
70
0
0
ENDTAB
0
TABLE
2
APPID
5
9
100
AcDbSymbolTable
70
2
0
APPID
5
12
100
AcDbSymbolTableRecord
100
AcDbRegAppTableRecord
2
ACAD
70
0
0
ENDTAB
0
TABLE
2
DIMSTYLE
5
A
100
AcDbSymbolTable
70
1
0
ENDTAB
0
TABLE
2
BLOCK_RECORD
5
1
100
AcDbSymbolTable
70
1
0
BLOCK_RECORD
5
1F
100
AcDbSymbolTableRecord
100
AcDbBlockTableRecord
2
*MODEL_SPACE
0
BLOCK_RECORD
5
1B
100
AcDbSymbolTableRecord
100
AcDbBlockTableRecord
2
*PAPER_SPACE
0
ENDTAB
0
ENDSEC
0
SECTION
2
BLOCKS
0
BLOCK
5
20
100
AcDbEntity
100
AcDbBlockBegin
2
*MODEL_SPACE
0
ENDBLK
5
21
100
AcDbEntity
100
AcDbBlockEnd
0
BLOCK
5
1C
100
AcDbEntity
100
AcDbBlockBegin
2
*PAPER_SPACE
0
ENDBLK
5
1D
100
AcDbEntity
100
AcDbBlockEnd
0
ENDSEC
0
SECTION
2
ENTITIES
0
LWPOLYLINE
5
100
100
AcDbEntity
8
0
100
AcDbPolyline
90
40
70
1
43
0.0
10
5163.4445551004519
20
6077.9707147964118
10
5156.005595968445
20
6077.3198902039294
42
0.38855370421716368
10
5151.4413778713297
20
6072.3445639636029
42
-0.043994017956685318
10
5073.6250981547873
20
5200.912446631286
42
0.26742153665154572
10
5075.3161175006071
20
5196.2161480508757
10
5083.6965735387175
20
5189.1206278166237
10
5088.1984808695606
20
5179.1173201777556
42
0.26794919243124665
10
5092.2553175888752
20
5176.1946371924105
10
5535.9416374654447
20
5131.3592926773081
42
0.25923205663437782
10
5540.4037458760631
20
5133.280585935504
10
5547.3353655750179
20
5142.2690481301097
10
5558.6860801008797
20
5142.2361235628341
42
0.2592320566343122
10
5562.9392407488886
20
5144.5839744427476
10
5764.5579204172327
20
5466.8129477239218
42
0.38803528406380217
10
5763.3424098170826
20
5473.4476106031107
10
5757.3839099580146
20
5477.9707147964928
10
5764.7979361627622
20
5477.0338194433361
42
0.3887198028029924
10
5770.311245689807
20
5480.934860944415
42
0.052928904668098693
10
5834.2885315072108
20
6072.3296774768642
42
0.3894550716371229
10
5829.7243202422987
20
6077.3206616313255
10
5822.2941785657968
20
6077.9707147964118
10
5829.7243202423133
20
6078.6207679614981
42
0.38945507163627752
10
5834.2885315072263
20
6083.6117521159467
42
0.052928904668096306
10
5770.3112456913204
20
6675.0065686485341
42
0.38871980280328472
10
5764.7979361642847
20
6678.9076101496312
10
5757.3839099595334
20
6677.9707147964937
10
5763.342409818616
20
6682.4938189898621
42
0.38803528406345195
10
5764.5579204187816
20
6689.1284818690465
10
5562.9392407512914
20
7011.3574551507481
42
0.25923205663453547
10
5558.6860801032881
20
7013.7053060306735
10
5547.335365577419
20
7013.6723814634379
10
5540.4037458784951
20
7022.6608436580491
42
0.25923205663451265
10
5535.941637467884
20
7024.5821369162586
10
5092.2553175913627
20
6979.746792402374
42
0.26794919243108639
10
5088.1984808720399
20
6976.8241094170398
10
5083.6965735411814
20
6966.8208017782081
10
5075.4595837251318
20
6960.8865945001353
42
0.288547187392939
10
5073.4605431794707
20
6955.9484873998726
42
-0.044040989587347437
10
5151.441377871347
20
6083.5968656292334
42
0.38855370421782387
10
5156.0055959684614
20
6078.6215393888951
0
LWPOLYLINE
5
101
100
AcDbEntity
8
0
100
AcDbPolyline
90
46
70
1
43
0.0
10
5916.7112015051225
20
6985.8068740806993
10
5910.6759253247137
20
6984.1897267020604
42
0.33945425886333036
10
5907.7112015051252
20
6980.3260233969031
10
5907.7112015051243
20
6862.8068740806993
42
0.41421356237309503
10
5911.7112015051243
20
6858.8068740807003
10
5916.7112015051243
20
6858.8068740806993
10
5916.7112015051243
20
6855.8068740806993
10
5911.7112015051243
20
6855.8068740806993
42
0.41421356237301177
10
5907.7112015051252
20
6851.8068740807012
10
5907.7112015051225
20
6078.7595967485013
42
0.38887873185300587
10
5911.3625785341319
20
6074.7748179561349
10
5916.7112015051225
20
6074.3068740806993
10
5911.3625785341337
20
6073.8389302052638
42
0.38887873185300587
10
5907.7112015051243
20
6069.8541514128965
10
5907.7112015051225
20
5296.8068740806984
42
0.41421356237309503
10
5911.7112015051225
20
5292.8068740806984
10
5916.7112015051225
20
5292.8068740806984
10
5916.7112015051225
20
5289.8068740806993
10
5911.7112015051225
20
5289.8068740806993
42
0.41421356237309503
10
5907.7112015051225
20
5285.8068740806993
10
5907.7112015051225
20
5168.2877247644947
42
0.33945425886325115
10
5910.6759253247119
20
5164.4240214593392
10
5916.7112015051225
20
5162.8068740806984
10
5918.3283488837624
20
5156.7715979002887
42
0.33945425886338643
10
5922.1920521889188
20
5153.8068740806993
10
5946.8055827443022
20
5153.8068740806993
10
6399.7059581029462
20
5163.3068740806984
10
6424.1307261799702
20
5163.3068740806984
42
0.33945425886340691
10
6427.9944294851266
20
5166.2715979002878
10
6429.6115768637665
20
5172.3068740806975
10
6438.6468530441762
20
5174.727869036632
42
0.33945425886333036
10
6441.6115768637655
20
5178.5915723417884
10
6441.6115768637655
20
6069.5916854223178
42
0.38887873185300587
10
6437.9601998347562
20
6073.5764642146842
10
6429.6115768637665
20
6074.3068740806984
10
6437.9601998347562
20
6075.0372839467127
42
0.38887873185300587
10
6441.6115768637655
20
6079.022062739079
10
6441.6115768637655
20
6970.0221758196085
42
0.33945425886333036
10
6438.6468530441762
20
6973.8858791247649
10
6429.6115768637665
20
6976.3068740806993
10
6427.9944294851257
20
6982.3421502611091
42
0.33945425886338643
10
6424.1307261799702
20
6985.3068740806984
10
6399.7059581031081
20
6985.3068740806975
10
5946.8055827442222
20
6994.8068740806975
10
5922.1920521889188
20
6994.8068740806993
42
0.33945425886348346
10
5918.3283488837615
20
6991.8421502611081
0
ENDSEC
0
SECTION
2
OBJECTS
0
DICTIONARY
5
C
100
AcDbDictionary
3
ACAD_GROUP
350
D
3
ACAD_MLINESTYLE
350
17
0
DICTIONARY
5
D
100
AcDbDictionary
0
DICTIONARY
5
1A
330
C
100
AcDbDictionary
0
DICTIONARY
5
17
100
AcDbDictionary
0
ENDSEC
0
EOF
