0
SECTION
2
HEADER
9
$INSUNITS
70
4
9
$ACADVER
1
AC1014
9
$HANDSEED
5
FFFF
0
ENDSEC
0
SECTION
2
TABLES
0
TABLE
2
VPORT
5
8
100
AcDbSymbolTable
0
ENDTAB
0
TABLE
2
LTYPE
5
5
100
AcDbSymbolTable
0
LTYPE
5
14
100
AcDbSymbolTableRecord
100
AcDbLinetypeTableRecord
2
BYBLOCK
70
0
0
LTYPE
5
15
100
AcDbSymbolTableRecord
100
AcDbLinetypeTableRecord
2
BYLAYER
70
0
0
ENDTAB
0
TABLE
2
LAYER
5
2
100
AcDbSymbolTable
70
2
0
LAYER
5
50
100
AcDbSymbolTableRecord
100
AcDbLayerTableRecord
2
0
70
0
6
CONTINUOUS
0
ENDTAB
0
TABLE
2
STYLE
5
3
100
AcDbSymbolTable
70
1
0
STYLE
5
11
100
AcDbSymbolTableRecord
100
AcDbTextStyleTableRecord
2
STANDARD
70
0
0
ENDTAB
0
TABLE
2
VIEW
5
6
100
AcDbSymbolTable
70
0
0
ENDTAB
0
TABLE
2
UCS
5
7
100
AcDbSymbolTable
70
0
0
ENDTAB
0
TABLE
2
APPID
5
9
100
AcDbSymbolTable
70
2
0
APPID
5
12
100
AcDbSymbolTableRecord
100
AcDbRegAppTableRecord
2
ACAD
70
0
0
ENDTAB
0
TABLE
2
DIMSTYLE
5
A
100
AcDbSymbolTable
70
1
0
ENDTAB
0
TABLE
2
BLOCK_RECORD
5
1
100
AcDbSymbolTable
70
1
0
BLOCK_RECORD
5
1F
100
AcDbSymbolTableRecord
100
AcDbBlockTableRecord
2
*MODEL_SPACE
0
BLOCK_RECORD
5
1B
100
AcDbSymbolTableRecord
100
AcDbBlockTableRecord
2
*PAPER_SPACE
0
ENDTAB
0
ENDSEC
0
SECTION
2
BLOCKS
0
BLOCK
5
20
100
AcDbEntity
100
AcDbBlockBegin
2
*MODEL_SPACE
0
ENDBLK
5
21
100
AcDbEntity
100
AcDbBlockEnd
0
BLOCK
5
1C
100
AcDbEntity
100
AcDbBlockBegin
2
*PAPER_SPACE
0
ENDBLK
5
1D
100
AcDbEntity
100
AcDbBlockEnd
0
ENDSEC
0
SECTION
2
ENTITIES
0
LWPOLYLINE
5
100
100
AcDbEntity
8
0
100
AcDbPolyline
90
50
70
1
43
0.0
10
6079.0177720803767
20
-1428.1864406853449
10
6087.3650182739839
20
-1426.1728515771085
42
0.33945425886338215
10
6091.190936656747
20
-1421.4377278962204
10
6092.0414207051326
20
-1387.5524498316072
42
0.33945425886334113
10
6088.4578629935586
20
-1382.6313562668918
10
6080.2221411841319
20
-1380.2015524906046
10
6074.2226030727852
20
-1380.276000126466
10
6074.135747497613
20
-1373.2765389965598
10
5134.1015759730417
20
-1330.6531139099638
10
5133.7845047981145
20
-1337.6459292135478
10
5127.7906631093283
20
-1337.3741539207535
10
5119.4256023044945
20
-1335.4359026870584
42
0.33945425886331937
10
5113.8840984700719
20
-1337.9559786775681
10
5097.9470622434055
20
-1367.8716312518111
42
0.33945425886340658
10
5098.9470219959931
20
-1373.8765565834103
10
5105.2222515403337
20
-1379.7376617931238
10
5096.7829703326879
20
-1381.3218312322249
42
0.3394542588633977
10
5092.7199540761521
20
-1385.8551464257671
10
5086.6341942558074
20
-1465.5189793376562
42
0.33945425886333402
10
5089.961454492206
20
-1470.616859982018
10
5098.0621711272579
20
-1473.46456960768
10
5089.877084297581
20
-1476.0598371669394
42
0.33945425886336617
10
5086.3934186600081
20
-1481.0521433945728
10
5115.0648353475171
20
-2114.29934998928
42
0.33945425886342628
10
5118.9853938517599
20
-2118.9564165294637
10
5127.3715207580699
20
-2120.8013923083654
10
5119.2762803816695
20
-2123.6646323195755
42
0.33945425886333813
10
5115.958803022454
20
-2128.7688846366113
10
5130.4741470957115
20
-2314.0972657001562
42
0.33945425886335234
10
5134.5458499103715
20
-2318.6227804702094
10
5142.9881537316805
20
-2320.1907620715692
10
5145.2105498493029
20
-2328.4848572970814
42
0.3394542588634028
10
5150.0401789807484
20
-2332.1907620715692
10
6114.4361284826127
20
-2332.1907620715674
42
0.33945425886337216
10
6119.2657576140582
20
-2328.4848572970805
10
6121.4881537316805
20
-2320.1907620715679
10
6129.7917532367728
20
-2318.0041447359226
42
0.33945425886331765
10
6133.5184454309128
20
-2313.1905376648165
10
6134.2638474686455
20
-2140.2961949871187
42
0.33945425886336406
10
6130.5787989961354
20
-2135.4506335645256
10
6122.2943622140519
20
-2133.1924999730045
10
6130.5618060916267
20
-2130.8729241832011
42
0.33945425886336944
10
6134.210779108831
20
-2126.0001381562365
10
6127.1591566117067
20
-1525.1455661108
42
0.3394542588633585
10
6123.3968304541986
20
-1520.3597590075624
10
6115.0772261369548
20
-1518.2348486287474
10
6121.9507486079792
20
-1513.0884179283678
42
0.3394542588633816
10
6123.5956664961941
20
-1507.2272497098379
10
6092.7793501813594
20
-1430.2721128273688
42
0.33945425886338948
10
6087.5436325039564
20
-1427.1662621955127
0
LWPOLYLINE
5
101
100
AcDbEntity
8
0
100
AcDbPolyline
90
50
70
1
43
0.0
10
6115.0772261369548
20
-3209.2678304429387
10
6123.3968304541986
20
-3207.1429200641242
42
0.33945425886335456
10
6127.1591566117067
20
-3202.3571129608863
10
6134.210779108831
20
-2601.5025409154505
42
0.3394542588633358
10
6130.5618060916277
20
-2596.6297548884854
10
6122.2943622140519
20
-2594.3101790986816
10
6130.5787989961354
20
-2592.052045507161
42
0.33945425886336794
10
6134.2638474686464
20
-2587.2064840845674
10
6133.5184454309137
20
-2414.3121414068701
42
0.33945425886339098
10
6129.7917532367719
20
-2409.4985343357639
10
6121.4881537316805
20
-2407.3119170001191
10
6119.2657576140582
20
-2399.0178217746061
42
0.3394542588634028
10
6114.4361284826127
20
-2395.3119170001182
10
5150.0401789807484
20
-2395.3119170001169
42
0.33945425886338754
10
5145.2105498493029
20
-2399.0178217746043
10
5142.9881537316805
20
-2407.3119170001164
10
5134.5458499103715
20
-2408.8798986014772
42
0.33945425886330005
10
5130.4741470957124
20
-2413.4054133715299
10
5115.958803022455
20
-2598.7337944350747
42
0.33945425886336683
10
5119.2762803816695
20
-2603.838046752111
10
5127.3715207580699
20
-2606.7012867633207
10
5118.985393851759
20
-2608.5462625422228
42
0.33945425886336295
10
5115.0648353475181
20
-2613.2033290824065
10
5086.3934186600081
20
-3246.4505356771133
42
0.33945425886337244
10
5089.877084297581
20
-3251.4428419047463
10
5098.0621711272579
20
-3254.0381094640065
10
5089.961454492206
20
-3256.8858190896685
42
0.3394542588633469
10
5086.6341942558083
20
-3261.9836997340303
10
5092.7199540761521
20
-3341.6475326459195
42
0.33945425886336067
10
5096.782970332687
20
-3346.1808478394605
10
5105.2222515403337
20
-3347.7650172785625
10
5098.9470219959931
20
-3353.626122488276
42
0.33945425886340658
10
5097.9470622434055
20
-3359.6310478198752
10
5113.8840984700719
20
-3389.5467003941176
42
0.3394542588633791
10
5119.4256023044954
20
-3392.0667763846277
10
5127.7906631093283
20
-3390.128525150933
10
5133.7845047981145
20
-3389.8567498581383
10
5134.1015759730417
20
-3396.8495651617222
10
6074.135747497613
20
-3354.2261400751258
10
6074.2226030727852
20
-3347.2266789452206
10
6080.2221411841319
20
-3347.3011265810819
10
6088.4578629935568
20
-3344.8713228047945
42
0.33945425886337027
10
6092.0414207051326
20
-3339.9502292400798
10
6091.190936656747
20
-3306.0649511754655
42
0.33945425886344743
10
6087.3650182739821
20
-3301.3298274945773
10
6079.0177720803767
20
-3299.316238386341
10
6087.5436325039564
20
-3300.3364168761732
42
0.33945425886340608
10
6092.7793501813594
20
-3297.2305662443168
10
6123.5956664961941
20
-3220.2754293618482
42
0.33945425886341524
10
6121.9507486079792
20
-3214.4142611433176
0
LWPOLYLINE
5
102
100
AcDbEntity
8
0
100
AcDbPolyline
90
46
70
1
43
0.0
10
6477.8208575005901
20
-2968.8949486999418
10
6486.2693491399496
20
-2966.3377782322182
42
0.33052527115355729
10
6489.8208575005892
20
-2961.5521881985123
10
6489.8208575005901
20
-2362.0264685323395
42
0.38887873185305472
10
6485.256636214327
20
-2357.0454950418807
10
6477.8208575005901
20
-2356.3949486999418
10
6485.256636214327
20
-2355.7444023580024
42
0.38887873185298955
10
6489.8208575005892
20
-2350.763428867544
10
6489.8208575005883
20
-1751.2377092013712
42
0.33052527115342084
10
6486.2693491399496
20
-1746.4521191676661
10
6477.8208575005883
20
-1743.894948699942
10
6486.4160511177979
20
-1741.8852774671202
42
0.33052527115343888
10
6490.2673782378642
20
-1737.337490860361
10
6514.308745804482
20
-1363.5190004732931
42
0.21206288518447353
10
6512.9028804478921
20
-1359.7115259606383
10
6493.4413117180384
20
-1339.7071017893691
42
0.21206288518449026
10
6489.6739457756075
20
-1338.1970443662274
10
6196.1484908120465
20
-1348.9790269330977
42
0.19721091139847974
10
6192.6914640424957
20
-1350.5483731108798
10
6172.0854128074225
20
-1372.4367545533162
42
0.19721091139838753
10
6170.7273737978194
20
-1375.9821193525297
10
6178.4884034273382
20
-1704.5226347132811
42
0.33616506078608677
10
6182.2500365556962
20
-1709.249128136159
10
6190.6540941034291
20
-1711.3949486999422
10
6182.3030564902747
20
-1713.7386423536227
42
0.33616506078366792
10
6178.65409410343
20
-1718.5526528820528
10
6178.6540941034309
20
-2350.7634288675445
42
0.38887873185299093
10
6183.2183153896931
20
-2355.7444023580033
10
6190.65409410343
20
-2356.3949486999427
10
6183.2183153896931
20
-2357.0454950418821
42
0.38887873185305188
10
6178.6540941034309
20
-2362.02646853234
10
6178.6540941034291
20
-2994.2372445178316
42
0.33616506078376046
10
6182.3030564902774
20
-2999.0512550462627
10
6190.6540941034291
20
-3001.3949486999422
10
6182.2500365556989
20
-3003.5407692637264
42
0.33616506078609065
10
6178.4884034273418
20
-3008.2672626866042
10
6170.7273737978194
20
-3336.8077780473568
42
0.19721091139843466
10
6172.0854128074243
20
-3340.3531428465703
10
6192.691464042502
20
-3362.2415242890088
42
0.19721091139834943
10
6196.1484908120528
20
-3363.8108704667911
10
6489.6739457756075
20
-3374.592853033656
42
0.21206288518447569
10
6493.4413117180356
20
-3373.0827956105149
10
6512.902880447893
20
-3353.0783714392464
42
0.21206288518452787
10
6514.3087458044829
20
-3349.2708969265923
10
6490.2673782378661
20
-2975.4524065395235
42
0.3305252711535322
10
6486.4160511177997
20
-2970.904619932764
0
ENDSEC
0
SECTION
2
OBJECTS
0
DICTIONARY
5
C
100
AcDbDictionary
3
ACAD_GROUP
350
D
3
ACAD_MLINESTYLE
350
17
0
DICTIONARY
5
D
100
AcDbDictionary
0
DICTIONARY
5
1A
330
C
100
AcDbDictionary
0
DICTIONARY
5
17
100
AcDbDictionary
0
ENDSEC
0
EOF
