0
SECTION
2
HEADER
9
$INSUNITS
70
4
9
$ACADVER
1
AC1014
9
$HANDSEED
5
FFFF
0
ENDSEC
0
SECTION
2
TABLES
0
TABLE
2
VPORT
5
8
100
AcDbSymbolTable
0
ENDTAB
0
TABLE
2
LTYPE
5
5
100
AcDbSymbolTable
0
LTYPE
5
14
100
AcDbSymbolTableRecord
100
AcDbLinetypeTableRecord
2
BYBLOCK
70
0
0
LTYPE
5
15
100
AcDbSymbolTableRecord
100
AcDbLinetypeTableRecord
2
BYLAYER
70
0
0
ENDTAB
0
TABLE
2
LAYER
5
2
100
AcDbSymbolTable
70
2
0
LAYER
5
50
100
AcDbSymbolTableRecord
100
AcDbLayerTableRecord
2
0
70
0
6
CONTINUOUS
0
ENDTAB
0
TABLE
2
STYLE
5
3
100
AcDbSymbolTable
70
1
0
STYLE
5
11
100
AcDbSymbolTableRecord
100
AcDbTextStyleTableRecord
2
STANDARD
70
0
0
ENDTAB
0
TABLE
2
VIEW
5
6
100
AcDbSymbolTable
70
0
0
ENDTAB
0
TABLE
2
UCS
5
7
100
AcDbSymbolTable
70
0
0
ENDTAB
0
TABLE
2
APPID
5
9
100
AcDbSymbolTable
70
2
0
APPID
5
12
100
AcDbSymbolTableRecord
100
AcDbRegAppTableRecord
2
ACAD
70
0
0
ENDTAB
0
TABLE
2
DIMSTYLE
5
A
100
AcDbSymbolTable
70
1
0
ENDTAB
0
TABLE
2
BLOCK_RECORD
5
1
100
AcDbSymbolTable
70
1
0
BLOCK_RECORD
5
1F
100
AcDbSymbolTableRecord
100
AcDbBlockTableRecord
2
*MODEL_SPACE
0
BLOCK_RECORD
5
1B
100
AcDbSymbolTableRecord
100
AcDbBlockTableRecord
2
*PAPER_SPACE
0
ENDTAB
0
ENDSEC
0
SECTION
2
BLOCKS
0
BLOCK
5
20
100
AcDbEntity
100
AcDbBlockBegin
2
*MODEL_SPACE
0
ENDBLK
5
21
100
AcDbEntity
100
AcDbBlockEnd
0
BLOCK
5
1C
100
AcDbEntity
100
AcDbBlockBegin
2
*PAPER_SPACE
0
ENDBLK
5
1D
100
AcDbEntity
100
AcDbBlockEnd
0
ENDSEC
0
SECTION
2
ENTITIES
0
LWPOLYLINE
5
100
100
AcDbEntity
8
0
100
AcDbPolyline
90
48
70
1
43
0.0
10
5244.0510951814858
20
-1220.0714918484068
10
5235.9001987196652
20
-1222.7722226721344
42
0.33945425886323927
10
5232.4812803024533
20
-1227.8090912034047
10
5234.45147322308
20
-1261.6477337956892
42
0.33945425886346642
10
5238.431833421032
20
-1266.2537928964232
10
5246.841082232444
20
-1267.9903396252002
10
5252.8318051265778
20
-1267.6568142053382
10
5253.2209181164162
20
-1274.6459909151613
10
6341.034751862122
20
-1214.0834224166315
10
6349.4089627259418
20
-1212.1850935403818
42
0.33945425886316682
10
6353.2997924424199
20
-1207.5031610481076
10
6354.9671387635044
20
-1164.6396282969226
42
0.33945425886366071
10
6351.4517600841455
20
-1159.6696020911936
10
6343.2503163013198
20
-1157.1264976908578
10
6351.705031093079
20
-1158.6261169438592
42
0.33945425886339137
10
6357.107653199957
20
-1155.8206362158651
10
6391.6836190236172
20
-1081.8677502359239
42
0.36397023426623309
10
6390.026247298063
20
-1075.6572180461685
10
6383.486174376184
20
-1071.0679378320026
10
6391.7528023728282
20
-1068.7454560390527
42
0.33945425886337044
10
6395.4000622978274
20
-1063.8713876373608
10
6388.6448699339735
20
-505.01626352582832
42
0.33945425886338915
10
6384.8808617167097
20
-500.23177923959219
10
6376.5605109715043
20
-498.10979347379117
10
6384.7312117187612
20
-495.46958336619099
42
0.33945425886336211
10
6388.1873891689884
20
-490.45820778882586
10
6380.0267879413923
20
-329.76934335289002
42
0.33945425886341823
10
6376.0806953933525
20
-325.13389285189368
10
6367.6845559257081
20
-323.33503150277579
10
6365.4264487657074
20
-315.05058751615536
42
0.33945425886331065
10
6360.5808991002923
20
-311.36552358389264
10
5288.6948966219052
20
-315.98334226842212
42
0.33945425886337577
10
5283.8812776608065
20
-319.71001910472262
10
5281.6946338325233
20
-328.01361163336537
10
5273.412438379587
20
-330.27995198570636
42
0.33945425886340758
10
5269.7321924927464
20
-335.12916202005982
10
5270.6462395464441
20
-507.52268835627291
42
0.3394542588633167
10
5274.377699029551
20
-512.33260081605829
10
5282.6834608670752
20
-514.51099022377832
10
5274.3747568168656
20
-516.67813053292605
42
0.33945425886337111
10
5270.6367874965217
20
-521.48298569255667
10
5266.6304897171576
20
-1123.3656018266624
42
0.33945425886336139
10
5270.3041657573085
20
-1128.2197909553317
10
5278.5832846918911
20
-1130.4973444191496
10
5270.0449439374324
20
-1129.5875107666761
42
0.33945425885574965
10
5264.8498300931979
20
-1132.7608118694709
10
5235.3910129230089
20
-1209.1749770207243
42
0.33945425886337105
10
5237.1115920083776
20
-1215.0143824147578
0
LWPOLYLINE
5
101
100
AcDbEntity
8
0
100
AcDbPolyline
90
48
70
1
43
0.0
10
5230.9716546892569
20
670.30068967308182
10
5222.5624058778449
20
668.56414294430465
42
0.33945425886343483
10
5218.5820456798938
20
663.95808384357122
10
5216.6118527592662
20
630.11944125128605
42
0.33945425886328778
10
5220.0307711764799
20
625.08257272001606
10
5228.1816676382996
20
622.38184189628851
10
5221.2421644651895
20
617.32473246263964
42
0.33945425886331343
10
5219.5215853798218
20
611.48532706860624
10
5248.9804025500125
20
535.07116191735236
42
0.339454258855719
10
5254.1755163942453
20
531.89786081455782
10
5262.7138571487048
20
532.80769446703107
10
5254.4347382141223
20
530.53014100321332
42
0.33945425886336639
10
5250.7610621739705
20
525.67595187454378
10
5254.7673599533346
20
-76.206664259561521
42
0.33945425886337532
10
5258.5053292736793
20
-81.011519419192282
10
5266.8140333238889
20
-83.178659728340207
10
5258.5082714863656
20
-85.357049136060184
42
0.33945425886338493
10
5254.776812003257
20
-90.166961595845677
10
5253.8627649495611
20
-262.56048793205815
42
0.33945425886344027
10
5257.5430108363998
20
-267.40969796641184
10
5265.8252062893371
20
-269.67603831875289
10
5268.0118501176194
20
-277.97963084739558
42
0.33945425886337777
10
5272.825469078718
20
-281.70630768369654
10
6344.7114715571042
20
-286.32412636822585
42
0.33945425886335684
10
6349.5570212225211
20
-282.63906243596347
10
6351.8151283825218
20
-274.35461844934247
10
6360.2112678501653
20
-272.55575710022464
42
0.33945425886337949
10
6364.1573603982051
20
-267.92030659922892
10
6372.3179616258021
20
-107.23144216329295
42
0.33945425886339409
10
6368.861784175574
20
-102.2200665859274
10
6360.6910834283181
20
-99.579856478327073
10
6369.0114341735225
20
-97.457870712526287
42
0.33945425886337599
10
6372.7754423907882
20
-92.673386426290335
10
6379.5306347546411
20
466.18173768524292
42
0.33945425886335245
10
6375.8833748296411
20
471.05580608693424
10
6367.6167468329968
20
473.37828787988434
10
6374.1568197548759
20
477.96756809405025
42
0.3639702342662503
10
6375.814191480431
20
484.17810028380597
10
6341.2382256567707
20
558.13098626374665
42
0.33945425886340064
10
6335.8356035498928
20
560.93646699174076
10
6327.3808887581336
20
559.43684773873952
10
6335.5823325409601
20
561.97995213907518
42
0.33945425886358199
10
6339.0977112203182
20
566.94997834480387
10
6337.4303648992318
20
609.81351109598995
42
0.33945425886313513
10
6333.5395351827538
20
614.49544358826358
10
6325.1653243189357
20
616.39377246451306
10
5237.3514905732291
20
676.95634096304298
10
5236.9623775833907
20
669.96716425321983
0
ENDSEC
0
SECTION
2
OBJECTS
0
DICTIONARY
5
C
100
AcDbDictionary
3
ACAD_GROUP
350
D
3
ACAD_MLINESTYLE
350
17
0
DICTIONARY
5
D
100
AcDbDictionary
0
DICTIONARY
5
1A
330
C
100
AcDbDictionary
0
DICTIONARY
5
17
100
AcDbDictionary
0
ENDSEC
0
EOF
