0
SECTION
2
HEADER
9
$INSUNITS
70
4
9
$ACADVER
1
AC1014
9
$HANDSEED
5
FFFF
0
ENDSEC
0
SECTION
2
TABLES
0
TABLE
2
VPORT
5
8
100
AcDbSymbolTable
0
ENDTAB
0
TABLE
2
LTYPE
5
5
100
AcDbSymbolTable
0
LTYPE
5
14
100
AcDbSymbolTableRecord
100
AcDbLinetypeTableRecord
2
BYBLOCK
70
0
0
LTYPE
5
15
100
AcDbSymbolTableRecord
100
AcDbLinetypeTableRecord
2
BYLAYER
70
0
0
ENDTAB
0
TABLE
2
LAYER
5
2
100
AcDbSymbolTable
70
2
0
LAYER
5
50
100
AcDbSymbolTableRecord
100
AcDbLayerTableRecord
2
0
70
0
6
CONTINUOUS
0
ENDTAB
0
TABLE
2
STYLE
5
3
100
AcDbSymbolTable
70
1
0
STYLE
5
11
100
AcDbSymbolTableRecord
100
AcDbTextStyleTableRecord
2
STANDARD
70
0
0
ENDTAB
0
TABLE
2
VIEW
5
6
100
AcDbSymbolTable
70
0
0
ENDTAB
0
TABLE
2
UCS
5
7
100
AcDbSymbolTable
70
0
0
ENDTAB
0
TABLE
2
APPID
5
9
100
AcDbSymbolTable
70
2
0
APPID
5
12
100
AcDbSymbolTableRecord
100
AcDbRegAppTableRecord
2
ACAD
70
0
0
ENDTAB
0
TABLE
2
DIMSTYLE
5
A
100
AcDbSymbolTable
70
1
0
ENDTAB
0
TABLE
2
BLOCK_RECORD
5
1
100
AcDbSymbolTable
70
1
0
BLOCK_RECORD
5
1F
100
AcDbSymbolTableRecord
100
AcDbBlockTableRecord
2
*MODEL_SPACE
0
BLOCK_RECORD
5
1B
100
AcDbSymbolTableRecord
100
AcDbBlockTableRecord
2
*PAPER_SPACE
0
ENDTAB
0
ENDSEC
0
SECTION
2
BLOCKS
0
BLOCK
5
20
100
AcDbEntity
100
AcDbBlockBegin
2
*MODEL_SPACE
0
ENDBLK
5
21
100
AcDbEntity
100
AcDbBlockEnd
0
BLOCK
5
1C
100
AcDbEntity
100
AcDbBlockBegin
2
*PAPER_SPACE
0
ENDBLK
5
1D
100
AcDbEntity
100
AcDbBlockEnd
0
ENDSEC
0
SECTION
2
ENTITIES
0
LWPOLYLINE
5
100
100
AcDbEntity
8
0
100
AcDbPolyline
90
53
70
1
43
0.0
10
5736.4181466341834
20
2987.7072029022302
10
5752.5182509507877
20
2987.9238351710042
42
0.33945425886341868
10
5758.2534497442048
20
2992.4484924566564
10
5867.1025216361977
20
3421.6985764064075
42
0.2597432684577517
10
5865.601717668188
20
3427.3422780159849
10
5658.8944736269523
20
3641.2994475276346
10
5683.3468149255459
20
3664.9232287109476
42
0.41421353912831893
10
5683.493032141354
20
3673.4072498572955
10
5575.2409112847317
20
3785.4561404491274
42
-0.25003641175502628
10
5573.6902150914684
20
3790.8868688802595
10
5577.0129137115073
20
3806.3330005045623
42
0.41421356237312212
10
5572.4089244721708
20
3813.4606426872251
10
5539.169302109839
20
3820.6109926933182
10
5668.4623892919799
20
4421.6519750691778
42
-0.23542209616866172
10
5671.8048460065856
20
4425.8337374298308
10
6135.92441123958
20
4640.9749459980312
42
0.31529878887900609
10
6139.3793921051156
20
4646.9278996262174
10
6137.929204195394
20
4663.9485423134865
10
6141.5721980896569
20
4647.2592068579452
42
0.31529878887895618
10
6146.6316569726641
20
4642.5926850813221
10
6324.5747155004437
20
4618.5766435646938
42
0.33945425886339292
10
6330.9130033210886
20
4622.2086039520436
10
6337.123183946449
20
4637.0643753943423
10
6344.9035593027156
20
4637.8441373596897
42
0.33945425886333802
10
6350.2267527590011
20
4642.8470005578574
10
6389.9413756927333
20
4885.9861308072559
42
0.33945425886337355
10
6386.4867247714828
20
4892.4227771207425
10
6379.3588410793027
20
4895.6376711279809
10
6378.0495782207945
20
4903.3466334559689
42
0.33945425886335306
10
6372.6948736444501
20
4908.3157548725476
10
6182.5390889462942
20
4926.1603932057087
10
5547.5519400235662
20
5006.03596743661
42
0.33945425886334518
10
5541.2466717696052
20
5002.3469809906846
10
5538.2960397729839
20
4995.1057076062907
10
5538.2168010881396
20
5002.9246583439435
42
0.33945425886337194
10
5533.7112134986655
20
5008.6748504473608
10
5129.672167425515
20
5112.5600857612162
42
0.41421356237307505
10
5122.3670690115205
20
5108.2431960056319
10
5120.8729646823167
20
5102.432201920843
10
5105.3200504117212
20
5098.2648111020844
42
0.33945425886336772
10
5100.8729646823376
20
5092.4692561443508
10
5100.8729646823376
20
3039.1201476973315
42
0.33945425886332947
10
5105.3200504117231
20
3033.3245927395974
10
5120.8729646823167
20
3029.1572019208411
10
5116.5119088079382
20
2980.3516572393137
42
0.4142135623730373
10
5121.9540911108552
20
2973.8414612528754
10
5693.3675520995512
20
2922.7823849326496
42
0.38887873185301192
10
5699.8084651191057
20
2927.7057400891154
10
5708.5315639088694
20
2976.6465291476989
10
5715.0670943227205
20
2963.6151488759133
42
0.38887873185298327
10
5722.6425219981238
20
2960.7276444071922
10
5737.0547535509731
20
2966.4439773423182
42
0.38887873185300742
10
5740.5915122191109
20
2973.7389156316749
0
LWPOLYLINE
5
101
100
AcDbEntity
8
0
100
AcDbPolyline
90
53
70
1
43
0.0
10
6358.9826351714692
20
896.82212061228938
42
0.33945425886332703
10
6364.3373397478135
20
901.79124202886726
10
6365.6466026063217
20
909.50020435685565
10
6372.7744862985028
20
912.71509836409336
42
0.3394542588633328
10
6376.2291372197515
20
919.15174467758004
10
6336.5145142860192
20
1162.2908749269782
42
0.33945425886332031
10
6331.1913208297356
20
1167.2937381251465
10
6323.4109454734689
20
1168.0735000904947
10
6317.2007648481076
20
1182.9292715327927
42
0.33945425886338071
10
6310.8624770274628
20
1186.561231920143
10
6132.919418499685
20
1162.5451904035142
42
0.3152987888789735
10
6127.8599596166769
20
1157.8786686268907
10
6124.2169657224131
20
1141.18933317135
10
6125.6671536321355
20
1158.2099758586191
42
0.31529878887894142
10
6122.2121727665999
20
1164.1629294868053
10
5658.0926075336047
20
1379.304138055006
42
-0.23542209616860596
10
5654.7501508189989
20
1383.485900415659
10
5525.4570636368589
20
1984.5268827915186
10
5558.6966859991917
20
1991.6772327976119
42
0.41421356237317353
10
5563.300675238529
20
1998.8048749802742
10
5559.9779766184911
20
2014.251006604577
42
-0.25003641175525748
10
5561.5286728117553
20
2019.6817350357092
10
5669.7807936683739
20
2131.7306256275406
42
0.41421353912835845
10
5669.6345764525668
20
2140.2146467738894
10
5645.1822351539722
20
2163.8384279572024
10
5851.889479195208
20
2377.7955974688512
42
0.25974326845771645
10
5853.3902831632176
20
2383.4392990784286
10
5744.5412112712238
20
2812.6893830281797
42
0.33945425886343167
10
5738.8060124778058
20
2817.2140403138319
10
5722.7059081612015
20
2817.430672582605
10
5726.8792737461281
20
2831.3989598531607
42
0.38887873185300786
10
5723.3425150779894
20
2838.6938981425174
10
5708.9302835251419
20
2844.4102310776448
42
0.38887873185301391
10
5701.3548558497369
20
2841.5227266089223
10
5694.8193254358875
20
2828.4913463371372
10
5686.0962266461229
20
2877.4321353957207
42
0.38887873185298505
10
5679.6553136265675
20
2882.355490552186
10
5108.2418526378742
20
2831.2964142319602
42
0.4142135623730373
10
5102.7996703349581
20
2824.7862182455224
10
5107.1607262093366
20
2775.9806735639945
10
5091.6078119387421
20
2771.8132827452387
42
0.3394542588633363
10
5087.1607262093567
20
2766.0177277875036
10
5087.1607262093576
20
712.66861934048563
42
0.33945425886334396
10
5091.6078119387403
20
706.87306438275175
10
5107.1607262093366
20
702.70567356399374
10
5108.6548305385422
20
696.89467947920491
42
0.41421356237305951
10
5115.9599289525349
20
692.57778972362064
10
5519.9989750256864
20
796.46302503747597
42
0.33945425886331138
10
5524.5045626151605
20
802.21321714089231
10
5524.5838013000039
20
810.03216787854512
10
5527.5344332966251
20
802.7908944941521
42
0.3394542588633721
10
5533.8397015505861
20
799.10190804822651
10
6168.8268504733142
20
878.97748227912757
0
LWPOLYLINE
5
102
100
AcDbEntity
8
0
100
AcDbPolyline
90
30
70
1
43
0.0
10
6062.443544818163
20
3180.4624799090793
10
6053.1328886524179
20
3179.5629722680992
42
0.33945425886337277
10
6049.572187439142
20
3176.2404434982491
10
5768.7954972205489
20
1495.0955561367632
42
0.33945425886331837
10
5771.0832362800184
20
1490.7962491516216
10
5779.5962548659481
20
1486.9199175367339
10
5781.5911273709517
20
1477.7811038324446
42
0.33945425886336228
10
5785.3116352870638
20
1474.6385552802556
10
5848.6725354164464
20
1471.6657128096363
42
0.3394542588633005
10
5852.6709425295167
20
1474.4460960772572
10
5855.5127391150181
20
1483.3579771581271
10
5864.8140036728473
20
1484.3498994626407
42
0.3394542588634526
10
5868.3415351047788
20
1487.7076237743538
10
6133.242524952766
20
3176.8674443824111
42
0.35047375686194626
10
6130.7669474241775
20
3181.2048348274093
10
6122.3030932364254
20
3184.5654621368931
10
6130.2434155641113
20
3189.0243773589182
42
0.35047375686198895
10
6132.1186986709872
20
3193.6530654280682
10
5784.7470595183659
20
4360.8643458439556
42
0.33945425886348168
10
5780.8034070497451
20
4363.7218615068141
10
5771.4529277394922
20
4363.4650173877944
10
5768.1331347631076
20
4372.2100963941202
42
0.33945425886337954
10
5763.9901570648826
20
4374.7700820090658
10
5706.8523113260489
20
4368.9786400338844
42
0.33945425886339403
10
5703.3072735739097
20
4365.639403909765
10
5701.8097591236001
20
4356.406046843993
10
5693.8813995108139
20
4351.442323837693
42
0.33945425886335484
10
5692.179801174515
20
4346.879172113433
10
6049.1282624368123
20
3182.9525978455995
42
0.3394542588633932
10
6053.0955224800027
20
3180.1279494946675
0
LWPOLYLINE
5
103
100
AcDbEntity
8
0
100
AcDbPolyline
90
30
70
1
43
0.0
10
6389.968393609056
20
2799.0457761617245
10
6397.8821692258362
20
2803.5516389106297
42
0.35047375686207616
10
6399.7300065257868
20
2808.1913519712971
10
5902.3214046501189
20
4444.0452931161608
42
0.33945425886335656
10
5898.3608980069666
20
4446.8794027975709
10
5889.0121038133984
20
4446.5671859510403
10
5884.9576692715073
20
4454.9968355747469
42
0.33945425886334013
10
5880.6112198203928
20
4457.193689626708
10
5818.2806833208433
20
4445.4316457040277
42
0.33945425886326963
10
5815.0337413589432
20
4441.8018855944947
10
5814.3301598583494
20
4432.4743776044161
10
5806.4394704752931
20
4427.4509869872054
42
0.33945425886331976
10
5804.7723434201889
20
4422.8751288230078
10
6316.7866813278615
20
2797.1675905958091
42
0.33945425886340069
10
6320.7751366736275
20
2794.3729502769947
10
6330.1203694413307
20
2794.7779894731038
10
6320.8167637788283
20
2793.8082710038721
42
0.33945425886339847
10
6317.2812279077825
20
2790.4589760539943
10
6125.7938351639723
20
1588.1820309599989
42
0.33945425886339486
10
6128.1139416378492
20
1583.9001042316911
10
6136.6559597229852
20
1580.0881022293129
10
6139.4239354007204
20
1571.1530172895712
42
0.33945425886334346
10
6143.3992049353783
20
1568.3396522788532
10
6200.7870020259452
20
1570.5566233925128
42
0.33945425886338593
10
6204.5333794135613
20
1573.6682864569007
10
6206.6037846294557
20
1582.790284838557
10
6215.8990115103361
20
1583.8372755099192
42
0.33945425886331237
10
6219.4065953083809
20
1587.2158323699423
10
6400.9532241765928
20
2791.4126810472112
42
0.35047375686198012
10
6398.4520023240439
20
2795.7353340770933
0
ENDSEC
0
SECTION
2
OBJECTS
0
DICTIONARY
5
C
100
AcDbDictionary
3
ACAD_GROUP
350
D
3
ACAD_MLINESTYLE
350
17
0
DICTIONARY
5
D
100
AcDbDictionary
0
DICTIONARY
5
1A
330
C
100
AcDbDictionary
0
DICTIONARY
5
17
100
AcDbDictionary
0
ENDSEC
0
EOF
