0
SECTION
2
HEADER
9
$INSUNITS
70
4
9
$ACADVER
1
AC1014
9
$HANDSEED
5
FFFF
0
ENDSEC
0
SECTION
2
TABLES
0
TABLE
2
VPORT
5
8
100
AcDbSymbolTable
0
ENDTAB
0
TABLE
2
LTYPE
5
5
100
AcDbSymbolTable
0
LTYPE
5
14
100
AcDbSymbolTableRecord
100
AcDbLinetypeTableRecord
2
BYBLOCK
70
0
0
LTYPE
5
15
100
AcDbSymbolTableRecord
100
AcDbLinetypeTableRecord
2
BYLAYER
70
0
0
ENDTAB
0
TABLE
2
LAYER
5
2
100
AcDbSymbolTable
70
2
0
LAYER
5
50
100
AcDbSymbolTableRecord
100
AcDbLayerTableRecord
2
0
70
0
6
CONTINUOUS
0
ENDTAB
0
TABLE
2
STYLE
5
3
100
AcDbSymbolTable
70
1
0
STYLE
5
11
100
AcDbSymbolTableRecord
100
AcDbTextStyleTableRecord
2
STANDARD
70
0
0
ENDTAB
0
TABLE
2
VIEW
5
6
100
AcDbSymbolTable
70
0
0
ENDTAB
0
TABLE
2
UCS
5
7
100
AcDbSymbolTable
70
0
0
ENDTAB
0
TABLE
2
APPID
5
9
100
AcDbSymbolTable
70
2
0
APPID
5
12
100
AcDbSymbolTableRecord
100
AcDbRegAppTableRecord
2
ACAD
70
0
0
ENDTAB
0
TABLE
2
DIMSTYLE
5
A
100
AcDbSymbolTable
70
1
0
ENDTAB
0
TABLE
2
BLOCK_RECORD
5
1
100
AcDbSymbolTable
70
1
0
BLOCK_RECORD
5
1F
100
AcDbSymbolTableRecord
100
AcDbBlockTableRecord
2
*MODEL_SPACE
0
BLOCK_RECORD
5
1B
100
AcDbSymbolTableRecord
100
AcDbBlockTableRecord
2
*PAPER_SPACE
0
ENDTAB
0
ENDSEC
0
SECTION
2
BLOCKS
0
BLOCK
5
20
100
AcDbEntity
100
AcDbBlockBegin
2
*MODEL_SPACE
0
ENDBLK
5
21
100
AcDbEntity
100
AcDbBlockEnd
0
BLOCK
5
1C
100
AcDbEntity
100
AcDbBlockBegin
2
*PAPER_SPACE
0
ENDBLK
5
1D
100
AcDbEntity
100
AcDbBlockEnd
0
ENDSEC
0
SECTION
2
ENTITIES
0
LWPOLYLINE
5
100
100
AcDbEntity
8
0
100
AcDbPolyline
90
126
70
1
43
0.0
10
6350.0225416663779
20
-3986.7856554297919
10
6340.9984222705152
20
-3989.2479107677423
42
0.33945425888672892
10
6338.051384150177
20
-3993.1251207022938
10
6338.0516512192835
20
-3993.1835675839397
42
0.19891236735459664
10
6339.2361360364885
20
-3996.006611812722
10
6350.1139293672095
20
-4006.785446635904
10
6336.3168026107323
20
-4000.1409781694947
42
0.19891236738648232
10
6333.2601526426615
20
-3999.9692983066088
10
6270.6398054864176
20
-4021.880599277416
42
0.41421356237313434
10
6268.1853517083027
20
-4026.9772311702541
10
6270.8275298216495
20
-4034.5283168372716
10
6270.7606120266355
20
-4079.5073097985346
10
6290.7682473394689
20
-4079.5370762902735
42
-0.99999999999999989
10
6290.7459310147115
20
-4094.5370596896519
10
6270.7382957018763
20
-4094.507293197913
10
6270.6859539914403
20
-4129.6889279909128
10
6319.7046605078831
20
-4129.7618558956738
42
-0.99999999999999989
10
6319.6823441831257
20
-4144.7618392950526
10
6270.6636376666802
20
-4144.6889113902926
10
6270.6341216737273
20
-4164.5281729652233
10
6262.8511980312396
20
-4178.5076614957543
10
6296.0524832912952
20
-4196.9921051465763
42
-0.99999999999999989
10
6289.2424251041493
20
-4209.2241576108072
10
6256.0411398440938
20
-4190.7397139599843
10
6200.5878088914096
20
-4290.3435697400291
10
6226.7993498870273
20
-4304.9365515700338
42
-0.99999999999999989
10
6217.0706953339923
20
-4322.4109122332375
10
6190.8591543383764
20
-4307.8179304032337
10
6161.1867579513864
20
-4361.1147304258757
10
6183.0297087803719
20
-4373.2755486172055
42
-0.99999999999999989
10
6176.2196505932261
20
-4385.5076010814364
10
6154.3766997642415
20
-4373.3467828901048
10
6067.5484578778596
20
-4529.3054518088984
10
6085.0228188967867
20
-4539.0341065600651
42
-0.4142135623729139
10
6087.9274586880583
20
-4549.2352372661671
10
6079.7648708871129
20
-4568.5560262708423
42
-0.47915670680409189
10
6065.3222930710945
20
-4574.4196867049841
10
6047.8479324079381
20
-4564.6910321518653
10
6037.4891674408827
20
-4583.2971810359941
10
6003.1943098404317
20
-4584.0435113342992
10
6003.6294543361382
20
-4604.0389725244531
42
-0.41421395918352494
10
5995.3163894814516
20
-4612.7218953228739
10
5971.3218475663316
20
-4613.2440684720259
42
-0.41421356237309548
10
5962.6389250135107
20
-4604.9310151255322
10
5962.2037805178124
20
-4584.9355539353783
10
5891.219727181965
20
-4586.4803205099397
10
5891.6548716804227
20
-4606.4757818267526
42
-0.9999999925494194
10
5874.6588957749873
20
-4606.84565090658
10
5874.2237512792854
20
-4586.850189716396
10
5686.7662195668327
20
-4590.9296711708575
10
5687.3101448711714
20
-4615.9237533768637
42
-0.41421356240829982
10
5677.5300821095379
20
-4626.1389563807807
10
5657.5344254932534
20
-4626.5741051275945
42
-0.040100447788267622
10
5655.9357128342999
20
-4626.4806352737924
10
5616.4024071877075
20
-4620.9676878437149
42
-0.41421356237307377
10
5607.719484635204
20
-4612.6546344975823
10
5607.2843443923866
20
-4592.659368733699
10
5492.3102764366422
20
-4595.1614531987925
42
-0.18229669277075825
10
5490.3161409114655
20
-4600.8190383154451
10
5477.4393161746048
20
-4616.1222204909409
42
-0.99999999999999989
10
5464.4316113246896
20
-4605.1769194640101
10
5477.3084360615439
20
-4589.8737372885244
42
-0.060580859696044771
10
5478.8096365875008
20
-4588.4744540140673
10
5434.9628640638202
20
-4528.2439755237101
42
0.41421356237331375
10
5393.0525616417626
20
-4521.6465100337227
10
5389.0102476489574
20
-4524.5892464448398
42
-0.41421356237264212
10
5368.0550964379363
20
-4521.2905136998588
10
5362.1696236158723
20
-4513.2058857144702
42
-0.12902579585744658
10
5359.3973608289234
20
-4506.11367687655
10
5356.7888633771909
20
-4483.7262754856265
42
-0.41421356237420037
10
5358.3282719915715
20
-4473.9472049202041
10
5380.8929307138424
20
-4457.5205139346581
42
0.094132466563884895
10
5376.1081358432166
20
-4447.3976956705865
10
5364.6314638400609
20
-4431.6326710983831
10
5340.3775798840115
20
-4449.2890895645533
42
-0.99999999999999989
10
5325.663897829847
20
-4429.0775196023706
10
5349.9177817857981
20
-4411.4211011362349
10
5297.537073669333
20
-4339.4679120663277
10
5269.2408757206613
20
-4360.0670669433994
42
-0.49218230205432906
10
5256.3151683596288
20
-4356.2733131604655
10
5249.637658383077
20
-4339.085792672834
42
-0.41421356237312962
10
5251.50694027188
20
-4327.211206986628
10
5275.7608242278739
20
-4309.5547885205515
10
5268.9925304825611
20
-4300.2574663374598
10
5266.3561956230533
20
-4291.2826587622922
42
0.33945425888946557
10
5262.4227108023861
20
-4288.4111630326797
10
5202.0093832967086
20
-4289.8560491547451
42
0.33945425884342567
10
5198.2176706266291
20
-4292.912305947304
10
5196.0133998034853
20
-4302.0028847188341
10
5187.0242812695906
20
-4304.5900029785917
42
0.33945425887582109
10
5184.1312753060856
20
-4308.5076945250521
10
5191.2722398229998
20
-4695.8724827151691
42
0.33945425885095754
10
5194.3076742260346
20
-4699.6808850757679
10
5203.3860383296005
20
-4701.9349341986572
10
5202.3384290046442
20
-4711.230091375186
42
0.33945425886355618
10
5204.8517822931981
20
-4715.4015234798298
10
5627.8640695694094
20
-4881.4369961741768
42
0.33945425886313535
10
5632.5438672700402
20
-4880.08892939621
10
5638.0987021411556
20
-4872.5628918195061
10
5657.8805867262181
20
-4800.2187348870793
10
5688.4538386140666
20
-4811.5645951502047
10
6430.270733483243
20
-4880.3591769619388
10
6439.2409818478518
20
-4877.7072987274287
42
0.33945425886356223
10
6442.1056617116137
20
-4873.7688472760474
10
6440.8894940691534
20
-4826.3538487969263
42
0.33945425886348524
10
6437.8266758035425
20
-4822.5674342886396
10
6428.7322737242721
20
-4820.378904025165
10
6435.8523668925791
20
-4814.3124630803977
42
0.3394542588877893
10
6436.8706049937264
20
-4809.5500076497601
10
6402.7402817911097
20
-4737.7737899668264
42
0.26794919240756837
10
6399.4464855240331
20
-4735.5042291836426
10
6387.9361660271861
20
-4734.5845126282902
10
6397.7249576436916
20
-4728.4597357327348
42
0.2679491924317195
10
6399.6007526518442
20
-4724.9268342215883
10
6379.8152244153625
20
-4167.8003530642427
42
0.3394542588627279
10
6376.7152411012185
20
-4164.044305406308
10
6367.5997333213854
20
-4161.9455081020515
10
6376.6739556340735
20
-4159.6748426422901
42
0.33945425886497665
10
6379.7024127598206
20
-4155.8608895756661
10
6382.3823444087011
20
-3994.4525325864161
42
0.33945425886178054
10
6379.4821710228352
20
-3990.5401439441075
10
6370.4883312524562
20
-3987.9694867599487
10
6368.5931444068001
20
-3978.8094813521966
42
0.33945425885473252
10
6364.9070953375885
20
-3975.626584430348
10
6356.9897264569754
20
-3975.1686089731061
42
0.33945425887215563
10
6352.9612644172867
20
-3977.905264624168
0
LWPOLYLINE
5
101
100
AcDbEntity
8
0
100
AcDbPolyline
90
126
70
1
43
0.0
10
6482.1407499253191
20
-3790.2620978629166
42
0.3394542588509013
10
6483.6502262954418
20
-3785.6318417530047
10
6354.6809610986556
20
-3420.2971990780911
42
0.33945425887585567
10
6350.5991583722416
20
-3417.640758402913
10
6341.2732731249271
20
-3418.36553234029
10
6336.025006161608
20
-3410.6225919333865
42
0.33945425884366853
10
6331.4030906661428
20
-3409.087766957271
10
6274.3095971465937
20
-3428.891575529035
42
0.33945425888944775
10
6271.6308303080086
20
-3432.9587611387788
10
6272.3044926217681
20
-3442.2884777255645
10
6269.2208109563353
20
-3453.3673272770911
10
6298.1221574905785
20
-3461.4117141964334
42
-0.41421356673747456
10
6304.0316295284156
20
-3471.8796720863998
10
6303.7961881802676
20
-3490.3172578115218
42
-0.49218230205451396
10
6293.0176381462888
20
-3498.3974395986847
10
6259.2994003806598
20
-3489.0123214865207
10
6235.4343857522526
20
-3574.7529832340138
10
6264.33573240859
20
-3582.7973701874157
42
-0.99999999999999989
10
6257.6320766144199
20
-3606.8818257328612
10
6228.73072995846
20
-3598.8374387795948
10
6223.5018784386293
20
-3617.6233141069201
42
0.094132466563955533
10
6222.5651798272847
20
-3628.7807469331965
10
6249.4536165450963
20
-3636.2648615006074
42
-0.41421356237432794
10
6254.3202404759286
20
-3644.8855326763824
10
6259.7171666715085
20
-3666.7687040103974
42
-0.1290257958570967
10
6259.6042091021582
20
-3674.3826456800016
10
6256.9227467843575
20
-3684.0164278988195
42
-0.41421356237267393
10
6238.4498799796111
20
-3694.4449077503041
10
6233.6329888700602
20
-3693.1041765913833
42
0.41421356237330625
10
6196.6872552605264
20
-3713.9611362944024
10
6176.7103609934074
20
-3785.7328138236417
42
-0.060580859695929218
10
6178.6065331077398
20
-3786.5177520467619
10
6196.0271840792111
20
-3796.342258127499
42
-0.99999999999999989
10
6187.6763539100548
20
-3811.1498114540932
10
6170.2557029386098
20
-3801.3253053733179
42
-0.18229669277055544
10
6166.4065235826283
20
-3796.7243637163965
10
6057.8372631955081
20
-3834.6454980343005
10
6064.4321690506376
20
-3853.5268965973246
42
-0.41421356673750437
10
6059.2104096586918
20
-3864.3543261627492
10
6024.1113365929887
20
-3883.3630061443268
42
-0.040100447788865332
10
6022.6466007394729
20
-3884.0104377305952
10
6003.7648329781541
20
-3890.6054725414115
42
-0.41421356240837925
10
5991.0266806871923
20
-3884.4622261484205
10
5982.7830483164407
20
-3860.8604777938167
10
5805.7681271791807
20
-3922.6883522472726
10
5812.3630975739979
20
-3941.5699355891752
42
-0.9999999925494194
10
5796.3139086488663
20
-3947.1756054831085
10
5789.7189382958086
20
-3928.2940222607704
10
5722.6891609992535
20
-3951.7062218014007
10
5729.2841313522931
20
-3970.5878050237247
42
-0.41421356237299528
10
5724.062371918425
20
-3981.4152344700133
10
5701.4044720499933
20
-3989.3291988891224
42
-0.41421356237406048
10
5690.5770426099371
20
-3984.1074394581842
10
5683.9820722568929
20
-3965.2258562358661
10
5651.5976625289877
20
-3976.5371016723657
10
5635.3788847933538
20
-3962.7369554157813
10
5622.4181837695032
20
-3977.96916566152
42
-0.47915670680399358
10
5606.8367256229512
20
-3977.5347353612501
10
5592.4247737163114
20
-3962.2960881243011
42
-0.41421356237311446
10
5591.5729577581114
20
-3951.7237463982046
10
5604.5336590458419
20
-3936.491535842365
10
5468.586182602774
20
-3820.8172792043242
10
5452.3853063228989
20
-3839.8575420114526
42
-0.99999999999999989
10
5441.722759150909
20
-3830.7850512947243
10
5457.9236354307695
20
-3811.7447884876156
10
5411.4653941813194
20
-3772.2146503648128
10
5392.0243426448078
20
-3795.0629657340619
42
-0.99999999999999989
10
5376.7921323991332
20
-3782.1022647101381
10
5396.2331839356202
20
-3759.2539493409149
10
5309.4095855349851
20
-3685.3779535048848
10
5284.7842535895734
20
-3714.3191529717228
42
-0.99999999999999989
10
5274.1217064175835
20
-3705.2466622549946
10
5298.7470383629807
20
-3676.3054627881752
10
5286.5612701664031
20
-3665.9369019690803
10
5279.5857675143889
20
-3647.3643541152151
10
5233.6968481100921
20
-3664.5993765528456
42
-0.99999998946328783
10
5228.4228402720464
20
-3650.5571245495416
10
5274.3117595283866
20
-3633.3221021674817
10
5261.9418643146
20
-3600.3867737379283
10
5243.2116933375219
20
-3607.4214766954437
42
-1.0000000105367122
10
5237.9376852035639
20
-3593.3792248032814
10
5256.6678563285986
20
-3586.3445217901963
10
5240.8532009543933
20
-3544.2373850887316
10
5240.683609775092
20
-3536.2391828679079
42
0.41421356237305257
10
5236.5997130729029
20
-3532.3248773451069
10
5170.2714760775962
20
-3533.7312788866475
42
0.19891236738652743
10
5167.4685206154318
20
-3534.9625480204113
10
5156.8720775925867
20
-3546.0180924755268
10
5163.2861765694088
20
-3532.1123741479164
42
0.19891236735467122
10
5163.4069996297321
20
-3529.0532918038216
10
5163.3867812565722
20
-3528.9984527056649
42
0.3394542588866804
10
5159.2685450708259
20
-3526.3988524906881
10
5149.9536034063658
20
-3527.2528396145981
10
5144.0910051250812
20
-3519.9639869161565
42
0.3394542588721019
10
5139.3592597580955
20
-3518.81143481768
10
5132.1036669011664
20
-3522.013128713982
42
0.3394542588548769
10
5129.7657212456479
20
-3526.2853413336452
10
5131.1984539400655
20
-3535.528972074665
10
5123.6744374731734
20
-3541.0865442406107
42
0.33945425886175662
10
5122.3280730995266
20
-3545.7668320020543
10
5181.3646885587195
20
-3696.0150192614537
42
0.33945425886493596
10
5185.537034640447
20
-3698.5268549907933
10
5194.8318101241784
20
-3697.4758645449469
10
5187.02858180365
20
-3702.6340677191388
42
0.33945425886269232
10
5185.4403092603261
20
-3707.237890140213
10
5362.0175612080438
20
-4236.0118089646512
42
0.2679491924317069
10
5365.0118144113749
20
-4238.664062299913
10
5376.3256453622953
20
-4240.972863405621
10
5365.8663407265867
20
-4245.8653351734611
42
0.2679491924074639
10
5363.5759503046556
20
-4249.1446814059718
10
5356.7435869821547
20
-4328.3281594693435
42
0.33945425888785952
10
5359.3651893382612
20
-4332.4324245248554
10
5368.1588949907027
20
-4335.6211818627398
10
5360.4068609375872
20
-4340.8560440321689
42
0.33945425886331204
10
5358.8640345567765
20
-4345.4752947631187
10
5374.3299665984141
20
-4390.3135160770044
42
0.33945425886354313
10
5378.3925073269056
20
-4392.9993219869848
10
5387.7233968326127
20
-4392.3418153895072
10
6058.4702814300454
20
-4068.1140917093176
10
6083.133992197394
20
-4046.7797614575197
10
6126.9985910878722
20
-4107.614759313833
10
6134.8373243385122
20
-4112.7188452336268
42
0.33945425886307484
10
6139.6928636320763
20
-4112.3426421962367
10
6477.7698607455923
20
-3808.6798071271505
42
0.33945425886360225
10
6478.6631825592658
20
-3803.8923478120273
10
6474.4266833861948
20
-3795.5527131083572
0
LWPOLYLINE
5
102
100
AcDbEntity
8
0
100
AcDbPolyline
90
50
70
1
43
0.0
10
6115.0772261369548
20
-3209.2678304429387
10
6123.3968304541986
20
-3207.1429200641242
42
0.33945425886335456
10
6127.1591566117067
20
-3202.3571129608863
10
6134.210779108831
20
-2601.5025409154505
42
0.3394542588633358
10
6130.5618060916277
20
-2596.6297548884854
10
6122.2943622140519
20
-2594.3101790986816
10
6130.5787989961354
20
-2592.052045507161
42
0.33945425886336794
10
6134.2638474686464
20
-2587.2064840845674
10
6133.5184454309137
20
-2414.3121414068701
42
0.33945425886339098
10
6129.7917532367719
20
-2409.4985343357639
10
6121.4881537316805
20
-2407.3119170001191
10
6119.2657576140582
20
-2399.0178217746061
42
0.3394542588634028
10
6114.4361284826127
20
-2395.3119170001182
10
5150.0401789807484
20
-2395.3119170001169
42
0.33945425886338754
10
5145.2105498493029
20
-2399.0178217746043
10
5142.9881537316805
20
-2407.3119170001164
10
5134.5458499103715
20
-2408.8798986014772
42
0.33945425886330005
10
5130.4741470957124
20
-2413.4054133715299
10
5115.958803022455
20
-2598.7337944350747
42
0.33945425886336683
10
5119.2762803816695
20
-2603.838046752111
10
5127.3715207580699
20
-2606.7012867633207
10
5118.985393851759
20
-2608.5462625422228
42
0.33945425886336295
10
5115.0648353475181
20
-2613.2033290824065
10
5086.3934186600081
20
-3246.4505356771133
42
0.33945425886337244
10
5089.877084297581
20
-3251.4428419047463
10
5098.0621711272579
20
-3254.0381094640065
10
5089.961454492206
20
-3256.8858190896685
42
0.3394542588633469
10
5086.6341942558083
20
-3261.9836997340303
10
5092.7199540761521
20
-3341.6475326459195
42
0.33945425886336067
10
5096.782970332687
20
-3346.1808478394605
10
5105.2222515403337
20
-3347.7650172785625
10
5098.9470219959931
20
-3353.626122488276
42
0.33945425886340658
10
5097.9470622434055
20
-3359.6310478198752
10
5113.8840984700719
20
-3389.5467003941176
42
0.3394542588633791
10
5119.4256023044954
20
-3392.0667763846277
10
5127.7906631093283
20
-3390.128525150933
10
5133.7845047981145
20
-3389.8567498581383
10
5134.1015759730417
20
-3396.8495651617222
10
6074.135747497613
20
-3354.2261400751258
10
6074.2226030727852
20
-3347.2266789452206
10
6080.2221411841319
20
-3347.3011265810819
10
6088.4578629935568
20
-3344.8713228047945
42
0.33945425886337027
10
6092.0414207051326
20
-3339.9502292400798
10
6091.190936656747
20
-3306.0649511754655
42
0.33945425886344743
10
6087.3650182739821
20
-3301.3298274945773
10
6079.0177720803767
20
-3299.316238386341
10
6087.5436325039564
20
-3300.3364168761732
42
0.33945425886340608
10
6092.7793501813594
20
-3297.2305662443168
10
6123.5956664961941
20
-3220.2754293618482
42
0.33945425886341524
10
6121.9507486079792
20
-3214.4142611433176
0
LWPOLYLINE
5
103
100
AcDbEntity
8
0
100
AcDbPolyline
90
46
70
1
43
0.0
10
6477.8208575005901
20
-2968.8949486999418
10
6486.2693491399496
20
-2966.3377782322182
42
0.33052527115355729
10
6489.8208575005892
20
-2961.5521881985123
10
6489.8208575005901
20
-2362.0264685323395
42
0.38887873185305472
10
6485.256636214327
20
-2357.0454950418807
10
6477.8208575005901
20
-2356.3949486999418
10
6485.256636214327
20
-2355.7444023580024
42
0.38887873185298955
10
6489.8208575005892
20
-2350.763428867544
10
6489.8208575005883
20
-1751.2377092013712
42
0.33052527115342084
10
6486.2693491399496
20
-1746.4521191676661
10
6477.8208575005883
20
-1743.894948699942
10
6486.4160511177979
20
-1741.8852774671202
42
0.33052527115343888
10
6490.2673782378642
20
-1737.337490860361
10
6514.308745804482
20
-1363.5190004732931
42
0.21206288518447353
10
6512.9028804478921
20
-1359.7115259606383
10
6493.4413117180384
20
-1339.7071017893691
42
0.21206288518449026
10
6489.6739457756075
20
-1338.1970443662274
10
6196.1484908120465
20
-1348.9790269330977
42
0.19721091139847974
10
6192.6914640424957
20
-1350.5483731108798
10
6172.0854128074225
20
-1372.4367545533162
42
0.19721091139838753
10
6170.7273737978194
20
-1375.9821193525297
10
6178.4884034273382
20
-1704.5226347132811
42
0.33616506078608677
10
6182.2500365556962
20
-1709.249128136159
10
6190.6540941034291
20
-1711.3949486999422
10
6182.3030564902747
20
-1713.7386423536227
42
0.33616506078366792
10
6178.65409410343
20
-1718.5526528820528
10
6178.6540941034309
20
-2350.7634288675445
42
0.38887873185299093
10
6183.2183153896931
20
-2355.7444023580033
10
6190.65409410343
20
-2356.3949486999427
10
6183.2183153896931
20
-2357.0454950418821
42
0.38887873185305188
10
6178.6540941034309
20
-2362.02646853234
10
6178.6540941034291
20
-2994.2372445178316
42
0.33616506078376046
10
6182.3030564902774
20
-2999.0512550462627
10
6190.6540941034291
20
-3001.3949486999422
10
6182.2500365556989
20
-3003.5407692637264
42
0.33616506078609065
10
6178.4884034273418
20
-3008.2672626866042
10
6170.7273737978194
20
-3336.8077780473568
42
0.19721091139843466
10
6172.0854128074243
20
-3340.3531428465703
10
6192.691464042502
20
-3362.2415242890088
42
0.19721091139834943
10
6196.1484908120528
20
-3363.8108704667911
10
6489.6739457756075
20
-3374.592853033656
42
0.21206288518447569
10
6493.4413117180356
20
-3373.0827956105149
10
6512.902880447893
20
-3353.0783714392464
42
0.21206288518452787
10
6514.3087458044829
20
-3349.2708969265923
10
6490.2673782378661
20
-2975.4524065395235
42
0.3305252711535322
10
6486.4160511177997
20
-2970.904619932764
0
LWPOLYLINE
5
104
100
AcDbEntity
8
0
100
AcDbPolyline
90
50
70
1
43
0.0
10
6079.0177720803767
20
-1428.1864406853449
10
6087.3650182739839
20
-1426.1728515771085
42
0.33945425886338215
10
6091.190936656747
20
-1421.4377278962204
10
6092.0414207051326
20
-1387.5524498316072
42
0.33945425886334113
10
6088.4578629935586
20
-1382.6313562668918
10
6080.2221411841319
20
-1380.2015524906046
10
6074.2226030727852
20
-1380.276000126466
10
6074.135747497613
20
-1373.2765389965598
10
5134.1015759730417
20
-1330.6531139099638
10
5133.7845047981145
20
-1337.6459292135478
10
5127.7906631093283
20
-1337.3741539207535
10
5119.4256023044945
20
-1335.4359026870584
42
0.33945425886331937
10
5113.8840984700719
20
-1337.9559786775681
10
5097.9470622434055
20
-1367.8716312518111
42
0.33945425886340658
10
5098.9470219959931
20
-1373.8765565834103
10
5105.2222515403337
20
-1379.7376617931238
10
5096.7829703326879
20
-1381.3218312322249
42
0.3394542588633977
10
5092.7199540761521
20
-1385.8551464257671
10
5086.6341942558074
20
-1465.5189793376562
42
0.33945425886333402
10
5089.961454492206
20
-1470.616859982018
10
5098.0621711272579
20
-1473.46456960768
10
5089.877084297581
20
-1476.0598371669394
42
0.33945425886336617
10
5086.3934186600081
20
-1481.0521433945728
10
5115.0648353475171
20
-2114.29934998928
42
0.33945425886342628
10
5118.9853938517599
20
-2118.9564165294637
10
5127.3715207580699
20
-2120.8013923083654
10
5119.2762803816695
20
-2123.6646323195755
42
0.33945425886333813
10
5115.958803022454
20
-2128.7688846366113
10
5130.4741470957115
20
-2314.0972657001562
42
0.33945425886335234
10
5134.5458499103715
20
-2318.6227804702094
10
5142.9881537316805
20
-2320.1907620715692
10
5145.2105498493029
20
-2328.4848572970814
42
0.3394542588634028
10
5150.0401789807484
20
-2332.1907620715692
10
6114.4361284826127
20
-2332.1907620715674
42
0.33945425886337216
10
6119.2657576140582
20
-2328.4848572970805
10
6121.4881537316805
20
-2320.1907620715679
10
6129.7917532367728
20
-2318.0041447359226
42
0.33945425886331765
10
6133.5184454309128
20
-2313.1905376648165
10
6134.2638474686455
20
-2140.2961949871187
42
0.33945425886336406
10
6130.5787989961354
20
-2135.4506335645256
10
6122.2943622140519
20
-2133.1924999730045
10
6130.5618060916267
20
-2130.8729241832011
42
0.33945425886336944
10
6134.210779108831
20
-2126.0001381562365
10
6127.1591566117067
20
-1525.1455661108
42
0.3394542588633585
10
6123.3968304541986
20
-1520.3597590075624
10
6115.0772261369548
20
-1518.2348486287474
10
6121.9507486079792
20
-1513.0884179283678
42
0.3394542588633816
10
6123.5956664961941
20
-1507.2272497098379
10
6092.7793501813594
20
-1430.2721128273688
42
0.33945425886338948
10
6087.5436325039564
20
-1427.1662621955127
0
LWPOLYLINE
5
105
100
AcDbEntity
8
0
100
AcDbPolyline
90
48
70
1
43
0.0
10
5244.0510951814858
20
-1220.0714918484068
10
5235.9001987196652
20
-1222.7722226721344
42
0.33945425886323927
10
5232.4812803024533
20
-1227.8090912034047
10
5234.45147322308
20
-1261.6477337956892
42
0.33945425886346642
10
5238.431833421032
20
-1266.2537928964232
10
5246.841082232444
20
-1267.9903396252002
10
5252.8318051265778
20
-1267.6568142053382
10
5253.2209181164162
20
-1274.6459909151613
10
6341.034751862122
20
-1214.0834224166315
10
6349.4089627259418
20
-1212.1850935403818
42
0.33945425886316682
10
6353.2997924424199
20
-1207.5031610481076
10
6354.9671387635044
20
-1164.6396282969226
42
0.33945425886366071
10
6351.4517600841455
20
-1159.6696020911936
10
6343.2503163013198
20
-1157.1264976908578
10
6351.705031093079
20
-1158.6261169438592
42
0.33945425886339137
10
6357.107653199957
20
-1155.8206362158651
10
6391.6836190236172
20
-1081.8677502359239
42
0.36397023426623309
10
6390.026247298063
20
-1075.6572180461685
10
6383.486174376184
20
-1071.0679378320026
10
6391.7528023728282
20
-1068.7454560390527
42
0.33945425886337044
10
6395.4000622978274
20
-1063.8713876373608
10
6388.6448699339735
20
-505.01626352582832
42
0.33945425886338915
10
6384.8808617167097
20
-500.23177923959219
10
6376.5605109715043
20
-498.10979347379117
10
6384.7312117187612
20
-495.46958336619099
42
0.33945425886336211
10
6388.1873891689884
20
-490.45820778882586
10
6380.0267879413923
20
-329.76934335289002
42
0.33945425886341823
10
6376.0806953933525
20
-325.13389285189368
10
6367.6845559257081
20
-323.33503150277579
10
6365.4264487657074
20
-315.05058751615536
42
0.33945425886331065
10
6360.5808991002923
20
-311.36552358389264
10
5288.6948966219052
20
-315.98334226842212
42
0.33945425886337577
10
5283.8812776608065
20
-319.71001910472262
10
5281.6946338325233
20
-328.01361163336537
10
5273.412438379587
20
-330.27995198570636
42
0.33945425886340758
10
5269.7321924927464
20
-335.12916202005982
10
5270.6462395464441
20
-507.52268835627291
42
0.3394542588633167
10
5274.377699029551
20
-512.33260081605829
10
5282.6834608670752
20
-514.51099022377832
10
5274.3747568168656
20
-516.67813053292605
42
0.33945425886337111
10
5270.6367874965217
20
-521.48298569255667
10
5266.6304897171576
20
-1123.3656018266624
42
0.33945425886336139
10
5270.3041657573085
20
-1128.2197909553317
10
5278.5832846918911
20
-1130.4973444191496
10
5270.0449439374324
20
-1129.5875107666761
42
0.33945425885574965
10
5264.8498300931979
20
-1132.7608118694709
10
5235.3910129230089
20
-1209.1749770207243
42
0.33945425886337105
10
5237.1115920083776
20
-1215.0143824147578
0
LWPOLYLINE
5
106
100
AcDbEntity
8
0
100
AcDbPolyline
90
48
70
1
43
0.0
10
5230.9716546892569
20
670.30068967308182
10
5222.5624058778449
20
668.56414294430465
42
0.33945425886343483
10
5218.5820456798938
20
663.95808384357122
10
5216.6118527592662
20
630.11944125128605
42
0.33945425886328778
10
5220.0307711764799
20
625.08257272001606
10
5228.1816676382996
20
622.38184189628851
10
5221.2421644651895
20
617.32473246263964
42
0.33945425886331343
10
5219.5215853798218
20
611.48532706860624
10
5248.9804025500125
20
535.07116191735236
42
0.339454258855719
10
5254.1755163942453
20
531.89786081455782
10
5262.7138571487048
20
532.80769446703107
10
5254.4347382141223
20
530.53014100321332
42
0.33945425886336639
10
5250.7610621739705
20
525.67595187454378
10
5254.7673599533346
20
-76.206664259561521
42
0.33945425886337532
10
5258.5053292736793
20
-81.011519419192282
10
5266.8140333238889
20
-83.178659728340207
10
5258.5082714863656
20
-85.357049136060184
42
0.33945425886338493
10
5254.776812003257
20
-90.166961595845677
10
5253.8627649495611
20
-262.56048793205815
42
0.33945425886344027
10
5257.5430108363998
20
-267.40969796641184
10
5265.8252062893371
20
-269.67603831875289
10
5268.0118501176194
20
-277.97963084739558
42
0.33945425886337777
10
5272.825469078718
20
-281.70630768369654
10
6344.7114715571042
20
-286.32412636822585
42
0.33945425886335684
10
6349.5570212225211
20
-282.63906243596347
10
6351.8151283825218
20
-274.35461844934247
10
6360.2112678501653
20
-272.55575710022464
42
0.33945425886337949
10
6364.1573603982051
20
-267.92030659922892
10
6372.3179616258021
20
-107.23144216329295
42
0.33945425886339409
10
6368.861784175574
20
-102.2200665859274
10
6360.6910834283181
20
-99.579856478327073
10
6369.0114341735225
20
-97.457870712526287
42
0.33945425886337599
10
6372.7754423907882
20
-92.673386426290335
10
6379.5306347546411
20
466.18173768524292
42
0.33945425886335245
10
6375.8833748296411
20
471.05580608693424
10
6367.6167468329968
20
473.37828787988434
10
6374.1568197548759
20
477.96756809405025
42
0.3639702342662503
10
6375.814191480431
20
484.17810028380597
10
6341.2382256567707
20
558.13098626374665
42
0.33945425886340064
10
6335.8356035498928
20
560.93646699174076
10
6327.3808887581336
20
559.43684773873952
10
6335.5823325409601
20
561.97995213907518
42
0.33945425886358199
10
6339.0977112203182
20
566.94997834480387
10
6337.4303648992318
20
609.81351109598995
42
0.33945425886313513
10
6333.5395351827538
20
614.49544358826358
10
6325.1653243189357
20
616.39377246451306
10
5237.3514905732291
20
676.95634096304298
10
5236.9623775833907
20
669.96716425321983
0
LWPOLYLINE
5
107
100
AcDbEntity
8
0
100
AcDbPolyline
90
53
70
1
43
0.0
10
6358.9826351714692
20
896.82212061228938
42
0.33945425886332703
10
6364.3373397478135
20
901.79124202886726
10
6365.6466026063217
20
909.50020435685565
10
6372.7744862985028
20
912.71509836409336
42
0.3394542588633328
10
6376.2291372197515
20
919.15174467758004
10
6336.5145142860192
20
1162.2908749269782
42
0.33945425886332031
10
6331.1913208297356
20
1167.2937381251465
10
6323.4109454734689
20
1168.0735000904947
10
6317.2007648481076
20
1182.9292715327927
42
0.33945425886338071
10
6310.8624770274628
20
1186.561231920143
10
6132.919418499685
20
1162.5451904035142
42
0.3152987888789735
10
6127.8599596166769
20
1157.8786686268907
10
6124.2169657224131
20
1141.18933317135
10
6125.6671536321355
20
1158.2099758586191
42
0.31529878887894142
10
6122.2121727665999
20
1164.1629294868053
10
5658.0926075336047
20
1379.304138055006
42
-0.23542209616860596
10
5654.7501508189989
20
1383.485900415659
10
5525.4570636368589
20
1984.5268827915186
10
5558.6966859991917
20
1991.6772327976119
42
0.41421356237317353
10
5563.300675238529
20
1998.8048749802742
10
5559.9779766184911
20
2014.251006604577
42
-0.25003641175525748
10
5561.5286728117553
20
2019.6817350357092
10
5669.7807936683739
20
2131.7306256275406
42
0.41421353912835845
10
5669.6345764525668
20
2140.2146467738894
10
5645.1822351539722
20
2163.8384279572024
10
5851.889479195208
20
2377.7955974688512
42
0.25974326845771645
10
5853.3902831632176
20
2383.4392990784286
10
5744.5412112712238
20
2812.6893830281797
42
0.33945425886343167
10
5738.8060124778058
20
2817.2140403138319
10
5722.7059081612015
20
2817.430672582605
10
5726.8792737461281
20
2831.3989598531607
42
0.38887873185300786
10
5723.3425150779894
20
2838.6938981425174
10
5708.9302835251419
20
2844.4102310776448
42
0.38887873185301391
10
5701.3548558497369
20
2841.5227266089223
10
5694.8193254358875
20
2828.4913463371372
10
5686.0962266461229
20
2877.4321353957207
42
0.38887873185298505
10
5679.6553136265675
20
2882.355490552186
10
5108.2418526378742
20
2831.2964142319602
42
0.4142135623730373
10
5102.7996703349581
20
2824.7862182455224
10
5107.1607262093366
20
2775.9806735639945
10
5091.6078119387421
20
2771.8132827452387
42
0.3394542588633363
10
5087.1607262093567
20
2766.0177277875036
10
5087.1607262093576
20
712.66861934048563
42
0.33945425886334396
10
5091.6078119387403
20
706.87306438275175
10
5107.1607262093366
20
702.70567356399374
10
5108.6548305385422
20
696.89467947920491
42
0.41421356237305951
10
5115.9599289525349
20
692.57778972362064
10
5519.9989750256864
20
796.46302503747597
42
0.33945425886331138
10
5524.5045626151605
20
802.21321714089231
10
5524.5838013000039
20
810.03216787854512
10
5527.5344332966251
20
802.7908944941521
42
0.3394542588633721
10
5533.8397015505861
20
799.10190804822651
10
6168.8268504733142
20
878.97748227912757
0
LWPOLYLINE
5
108
100
AcDbEntity
8
0
100
AcDbPolyline
90
30
70
1
43
0.0
10
6062.443544818163
20
3180.4624799090793
10
6053.1328886524179
20
3179.5629722680992
42
0.33945425886337277
10
6049.572187439142
20
3176.2404434982491
10
5768.7954972205489
20
1495.0955561367632
42
0.33945425886331837
10
5771.0832362800184
20
1490.7962491516216
10
5779.5962548659481
20
1486.9199175367339
10
5781.5911273709517
20
1477.7811038324446
42
0.33945425886336228
10
5785.3116352870638
20
1474.6385552802556
10
5848.6725354164464
20
1471.6657128096363
42
0.3394542588633005
10
5852.6709425295167
20
1474.4460960772572
10
5855.5127391150181
20
1483.3579771581271
10
5864.8140036728473
20
1484.3498994626407
42
0.3394542588634526
10
5868.3415351047788
20
1487.7076237743538
10
6133.242524952766
20
3176.8674443824111
42
0.35047375686194626
10
6130.7669474241775
20
3181.2048348274093
10
6122.3030932364254
20
3184.5654621368931
10
6130.2434155641113
20
3189.0243773589182
42
0.35047375686198895
10
6132.1186986709872
20
3193.6530654280682
10
5784.7470595183659
20
4360.8643458439556
42
0.33945425886348168
10
5780.8034070497451
20
4363.7218615068141
10
5771.4529277394922
20
4363.4650173877944
10
5768.1331347631076
20
4372.2100963941202
42
0.33945425886337954
10
5763.9901570648826
20
4374.7700820090658
10
5706.8523113260489
20
4368.9786400338844
42
0.33945425886339403
10
5703.3072735739097
20
4365.639403909765
10
5701.8097591236001
20
4356.406046843993
10
5693.8813995108139
20
4351.442323837693
42
0.33945425886335484
10
5692.179801174515
20
4346.879172113433
10
6049.1282624368123
20
3182.9525978455995
42
0.3394542588633932
10
6053.0955224800027
20
3180.1279494946675
0
LWPOLYLINE
5
109
100
AcDbEntity
8
0
100
AcDbPolyline
90
30
70
1
43
0.0
10
6389.968393609056
20
2799.0457761617245
10
6397.8821692258362
20
2803.5516389106297
42
0.35047375686207616
10
6399.7300065257868
20
2808.1913519712971
10
5902.3214046501189
20
4444.0452931161608
42
0.33945425886335656
10
5898.3608980069666
20
4446.8794027975709
10
5889.0121038133984
20
4446.5671859510403
10
5884.9576692715073
20
4454.9968355747469
42
0.33945425886334013
10
5880.6112198203928
20
4457.193689626708
10
5818.2806833208433
20
4445.4316457040277
42
0.33945425886326963
10
5815.0337413589432
20
4441.8018855944947
10
5814.3301598583494
20
4432.4743776044161
10
5806.4394704752931
20
4427.4509869872054
42
0.33945425886331976
10
5804.7723434201889
20
4422.8751288230078
10
6316.7866813278615
20
2797.1675905958091
42
0.33945425886340069
10
6320.7751366736275
20
2794.3729502769947
10
6330.1203694413307
20
2794.7779894731038
10
6320.8167637788283
20
2793.8082710038721
42
0.33945425886339847
10
6317.2812279077825
20
2790.4589760539943
10
6125.7938351639723
20
1588.1820309599989
42
0.33945425886339486
10
6128.1139416378492
20
1583.9001042316911
10
6136.6559597229852
20
1580.0881022293129
10
6139.4239354007204
20
1571.1530172895712
42
0.33945425886334346
10
6143.3992049353783
20
1568.3396522788532
10
6200.7870020259452
20
1570.5566233925128
42
0.33945425886338593
10
6204.5333794135613
20
1573.6682864569007
10
6206.6037846294557
20
1582.790284838557
10
6215.8990115103361
20
1583.8372755099192
42
0.33945425886331237
10
6219.4065953083809
20
1587.2158323699423
10
6400.9532241765928
20
2791.4126810472112
42
0.35047375686198012
10
6398.4520023240439
20
2795.7353340770933
0
LWPOLYLINE
5
110
100
AcDbEntity
8
0
100
AcDbPolyline
90
53
70
1
43
0.0
10
5736.4181466341834
20
2987.7072029022302
10
5752.5182509507877
20
2987.9238351710042
42
0.33945425886341868
10
5758.2534497442048
20
2992.4484924566564
10
5867.1025216361977
20
3421.6985764064075
42
0.2597432684577517
10
5865.601717668188
20
3427.3422780159849
10
5658.8944736269523
20
3641.2994475276346
10
5683.3468149255459
20
3664.9232287109476
42
0.41421353912831893
10
5683.493032141354
20
3673.4072498572955
10
5575.2409112847317
20
3785.4561404491274
42
-0.25003641175502628
10
5573.6902150914684
20
3790.8868688802595
10
5577.0129137115073
20
3806.3330005045623
42
0.41421356237312212
10
5572.4089244721708
20
3813.4606426872251
10
5539.169302109839
20
3820.6109926933182
10
5668.4623892919799
20
4421.6519750691778
42
-0.23542209616866172
10
5671.8048460065856
20
4425.8337374298308
10
6135.92441123958
20
4640.9749459980312
42
0.31529878887900609
10
6139.3793921051156
20
4646.9278996262174
10
6137.929204195394
20
4663.9485423134865
10
6141.5721980896569
20
4647.2592068579452
42
0.31529878887895618
10
6146.6316569726641
20
4642.5926850813221
10
6324.5747155004437
20
4618.5766435646938
42
0.33945425886339292
10
6330.9130033210886
20
4622.2086039520436
10
6337.123183946449
20
4637.0643753943423
10
6344.9035593027156
20
4637.8441373596897
42
0.33945425886333802
10
6350.2267527590011
20
4642.8470005578574
10
6389.9413756927333
20
4885.9861308072559
42
0.33945425886337355
10
6386.4867247714828
20
4892.4227771207425
10
6379.3588410793027
20
4895.6376711279809
10
6378.0495782207945
20
4903.3466334559689
42
0.33945425886335306
10
6372.6948736444501
20
4908.3157548725476
10
6182.5390889462942
20
4926.1603932057087
10
5547.5519400235662
20
5006.03596743661
42
0.33945425886334518
10
5541.2466717696052
20
5002.3469809906846
10
5538.2960397729839
20
4995.1057076062907
10
5538.2168010881396
20
5002.9246583439435
42
0.33945425886337194
10
5533.7112134986655
20
5008.6748504473608
10
5129.672167425515
20
5112.5600857612162
42
0.41421356237307505
10
5122.3670690115205
20
5108.2431960056319
10
5120.8729646823167
20
5102.432201920843
10
5105.3200504117212
20
5098.2648111020844
42
0.33945425886336772
10
5100.8729646823376
20
5092.4692561443508
10
5100.8729646823376
20
3039.1201476973315
42
0.33945425886332947
10
5105.3200504117231
20
3033.3245927395974
10
5120.8729646823167
20
3029.1572019208411
10
5116.5119088079382
20
2980.3516572393137
42
0.4142135623730373
10
5121.9540911108552
20
2973.8414612528754
10
5693.3675520995512
20
2922.7823849326496
42
0.38887873185301192
10
5699.8084651191057
20
2927.7057400891154
10
5708.5315639088694
20
2976.6465291476989
10
5715.0670943227205
20
2963.6151488759133
42
0.38887873185298327
10
5722.6425219981238
20
2960.7276444071922
10
5737.0547535509731
20
2966.4439773423182
42
0.38887873185300742
10
5740.5915122191109
20
2973.7389156316749
0
LWPOLYLINE
5
111
100
AcDbEntity
8
0
100
AcDbPolyline
90
40
70
1
43
0.0
10
5163.4445551004519
20
6077.9707147964118
10
5156.005595968445
20
6077.3198902039294
42
0.38855370421716368
10
5151.4413778713297
20
6072.3445639636029
42
-0.043994017956685318
10
5073.6250981547873
20
5200.912446631286
42
0.26742153665154572
10
5075.3161175006071
20
5196.2161480508757
10
5083.6965735387175
20
5189.1206278166237
10
5088.1984808695606
20
5179.1173201777556
42
0.26794919243124665
10
5092.2553175888752
20
5176.1946371924105
10
5535.9416374654447
20
5131.3592926773081
42
0.25923205663437782
10
5540.4037458760631
20
5133.280585935504
10
5547.3353655750179
20
5142.2690481301097
10
5558.6860801008797
20
5142.2361235628341
42
0.2592320566343122
10
5562.9392407488886
20
5144.5839744427476
10
5764.5579204172327
20
5466.8129477239218
42
0.38803528406380217
10
5763.3424098170826
20
5473.4476106031107
10
5757.3839099580146
20
5477.9707147964928
10
5764.7979361627622
20
5477.0338194433361
42
0.3887198028029924
10
5770.311245689807
20
5480.934860944415
42
0.052928904668098693
10
5834.2885315072108
20
6072.3296774768642
42
0.3894550716371229
10
5829.7243202422987
20
6077.3206616313255
10
5822.2941785657968
20
6077.9707147964118
10
5829.7243202423133
20
6078.6207679614981
42
0.38945507163627752
10
5834.2885315072263
20
6083.6117521159467
42
0.052928904668096306
10
5770.3112456913204
20
6675.0065686485341
42
0.38871980280328472
10
5764.7979361642847
20
6678.9076101496312
10
5757.3839099595334
20
6677.9707147964937
10
5763.342409818616
20
6682.4938189898621
42
0.38803528406345195
10
5764.5579204187816
20
6689.1284818690465
10
5562.9392407512914
20
7011.3574551507481
42
0.25923205663453547
10
5558.6860801032881
20
7013.7053060306735
10
5547.335365577419
20
7013.6723814634379
10
5540.4037458784951
20
7022.6608436580491
42
0.25923205663451265
10
5535.941637467884
20
7024.5821369162586
10
5092.2553175913627
20
6979.746792402374
42
0.26794919243108639
10
5088.1984808720399
20
6976.8241094170398
10
5083.6965735411814
20
6966.8208017782081
10
5075.4595837251318
20
6960.8865945001353
42
0.288547187392939
10
5073.4605431794707
20
6955.9484873998726
42
-0.044040989587347437
10
5151.441377871347
20
6083.5968656292334
42
0.38855370421782387
10
5156.0055959684614
20
6078.6215393888951
0
LWPOLYLINE
5
112
100
AcDbEntity
8
0
100
AcDbPolyline
90
46
70
1
43
0.0
10
5916.7112015051225
20
6985.8068740806993
10
5910.6759253247137
20
6984.1897267020604
42
0.33945425886333036
10
5907.7112015051252
20
6980.3260233969031
10
5907.7112015051243
20
6862.8068740806993
42
0.41421356237309503
10
5911.7112015051243
20
6858.8068740807003
10
5916.7112015051243
20
6858.8068740806993
10
5916.7112015051243
20
6855.8068740806993
10
5911.7112015051243
20
6855.8068740806993
42
0.41421356237301177
10
5907.7112015051252
20
6851.8068740807012
10
5907.7112015051225
20
6078.7595967485013
42
0.38887873185300587
10
5911.3625785341319
20
6074.7748179561349
10
5916.7112015051225
20
6074.3068740806993
10
5911.3625785341337
20
6073.8389302052638
42
0.38887873185300587
10
5907.7112015051243
20
6069.8541514128965
10
5907.7112015051225
20
5296.8068740806984
42
0.41421356237309503
10
5911.7112015051225
20
5292.8068740806984
10
5916.7112015051225
20
5292.8068740806984
10
5916.7112015051225
20
5289.8068740806993
10
5911.7112015051225
20
5289.8068740806993
42
0.41421356237309503
10
5907.7112015051225
20
5285.8068740806993
10
5907.7112015051225
20
5168.2877247644947
42
0.33945425886325115
10
5910.6759253247119
20
5164.4240214593392
10
5916.7112015051225
20
5162.8068740806984
10
5918.3283488837624
20
5156.7715979002887
42
0.33945425886338643
10
5922.1920521889188
20
5153.8068740806993
10
5946.8055827443022
20
5153.8068740806993
10
6399.7059581029462
20
5163.3068740806984
10
6424.1307261799702
20
5163.3068740806984
42
0.33945425886340691
10
6427.9944294851266
20
5166.2715979002878
10
6429.6115768637665
20
5172.3068740806975
10
6438.6468530441762
20
5174.727869036632
42
0.33945425886333036
10
6441.6115768637655
20
5178.5915723417884
10
6441.6115768637655
20
6069.5916854223178
42
0.38887873185300587
10
6437.9601998347562
20
6073.5764642146842
10
6429.6115768637665
20
6074.3068740806984
10
6437.9601998347562
20
6075.0372839467127
42
0.38887873185300587
10
6441.6115768637655
20
6079.022062739079
10
6441.6115768637655
20
6970.0221758196085
42
0.33945425886333036
10
6438.6468530441762
20
6973.8858791247649
10
6429.6115768637665
20
6976.3068740806993
10
6427.9944294851257
20
6982.3421502611091
42
0.33945425886338643
10
6424.1307261799702
20
6985.3068740806984
10
6399.7059581031081
20
6985.3068740806975
10
5946.8055827442222
20
6994.8068740806975
10
5922.1920521889188
20
6994.8068740806993
42
0.33945425886348346
10
5918.3283488837615
20
6991.8421502611081
0
ENDSEC
0
SECTION
2
OBJECTS
0
DICTIONARY
5
C
100
AcDbDictionary
3
ACAD_GROUP
350
D
3
ACAD_MLINESTYLE
350
17
0
DICTIONARY
5
D
100
AcDbDictionary
0
DICTIONARY
5
1A
330
C
100
AcDbDictionary
0
DICTIONARY
5
17
100
AcDbDictionary
0
ENDSEC
0
EOF
