0
SECTION
2
HEADER
9
$INSUNITS
70
4
9
$ACADVER
1
AC1014
9
$HANDSEED
5
FFFF
0
ENDSEC
0
SECTION
2
TABLES
0
TABLE
2
VPORT
5
8
100
AcDbSymbolTable
0
ENDTAB
0
TABLE
2
LTYPE
5
5
100
AcDbSymbolTable
0
LTYPE
5
14
100
AcDbSymbolTableRecord
100
AcDbLinetypeTableRecord
2
BYBLOCK
70
0
0
LTYPE
5
15
100
AcDbSymbolTableRecord
100
AcDbLinetypeTableRecord
2
BYLAYER
70
0
0
ENDTAB
0
TABLE
2
LAYER
5
2
100
AcDbSymbolTable
70
2
0
LAYER
5
50
100
AcDbSymbolTableRecord
100
AcDbLayerTableRecord
2
0
70
0
6
CONTINUOUS
0
ENDTAB
0
TABLE
2
STYLE
5
3
100
AcDbSymbolTable
70
1
0
STYLE
5
11
100
AcDbSymbolTableRecord
100
AcDbTextStyleTableRecord
2
STANDARD
70
0
0
ENDTAB
0
TABLE
2
VIEW
5
6
100
AcDbSymbolTable
70
0
0
ENDTAB
0
TABLE
2
UCS
5
7
100
AcDbSymbolTable
70
0
0
ENDTAB
0
TABLE
2
APPID
5
9
100
AcDbSymbolTable
70
2
0
APPID
5
12
100
AcDbSymbolTableRecord
100
AcDbRegAppTableRecord
2
ACAD
70
0
0
ENDTAB
0
TABLE
2
DIMSTYLE
5
A
100
AcDbSymbolTable
70
1
0
ENDTAB
0
TABLE
2
BLOCK_RECORD
5
1
100
AcDbSymbolTable
70
1
0
BLOCK_RECORD
5
1F
100
AcDbSymbolTableRecord
100
AcDbBlockTableRecord
2
*MODEL_SPACE
0
BLOCK_RECORD
5
1B
100
AcDbSymbolTableRecord
100
AcDbBlockTableRecord
2
*PAPER_SPACE
0
ENDTAB
0
ENDSEC
0
SECTION
2
BLOCKS
0
BLOCK
5
20
100
AcDbEntity
100
AcDbBlockBegin
2
*MODEL_SPACE
0
ENDBLK
5
21
100
AcDbEntity
100
AcDbBlockEnd
0
BLOCK
5
1C
100
AcDbEntity
100
AcDbBlockBegin
2
*PAPER_SPACE
0
ENDBLK
5
1D
100
AcDbEntity
100
AcDbBlockEnd
0
ENDSEC
0
SECTION
2
ENTITIES
0
LWPOLYLINE
5
100
100
AcDbEntity
8
0
100
AcDbPolyline
90
126
70
1
43
0.0
10
6482.1407499253191
20
-3790.2620978629166
42
0.3394542588509013
10
6483.6502262954418
20
-3785.6318417530047
10
6354.6809610986556
20
-3420.2971990780911
42
0.33945425887585567
10
6350.5991583722416
20
-3417.640758402913
10
6341.2732731249271
20
-3418.36553234029
10
6336.025006161608
20
-3410.6225919333865
42
0.33945425884366853
10
6331.4030906661428
20
-3409.087766957271
10
6274.3095971465937
20
-3428.891575529035
42
0.33945425888944775
10
6271.6308303080086
20
-3432.9587611387788
10
6272.3044926217681
20
-3442.2884777255645
10
6269.2208109563353
20
-3453.3673272770911
10
6298.1221574905785
20
-3461.4117141964334
42
-0.41421356673747456
10
6304.0316295284156
20
-3471.8796720863998
10
6303.7961881802676
20
-3490.3172578115218
42
-0.49218230205451396
10
6293.0176381462888
20
-3498.3974395986847
10
6259.2994003806598
20
-3489.0123214865207
10
6235.4343857522526
20
-3574.7529832340138
10
6264.33573240859
20
-3582.7973701874157
42
-0.99999999999999989
10
6257.6320766144199
20
-3606.8818257328612
10
6228.73072995846
20
-3598.8374387795948
10
6223.5018784386293
20
-3617.6233141069201
42
0.094132466563955533
10
6222.5651798272847
20
-3628.7807469331965
10
6249.4536165450963
20
-3636.2648615006074
42
-0.41421356237432794
10
6254.3202404759286
20
-3644.8855326763824
10
6259.7171666715085
20
-3666.7687040103974
42
-0.1290257958570967
10
6259.6042091021582
20
-3674.3826456800016
10
6256.9227467843575
20
-3684.0164278988195
42
-0.41421356237267393
10
6238.4498799796111
20
-3694.4449077503041
10
6233.6329888700602
20
-3693.1041765913833
42
0.41421356237330625
10
6196.6872552605264
20
-3713.9611362944024
10
6176.7103609934074
20
-3785.7328138236417
42
-0.060580859695929218
10
6178.6065331077398
20
-3786.5177520467619
10
6196.0271840792111
20
-3796.342258127499
42
-0.99999999999999989
10
6187.6763539100548
20
-3811.1498114540932
10
6170.2557029386098
20
-3801.3253053733179
42
-0.18229669277055544
10
6166.4065235826283
20
-3796.7243637163965
10
6057.8372631955081
20
-3834.6454980343005
10
6064.4321690506376
20
-3853.5268965973246
42
-0.41421356673750437
10
6059.2104096586918
20
-3864.3543261627492
10
6024.1113365929887
20
-3883.3630061443268
42
-0.040100447788865332
10
6022.6466007394729
20
-3884.0104377305952
10
6003.7648329781541
20
-3890.6054725414115
42
-0.41421356240837925
10
5991.0266806871923
20
-3884.4622261484205
10
5982.7830483164407
20
-3860.8604777938167
10
5805.7681271791807
20
-3922.6883522472726
10
5812.3630975739979
20
-3941.5699355891752
42
-0.9999999925494194
10
5796.3139086488663
20
-3947.1756054831085
10
5789.7189382958086
20
-3928.2940222607704
10
5722.6891609992535
20
-3951.7062218014007
10
5729.2841313522931
20
-3970.5878050237247
42
-0.41421356237299528
10
5724.062371918425
20
-3981.4152344700133
10
5701.4044720499933
20
-3989.3291988891224
42
-0.41421356237406048
10
5690.5770426099371
20
-3984.1074394581842
10
5683.9820722568929
20
-3965.2258562358661
10
5651.5976625289877
20
-3976.5371016723657
10
5635.3788847933538
20
-3962.7369554157813
10
5622.4181837695032
20
-3977.96916566152
42
-0.47915670680399358
10
5606.8367256229512
20
-3977.5347353612501
10
5592.4247737163114
20
-3962.2960881243011
42
-0.41421356237311446
10
5591.5729577581114
20
-3951.7237463982046
10
5604.5336590458419
20
-3936.491535842365
10
5468.586182602774
20
-3820.8172792043242
10
5452.3853063228989
20
-3839.8575420114526
42
-0.99999999999999989
10
5441.722759150909
20
-3830.7850512947243
10
5457.9236354307695
20
-3811.7447884876156
10
5411.4653941813194
20
-3772.2146503648128
10
5392.0243426448078
20
-3795.0629657340619
42
-0.99999999999999989
10
5376.7921323991332
20
-3782.1022647101381
10
5396.2331839356202
20
-3759.2539493409149
10
5309.4095855349851
20
-3685.3779535048848
10
5284.7842535895734
20
-3714.3191529717228
42
-0.99999999999999989
10
5274.1217064175835
20
-3705.2466622549946
10
5298.7470383629807
20
-3676.3054627881752
10
5286.5612701664031
20
-3665.9369019690803
10
5279.5857675143889
20
-3647.3643541152151
10
5233.6968481100921
20
-3664.5993765528456
42
-0.99999998946328783
10
5228.4228402720464
20
-3650.5571245495416
10
5274.3117595283866
20
-3633.3221021674817
10
5261.9418643146
20
-3600.3867737379283
10
5243.2116933375219
20
-3607.4214766954437
42
-1.0000000105367122
10
5237.9376852035639
20
-3593.3792248032814
10
5256.6678563285986
20
-3586.3445217901963
10
5240.8532009543933
20
-3544.2373850887316
10
5240.683609775092
20
-3536.2391828679079
42
0.41421356237305257
10
5236.5997130729029
20
-3532.3248773451069
10
5170.2714760775962
20
-3533.7312788866475
42
0.19891236738652743
10
5167.4685206154318
20
-3534.9625480204113
10
5156.8720775925867
20
-3546.0180924755268
10
5163.2861765694088
20
-3532.1123741479164
42
0.19891236735467122
10
5163.4069996297321
20
-3529.0532918038216
10
5163.3867812565722
20
-3528.9984527056649
42
0.3394542588866804
10
5159.2685450708259
20
-3526.3988524906881
10
5149.9536034063658
20
-3527.2528396145981
10
5144.0910051250812
20
-3519.9639869161565
42
0.3394542588721019
10
5139.3592597580955
20
-3518.81143481768
10
5132.1036669011664
20
-3522.013128713982
42
0.3394542588548769
10
5129.7657212456479
20
-3526.2853413336452
10
5131.1984539400655
20
-3535.528972074665
10
5123.6744374731734
20
-3541.0865442406107
42
0.33945425886175662
10
5122.3280730995266
20
-3545.7668320020543
10
5181.3646885587195
20
-3696.0150192614537
42
0.33945425886493596
10
5185.537034640447
20
-3698.5268549907933
10
5194.8318101241784
20
-3697.4758645449469
10
5187.02858180365
20
-3702.6340677191388
42
0.33945425886269232
10
5185.4403092603261
20
-3707.237890140213
10
5362.0175612080438
20
-4236.0118089646512
42
0.2679491924317069
10
5365.0118144113749
20
-4238.664062299913
10
5376.3256453622953
20
-4240.972863405621
10
5365.8663407265867
20
-4245.8653351734611
42
0.2679491924074639
10
5363.5759503046556
20
-4249.1446814059718
10
5356.7435869821547
20
-4328.3281594693435
42
0.33945425888785952
10
5359.3651893382612
20
-4332.4324245248554
10
5368.1588949907027
20
-4335.6211818627398
10
5360.4068609375872
20
-4340.8560440321689
42
0.33945425886331204
10
5358.8640345567765
20
-4345.4752947631187
10
5374.3299665984141
20
-4390.3135160770044
42
0.33945425886354313
10
5378.3925073269056
20
-4392.9993219869848
10
5387.7233968326127
20
-4392.3418153895072
10
6058.4702814300454
20
-4068.1140917093176
10
6083.133992197394
20
-4046.7797614575197
10
6126.9985910878722
20
-4107.614759313833
10
6134.8373243385122
20
-4112.7188452336268
42
0.33945425886307484
10
6139.6928636320763
20
-4112.3426421962367
10
6477.7698607455923
20
-3808.6798071271505
42
0.33945425886360225
10
6478.6631825592658
20
-3803.8923478120273
10
6474.4266833861948
20
-3795.5527131083572
0
LWPOLYLINE
5
101
100
AcDbEntity
8
0
100
AcDbPolyline
90
126
70
1
43
0.0
10
6350.0225416663779
20
-3986.7856554297919
10
6340.9984222705152
20
-3989.2479107677423
42
0.33945425888672892
10
6338.051384150177
20
-3993.1251207022938
10
6338.0516512192835
20
-3993.1835675839397
42
0.19891236735459664
10
6339.2361360364885
20
-3996.006611812722
10
6350.1139293672095
20
-4006.785446635904
10
6336.3168026107323
20
-4000.1409781694947
42
0.19891236738648232
10
6333.2601526426615
20
-3999.9692983066088
10
6270.6398054864176
20
-4021.880599277416
42
0.41421356237313434
10
6268.1853517083027
20
-4026.9772311702541
10
6270.8275298216495
20
-4034.5283168372716
10
6270.7606120266355
20
-4079.5073097985346
10
6290.7682473394689
20
-4079.5370762902735
42
-0.99999999999999989
10
6290.7459310147115
20
-4094.5370596896519
10
6270.7382957018763
20
-4094.507293197913
10
6270.6859539914403
20
-4129.6889279909128
10
6319.7046605078831
20
-4129.7618558956738
42
-0.99999999999999989
10
6319.6823441831257
20
-4144.7618392950526
10
6270.6636376666802
20
-4144.6889113902926
10
6270.6341216737273
20
-4164.5281729652233
10
6262.8511980312396
20
-4178.5076614957543
10
6296.0524832912952
20
-4196.9921051465763
42
-0.99999999999999989
10
6289.2424251041493
20
-4209.2241576108072
10
6256.0411398440938
20
-4190.7397139599843
10
6200.5878088914096
20
-4290.3435697400291
10
6226.7993498870273
20
-4304.9365515700338
42
-0.99999999999999989
10
6217.0706953339923
20
-4322.4109122332375
10
6190.8591543383764
20
-4307.8179304032337
10
6161.1867579513864
20
-4361.1147304258757
10
6183.0297087803719
20
-4373.2755486172055
42
-0.99999999999999989
10
6176.2196505932261
20
-4385.5076010814364
10
6154.3766997642415
20
-4373.3467828901048
10
6067.5484578778596
20
-4529.3054518088984
10
6085.0228188967867
20
-4539.0341065600651
42
-0.4142135623729139
10
6087.9274586880583
20
-4549.2352372661671
10
6079.7648708871129
20
-4568.5560262708423
42
-0.47915670680409189
10
6065.3222930710945
20
-4574.4196867049841
10
6047.8479324079381
20
-4564.6910321518653
10
6037.4891674408827
20
-4583.2971810359941
10
6003.1943098404317
20
-4584.0435113342992
10
6003.6294543361382
20
-4604.0389725244531
42
-0.41421395918352494
10
5995.3163894814516
20
-4612.7218953228739
10
5971.3218475663316
20
-4613.2440684720259
42
-0.41421356237309548
10
5962.6389250135107
20
-4604.9310151255322
10
5962.2037805178124
20
-4584.9355539353783
10
5891.219727181965
20
-4586.4803205099397
10
5891.6548716804227
20
-4606.4757818267526
42
-0.9999999925494194
10
5874.6588957749873
20
-4606.84565090658
10
5874.2237512792854
20
-4586.850189716396
10
5686.7662195668327
20
-4590.9296711708575
10
5687.3101448711714
20
-4615.9237533768637
42
-0.41421356240829982
10
5677.5300821095379
20
-4626.1389563807807
10
5657.5344254932534
20
-4626.5741051275945
42
-0.040100447788267622
10
5655.9357128342999
20
-4626.4806352737924
10
5616.4024071877075
20
-4620.9676878437149
42
-0.41421356237307377
10
5607.719484635204
20
-4612.6546344975823
10
5607.2843443923866
20
-4592.659368733699
10
5492.3102764366422
20
-4595.1614531987925
42
-0.18229669277075825
10
5490.3161409114655
20
-4600.8190383154451
10
5477.4393161746048
20
-4616.1222204909409
42
-0.99999999999999989
10
5464.4316113246896
20
-4605.1769194640101
10
5477.3084360615439
20
-4589.8737372885244
42
-0.060580859696044771
10
5478.8096365875008
20
-4588.4744540140673
10
5434.9628640638202
20
-4528.2439755237101
42
0.41421356237331375
10
5393.0525616417626
20
-4521.6465100337227
10
5389.0102476489574
20
-4524.5892464448398
42
-0.41421356237264212
10
5368.0550964379363
20
-4521.2905136998588
10
5362.1696236158723
20
-4513.2058857144702
42
-0.12902579585744658
10
5359.3973608289234
20
-4506.11367687655
10
5356.7888633771909
20
-4483.7262754856265
42
-0.41421356237420037
10
5358.3282719915715
20
-4473.9472049202041
10
5380.8929307138424
20
-4457.5205139346581
42
0.094132466563884895
10
5376.1081358432166
20
-4447.3976956705865
10
5364.6314638400609
20
-4431.6326710983831
10
5340.3775798840115
20
-4449.2890895645533
42
-0.99999999999999989
10
5325.663897829847
20
-4429.0775196023706
10
5349.9177817857981
20
-4411.4211011362349
10
5297.537073669333
20
-4339.4679120663277
10
5269.2408757206613
20
-4360.0670669433994
42
-0.49218230205432906
10
5256.3151683596288
20
-4356.2733131604655
10
5249.6376583830788
20
-4339.085792672834
42
-0.41421356237312962
10
5251.50694027188
20
-4327.211206986628
10
5275.7608242278739
20
-4309.5547885205515
10
5268.9925304825611
20
-4300.2574663374598
10
5266.3561956230533
20
-4291.2826587622922
42
0.33945425888946557
10
5262.4227108023861
20
-4288.4111630326797
10
5202.0093832967086
20
-4289.8560491547451
42
0.33945425884342567
10
5198.2176706266291
20
-4292.912305947304
10
5196.0133998034853
20
-4302.0028847188341
10
5187.0242812695906
20
-4304.5900029785917
42
0.33945425887582109
10
5184.1312753060856
20
-4308.5076945250521
10
5191.2722398229998
20
-4695.8724827151691
42
0.33945425885095754
10
5194.3076742260346
20
-4699.6808850757679
10
5203.3860383296005
20
-4701.9349341986572
10
5202.3384290046442
20
-4711.230091375186
42
0.33945425886355618
10
5204.8517822931981
20
-4715.4015234798298
10
5627.8640695694094
20
-4881.4369961741768
42
0.33945425886313535
10
5632.5438672700402
20
-4880.08892939621
10
5638.0987021411556
20
-4872.5628918195061
10
5657.8805867262181
20
-4800.2187348870793
10
5688.4538386140666
20
-4811.5645951502047
10
6430.270733483243
20
-4880.3591769619388
10
6439.2409818478518
20
-4877.7072987274287
42
0.33945425886356223
10
6442.1056617116137
20
-4873.7688472760474
10
6440.8894940691534
20
-4826.3538487969263
42
0.33945425886348524
10
6437.8266758035425
20
-4822.5674342886396
10
6428.7322737242721
20
-4820.378904025165
10
6435.8523668925791
20
-4814.3124630803977
42
0.3394542588877893
10
6436.8706049937264
20
-4809.5500076497601
10
6402.7402817911097
20
-4737.7737899668264
42
0.26794919240756837
10
6399.4464855240331
20
-4735.5042291836426
10
6387.9361660271861
20
-4734.5845126282902
10
6397.7249576436916
20
-4728.4597357327348
42
0.2679491924317195
10
6399.6007526518442
20
-4724.9268342215883
10
6379.8152244153625
20
-4167.8003530642427
42
0.3394542588627279
10
6376.7152411012185
20
-4164.044305406308
10
6367.5997333213854
20
-4161.9455081020515
10
6376.6739556340735
20
-4159.6748426422901
42
0.33945425886497665
10
6379.7024127598206
20
-4155.8608895756661
10
6382.3823444087011
20
-3994.4525325864161
42
0.33945425886178054
10
6379.4821710228352
20
-3990.5401439441075
10
6370.4883312524562
20
-3987.9694867599487
10
6368.5931444068001
20
-3978.8094813521966
42
0.33945425885473252
10
6364.9070953375885
20
-3975.626584430348
10
6356.9897264569754
20
-3975.1686089731061
42
0.33945425887215563
10
6352.9612644172867
20
-3977.905264624168
0
ENDSEC
0
SECTION
2
OBJECTS
0
DICTIONARY
5
C
100
AcDbDictionary
3
ACAD_GROUP
350
D
3
ACAD_MLINESTYLE
350
17
0
DICTIONARY
5
D
100
AcDbDictionary
0
DICTIONARY
5
1A
330
C
100
AcDbDictionary
0
DICTIONARY
5
17
100
AcDbDictionary
0
ENDSEC
0
EOF
